G04 EAGLE Gerber RS-274X export*
G75*
%MOMM*%
%FSLAX34Y34*%
%LPD*%
%INBottom Copper*%
%IPPOS*%
%AMOC8*
5,1,8,0,0,1.08239X$1,22.5*%
G01*
%ADD10R,1.270000X2.540000*%
%ADD11R,1.498600X1.498600*%
%ADD12C,1.498600*%
%ADD13C,0.070000*%
%ADD14R,2.540000X1.270000*%
%ADD15R,0.900000X0.700000*%
%ADD16R,0.300000X1.500000*%
%ADD17R,1.200000X3.500000*%
%ADD18C,0.914400*%
%ADD19C,0.203200*%
%ADD20C,0.254000*%
%ADD21C,0.508000*%


D10*
X151130Y600710D03*
X760730Y613410D03*
D11*
X-58420Y1229360D03*
D12*
X-58420Y1203960D03*
X-58420Y1178560D03*
X-58420Y1153160D03*
X-58420Y1127760D03*
X-58420Y1102360D03*
X-58420Y1076960D03*
X17780Y1076960D03*
X17780Y1102360D03*
X17780Y1127760D03*
X17780Y1153160D03*
X17780Y1178560D03*
X17780Y1203960D03*
X17780Y1229360D03*
D11*
X182880Y1242060D03*
D12*
X182880Y1216660D03*
X182880Y1191260D03*
X182880Y1165860D03*
X182880Y1140460D03*
X182880Y1115060D03*
X182880Y1089660D03*
X259080Y1089660D03*
X259080Y1115060D03*
X259080Y1140460D03*
X259080Y1165860D03*
X259080Y1191260D03*
X259080Y1216660D03*
X259080Y1242060D03*
D11*
X449580Y1242060D03*
D12*
X449580Y1216660D03*
X449580Y1191260D03*
X449580Y1165860D03*
X449580Y1140460D03*
X449580Y1115060D03*
X449580Y1089660D03*
X525780Y1089660D03*
X525780Y1115060D03*
X525780Y1140460D03*
X525780Y1165860D03*
X525780Y1191260D03*
X525780Y1216660D03*
X525780Y1242060D03*
D11*
X728980Y1267460D03*
D12*
X728980Y1242060D03*
X728980Y1216660D03*
X728980Y1191260D03*
X728980Y1165860D03*
X728980Y1140460D03*
X728980Y1115060D03*
X805180Y1115060D03*
X805180Y1140460D03*
X805180Y1165860D03*
X805180Y1191260D03*
X805180Y1216660D03*
X805180Y1242060D03*
X805180Y1267460D03*
D13*
X344550Y1817900D02*
X344550Y1831900D01*
X346650Y1831900D01*
X346650Y1817900D01*
X344550Y1817900D01*
X344550Y1818565D02*
X346650Y1818565D01*
X346650Y1819230D02*
X344550Y1819230D01*
X344550Y1819895D02*
X346650Y1819895D01*
X346650Y1820560D02*
X344550Y1820560D01*
X344550Y1821225D02*
X346650Y1821225D01*
X346650Y1821890D02*
X344550Y1821890D01*
X344550Y1822555D02*
X346650Y1822555D01*
X346650Y1823220D02*
X344550Y1823220D01*
X344550Y1823885D02*
X346650Y1823885D01*
X346650Y1824550D02*
X344550Y1824550D01*
X344550Y1825215D02*
X346650Y1825215D01*
X346650Y1825880D02*
X344550Y1825880D01*
X344550Y1826545D02*
X346650Y1826545D01*
X346650Y1827210D02*
X344550Y1827210D01*
X344550Y1827875D02*
X346650Y1827875D01*
X346650Y1828540D02*
X344550Y1828540D01*
X344550Y1829205D02*
X346650Y1829205D01*
X346650Y1829870D02*
X344550Y1829870D01*
X344550Y1830535D02*
X346650Y1830535D01*
X346650Y1831200D02*
X344550Y1831200D01*
X344550Y1831865D02*
X346650Y1831865D01*
X349550Y1831900D02*
X349550Y1817900D01*
X349550Y1831900D02*
X351650Y1831900D01*
X351650Y1817900D01*
X349550Y1817900D01*
X349550Y1818565D02*
X351650Y1818565D01*
X351650Y1819230D02*
X349550Y1819230D01*
X349550Y1819895D02*
X351650Y1819895D01*
X351650Y1820560D02*
X349550Y1820560D01*
X349550Y1821225D02*
X351650Y1821225D01*
X351650Y1821890D02*
X349550Y1821890D01*
X349550Y1822555D02*
X351650Y1822555D01*
X351650Y1823220D02*
X349550Y1823220D01*
X349550Y1823885D02*
X351650Y1823885D01*
X351650Y1824550D02*
X349550Y1824550D01*
X349550Y1825215D02*
X351650Y1825215D01*
X351650Y1825880D02*
X349550Y1825880D01*
X349550Y1826545D02*
X351650Y1826545D01*
X351650Y1827210D02*
X349550Y1827210D01*
X349550Y1827875D02*
X351650Y1827875D01*
X351650Y1828540D02*
X349550Y1828540D01*
X349550Y1829205D02*
X351650Y1829205D01*
X351650Y1829870D02*
X349550Y1829870D01*
X349550Y1830535D02*
X351650Y1830535D01*
X351650Y1831200D02*
X349550Y1831200D01*
X349550Y1831865D02*
X351650Y1831865D01*
X354550Y1831900D02*
X354550Y1817900D01*
X354550Y1831900D02*
X356650Y1831900D01*
X356650Y1817900D01*
X354550Y1817900D01*
X354550Y1818565D02*
X356650Y1818565D01*
X356650Y1819230D02*
X354550Y1819230D01*
X354550Y1819895D02*
X356650Y1819895D01*
X356650Y1820560D02*
X354550Y1820560D01*
X354550Y1821225D02*
X356650Y1821225D01*
X356650Y1821890D02*
X354550Y1821890D01*
X354550Y1822555D02*
X356650Y1822555D01*
X356650Y1823220D02*
X354550Y1823220D01*
X354550Y1823885D02*
X356650Y1823885D01*
X356650Y1824550D02*
X354550Y1824550D01*
X354550Y1825215D02*
X356650Y1825215D01*
X356650Y1825880D02*
X354550Y1825880D01*
X354550Y1826545D02*
X356650Y1826545D01*
X356650Y1827210D02*
X354550Y1827210D01*
X354550Y1827875D02*
X356650Y1827875D01*
X356650Y1828540D02*
X354550Y1828540D01*
X354550Y1829205D02*
X356650Y1829205D01*
X356650Y1829870D02*
X354550Y1829870D01*
X354550Y1830535D02*
X356650Y1830535D01*
X356650Y1831200D02*
X354550Y1831200D01*
X354550Y1831865D02*
X356650Y1831865D01*
X359550Y1831900D02*
X359550Y1817900D01*
X359550Y1831900D02*
X361650Y1831900D01*
X361650Y1817900D01*
X359550Y1817900D01*
X359550Y1818565D02*
X361650Y1818565D01*
X361650Y1819230D02*
X359550Y1819230D01*
X359550Y1819895D02*
X361650Y1819895D01*
X361650Y1820560D02*
X359550Y1820560D01*
X359550Y1821225D02*
X361650Y1821225D01*
X361650Y1821890D02*
X359550Y1821890D01*
X359550Y1822555D02*
X361650Y1822555D01*
X361650Y1823220D02*
X359550Y1823220D01*
X359550Y1823885D02*
X361650Y1823885D01*
X361650Y1824550D02*
X359550Y1824550D01*
X359550Y1825215D02*
X361650Y1825215D01*
X361650Y1825880D02*
X359550Y1825880D01*
X359550Y1826545D02*
X361650Y1826545D01*
X361650Y1827210D02*
X359550Y1827210D01*
X359550Y1827875D02*
X361650Y1827875D01*
X361650Y1828540D02*
X359550Y1828540D01*
X359550Y1829205D02*
X361650Y1829205D01*
X361650Y1829870D02*
X359550Y1829870D01*
X359550Y1830535D02*
X361650Y1830535D01*
X361650Y1831200D02*
X359550Y1831200D01*
X359550Y1831865D02*
X361650Y1831865D01*
X364550Y1831900D02*
X364550Y1817900D01*
X364550Y1831900D02*
X366650Y1831900D01*
X366650Y1817900D01*
X364550Y1817900D01*
X364550Y1818565D02*
X366650Y1818565D01*
X366650Y1819230D02*
X364550Y1819230D01*
X364550Y1819895D02*
X366650Y1819895D01*
X366650Y1820560D02*
X364550Y1820560D01*
X364550Y1821225D02*
X366650Y1821225D01*
X366650Y1821890D02*
X364550Y1821890D01*
X364550Y1822555D02*
X366650Y1822555D01*
X366650Y1823220D02*
X364550Y1823220D01*
X364550Y1823885D02*
X366650Y1823885D01*
X366650Y1824550D02*
X364550Y1824550D01*
X364550Y1825215D02*
X366650Y1825215D01*
X366650Y1825880D02*
X364550Y1825880D01*
X364550Y1826545D02*
X366650Y1826545D01*
X366650Y1827210D02*
X364550Y1827210D01*
X364550Y1827875D02*
X366650Y1827875D01*
X366650Y1828540D02*
X364550Y1828540D01*
X364550Y1829205D02*
X366650Y1829205D01*
X366650Y1829870D02*
X364550Y1829870D01*
X364550Y1830535D02*
X366650Y1830535D01*
X366650Y1831200D02*
X364550Y1831200D01*
X364550Y1831865D02*
X366650Y1831865D01*
X364550Y1788900D02*
X364550Y1774900D01*
X364550Y1788900D02*
X366650Y1788900D01*
X366650Y1774900D01*
X364550Y1774900D01*
X364550Y1775565D02*
X366650Y1775565D01*
X366650Y1776230D02*
X364550Y1776230D01*
X364550Y1776895D02*
X366650Y1776895D01*
X366650Y1777560D02*
X364550Y1777560D01*
X364550Y1778225D02*
X366650Y1778225D01*
X366650Y1778890D02*
X364550Y1778890D01*
X364550Y1779555D02*
X366650Y1779555D01*
X366650Y1780220D02*
X364550Y1780220D01*
X364550Y1780885D02*
X366650Y1780885D01*
X366650Y1781550D02*
X364550Y1781550D01*
X364550Y1782215D02*
X366650Y1782215D01*
X366650Y1782880D02*
X364550Y1782880D01*
X364550Y1783545D02*
X366650Y1783545D01*
X366650Y1784210D02*
X364550Y1784210D01*
X364550Y1784875D02*
X366650Y1784875D01*
X366650Y1785540D02*
X364550Y1785540D01*
X364550Y1786205D02*
X366650Y1786205D01*
X366650Y1786870D02*
X364550Y1786870D01*
X364550Y1787535D02*
X366650Y1787535D01*
X366650Y1788200D02*
X364550Y1788200D01*
X364550Y1788865D02*
X366650Y1788865D01*
X359550Y1788900D02*
X359550Y1774900D01*
X359550Y1788900D02*
X361650Y1788900D01*
X361650Y1774900D01*
X359550Y1774900D01*
X359550Y1775565D02*
X361650Y1775565D01*
X361650Y1776230D02*
X359550Y1776230D01*
X359550Y1776895D02*
X361650Y1776895D01*
X361650Y1777560D02*
X359550Y1777560D01*
X359550Y1778225D02*
X361650Y1778225D01*
X361650Y1778890D02*
X359550Y1778890D01*
X359550Y1779555D02*
X361650Y1779555D01*
X361650Y1780220D02*
X359550Y1780220D01*
X359550Y1780885D02*
X361650Y1780885D01*
X361650Y1781550D02*
X359550Y1781550D01*
X359550Y1782215D02*
X361650Y1782215D01*
X361650Y1782880D02*
X359550Y1782880D01*
X359550Y1783545D02*
X361650Y1783545D01*
X361650Y1784210D02*
X359550Y1784210D01*
X359550Y1784875D02*
X361650Y1784875D01*
X361650Y1785540D02*
X359550Y1785540D01*
X359550Y1786205D02*
X361650Y1786205D01*
X361650Y1786870D02*
X359550Y1786870D01*
X359550Y1787535D02*
X361650Y1787535D01*
X361650Y1788200D02*
X359550Y1788200D01*
X359550Y1788865D02*
X361650Y1788865D01*
X354550Y1788900D02*
X354550Y1774900D01*
X354550Y1788900D02*
X356650Y1788900D01*
X356650Y1774900D01*
X354550Y1774900D01*
X354550Y1775565D02*
X356650Y1775565D01*
X356650Y1776230D02*
X354550Y1776230D01*
X354550Y1776895D02*
X356650Y1776895D01*
X356650Y1777560D02*
X354550Y1777560D01*
X354550Y1778225D02*
X356650Y1778225D01*
X356650Y1778890D02*
X354550Y1778890D01*
X354550Y1779555D02*
X356650Y1779555D01*
X356650Y1780220D02*
X354550Y1780220D01*
X354550Y1780885D02*
X356650Y1780885D01*
X356650Y1781550D02*
X354550Y1781550D01*
X354550Y1782215D02*
X356650Y1782215D01*
X356650Y1782880D02*
X354550Y1782880D01*
X354550Y1783545D02*
X356650Y1783545D01*
X356650Y1784210D02*
X354550Y1784210D01*
X354550Y1784875D02*
X356650Y1784875D01*
X356650Y1785540D02*
X354550Y1785540D01*
X354550Y1786205D02*
X356650Y1786205D01*
X356650Y1786870D02*
X354550Y1786870D01*
X354550Y1787535D02*
X356650Y1787535D01*
X356650Y1788200D02*
X354550Y1788200D01*
X354550Y1788865D02*
X356650Y1788865D01*
X349550Y1788900D02*
X349550Y1774900D01*
X349550Y1788900D02*
X351650Y1788900D01*
X351650Y1774900D01*
X349550Y1774900D01*
X349550Y1775565D02*
X351650Y1775565D01*
X351650Y1776230D02*
X349550Y1776230D01*
X349550Y1776895D02*
X351650Y1776895D01*
X351650Y1777560D02*
X349550Y1777560D01*
X349550Y1778225D02*
X351650Y1778225D01*
X351650Y1778890D02*
X349550Y1778890D01*
X349550Y1779555D02*
X351650Y1779555D01*
X351650Y1780220D02*
X349550Y1780220D01*
X349550Y1780885D02*
X351650Y1780885D01*
X351650Y1781550D02*
X349550Y1781550D01*
X349550Y1782215D02*
X351650Y1782215D01*
X351650Y1782880D02*
X349550Y1782880D01*
X349550Y1783545D02*
X351650Y1783545D01*
X351650Y1784210D02*
X349550Y1784210D01*
X349550Y1784875D02*
X351650Y1784875D01*
X351650Y1785540D02*
X349550Y1785540D01*
X349550Y1786205D02*
X351650Y1786205D01*
X351650Y1786870D02*
X349550Y1786870D01*
X349550Y1787535D02*
X351650Y1787535D01*
X351650Y1788200D02*
X349550Y1788200D01*
X349550Y1788865D02*
X351650Y1788865D01*
X344550Y1788900D02*
X344550Y1774900D01*
X344550Y1788900D02*
X346650Y1788900D01*
X346650Y1774900D01*
X344550Y1774900D01*
X344550Y1775565D02*
X346650Y1775565D01*
X346650Y1776230D02*
X344550Y1776230D01*
X344550Y1776895D02*
X346650Y1776895D01*
X346650Y1777560D02*
X344550Y1777560D01*
X344550Y1778225D02*
X346650Y1778225D01*
X346650Y1778890D02*
X344550Y1778890D01*
X344550Y1779555D02*
X346650Y1779555D01*
X346650Y1780220D02*
X344550Y1780220D01*
X344550Y1780885D02*
X346650Y1780885D01*
X346650Y1781550D02*
X344550Y1781550D01*
X344550Y1782215D02*
X346650Y1782215D01*
X346650Y1782880D02*
X344550Y1782880D01*
X344550Y1783545D02*
X346650Y1783545D01*
X346650Y1784210D02*
X344550Y1784210D01*
X344550Y1784875D02*
X346650Y1784875D01*
X346650Y1785540D02*
X344550Y1785540D01*
X344550Y1786205D02*
X346650Y1786205D01*
X346650Y1786870D02*
X344550Y1786870D01*
X344550Y1787535D02*
X346650Y1787535D01*
X346650Y1788200D02*
X344550Y1788200D01*
X344550Y1788865D02*
X346650Y1788865D01*
X433450Y1817900D02*
X433450Y1831900D01*
X435550Y1831900D01*
X435550Y1817900D01*
X433450Y1817900D01*
X433450Y1818565D02*
X435550Y1818565D01*
X435550Y1819230D02*
X433450Y1819230D01*
X433450Y1819895D02*
X435550Y1819895D01*
X435550Y1820560D02*
X433450Y1820560D01*
X433450Y1821225D02*
X435550Y1821225D01*
X435550Y1821890D02*
X433450Y1821890D01*
X433450Y1822555D02*
X435550Y1822555D01*
X435550Y1823220D02*
X433450Y1823220D01*
X433450Y1823885D02*
X435550Y1823885D01*
X435550Y1824550D02*
X433450Y1824550D01*
X433450Y1825215D02*
X435550Y1825215D01*
X435550Y1825880D02*
X433450Y1825880D01*
X433450Y1826545D02*
X435550Y1826545D01*
X435550Y1827210D02*
X433450Y1827210D01*
X433450Y1827875D02*
X435550Y1827875D01*
X435550Y1828540D02*
X433450Y1828540D01*
X433450Y1829205D02*
X435550Y1829205D01*
X435550Y1829870D02*
X433450Y1829870D01*
X433450Y1830535D02*
X435550Y1830535D01*
X435550Y1831200D02*
X433450Y1831200D01*
X433450Y1831865D02*
X435550Y1831865D01*
X438450Y1831900D02*
X438450Y1817900D01*
X438450Y1831900D02*
X440550Y1831900D01*
X440550Y1817900D01*
X438450Y1817900D01*
X438450Y1818565D02*
X440550Y1818565D01*
X440550Y1819230D02*
X438450Y1819230D01*
X438450Y1819895D02*
X440550Y1819895D01*
X440550Y1820560D02*
X438450Y1820560D01*
X438450Y1821225D02*
X440550Y1821225D01*
X440550Y1821890D02*
X438450Y1821890D01*
X438450Y1822555D02*
X440550Y1822555D01*
X440550Y1823220D02*
X438450Y1823220D01*
X438450Y1823885D02*
X440550Y1823885D01*
X440550Y1824550D02*
X438450Y1824550D01*
X438450Y1825215D02*
X440550Y1825215D01*
X440550Y1825880D02*
X438450Y1825880D01*
X438450Y1826545D02*
X440550Y1826545D01*
X440550Y1827210D02*
X438450Y1827210D01*
X438450Y1827875D02*
X440550Y1827875D01*
X440550Y1828540D02*
X438450Y1828540D01*
X438450Y1829205D02*
X440550Y1829205D01*
X440550Y1829870D02*
X438450Y1829870D01*
X438450Y1830535D02*
X440550Y1830535D01*
X440550Y1831200D02*
X438450Y1831200D01*
X438450Y1831865D02*
X440550Y1831865D01*
X443450Y1831900D02*
X443450Y1817900D01*
X443450Y1831900D02*
X445550Y1831900D01*
X445550Y1817900D01*
X443450Y1817900D01*
X443450Y1818565D02*
X445550Y1818565D01*
X445550Y1819230D02*
X443450Y1819230D01*
X443450Y1819895D02*
X445550Y1819895D01*
X445550Y1820560D02*
X443450Y1820560D01*
X443450Y1821225D02*
X445550Y1821225D01*
X445550Y1821890D02*
X443450Y1821890D01*
X443450Y1822555D02*
X445550Y1822555D01*
X445550Y1823220D02*
X443450Y1823220D01*
X443450Y1823885D02*
X445550Y1823885D01*
X445550Y1824550D02*
X443450Y1824550D01*
X443450Y1825215D02*
X445550Y1825215D01*
X445550Y1825880D02*
X443450Y1825880D01*
X443450Y1826545D02*
X445550Y1826545D01*
X445550Y1827210D02*
X443450Y1827210D01*
X443450Y1827875D02*
X445550Y1827875D01*
X445550Y1828540D02*
X443450Y1828540D01*
X443450Y1829205D02*
X445550Y1829205D01*
X445550Y1829870D02*
X443450Y1829870D01*
X443450Y1830535D02*
X445550Y1830535D01*
X445550Y1831200D02*
X443450Y1831200D01*
X443450Y1831865D02*
X445550Y1831865D01*
X448450Y1831900D02*
X448450Y1817900D01*
X448450Y1831900D02*
X450550Y1831900D01*
X450550Y1817900D01*
X448450Y1817900D01*
X448450Y1818565D02*
X450550Y1818565D01*
X450550Y1819230D02*
X448450Y1819230D01*
X448450Y1819895D02*
X450550Y1819895D01*
X450550Y1820560D02*
X448450Y1820560D01*
X448450Y1821225D02*
X450550Y1821225D01*
X450550Y1821890D02*
X448450Y1821890D01*
X448450Y1822555D02*
X450550Y1822555D01*
X450550Y1823220D02*
X448450Y1823220D01*
X448450Y1823885D02*
X450550Y1823885D01*
X450550Y1824550D02*
X448450Y1824550D01*
X448450Y1825215D02*
X450550Y1825215D01*
X450550Y1825880D02*
X448450Y1825880D01*
X448450Y1826545D02*
X450550Y1826545D01*
X450550Y1827210D02*
X448450Y1827210D01*
X448450Y1827875D02*
X450550Y1827875D01*
X450550Y1828540D02*
X448450Y1828540D01*
X448450Y1829205D02*
X450550Y1829205D01*
X450550Y1829870D02*
X448450Y1829870D01*
X448450Y1830535D02*
X450550Y1830535D01*
X450550Y1831200D02*
X448450Y1831200D01*
X448450Y1831865D02*
X450550Y1831865D01*
X453450Y1831900D02*
X453450Y1817900D01*
X453450Y1831900D02*
X455550Y1831900D01*
X455550Y1817900D01*
X453450Y1817900D01*
X453450Y1818565D02*
X455550Y1818565D01*
X455550Y1819230D02*
X453450Y1819230D01*
X453450Y1819895D02*
X455550Y1819895D01*
X455550Y1820560D02*
X453450Y1820560D01*
X453450Y1821225D02*
X455550Y1821225D01*
X455550Y1821890D02*
X453450Y1821890D01*
X453450Y1822555D02*
X455550Y1822555D01*
X455550Y1823220D02*
X453450Y1823220D01*
X453450Y1823885D02*
X455550Y1823885D01*
X455550Y1824550D02*
X453450Y1824550D01*
X453450Y1825215D02*
X455550Y1825215D01*
X455550Y1825880D02*
X453450Y1825880D01*
X453450Y1826545D02*
X455550Y1826545D01*
X455550Y1827210D02*
X453450Y1827210D01*
X453450Y1827875D02*
X455550Y1827875D01*
X455550Y1828540D02*
X453450Y1828540D01*
X453450Y1829205D02*
X455550Y1829205D01*
X455550Y1829870D02*
X453450Y1829870D01*
X453450Y1830535D02*
X455550Y1830535D01*
X455550Y1831200D02*
X453450Y1831200D01*
X453450Y1831865D02*
X455550Y1831865D01*
X453450Y1788900D02*
X453450Y1774900D01*
X453450Y1788900D02*
X455550Y1788900D01*
X455550Y1774900D01*
X453450Y1774900D01*
X453450Y1775565D02*
X455550Y1775565D01*
X455550Y1776230D02*
X453450Y1776230D01*
X453450Y1776895D02*
X455550Y1776895D01*
X455550Y1777560D02*
X453450Y1777560D01*
X453450Y1778225D02*
X455550Y1778225D01*
X455550Y1778890D02*
X453450Y1778890D01*
X453450Y1779555D02*
X455550Y1779555D01*
X455550Y1780220D02*
X453450Y1780220D01*
X453450Y1780885D02*
X455550Y1780885D01*
X455550Y1781550D02*
X453450Y1781550D01*
X453450Y1782215D02*
X455550Y1782215D01*
X455550Y1782880D02*
X453450Y1782880D01*
X453450Y1783545D02*
X455550Y1783545D01*
X455550Y1784210D02*
X453450Y1784210D01*
X453450Y1784875D02*
X455550Y1784875D01*
X455550Y1785540D02*
X453450Y1785540D01*
X453450Y1786205D02*
X455550Y1786205D01*
X455550Y1786870D02*
X453450Y1786870D01*
X453450Y1787535D02*
X455550Y1787535D01*
X455550Y1788200D02*
X453450Y1788200D01*
X453450Y1788865D02*
X455550Y1788865D01*
X448450Y1788900D02*
X448450Y1774900D01*
X448450Y1788900D02*
X450550Y1788900D01*
X450550Y1774900D01*
X448450Y1774900D01*
X448450Y1775565D02*
X450550Y1775565D01*
X450550Y1776230D02*
X448450Y1776230D01*
X448450Y1776895D02*
X450550Y1776895D01*
X450550Y1777560D02*
X448450Y1777560D01*
X448450Y1778225D02*
X450550Y1778225D01*
X450550Y1778890D02*
X448450Y1778890D01*
X448450Y1779555D02*
X450550Y1779555D01*
X450550Y1780220D02*
X448450Y1780220D01*
X448450Y1780885D02*
X450550Y1780885D01*
X450550Y1781550D02*
X448450Y1781550D01*
X448450Y1782215D02*
X450550Y1782215D01*
X450550Y1782880D02*
X448450Y1782880D01*
X448450Y1783545D02*
X450550Y1783545D01*
X450550Y1784210D02*
X448450Y1784210D01*
X448450Y1784875D02*
X450550Y1784875D01*
X450550Y1785540D02*
X448450Y1785540D01*
X448450Y1786205D02*
X450550Y1786205D01*
X450550Y1786870D02*
X448450Y1786870D01*
X448450Y1787535D02*
X450550Y1787535D01*
X450550Y1788200D02*
X448450Y1788200D01*
X448450Y1788865D02*
X450550Y1788865D01*
X443450Y1788900D02*
X443450Y1774900D01*
X443450Y1788900D02*
X445550Y1788900D01*
X445550Y1774900D01*
X443450Y1774900D01*
X443450Y1775565D02*
X445550Y1775565D01*
X445550Y1776230D02*
X443450Y1776230D01*
X443450Y1776895D02*
X445550Y1776895D01*
X445550Y1777560D02*
X443450Y1777560D01*
X443450Y1778225D02*
X445550Y1778225D01*
X445550Y1778890D02*
X443450Y1778890D01*
X443450Y1779555D02*
X445550Y1779555D01*
X445550Y1780220D02*
X443450Y1780220D01*
X443450Y1780885D02*
X445550Y1780885D01*
X445550Y1781550D02*
X443450Y1781550D01*
X443450Y1782215D02*
X445550Y1782215D01*
X445550Y1782880D02*
X443450Y1782880D01*
X443450Y1783545D02*
X445550Y1783545D01*
X445550Y1784210D02*
X443450Y1784210D01*
X443450Y1784875D02*
X445550Y1784875D01*
X445550Y1785540D02*
X443450Y1785540D01*
X443450Y1786205D02*
X445550Y1786205D01*
X445550Y1786870D02*
X443450Y1786870D01*
X443450Y1787535D02*
X445550Y1787535D01*
X445550Y1788200D02*
X443450Y1788200D01*
X443450Y1788865D02*
X445550Y1788865D01*
X438450Y1788900D02*
X438450Y1774900D01*
X438450Y1788900D02*
X440550Y1788900D01*
X440550Y1774900D01*
X438450Y1774900D01*
X438450Y1775565D02*
X440550Y1775565D01*
X440550Y1776230D02*
X438450Y1776230D01*
X438450Y1776895D02*
X440550Y1776895D01*
X440550Y1777560D02*
X438450Y1777560D01*
X438450Y1778225D02*
X440550Y1778225D01*
X440550Y1778890D02*
X438450Y1778890D01*
X438450Y1779555D02*
X440550Y1779555D01*
X440550Y1780220D02*
X438450Y1780220D01*
X438450Y1780885D02*
X440550Y1780885D01*
X440550Y1781550D02*
X438450Y1781550D01*
X438450Y1782215D02*
X440550Y1782215D01*
X440550Y1782880D02*
X438450Y1782880D01*
X438450Y1783545D02*
X440550Y1783545D01*
X440550Y1784210D02*
X438450Y1784210D01*
X438450Y1784875D02*
X440550Y1784875D01*
X440550Y1785540D02*
X438450Y1785540D01*
X438450Y1786205D02*
X440550Y1786205D01*
X440550Y1786870D02*
X438450Y1786870D01*
X438450Y1787535D02*
X440550Y1787535D01*
X440550Y1788200D02*
X438450Y1788200D01*
X438450Y1788865D02*
X440550Y1788865D01*
X433450Y1788900D02*
X433450Y1774900D01*
X433450Y1788900D02*
X435550Y1788900D01*
X435550Y1774900D01*
X433450Y1774900D01*
X433450Y1775565D02*
X435550Y1775565D01*
X435550Y1776230D02*
X433450Y1776230D01*
X433450Y1776895D02*
X435550Y1776895D01*
X435550Y1777560D02*
X433450Y1777560D01*
X433450Y1778225D02*
X435550Y1778225D01*
X435550Y1778890D02*
X433450Y1778890D01*
X433450Y1779555D02*
X435550Y1779555D01*
X435550Y1780220D02*
X433450Y1780220D01*
X433450Y1780885D02*
X435550Y1780885D01*
X435550Y1781550D02*
X433450Y1781550D01*
X433450Y1782215D02*
X435550Y1782215D01*
X435550Y1782880D02*
X433450Y1782880D01*
X433450Y1783545D02*
X435550Y1783545D01*
X435550Y1784210D02*
X433450Y1784210D01*
X433450Y1784875D02*
X435550Y1784875D01*
X435550Y1785540D02*
X433450Y1785540D01*
X433450Y1786205D02*
X435550Y1786205D01*
X435550Y1786870D02*
X433450Y1786870D01*
X433450Y1787535D02*
X435550Y1787535D01*
X435550Y1788200D02*
X433450Y1788200D01*
X433450Y1788865D02*
X435550Y1788865D01*
X510920Y1819170D02*
X510920Y1833170D01*
X513020Y1833170D01*
X513020Y1819170D01*
X510920Y1819170D01*
X510920Y1819835D02*
X513020Y1819835D01*
X513020Y1820500D02*
X510920Y1820500D01*
X510920Y1821165D02*
X513020Y1821165D01*
X513020Y1821830D02*
X510920Y1821830D01*
X510920Y1822495D02*
X513020Y1822495D01*
X513020Y1823160D02*
X510920Y1823160D01*
X510920Y1823825D02*
X513020Y1823825D01*
X513020Y1824490D02*
X510920Y1824490D01*
X510920Y1825155D02*
X513020Y1825155D01*
X513020Y1825820D02*
X510920Y1825820D01*
X510920Y1826485D02*
X513020Y1826485D01*
X513020Y1827150D02*
X510920Y1827150D01*
X510920Y1827815D02*
X513020Y1827815D01*
X513020Y1828480D02*
X510920Y1828480D01*
X510920Y1829145D02*
X513020Y1829145D01*
X513020Y1829810D02*
X510920Y1829810D01*
X510920Y1830475D02*
X513020Y1830475D01*
X513020Y1831140D02*
X510920Y1831140D01*
X510920Y1831805D02*
X513020Y1831805D01*
X513020Y1832470D02*
X510920Y1832470D01*
X510920Y1833135D02*
X513020Y1833135D01*
X515920Y1833170D02*
X515920Y1819170D01*
X515920Y1833170D02*
X518020Y1833170D01*
X518020Y1819170D01*
X515920Y1819170D01*
X515920Y1819835D02*
X518020Y1819835D01*
X518020Y1820500D02*
X515920Y1820500D01*
X515920Y1821165D02*
X518020Y1821165D01*
X518020Y1821830D02*
X515920Y1821830D01*
X515920Y1822495D02*
X518020Y1822495D01*
X518020Y1823160D02*
X515920Y1823160D01*
X515920Y1823825D02*
X518020Y1823825D01*
X518020Y1824490D02*
X515920Y1824490D01*
X515920Y1825155D02*
X518020Y1825155D01*
X518020Y1825820D02*
X515920Y1825820D01*
X515920Y1826485D02*
X518020Y1826485D01*
X518020Y1827150D02*
X515920Y1827150D01*
X515920Y1827815D02*
X518020Y1827815D01*
X518020Y1828480D02*
X515920Y1828480D01*
X515920Y1829145D02*
X518020Y1829145D01*
X518020Y1829810D02*
X515920Y1829810D01*
X515920Y1830475D02*
X518020Y1830475D01*
X518020Y1831140D02*
X515920Y1831140D01*
X515920Y1831805D02*
X518020Y1831805D01*
X518020Y1832470D02*
X515920Y1832470D01*
X515920Y1833135D02*
X518020Y1833135D01*
X520920Y1833170D02*
X520920Y1819170D01*
X520920Y1833170D02*
X523020Y1833170D01*
X523020Y1819170D01*
X520920Y1819170D01*
X520920Y1819835D02*
X523020Y1819835D01*
X523020Y1820500D02*
X520920Y1820500D01*
X520920Y1821165D02*
X523020Y1821165D01*
X523020Y1821830D02*
X520920Y1821830D01*
X520920Y1822495D02*
X523020Y1822495D01*
X523020Y1823160D02*
X520920Y1823160D01*
X520920Y1823825D02*
X523020Y1823825D01*
X523020Y1824490D02*
X520920Y1824490D01*
X520920Y1825155D02*
X523020Y1825155D01*
X523020Y1825820D02*
X520920Y1825820D01*
X520920Y1826485D02*
X523020Y1826485D01*
X523020Y1827150D02*
X520920Y1827150D01*
X520920Y1827815D02*
X523020Y1827815D01*
X523020Y1828480D02*
X520920Y1828480D01*
X520920Y1829145D02*
X523020Y1829145D01*
X523020Y1829810D02*
X520920Y1829810D01*
X520920Y1830475D02*
X523020Y1830475D01*
X523020Y1831140D02*
X520920Y1831140D01*
X520920Y1831805D02*
X523020Y1831805D01*
X523020Y1832470D02*
X520920Y1832470D01*
X520920Y1833135D02*
X523020Y1833135D01*
X525920Y1833170D02*
X525920Y1819170D01*
X525920Y1833170D02*
X528020Y1833170D01*
X528020Y1819170D01*
X525920Y1819170D01*
X525920Y1819835D02*
X528020Y1819835D01*
X528020Y1820500D02*
X525920Y1820500D01*
X525920Y1821165D02*
X528020Y1821165D01*
X528020Y1821830D02*
X525920Y1821830D01*
X525920Y1822495D02*
X528020Y1822495D01*
X528020Y1823160D02*
X525920Y1823160D01*
X525920Y1823825D02*
X528020Y1823825D01*
X528020Y1824490D02*
X525920Y1824490D01*
X525920Y1825155D02*
X528020Y1825155D01*
X528020Y1825820D02*
X525920Y1825820D01*
X525920Y1826485D02*
X528020Y1826485D01*
X528020Y1827150D02*
X525920Y1827150D01*
X525920Y1827815D02*
X528020Y1827815D01*
X528020Y1828480D02*
X525920Y1828480D01*
X525920Y1829145D02*
X528020Y1829145D01*
X528020Y1829810D02*
X525920Y1829810D01*
X525920Y1830475D02*
X528020Y1830475D01*
X528020Y1831140D02*
X525920Y1831140D01*
X525920Y1831805D02*
X528020Y1831805D01*
X528020Y1832470D02*
X525920Y1832470D01*
X525920Y1833135D02*
X528020Y1833135D01*
X530920Y1833170D02*
X530920Y1819170D01*
X530920Y1833170D02*
X533020Y1833170D01*
X533020Y1819170D01*
X530920Y1819170D01*
X530920Y1819835D02*
X533020Y1819835D01*
X533020Y1820500D02*
X530920Y1820500D01*
X530920Y1821165D02*
X533020Y1821165D01*
X533020Y1821830D02*
X530920Y1821830D01*
X530920Y1822495D02*
X533020Y1822495D01*
X533020Y1823160D02*
X530920Y1823160D01*
X530920Y1823825D02*
X533020Y1823825D01*
X533020Y1824490D02*
X530920Y1824490D01*
X530920Y1825155D02*
X533020Y1825155D01*
X533020Y1825820D02*
X530920Y1825820D01*
X530920Y1826485D02*
X533020Y1826485D01*
X533020Y1827150D02*
X530920Y1827150D01*
X530920Y1827815D02*
X533020Y1827815D01*
X533020Y1828480D02*
X530920Y1828480D01*
X530920Y1829145D02*
X533020Y1829145D01*
X533020Y1829810D02*
X530920Y1829810D01*
X530920Y1830475D02*
X533020Y1830475D01*
X533020Y1831140D02*
X530920Y1831140D01*
X530920Y1831805D02*
X533020Y1831805D01*
X533020Y1832470D02*
X530920Y1832470D01*
X530920Y1833135D02*
X533020Y1833135D01*
X530920Y1790170D02*
X530920Y1776170D01*
X530920Y1790170D02*
X533020Y1790170D01*
X533020Y1776170D01*
X530920Y1776170D01*
X530920Y1776835D02*
X533020Y1776835D01*
X533020Y1777500D02*
X530920Y1777500D01*
X530920Y1778165D02*
X533020Y1778165D01*
X533020Y1778830D02*
X530920Y1778830D01*
X530920Y1779495D02*
X533020Y1779495D01*
X533020Y1780160D02*
X530920Y1780160D01*
X530920Y1780825D02*
X533020Y1780825D01*
X533020Y1781490D02*
X530920Y1781490D01*
X530920Y1782155D02*
X533020Y1782155D01*
X533020Y1782820D02*
X530920Y1782820D01*
X530920Y1783485D02*
X533020Y1783485D01*
X533020Y1784150D02*
X530920Y1784150D01*
X530920Y1784815D02*
X533020Y1784815D01*
X533020Y1785480D02*
X530920Y1785480D01*
X530920Y1786145D02*
X533020Y1786145D01*
X533020Y1786810D02*
X530920Y1786810D01*
X530920Y1787475D02*
X533020Y1787475D01*
X533020Y1788140D02*
X530920Y1788140D01*
X530920Y1788805D02*
X533020Y1788805D01*
X533020Y1789470D02*
X530920Y1789470D01*
X530920Y1790135D02*
X533020Y1790135D01*
X525920Y1790170D02*
X525920Y1776170D01*
X525920Y1790170D02*
X528020Y1790170D01*
X528020Y1776170D01*
X525920Y1776170D01*
X525920Y1776835D02*
X528020Y1776835D01*
X528020Y1777500D02*
X525920Y1777500D01*
X525920Y1778165D02*
X528020Y1778165D01*
X528020Y1778830D02*
X525920Y1778830D01*
X525920Y1779495D02*
X528020Y1779495D01*
X528020Y1780160D02*
X525920Y1780160D01*
X525920Y1780825D02*
X528020Y1780825D01*
X528020Y1781490D02*
X525920Y1781490D01*
X525920Y1782155D02*
X528020Y1782155D01*
X528020Y1782820D02*
X525920Y1782820D01*
X525920Y1783485D02*
X528020Y1783485D01*
X528020Y1784150D02*
X525920Y1784150D01*
X525920Y1784815D02*
X528020Y1784815D01*
X528020Y1785480D02*
X525920Y1785480D01*
X525920Y1786145D02*
X528020Y1786145D01*
X528020Y1786810D02*
X525920Y1786810D01*
X525920Y1787475D02*
X528020Y1787475D01*
X528020Y1788140D02*
X525920Y1788140D01*
X525920Y1788805D02*
X528020Y1788805D01*
X528020Y1789470D02*
X525920Y1789470D01*
X525920Y1790135D02*
X528020Y1790135D01*
X520920Y1790170D02*
X520920Y1776170D01*
X520920Y1790170D02*
X523020Y1790170D01*
X523020Y1776170D01*
X520920Y1776170D01*
X520920Y1776835D02*
X523020Y1776835D01*
X523020Y1777500D02*
X520920Y1777500D01*
X520920Y1778165D02*
X523020Y1778165D01*
X523020Y1778830D02*
X520920Y1778830D01*
X520920Y1779495D02*
X523020Y1779495D01*
X523020Y1780160D02*
X520920Y1780160D01*
X520920Y1780825D02*
X523020Y1780825D01*
X523020Y1781490D02*
X520920Y1781490D01*
X520920Y1782155D02*
X523020Y1782155D01*
X523020Y1782820D02*
X520920Y1782820D01*
X520920Y1783485D02*
X523020Y1783485D01*
X523020Y1784150D02*
X520920Y1784150D01*
X520920Y1784815D02*
X523020Y1784815D01*
X523020Y1785480D02*
X520920Y1785480D01*
X520920Y1786145D02*
X523020Y1786145D01*
X523020Y1786810D02*
X520920Y1786810D01*
X520920Y1787475D02*
X523020Y1787475D01*
X523020Y1788140D02*
X520920Y1788140D01*
X520920Y1788805D02*
X523020Y1788805D01*
X523020Y1789470D02*
X520920Y1789470D01*
X520920Y1790135D02*
X523020Y1790135D01*
X515920Y1790170D02*
X515920Y1776170D01*
X515920Y1790170D02*
X518020Y1790170D01*
X518020Y1776170D01*
X515920Y1776170D01*
X515920Y1776835D02*
X518020Y1776835D01*
X518020Y1777500D02*
X515920Y1777500D01*
X515920Y1778165D02*
X518020Y1778165D01*
X518020Y1778830D02*
X515920Y1778830D01*
X515920Y1779495D02*
X518020Y1779495D01*
X518020Y1780160D02*
X515920Y1780160D01*
X515920Y1780825D02*
X518020Y1780825D01*
X518020Y1781490D02*
X515920Y1781490D01*
X515920Y1782155D02*
X518020Y1782155D01*
X518020Y1782820D02*
X515920Y1782820D01*
X515920Y1783485D02*
X518020Y1783485D01*
X518020Y1784150D02*
X515920Y1784150D01*
X515920Y1784815D02*
X518020Y1784815D01*
X518020Y1785480D02*
X515920Y1785480D01*
X515920Y1786145D02*
X518020Y1786145D01*
X518020Y1786810D02*
X515920Y1786810D01*
X515920Y1787475D02*
X518020Y1787475D01*
X518020Y1788140D02*
X515920Y1788140D01*
X515920Y1788805D02*
X518020Y1788805D01*
X518020Y1789470D02*
X515920Y1789470D01*
X515920Y1790135D02*
X518020Y1790135D01*
X510920Y1790170D02*
X510920Y1776170D01*
X510920Y1790170D02*
X513020Y1790170D01*
X513020Y1776170D01*
X510920Y1776170D01*
X510920Y1776835D02*
X513020Y1776835D01*
X513020Y1777500D02*
X510920Y1777500D01*
X510920Y1778165D02*
X513020Y1778165D01*
X513020Y1778830D02*
X510920Y1778830D01*
X510920Y1779495D02*
X513020Y1779495D01*
X513020Y1780160D02*
X510920Y1780160D01*
X510920Y1780825D02*
X513020Y1780825D01*
X513020Y1781490D02*
X510920Y1781490D01*
X510920Y1782155D02*
X513020Y1782155D01*
X513020Y1782820D02*
X510920Y1782820D01*
X510920Y1783485D02*
X513020Y1783485D01*
X513020Y1784150D02*
X510920Y1784150D01*
X510920Y1784815D02*
X513020Y1784815D01*
X513020Y1785480D02*
X510920Y1785480D01*
X510920Y1786145D02*
X513020Y1786145D01*
X513020Y1786810D02*
X510920Y1786810D01*
X510920Y1787475D02*
X513020Y1787475D01*
X513020Y1788140D02*
X510920Y1788140D01*
X510920Y1788805D02*
X513020Y1788805D01*
X513020Y1789470D02*
X510920Y1789470D01*
X510920Y1790135D02*
X513020Y1790135D01*
D14*
X334010Y1871980D03*
X355600Y1724660D03*
D10*
X306070Y1778000D03*
X483870Y1786890D03*
X402590Y1789430D03*
X93980Y1581150D03*
X127000Y1579880D03*
D14*
X690880Y1109980D03*
X685800Y1181100D03*
X311150Y1835150D03*
D10*
X558800Y1841500D03*
D13*
X585850Y1831900D02*
X585850Y1817900D01*
X585850Y1831900D02*
X587950Y1831900D01*
X587950Y1817900D01*
X585850Y1817900D01*
X585850Y1818565D02*
X587950Y1818565D01*
X587950Y1819230D02*
X585850Y1819230D01*
X585850Y1819895D02*
X587950Y1819895D01*
X587950Y1820560D02*
X585850Y1820560D01*
X585850Y1821225D02*
X587950Y1821225D01*
X587950Y1821890D02*
X585850Y1821890D01*
X585850Y1822555D02*
X587950Y1822555D01*
X587950Y1823220D02*
X585850Y1823220D01*
X585850Y1823885D02*
X587950Y1823885D01*
X587950Y1824550D02*
X585850Y1824550D01*
X585850Y1825215D02*
X587950Y1825215D01*
X587950Y1825880D02*
X585850Y1825880D01*
X585850Y1826545D02*
X587950Y1826545D01*
X587950Y1827210D02*
X585850Y1827210D01*
X585850Y1827875D02*
X587950Y1827875D01*
X587950Y1828540D02*
X585850Y1828540D01*
X585850Y1829205D02*
X587950Y1829205D01*
X587950Y1829870D02*
X585850Y1829870D01*
X585850Y1830535D02*
X587950Y1830535D01*
X587950Y1831200D02*
X585850Y1831200D01*
X585850Y1831865D02*
X587950Y1831865D01*
X590850Y1831900D02*
X590850Y1817900D01*
X590850Y1831900D02*
X592950Y1831900D01*
X592950Y1817900D01*
X590850Y1817900D01*
X590850Y1818565D02*
X592950Y1818565D01*
X592950Y1819230D02*
X590850Y1819230D01*
X590850Y1819895D02*
X592950Y1819895D01*
X592950Y1820560D02*
X590850Y1820560D01*
X590850Y1821225D02*
X592950Y1821225D01*
X592950Y1821890D02*
X590850Y1821890D01*
X590850Y1822555D02*
X592950Y1822555D01*
X592950Y1823220D02*
X590850Y1823220D01*
X590850Y1823885D02*
X592950Y1823885D01*
X592950Y1824550D02*
X590850Y1824550D01*
X590850Y1825215D02*
X592950Y1825215D01*
X592950Y1825880D02*
X590850Y1825880D01*
X590850Y1826545D02*
X592950Y1826545D01*
X592950Y1827210D02*
X590850Y1827210D01*
X590850Y1827875D02*
X592950Y1827875D01*
X592950Y1828540D02*
X590850Y1828540D01*
X590850Y1829205D02*
X592950Y1829205D01*
X592950Y1829870D02*
X590850Y1829870D01*
X590850Y1830535D02*
X592950Y1830535D01*
X592950Y1831200D02*
X590850Y1831200D01*
X590850Y1831865D02*
X592950Y1831865D01*
X595850Y1831900D02*
X595850Y1817900D01*
X595850Y1831900D02*
X597950Y1831900D01*
X597950Y1817900D01*
X595850Y1817900D01*
X595850Y1818565D02*
X597950Y1818565D01*
X597950Y1819230D02*
X595850Y1819230D01*
X595850Y1819895D02*
X597950Y1819895D01*
X597950Y1820560D02*
X595850Y1820560D01*
X595850Y1821225D02*
X597950Y1821225D01*
X597950Y1821890D02*
X595850Y1821890D01*
X595850Y1822555D02*
X597950Y1822555D01*
X597950Y1823220D02*
X595850Y1823220D01*
X595850Y1823885D02*
X597950Y1823885D01*
X597950Y1824550D02*
X595850Y1824550D01*
X595850Y1825215D02*
X597950Y1825215D01*
X597950Y1825880D02*
X595850Y1825880D01*
X595850Y1826545D02*
X597950Y1826545D01*
X597950Y1827210D02*
X595850Y1827210D01*
X595850Y1827875D02*
X597950Y1827875D01*
X597950Y1828540D02*
X595850Y1828540D01*
X595850Y1829205D02*
X597950Y1829205D01*
X597950Y1829870D02*
X595850Y1829870D01*
X595850Y1830535D02*
X597950Y1830535D01*
X597950Y1831200D02*
X595850Y1831200D01*
X595850Y1831865D02*
X597950Y1831865D01*
X600850Y1831900D02*
X600850Y1817900D01*
X600850Y1831900D02*
X602950Y1831900D01*
X602950Y1817900D01*
X600850Y1817900D01*
X600850Y1818565D02*
X602950Y1818565D01*
X602950Y1819230D02*
X600850Y1819230D01*
X600850Y1819895D02*
X602950Y1819895D01*
X602950Y1820560D02*
X600850Y1820560D01*
X600850Y1821225D02*
X602950Y1821225D01*
X602950Y1821890D02*
X600850Y1821890D01*
X600850Y1822555D02*
X602950Y1822555D01*
X602950Y1823220D02*
X600850Y1823220D01*
X600850Y1823885D02*
X602950Y1823885D01*
X602950Y1824550D02*
X600850Y1824550D01*
X600850Y1825215D02*
X602950Y1825215D01*
X602950Y1825880D02*
X600850Y1825880D01*
X600850Y1826545D02*
X602950Y1826545D01*
X602950Y1827210D02*
X600850Y1827210D01*
X600850Y1827875D02*
X602950Y1827875D01*
X602950Y1828540D02*
X600850Y1828540D01*
X600850Y1829205D02*
X602950Y1829205D01*
X602950Y1829870D02*
X600850Y1829870D01*
X600850Y1830535D02*
X602950Y1830535D01*
X602950Y1831200D02*
X600850Y1831200D01*
X600850Y1831865D02*
X602950Y1831865D01*
X605850Y1831900D02*
X605850Y1817900D01*
X605850Y1831900D02*
X607950Y1831900D01*
X607950Y1817900D01*
X605850Y1817900D01*
X605850Y1818565D02*
X607950Y1818565D01*
X607950Y1819230D02*
X605850Y1819230D01*
X605850Y1819895D02*
X607950Y1819895D01*
X607950Y1820560D02*
X605850Y1820560D01*
X605850Y1821225D02*
X607950Y1821225D01*
X607950Y1821890D02*
X605850Y1821890D01*
X605850Y1822555D02*
X607950Y1822555D01*
X607950Y1823220D02*
X605850Y1823220D01*
X605850Y1823885D02*
X607950Y1823885D01*
X607950Y1824550D02*
X605850Y1824550D01*
X605850Y1825215D02*
X607950Y1825215D01*
X607950Y1825880D02*
X605850Y1825880D01*
X605850Y1826545D02*
X607950Y1826545D01*
X607950Y1827210D02*
X605850Y1827210D01*
X605850Y1827875D02*
X607950Y1827875D01*
X607950Y1828540D02*
X605850Y1828540D01*
X605850Y1829205D02*
X607950Y1829205D01*
X607950Y1829870D02*
X605850Y1829870D01*
X605850Y1830535D02*
X607950Y1830535D01*
X607950Y1831200D02*
X605850Y1831200D01*
X605850Y1831865D02*
X607950Y1831865D01*
X605850Y1788900D02*
X605850Y1774900D01*
X605850Y1788900D02*
X607950Y1788900D01*
X607950Y1774900D01*
X605850Y1774900D01*
X605850Y1775565D02*
X607950Y1775565D01*
X607950Y1776230D02*
X605850Y1776230D01*
X605850Y1776895D02*
X607950Y1776895D01*
X607950Y1777560D02*
X605850Y1777560D01*
X605850Y1778225D02*
X607950Y1778225D01*
X607950Y1778890D02*
X605850Y1778890D01*
X605850Y1779555D02*
X607950Y1779555D01*
X607950Y1780220D02*
X605850Y1780220D01*
X605850Y1780885D02*
X607950Y1780885D01*
X607950Y1781550D02*
X605850Y1781550D01*
X605850Y1782215D02*
X607950Y1782215D01*
X607950Y1782880D02*
X605850Y1782880D01*
X605850Y1783545D02*
X607950Y1783545D01*
X607950Y1784210D02*
X605850Y1784210D01*
X605850Y1784875D02*
X607950Y1784875D01*
X607950Y1785540D02*
X605850Y1785540D01*
X605850Y1786205D02*
X607950Y1786205D01*
X607950Y1786870D02*
X605850Y1786870D01*
X605850Y1787535D02*
X607950Y1787535D01*
X607950Y1788200D02*
X605850Y1788200D01*
X605850Y1788865D02*
X607950Y1788865D01*
X600850Y1788900D02*
X600850Y1774900D01*
X600850Y1788900D02*
X602950Y1788900D01*
X602950Y1774900D01*
X600850Y1774900D01*
X600850Y1775565D02*
X602950Y1775565D01*
X602950Y1776230D02*
X600850Y1776230D01*
X600850Y1776895D02*
X602950Y1776895D01*
X602950Y1777560D02*
X600850Y1777560D01*
X600850Y1778225D02*
X602950Y1778225D01*
X602950Y1778890D02*
X600850Y1778890D01*
X600850Y1779555D02*
X602950Y1779555D01*
X602950Y1780220D02*
X600850Y1780220D01*
X600850Y1780885D02*
X602950Y1780885D01*
X602950Y1781550D02*
X600850Y1781550D01*
X600850Y1782215D02*
X602950Y1782215D01*
X602950Y1782880D02*
X600850Y1782880D01*
X600850Y1783545D02*
X602950Y1783545D01*
X602950Y1784210D02*
X600850Y1784210D01*
X600850Y1784875D02*
X602950Y1784875D01*
X602950Y1785540D02*
X600850Y1785540D01*
X600850Y1786205D02*
X602950Y1786205D01*
X602950Y1786870D02*
X600850Y1786870D01*
X600850Y1787535D02*
X602950Y1787535D01*
X602950Y1788200D02*
X600850Y1788200D01*
X600850Y1788865D02*
X602950Y1788865D01*
X595850Y1788900D02*
X595850Y1774900D01*
X595850Y1788900D02*
X597950Y1788900D01*
X597950Y1774900D01*
X595850Y1774900D01*
X595850Y1775565D02*
X597950Y1775565D01*
X597950Y1776230D02*
X595850Y1776230D01*
X595850Y1776895D02*
X597950Y1776895D01*
X597950Y1777560D02*
X595850Y1777560D01*
X595850Y1778225D02*
X597950Y1778225D01*
X597950Y1778890D02*
X595850Y1778890D01*
X595850Y1779555D02*
X597950Y1779555D01*
X597950Y1780220D02*
X595850Y1780220D01*
X595850Y1780885D02*
X597950Y1780885D01*
X597950Y1781550D02*
X595850Y1781550D01*
X595850Y1782215D02*
X597950Y1782215D01*
X597950Y1782880D02*
X595850Y1782880D01*
X595850Y1783545D02*
X597950Y1783545D01*
X597950Y1784210D02*
X595850Y1784210D01*
X595850Y1784875D02*
X597950Y1784875D01*
X597950Y1785540D02*
X595850Y1785540D01*
X595850Y1786205D02*
X597950Y1786205D01*
X597950Y1786870D02*
X595850Y1786870D01*
X595850Y1787535D02*
X597950Y1787535D01*
X597950Y1788200D02*
X595850Y1788200D01*
X595850Y1788865D02*
X597950Y1788865D01*
X590850Y1788900D02*
X590850Y1774900D01*
X590850Y1788900D02*
X592950Y1788900D01*
X592950Y1774900D01*
X590850Y1774900D01*
X590850Y1775565D02*
X592950Y1775565D01*
X592950Y1776230D02*
X590850Y1776230D01*
X590850Y1776895D02*
X592950Y1776895D01*
X592950Y1777560D02*
X590850Y1777560D01*
X590850Y1778225D02*
X592950Y1778225D01*
X592950Y1778890D02*
X590850Y1778890D01*
X590850Y1779555D02*
X592950Y1779555D01*
X592950Y1780220D02*
X590850Y1780220D01*
X590850Y1780885D02*
X592950Y1780885D01*
X592950Y1781550D02*
X590850Y1781550D01*
X590850Y1782215D02*
X592950Y1782215D01*
X592950Y1782880D02*
X590850Y1782880D01*
X590850Y1783545D02*
X592950Y1783545D01*
X592950Y1784210D02*
X590850Y1784210D01*
X590850Y1784875D02*
X592950Y1784875D01*
X592950Y1785540D02*
X590850Y1785540D01*
X590850Y1786205D02*
X592950Y1786205D01*
X592950Y1786870D02*
X590850Y1786870D01*
X590850Y1787535D02*
X592950Y1787535D01*
X592950Y1788200D02*
X590850Y1788200D01*
X590850Y1788865D02*
X592950Y1788865D01*
X585850Y1788900D02*
X585850Y1774900D01*
X585850Y1788900D02*
X587950Y1788900D01*
X587950Y1774900D01*
X585850Y1774900D01*
X585850Y1775565D02*
X587950Y1775565D01*
X587950Y1776230D02*
X585850Y1776230D01*
X585850Y1776895D02*
X587950Y1776895D01*
X587950Y1777560D02*
X585850Y1777560D01*
X585850Y1778225D02*
X587950Y1778225D01*
X587950Y1778890D02*
X585850Y1778890D01*
X585850Y1779555D02*
X587950Y1779555D01*
X587950Y1780220D02*
X585850Y1780220D01*
X585850Y1780885D02*
X587950Y1780885D01*
X587950Y1781550D02*
X585850Y1781550D01*
X585850Y1782215D02*
X587950Y1782215D01*
X587950Y1782880D02*
X585850Y1782880D01*
X585850Y1783545D02*
X587950Y1783545D01*
X587950Y1784210D02*
X585850Y1784210D01*
X585850Y1784875D02*
X587950Y1784875D01*
X587950Y1785540D02*
X585850Y1785540D01*
X585850Y1786205D02*
X587950Y1786205D01*
X587950Y1786870D02*
X585850Y1786870D01*
X585850Y1787535D02*
X587950Y1787535D01*
X587950Y1788200D02*
X585850Y1788200D01*
X585850Y1788865D02*
X587950Y1788865D01*
D10*
X558800Y1790700D03*
D15*
X1021080Y736450D03*
X1021080Y749450D03*
X1033780Y736450D03*
X1033780Y749450D03*
X970280Y736450D03*
X970280Y749450D03*
X982980Y736450D03*
X982980Y749450D03*
X957580Y736450D03*
X957580Y749450D03*
X995680Y736450D03*
X995680Y749450D03*
X1008380Y736450D03*
X1008380Y749450D03*
D16*
X942900Y705800D03*
X947900Y705800D03*
X952900Y705800D03*
X957900Y705800D03*
X962900Y705800D03*
X967900Y705800D03*
X972900Y705800D03*
X977900Y705800D03*
X982900Y705800D03*
X987900Y705800D03*
X992900Y705800D03*
X997900Y705800D03*
X1002900Y705800D03*
X1007900Y705800D03*
X1012900Y705800D03*
X1012900Y640400D03*
X1007900Y640400D03*
X1002900Y640400D03*
X997900Y640400D03*
X992900Y640400D03*
X987900Y640400D03*
X982900Y640400D03*
X977900Y640400D03*
X972900Y640400D03*
X967900Y640400D03*
X962900Y640400D03*
X957900Y640400D03*
X952900Y640400D03*
X947900Y640400D03*
X942900Y640400D03*
D10*
X1028700Y706120D03*
X1024890Y612140D03*
X1008380Y596900D03*
X991870Y612140D03*
D17*
X1066800Y713300D03*
X1066800Y658300D03*
D15*
X1054100Y628800D03*
X1054100Y615800D03*
X1066800Y628800D03*
X1066800Y615800D03*
X901700Y739290D03*
X901700Y726290D03*
X924560Y792630D03*
X924560Y779630D03*
X914400Y539900D03*
X914400Y526900D03*
X972820Y519280D03*
X972820Y532280D03*
X901700Y782470D03*
X901700Y769470D03*
X914400Y565000D03*
X914400Y578000D03*
X939800Y519280D03*
X939800Y532280D03*
X900430Y697380D03*
X900430Y684380D03*
D10*
X1016000Y558800D03*
X990600Y558800D03*
D18*
X285325Y946530D03*
X-82975Y921130D03*
X513925Y933830D03*
X920325Y959230D03*
X101600Y698500D03*
X683260Y713740D03*
X27925Y1610375D03*
X27940Y1496060D03*
X-69850Y1347470D03*
X81280Y1370330D03*
X93980Y1230630D03*
X107950Y1153160D03*
X84836Y1106744D03*
X269225Y1623075D03*
X269240Y1508760D03*
X171450Y1360170D03*
X322580Y1383030D03*
X335280Y1243330D03*
X349250Y1165860D03*
X326136Y1119444D03*
X535925Y1623075D03*
X535940Y1508760D03*
X438150Y1360170D03*
X589280Y1383030D03*
X601980Y1243330D03*
X615950Y1165860D03*
X592836Y1119444D03*
X815325Y1648475D03*
X815340Y1534160D03*
X717550Y1385570D03*
X868680Y1408430D03*
X881380Y1268730D03*
X895350Y1191260D03*
X872236Y1144844D03*
X457200Y647700D03*
X1009650Y816610D03*
X254000Y1727200D03*
D19*
X546506Y1841500D02*
X558800Y1841500D01*
X546506Y1841500D02*
X538124Y1849882D01*
D20*
X355600Y1852930D02*
X355600Y1824900D01*
D18*
X355600Y1852930D03*
D20*
X444500Y1854200D02*
X444500Y1824900D01*
X444500Y1854200D02*
X445008Y1854200D01*
D18*
X445008Y1854200D03*
D19*
X582960Y1816703D02*
X584653Y1815010D01*
X594147Y1815010D02*
X595840Y1816703D01*
X595840Y1823840D01*
X596900Y1824900D01*
X594147Y1815010D02*
X584653Y1815010D01*
X582960Y1816703D02*
X582960Y1817340D01*
X529590Y1854962D02*
X528422Y1854962D01*
X521760Y1848300D01*
X521970Y1826170D02*
X521970Y1825320D01*
X521760Y1825110D01*
X521760Y1848300D01*
X529590Y1854962D02*
X525526Y1859026D01*
D18*
X525526Y1859026D03*
D21*
X525526Y1859026D01*
X525526Y1859026D01*
D19*
X558800Y1841500D02*
X558800Y1817340D01*
X582960Y1817340D01*
X538226Y1854962D02*
X529590Y1854962D01*
X538226Y1854962D02*
X538226Y1854200D01*
X538124Y1854200D02*
X538124Y1849882D01*
X538124Y1854200D02*
X538226Y1854200D01*
D20*
X1021080Y749450D02*
X1033780Y749450D01*
X1021080Y749450D02*
X1008380Y749450D01*
X995680Y749450D01*
X982980Y749450D01*
X970280Y749450D01*
X957580Y749450D01*
X972900Y685880D02*
X967740Y680720D01*
D18*
X967740Y680720D03*
D20*
X957430Y749300D02*
X957580Y749450D01*
X957430Y749300D02*
X946150Y749300D01*
D18*
X946150Y749300D03*
D19*
X967740Y640560D02*
X967900Y640400D01*
X967740Y640560D02*
X967740Y673100D01*
X967740Y680720D01*
X1054100Y615800D02*
X1066800Y615800D01*
X1054100Y615800D02*
X1013056Y656844D01*
X1006535Y656844D01*
X990279Y673100D02*
X967740Y673100D01*
X990279Y673100D02*
X1006535Y656844D01*
X998860Y704840D02*
X997900Y705800D01*
X998860Y704840D02*
X998860Y697248D01*
X1019504Y676604D01*
D18*
X742666Y711200D03*
D20*
X972900Y705800D02*
X972900Y685880D01*
D19*
X1019504Y676604D02*
X1033780Y690880D01*
X1036102Y690880D01*
X1033780Y748042D02*
X1033780Y749450D01*
X1033780Y748042D02*
X1040820Y741002D01*
X1040820Y695598D02*
X1036102Y690880D01*
X1040820Y695598D02*
X1040820Y741002D01*
D18*
X288290Y865712D03*
X-80010Y840312D03*
X516890Y853012D03*
X923290Y878412D03*
X85987Y635000D03*
X695587Y647700D03*
X-12700Y1301750D03*
X25530Y1439480D03*
X54610Y1280160D03*
X17074Y1551940D03*
X228600Y1314450D03*
X266830Y1452180D03*
X295910Y1292860D03*
X258374Y1564640D03*
X495300Y1314450D03*
X533530Y1452180D03*
X562610Y1292860D03*
X522534Y1565910D03*
X774700Y1339850D03*
X812930Y1477580D03*
X842010Y1318260D03*
X804474Y1590040D03*
X415290Y534670D03*
X1069340Y783590D03*
X514350Y566420D03*
X516890Y615950D03*
X314960Y571500D03*
X314960Y609600D03*
X419100Y560070D03*
X304800Y1005840D03*
X299720Y894080D03*
X342900Y919480D03*
X241300Y901700D03*
X-63500Y980440D03*
X-68580Y868680D03*
X-25400Y894080D03*
X-127000Y876300D03*
X533400Y993140D03*
X528320Y881380D03*
X571500Y906780D03*
X469900Y889000D03*
X962660Y1029970D03*
X934720Y906780D03*
X977900Y932180D03*
X876300Y914400D03*
X58420Y1123870D03*
X-76200Y1252220D03*
X52070Y1587500D03*
X76995Y1445035D03*
X70639Y1385089D03*
X34313Y1282677D03*
X125338Y1112912D03*
X116840Y1064260D03*
X130810Y1156970D03*
X-19050Y1544320D03*
X299720Y1136570D03*
X165100Y1264920D03*
X293370Y1600200D03*
X318295Y1457735D03*
X311939Y1397789D03*
X275613Y1295377D03*
X366638Y1125612D03*
X358140Y1076960D03*
X372110Y1169670D03*
X222250Y1557020D03*
X566420Y1136570D03*
X431800Y1264920D03*
X560070Y1600200D03*
X584995Y1457735D03*
X578639Y1397789D03*
X542313Y1295377D03*
X633338Y1125612D03*
X624840Y1076960D03*
X638810Y1169670D03*
X488950Y1557020D03*
X845820Y1161970D03*
X711200Y1290320D03*
X839470Y1625600D03*
X864395Y1483135D03*
X858039Y1423189D03*
X821713Y1320777D03*
X912738Y1151012D03*
X904240Y1102360D03*
X918210Y1195070D03*
X768350Y1582420D03*
X961390Y800100D03*
X317500Y647700D03*
D21*
X330200Y660400D01*
X458804Y660400D02*
X535004Y736600D01*
X774700Y736600D01*
X830730Y792630D02*
X924560Y792630D01*
X830730Y792630D02*
X774700Y736600D01*
X458804Y660400D02*
X330200Y660400D01*
D18*
X247650Y984250D03*
D19*
X591900Y1824900D02*
X591900Y1843960D01*
X582930Y1852930D01*
D18*
X582930Y1852930D03*
D21*
X641350Y984250D02*
X247650Y984250D01*
X641350Y984250D02*
X685800Y1028700D01*
D18*
X685800Y1028700D03*
X622300Y1676400D03*
D21*
X622300Y1705161D02*
X705104Y1787965D01*
X705104Y1797304D02*
X711200Y1803400D01*
X705104Y1797304D02*
X705104Y1787965D01*
X711200Y1803400D02*
X710156Y1804444D01*
X584534Y1852930D02*
X582930Y1852930D01*
X584534Y1852930D02*
X594920Y1863316D01*
X710156Y1863316D02*
X710156Y1804444D01*
X710156Y1863316D02*
X594920Y1863316D01*
X622300Y1705161D02*
X622300Y1676400D01*
D18*
X247650Y971550D03*
X-120650Y946150D03*
X476250Y958850D03*
X882650Y984250D03*
X53340Y1611630D03*
X-7620Y1609090D03*
D21*
X-58420Y1206500D02*
X-58420Y1203960D01*
X50292Y1607632D02*
X50292Y1608582D01*
X53340Y1611630D01*
X-7620Y1609090D02*
X-7620Y1604330D01*
X-3998Y1600708D01*
X43368Y1600708D02*
X50292Y1607632D01*
X43368Y1600708D02*
X-3998Y1600708D01*
X-7620Y1609090D02*
X-7620Y1308883D01*
X-4064Y1305327D01*
X-4064Y1260856D01*
X-58420Y1206500D01*
D18*
X294640Y1624330D03*
X233680Y1621790D03*
D21*
X182880Y1219200D02*
X182880Y1216660D01*
X291592Y1620332D02*
X291592Y1621282D01*
X294640Y1624330D01*
X233680Y1621790D02*
X233680Y1617030D01*
X237302Y1613408D01*
X284668Y1613408D02*
X291592Y1620332D01*
X284668Y1613408D02*
X237302Y1613408D01*
X233680Y1610868D02*
X233680Y1621790D01*
X233680Y1610868D02*
X233680Y1321583D01*
X237236Y1318027D01*
X237236Y1273556D01*
X182880Y1219200D01*
D18*
X561340Y1624330D03*
X500380Y1621790D03*
D21*
X449580Y1219200D02*
X449580Y1216660D01*
X558292Y1620332D02*
X558292Y1621282D01*
X561340Y1624330D01*
X500380Y1621790D02*
X500380Y1617030D01*
X504002Y1613408D01*
X551368Y1613408D02*
X558292Y1620332D01*
X551368Y1613408D02*
X504002Y1613408D01*
X500380Y1610868D02*
X500380Y1621790D01*
X500380Y1610868D02*
X500380Y1321583D01*
X503936Y1318027D01*
X503936Y1273556D01*
X449580Y1219200D01*
D18*
X840740Y1649730D03*
X779780Y1647190D03*
D21*
X728980Y1244600D02*
X728980Y1242060D01*
X837692Y1645732D02*
X837692Y1646682D01*
X840740Y1649730D01*
X779780Y1647190D02*
X779780Y1642430D01*
X783402Y1638808D01*
X830768Y1638808D02*
X837692Y1645732D01*
X830768Y1638808D02*
X783402Y1638808D01*
X779780Y1647190D02*
X779780Y1612900D01*
X779780Y1346983D01*
X783336Y1343427D01*
X783336Y1298956D01*
X728980Y1244600D01*
X-58420Y1203960D02*
X-110998Y1203960D01*
X-110998Y965200D01*
X-29972Y1598168D02*
X-10668Y1598168D01*
X43159Y1626870D02*
X74631Y1626870D01*
X-7620Y1609090D02*
X-10668Y1606042D01*
X-10668Y1598168D01*
X32512Y1632966D02*
X40883Y1624595D01*
X43159Y1626870D01*
X74631Y1626870D02*
X80485Y1621016D01*
X80485Y1610868D01*
X127000Y1610868D01*
X211328Y1610868D01*
X233680Y1610868D01*
X-29972Y1617472D02*
X-29972Y1598168D01*
X-29972Y1617472D02*
X-14478Y1632966D01*
X32512Y1632966D01*
X284459Y1639570D02*
X315931Y1639570D01*
X282183Y1637295D02*
X273812Y1645666D01*
X282183Y1637295D02*
X284459Y1639570D01*
X315931Y1639570D02*
X321785Y1633716D01*
X211328Y1630172D02*
X211328Y1610868D01*
X211328Y1630172D02*
X226822Y1645666D01*
X273812Y1645666D01*
X321785Y1610868D02*
X478028Y1610868D01*
X500380Y1610868D01*
X321785Y1610868D02*
X321785Y1633716D01*
X551159Y1639570D02*
X582631Y1639570D01*
X548883Y1637295D02*
X540512Y1645666D01*
X548883Y1637295D02*
X551159Y1639570D01*
X582631Y1639570D02*
X588485Y1633716D01*
X478028Y1630172D02*
X478028Y1610868D01*
X478028Y1630172D02*
X493522Y1645666D01*
X540512Y1645666D01*
X588485Y1612900D02*
X779780Y1612900D01*
X588485Y1612900D02*
X588485Y1633716D01*
X-120650Y949198D02*
X-120650Y946150D01*
X-120650Y949198D02*
X-110998Y949198D01*
X-110998Y965200D01*
X237998Y965200D02*
X237998Y968502D01*
X247650Y968502D01*
X247650Y971550D01*
X237998Y965200D02*
X-110998Y965200D01*
X247650Y971550D02*
X466598Y971550D01*
X466598Y961898D01*
X476250Y961898D01*
X476250Y958850D01*
X872998Y958850D01*
X872998Y984250D02*
X882650Y984250D01*
X872998Y984250D02*
X872998Y958850D01*
X127000Y1579880D02*
X127000Y1610868D01*
D18*
X101600Y600710D03*
X711200Y762000D03*
D21*
X-124227Y924814D02*
X-129286Y929873D01*
X-129286Y937027D01*
X-99314Y924814D02*
X63500Y762000D01*
X-99314Y924814D02*
X-124227Y924814D01*
X-120650Y945663D02*
X-120650Y946150D01*
X-120650Y945663D02*
X-129286Y937027D01*
X101600Y762000D02*
X711200Y762000D01*
X101600Y762000D02*
X63500Y762000D01*
X92964Y702077D02*
X92964Y694923D01*
X101600Y686287D02*
X101600Y600710D01*
X101600Y710713D02*
X101600Y762000D01*
X92964Y694923D02*
X101600Y686287D01*
X92964Y702077D02*
X101600Y710713D01*
D18*
X247650Y958850D03*
X-120650Y933450D03*
X476250Y946150D03*
X882650Y971550D03*
X40640Y1611630D03*
X-20320Y1607820D03*
D21*
X-17272Y1610868D02*
X-17272Y1613088D01*
X-17272Y1610868D02*
X-20320Y1607820D01*
X25908Y1626362D02*
X40640Y1611630D01*
X25908Y1626362D02*
X-3998Y1626362D01*
X-17272Y1613088D01*
X73881Y1614412D02*
X73881Y1607258D01*
X68822Y1602199D01*
X42949Y1279100D02*
X37890Y1274041D01*
X37061Y1274041D01*
X-58420Y1178560D01*
X40640Y1611630D02*
X41127Y1611630D01*
X54556Y1602199D02*
X42949Y1590592D01*
X41127Y1611630D02*
X49763Y1620266D01*
X63500Y1602199D02*
X68822Y1602199D01*
X63500Y1602199D02*
X54556Y1602199D01*
X42949Y1590592D02*
X42949Y1279100D01*
X49763Y1620266D02*
X68027Y1620266D01*
X73881Y1614412D01*
D18*
X281940Y1624330D03*
X220980Y1620520D03*
D21*
X224028Y1623568D02*
X224028Y1625788D01*
X224028Y1623568D02*
X220980Y1620520D01*
X267208Y1639062D02*
X281940Y1624330D01*
X267208Y1639062D02*
X237302Y1639062D01*
X224028Y1625788D01*
X315181Y1627112D02*
X315181Y1619958D01*
X310122Y1614899D01*
X284249Y1291800D02*
X279190Y1286741D01*
X278361Y1286741D01*
X182880Y1191260D01*
X281940Y1624330D02*
X282427Y1624330D01*
X295856Y1614899D02*
X284249Y1603292D01*
X282427Y1624330D02*
X291063Y1632966D01*
X295856Y1614899D02*
X310122Y1614899D01*
X284249Y1603292D02*
X284249Y1291800D01*
X291063Y1632966D02*
X309327Y1632966D01*
X315181Y1627112D01*
D18*
X548640Y1624330D03*
X487680Y1620520D03*
D21*
X490728Y1623568D02*
X490728Y1625788D01*
X490728Y1623568D02*
X487680Y1620520D01*
X533908Y1639062D02*
X548640Y1624330D01*
X533908Y1639062D02*
X504002Y1639062D01*
X490728Y1625788D01*
X581881Y1627112D02*
X581881Y1619958D01*
X576822Y1614899D01*
X550949Y1291800D02*
X545890Y1286741D01*
X545061Y1286741D01*
X449580Y1191260D01*
X548640Y1624330D02*
X549127Y1624330D01*
X562556Y1614899D02*
X550949Y1603292D01*
X549127Y1624330D02*
X557763Y1632966D01*
X562556Y1614899D02*
X576822Y1614899D01*
X550949Y1603292D02*
X550949Y1291800D01*
X557763Y1632966D02*
X576027Y1632966D01*
X581881Y1627112D01*
D18*
X828040Y1649730D03*
X767080Y1645920D03*
D21*
X770128Y1648968D02*
X770128Y1651188D01*
X770128Y1648968D02*
X767080Y1645920D01*
X813308Y1664462D02*
X828040Y1649730D01*
X813308Y1664462D02*
X783402Y1664462D01*
X770128Y1651188D01*
X861281Y1652512D02*
X861281Y1645358D01*
X856222Y1640299D01*
X830349Y1317200D02*
X825290Y1312141D01*
X824461Y1312141D01*
X728980Y1216660D01*
X828040Y1649730D02*
X828527Y1649730D01*
X841956Y1640299D02*
X830349Y1628692D01*
X828527Y1649730D02*
X837163Y1658366D01*
X841956Y1640299D02*
X856222Y1640299D01*
X830349Y1628692D02*
X830349Y1317200D01*
X837163Y1658366D02*
X855427Y1658366D01*
X861281Y1652512D01*
X5207Y1178560D02*
X-58420Y1178560D01*
X5207Y1178560D02*
X5207Y1191133D01*
X182880Y1191133D02*
X182880Y1191260D01*
X182880Y1191133D02*
X5207Y1191133D01*
X182880Y1191260D02*
X246507Y1191260D01*
X246507Y1203833D01*
X271653Y1203833D01*
X271653Y1191260D01*
X449580Y1191260D01*
X513207Y1191260D01*
X513207Y1203833D01*
X728980Y1203833D02*
X728980Y1216660D01*
X728980Y1203833D02*
X513207Y1203833D01*
X728980Y1216660D02*
X792607Y1216660D01*
X792607Y1229233D01*
X914400Y1106840D02*
X926954Y1106840D01*
X914400Y1106840D02*
X914400Y968882D01*
X937006Y1172652D02*
X930082Y1179576D01*
X937006Y1116892D02*
X926954Y1106840D01*
X937006Y1116892D02*
X937006Y1172652D01*
X930082Y1179576D02*
X930082Y1229233D01*
X914400Y968882D02*
X882650Y968882D01*
X882650Y971550D01*
X930082Y1229233D02*
X792607Y1229233D01*
X882650Y971550D02*
X882650Y946150D01*
X476250Y946150D01*
X294977Y946150D01*
X294977Y936878D01*
X247650Y936878D01*
X247650Y958850D01*
X247650Y933450D01*
X-120650Y933450D01*
X68822Y1581150D02*
X93980Y1581150D01*
X68822Y1581150D02*
X68822Y1601183D01*
X63500Y1601183D02*
X63500Y1602199D01*
X63500Y1601183D02*
X68822Y1601183D01*
D18*
X114300Y622300D03*
X723900Y749300D03*
D21*
X723900Y787400D01*
X882650Y946150D01*
X118044Y626044D02*
X114300Y622300D01*
X118044Y626044D02*
X118044Y634767D01*
X232577Y749300D01*
X723900Y749300D01*
D18*
X279400Y571500D03*
D21*
X740109Y525554D02*
X760655Y546100D01*
X325346Y525554D02*
X279400Y571500D01*
X325346Y525554D02*
X740109Y525554D01*
X908200Y546100D02*
X914400Y539900D01*
X908200Y546100D02*
X760655Y546100D01*
D18*
X558800Y571500D03*
D21*
X574861Y571500D01*
X593403Y552958D02*
X748834Y552958D01*
X593403Y552958D02*
X574861Y571500D01*
X748834Y552958D02*
X767376Y571500D01*
X907153Y571500D02*
X908217Y570436D01*
X908964Y570436D01*
X914400Y565000D01*
X907153Y571500D02*
X767376Y571500D01*
D18*
X-120650Y958850D03*
D19*
X591900Y1762680D02*
X591900Y1781900D01*
X591900Y1762680D02*
X593090Y1761490D01*
X580390Y1761490D01*
X593090Y1761490D02*
X593222Y1761490D01*
D18*
X593222Y1761490D03*
D21*
X-67564Y1332971D02*
X-78486Y1343893D01*
X-120650Y1203648D02*
X-120650Y958850D01*
X-120650Y1203648D02*
X-113734Y1210564D01*
X-78486Y1343893D02*
X-78486Y1587637D01*
X5423Y1671546D01*
X-105643Y1210564D02*
X-113734Y1210564D01*
X-105643Y1210564D02*
X-67564Y1248643D01*
X-67564Y1332971D01*
X490446Y1671546D02*
X580390Y1761490D01*
X490446Y1671546D02*
X5423Y1671546D01*
D18*
X749300Y495300D03*
D21*
X948840Y495300D02*
X972820Y519280D01*
X948840Y495300D02*
X749300Y495300D01*
D18*
X317500Y508000D03*
D21*
X928520Y508000D02*
X939800Y519280D01*
X928520Y508000D02*
X317500Y508000D01*
D18*
X557530Y598170D03*
D21*
X654617Y695257D01*
X875675Y695257D01*
X877799Y697380D01*
X900430Y697380D01*
D18*
X476250Y971550D03*
D19*
X601900Y1824900D02*
X600840Y1825960D01*
X596900Y1837066D02*
X596900Y1849120D01*
X600840Y1833126D02*
X600840Y1825960D01*
X600840Y1833126D02*
X596900Y1837066D01*
X596900Y1849120D02*
X601980Y1854200D01*
D18*
X601980Y1854200D03*
D21*
X654050Y971550D02*
X476250Y971550D01*
X654050Y971550D02*
X698500Y1016000D01*
D18*
X698500Y1016000D03*
X635000Y1651000D03*
D21*
X592528Y1668239D02*
X587469Y1673298D01*
X587469Y1705069D01*
X673100Y1790700D01*
X617761Y1668239D02*
X635000Y1651000D01*
X617761Y1668239D02*
X592528Y1668239D01*
X673100Y1790700D02*
X609600Y1854200D01*
X601980Y1854200D01*
D18*
X546100Y635000D03*
D21*
X635000Y723900D01*
X838200Y723900D01*
X896770Y782470D02*
X901700Y782470D01*
X896770Y782470D02*
X838200Y723900D01*
D19*
X601900Y1766650D02*
X601900Y1781900D01*
X601900Y1766650D02*
X607060Y1761490D01*
D18*
X607060Y1761490D03*
X923830Y976630D03*
D21*
X862031Y1664970D02*
X830559Y1664970D01*
X607060Y1661635D02*
X585924Y1661635D01*
X580865Y1666694D02*
X580865Y1711673D01*
X923830Y1100236D02*
X923830Y976630D01*
X923830Y1100236D02*
X933558Y1100236D01*
X943610Y1110288D01*
X848387Y1327912D02*
X848387Y1615948D01*
X867885Y1659116D02*
X862031Y1664970D01*
X830559Y1664970D02*
X828283Y1662695D01*
X819912Y1671066D01*
X757428Y1641348D02*
X607060Y1641348D01*
X607060Y1661635D01*
X585924Y1661635D02*
X580865Y1666694D01*
X580865Y1711673D02*
X607060Y1737868D01*
X607060Y1761490D01*
X848387Y1615948D02*
X849122Y1615948D01*
X867885Y1634711D01*
X867885Y1659116D01*
X819912Y1671066D02*
X772922Y1671066D01*
X757428Y1655572D01*
X757428Y1641348D01*
X851662Y1327912D02*
X943610Y1235964D01*
X851662Y1327912D02*
X848387Y1327912D01*
X943610Y1235964D02*
X943610Y1110288D01*
D18*
X313916Y622300D03*
D21*
X872940Y701861D02*
X876808Y705729D01*
X872940Y701861D02*
X651061Y701861D01*
X876808Y705729D02*
X876808Y715145D01*
X900953Y739290D01*
X901700Y739290D01*
X573786Y624586D02*
X317500Y624586D01*
X573786Y624586D02*
X651061Y701861D01*
X317500Y624586D02*
X315214Y622300D01*
X313916Y622300D01*
X125410Y626430D02*
X125410Y631190D01*
X126680Y631190D01*
X125410Y626430D02*
X151130Y600710D01*
D18*
X126680Y631190D03*
D21*
X735010Y639130D02*
X735010Y643890D01*
X736280Y643890D01*
X735010Y639130D02*
X760730Y613410D01*
D18*
X736280Y643890D03*
D20*
X350600Y1824900D02*
X350600Y1842770D01*
X342900Y1842770D01*
D18*
X342900Y1842770D03*
X101600Y1651000D03*
D21*
X90170Y1639570D01*
X-17214Y1639570D01*
X-58420Y1598364D01*
X-58420Y1229360D01*
D18*
X77945Y1648935D03*
D20*
X516970Y1826170D02*
X516970Y1836340D01*
X502920Y1850390D01*
D18*
X502920Y1850390D03*
D20*
X439500Y1846500D02*
X439500Y1824900D01*
X439500Y1846500D02*
X434340Y1851660D01*
D18*
X434340Y1851660D03*
D20*
X350600Y1781900D02*
X350600Y1757600D01*
X360680Y1747520D01*
D18*
X360680Y1747520D03*
X331945Y1648935D03*
D20*
X516970Y1760300D02*
X516970Y1783170D01*
X516970Y1760300D02*
X516890Y1760220D01*
D18*
X516890Y1760220D03*
D20*
X439500Y1758870D02*
X439500Y1781900D01*
X439500Y1758870D02*
X440690Y1757680D01*
D18*
X440690Y1757680D03*
D20*
X360600Y1824900D02*
X360600Y1835070D01*
D18*
X369570Y1844040D03*
D20*
X360600Y1835070D01*
D21*
X428223Y1256284D02*
X431800Y1256284D01*
X428223Y1256284D02*
X393700Y1290807D01*
D18*
X393700Y1600200D03*
D21*
X393700Y1290807D01*
X431800Y1256284D02*
X435356Y1256284D01*
X449580Y1242060D01*
D18*
X596105Y1676875D03*
D20*
X526970Y1826170D02*
X526970Y1840150D01*
X529590Y1842770D01*
X530098Y1842770D01*
D18*
X530098Y1842770D03*
D21*
X596105Y1701005D02*
X596105Y1676875D01*
X596105Y1701005D02*
X685800Y1790700D01*
X685800Y1854200D01*
D18*
X685800Y1854200D03*
D20*
X449500Y1841420D02*
X449500Y1824900D01*
X449500Y1841420D02*
X457200Y1849120D01*
D18*
X457200Y1849120D03*
X609600Y1681480D03*
D21*
X609600Y1701800D01*
X698500Y1790700D01*
X698500Y1854200D01*
D18*
X698500Y1854200D03*
D20*
X360600Y1781900D02*
X360600Y1767920D01*
X364490Y1764030D01*
D18*
X364490Y1764030D03*
X444500Y1714500D03*
D21*
X394970Y1764030D02*
X364490Y1764030D01*
X394970Y1764030D02*
X444500Y1714500D01*
D18*
X866615Y1716245D03*
D20*
X527050Y1783090D02*
X526970Y1783170D01*
X527050Y1766570D02*
X532130Y1761490D01*
X534670Y1761490D01*
D18*
X534670Y1761490D03*
D20*
X527050Y1766570D02*
X527050Y1783090D01*
D21*
X866615Y1741645D02*
X866615Y1716245D01*
X866615Y1741645D02*
X853915Y1754345D01*
X723900Y1752600D02*
X698500Y1752600D01*
X723900Y1752600D02*
X725645Y1754345D01*
X853915Y1754345D01*
D18*
X698500Y1752600D03*
X886460Y1704340D03*
D20*
X449500Y1762840D02*
X449500Y1781900D01*
X449500Y1762840D02*
X455930Y1756410D01*
D18*
X455930Y1756410D03*
D21*
X902490Y1767050D02*
X925830Y1743710D01*
X902490Y1767050D02*
X901700Y1767050D01*
X925830Y1743710D02*
X886460Y1704340D01*
D18*
X901700Y1767050D03*
X1003300Y800100D03*
D20*
X977900Y723900D02*
X977900Y705800D01*
X977900Y723900D02*
X977900Y731370D01*
X982980Y736450D01*
X970280Y736450D01*
X977900Y723900D02*
X980440Y721360D01*
X984250Y721360D01*
D18*
X984250Y721360D03*
D20*
X531970Y1783170D02*
X531970Y1808480D01*
X531970Y1813560D01*
X531970Y1826170D01*
X454500Y1824900D02*
X454500Y1813560D01*
X454500Y1812290D01*
X454500Y1781900D01*
X365600Y1781900D02*
X365600Y1812290D01*
X365600Y1824900D01*
X365600Y1812290D02*
X454500Y1812290D01*
X454500Y1813560D02*
X531970Y1813560D01*
X322580Y1823720D02*
X311150Y1835150D01*
X322580Y1823720D02*
X322580Y1817370D01*
X327660Y1812290D01*
X365600Y1812290D01*
D19*
X606900Y1816100D02*
X606900Y1781900D01*
X606900Y1816100D02*
X606900Y1824900D01*
X599280Y1808480D02*
X531970Y1808480D01*
X599280Y1808480D02*
X606900Y1816100D01*
D20*
X345600Y1824900D02*
X334010Y1836490D01*
X334010Y1871980D01*
X334010Y1865747D01*
X431800Y1865747D02*
X431800Y1867017D01*
X424180Y1865747D02*
X424180Y1826170D01*
X431800Y1867017D02*
X471124Y1867017D01*
X511970Y1826170D01*
X431800Y1865747D02*
X424180Y1865747D01*
X334010Y1865747D01*
X425450Y1824900D02*
X434500Y1824900D01*
X425450Y1824900D02*
X424180Y1826170D01*
D19*
X567690Y1844110D02*
X586900Y1824900D01*
X567690Y1844110D02*
X567690Y1855252D01*
X555926Y1867017D01*
X471124Y1867017D01*
D20*
X354490Y1726090D02*
X354330Y1725930D01*
X341630Y1725930D02*
X341630Y1777930D01*
X341630Y1725930D02*
X354330Y1725930D01*
X511970Y1769270D02*
X511970Y1783170D01*
X511970Y1769270D02*
X495300Y1752600D01*
X345600Y1781900D02*
X341630Y1777930D01*
X426880Y1774280D02*
X434500Y1781900D01*
X426880Y1774280D02*
X426880Y1752600D01*
X472600Y1752600D02*
X472600Y1701800D01*
X355600Y1724980D02*
X354490Y1726090D01*
X355600Y1724980D02*
X355600Y1724660D01*
D19*
X378460Y1701800D01*
X472600Y1701800D01*
X435712Y1752600D02*
X426880Y1752600D01*
X458876Y1749298D02*
X462178Y1752600D01*
X472600Y1752600D01*
X495300Y1752600D01*
X439014Y1749298D02*
X435712Y1752600D01*
X439014Y1749298D02*
X458876Y1749298D01*
X495300Y1752600D02*
X558800Y1752600D01*
X584200Y1778000D01*
X586900Y1778000D01*
X586900Y1781900D01*
D20*
X444500Y1803400D02*
X416560Y1803400D01*
X444500Y1803400D02*
X444500Y1781900D01*
X416560Y1803400D02*
X402590Y1789430D01*
D18*
X919480Y1163320D03*
X917302Y1116492D03*
D21*
X919480Y1160446D02*
X919480Y1163320D01*
X919480Y1160446D02*
X922300Y1157626D01*
X907650Y1133028D02*
X907650Y1125032D01*
X913304Y1119378D01*
X914416Y1119378D01*
X917302Y1116492D01*
X922300Y1147678D02*
X922300Y1157626D01*
X922300Y1147678D02*
X907650Y1133028D01*
D18*
X132080Y1125220D03*
X129902Y1078392D03*
D21*
X132080Y1122346D02*
X132080Y1125220D01*
X132080Y1122346D02*
X134900Y1119526D01*
X120250Y1094928D02*
X120250Y1086932D01*
X125904Y1081278D01*
X127016Y1081278D01*
X129902Y1078392D01*
X134900Y1109578D02*
X134900Y1119526D01*
X134900Y1109578D02*
X120250Y1094928D01*
D18*
X373380Y1137920D03*
X371202Y1091092D03*
D21*
X373380Y1135046D02*
X373380Y1137920D01*
X373380Y1135046D02*
X376200Y1132226D01*
X361550Y1107628D02*
X361550Y1099632D01*
X367204Y1093978D01*
X368316Y1093978D01*
X369197Y1093097D01*
X371202Y1091092D01*
X376200Y1122278D02*
X376200Y1132226D01*
X376200Y1122278D02*
X361550Y1107628D01*
D18*
X640080Y1137920D03*
X637902Y1091092D03*
D21*
X640080Y1135046D02*
X640080Y1137920D01*
X640080Y1135046D02*
X642900Y1132226D01*
X628250Y1107628D02*
X628250Y1099632D01*
X633904Y1093978D01*
X635016Y1093978D01*
X635897Y1093097D01*
X637902Y1091092D01*
X642900Y1122278D02*
X642900Y1132226D01*
X642900Y1122278D02*
X628250Y1107628D01*
X177804Y1078392D02*
X129902Y1078392D01*
X177804Y1078392D02*
X178093Y1078103D01*
X354563Y1085596D02*
X361696Y1085596D01*
X369197Y1093097D01*
X347070Y1078103D02*
X178093Y1078103D01*
X347070Y1078103D02*
X354563Y1085596D01*
X371202Y1091092D02*
X434668Y1091092D01*
X444793Y1101217D01*
X530567Y1101217D02*
X538687Y1093097D01*
X635897Y1093097D01*
X530567Y1101217D02*
X444793Y1101217D01*
X820092Y1116492D02*
X917302Y1116492D01*
X820092Y1116492D02*
X809967Y1126617D01*
X673427Y1126617D02*
X637902Y1091092D01*
X673427Y1126617D02*
X685800Y1126617D01*
X809967Y1126617D01*
D19*
X690880Y1121537D02*
X685800Y1126617D01*
X690880Y1121537D02*
X690880Y1109980D01*
D18*
X918210Y1177290D03*
X917302Y1129030D03*
D21*
X930402Y1166048D02*
X923478Y1172972D01*
X922528Y1172972D02*
X918210Y1177290D01*
X922528Y1172972D02*
X923478Y1172972D01*
X930402Y1166048D02*
X930402Y1142130D01*
X917302Y1129030D01*
D18*
X130810Y1139190D03*
X129902Y1090930D03*
D21*
X143002Y1127948D02*
X136078Y1134872D01*
X135128Y1134872D02*
X130810Y1139190D01*
X135128Y1134872D02*
X136078Y1134872D01*
X143002Y1127948D02*
X143002Y1104030D01*
X129902Y1090930D01*
D18*
X372110Y1151890D03*
X371202Y1103630D03*
D21*
X384302Y1140648D02*
X377378Y1147572D01*
X376428Y1147572D02*
X372110Y1151890D01*
X376428Y1147572D02*
X377378Y1147572D01*
X384302Y1140648D02*
X384302Y1116730D01*
X371202Y1103630D01*
D18*
X638810Y1151890D03*
X637902Y1103630D03*
D21*
X651002Y1140648D02*
X644078Y1147572D01*
X643128Y1147572D02*
X638810Y1151890D01*
X643128Y1147572D02*
X644078Y1147572D01*
X651002Y1140648D02*
X651002Y1116730D01*
X637902Y1103630D01*
X167806Y1139190D02*
X130810Y1139190D01*
X167806Y1139190D02*
X178093Y1128903D01*
X365426Y1145206D02*
X372110Y1151890D01*
X365426Y1145206D02*
X296143Y1145206D01*
X279840Y1128903D02*
X178093Y1128903D01*
X279840Y1128903D02*
X296143Y1145206D01*
X372110Y1151890D02*
X444666Y1151890D01*
X444793Y1152017D01*
X530567Y1152017D02*
X530694Y1151890D01*
X638810Y1151890D01*
X530567Y1152017D02*
X444793Y1152017D01*
X638810Y1151890D02*
X685800Y1151890D01*
X724066Y1151890D01*
X724193Y1152017D01*
X867196Y1152017D02*
X868659Y1153480D01*
X894400Y1153480D02*
X918210Y1177290D01*
X867196Y1152017D02*
X724193Y1152017D01*
X868659Y1153480D02*
X894400Y1153480D01*
D19*
X685800Y1151890D02*
X685800Y1181100D01*
D20*
X355600Y1781900D02*
X355600Y1797050D01*
X325120Y1797050D01*
X306070Y1778000D01*
X521970Y1783170D02*
X521970Y1797050D01*
X523240Y1798320D01*
X495300Y1798320D01*
X483870Y1786890D01*
D19*
X595840Y1782960D02*
X596900Y1781900D01*
X595840Y1782960D02*
X595840Y1790097D01*
X594147Y1791790D01*
X584653Y1791790D02*
X583563Y1790700D01*
X558800Y1790700D01*
X584653Y1791790D02*
X594147Y1791790D01*
D20*
X967900Y721200D02*
X967900Y705800D01*
X957580Y731520D02*
X957580Y736450D01*
X957580Y731520D02*
X967900Y721200D01*
X992900Y733670D02*
X992900Y705800D01*
X992900Y733670D02*
X995680Y736450D01*
X1008380Y736450D01*
X1028700Y706120D02*
X1028380Y705800D01*
X1012900Y705800D01*
X1002900Y640400D02*
X1002900Y620630D01*
X1002030Y619760D01*
X994410Y612140D02*
X991870Y612140D01*
X994410Y612140D02*
X1002030Y619760D01*
X1007900Y611350D02*
X1007900Y640400D01*
X1007900Y611350D02*
X1007900Y597380D01*
X1008380Y596900D01*
X1012900Y622300D02*
X1012900Y640400D01*
X1012900Y622300D02*
X1023060Y612140D01*
X1024890Y612140D01*
X1007900Y705800D02*
X1002900Y705800D01*
X1007900Y705800D02*
X1007900Y717070D01*
X1021080Y730250D02*
X1021080Y736450D01*
X1021080Y730250D02*
X1007900Y717070D01*
X1021080Y736450D02*
X1033780Y736450D01*
D19*
X983860Y704840D02*
X982900Y705800D01*
X983860Y704840D02*
X983860Y684548D01*
X1005654Y662754D01*
X1062346Y662754D01*
X1065750Y659350D01*
X1066800Y658300D01*
X1054100Y647700D02*
X1054100Y628800D01*
X1054100Y647700D02*
X1065750Y659350D01*
X988860Y697248D02*
X988860Y704840D01*
X987900Y705800D01*
X988860Y697248D02*
X1014168Y671940D01*
X1028700Y671940D01*
X1066800Y710040D01*
X1066800Y713300D01*
X1066800Y685392D01*
X1075340Y676852D01*
X1075340Y625748D01*
X1072288Y628800D02*
X1066800Y628800D01*
X1072288Y628800D02*
X1075340Y625748D01*
X942900Y705800D02*
X921850Y705800D01*
X900430Y684380D01*
X904090Y723900D02*
X901700Y726290D01*
X904090Y723900D02*
X937363Y723900D01*
X946940Y706760D02*
X947900Y705800D01*
X946940Y706760D02*
X946940Y714352D01*
X945452Y715840D01*
X945423Y715840D01*
X937363Y723900D01*
X951940Y706760D02*
X952900Y705800D01*
X951940Y706760D02*
X951940Y724512D01*
X906982Y769470D01*
X901700Y769470D01*
X950540Y735870D02*
X950540Y731898D01*
X957900Y724538D02*
X957900Y705800D01*
X957900Y724538D02*
X950540Y731898D01*
X943204Y742188D02*
X939038Y746354D01*
X944222Y742188D02*
X950540Y735870D01*
X944222Y742188D02*
X943204Y742188D01*
X939038Y765152D02*
X924560Y779630D01*
X939038Y765152D02*
X939038Y746354D01*
X947900Y560400D02*
X914400Y526900D01*
X947900Y560400D02*
X947900Y640400D01*
X952900Y534920D02*
X939800Y532280D01*
X952900Y534920D02*
X952900Y640400D01*
X959970Y532280D02*
X972820Y532280D01*
X959970Y532280D02*
X957900Y534350D01*
X957900Y640400D01*
X942900Y603100D02*
X914400Y578000D01*
X942900Y603100D02*
X942900Y640400D01*
X977900Y640400D02*
X977900Y584200D01*
X988060Y574040D01*
X998002Y574040D01*
X1013242Y558800D02*
X1016000Y558800D01*
X1013242Y558800D02*
X998002Y574040D01*
X972900Y579200D02*
X972900Y640400D01*
X972900Y579200D02*
X965200Y571500D01*
X977900Y558800D01*
X990600Y558800D01*
M02*
