G04 EAGLE Gerber RS-274X export*
G75*
%MOMM*%
%FSLAX34Y34*%
%LPD*%
%INCopper Layer 15*%
%IPPOS*%
%AMOC8*
5,1,8,0,0,1.08239X$1,22.5*%
G01*
%ADD10C,1.498600*%
%ADD11C,0.914400*%
%ADD12C,0.508000*%


D10*
X967740Y119380D03*
X993140Y119380D03*
X1018540Y119380D03*
X1043940Y119380D03*
X1069340Y119380D03*
X1094740Y119380D03*
X1120140Y119380D03*
X1120140Y195580D03*
X1094740Y195580D03*
X1069340Y195580D03*
X1043940Y195580D03*
X1018540Y195580D03*
X993140Y195580D03*
X967740Y195580D03*
X695960Y477520D03*
X670560Y477520D03*
X645160Y477520D03*
X619760Y477520D03*
X594360Y477520D03*
X568960Y477520D03*
X543560Y477520D03*
X543560Y401320D03*
X568960Y401320D03*
X594360Y401320D03*
X619760Y401320D03*
X645160Y401320D03*
X670560Y401320D03*
X695960Y401320D03*
X967740Y563880D03*
X993140Y563880D03*
X1018540Y563880D03*
X1043940Y563880D03*
X1069340Y563880D03*
X1094740Y563880D03*
X1120140Y563880D03*
X1120140Y640080D03*
X1094740Y640080D03*
X1069340Y640080D03*
X1043940Y640080D03*
X1018540Y640080D03*
X993140Y640080D03*
X967740Y640080D03*
X695960Y922020D03*
X670560Y922020D03*
X645160Y922020D03*
X619760Y922020D03*
X594360Y922020D03*
X568960Y922020D03*
X543560Y922020D03*
X543560Y845820D03*
X568960Y845820D03*
X594360Y845820D03*
X619760Y845820D03*
X645160Y845820D03*
X670560Y845820D03*
X695960Y845820D03*
D11*
X1073230Y236220D03*
X944880Y101600D03*
X641350Y184150D03*
X652780Y158750D03*
D12*
X641350Y170180D02*
X641350Y184150D01*
X641350Y170180D02*
X652780Y158750D01*
X887730Y158750D01*
X944880Y101600D01*
X945007Y101727D01*
X1122808Y101727D01*
X1141857Y120776D01*
X1111330Y236220D02*
X1073230Y236220D01*
X1111330Y236220D02*
X1141857Y205693D01*
X1141857Y120776D01*
D11*
X609600Y229870D03*
D12*
X627665Y247935D01*
X745205Y247935D01*
D11*
X752065Y254795D03*
X812011Y248439D03*
D12*
X752065Y254795D02*
X745205Y247935D01*
X758421Y248439D02*
X812011Y248439D01*
X758421Y248439D02*
X752065Y254795D01*
D11*
X914423Y212113D03*
D12*
X932188Y229878D01*
X953952Y248920D01*
X812491Y248920D01*
X812011Y248439D01*
X597408Y189418D02*
X597408Y181422D01*
X603062Y175768D01*
X611058Y175768D01*
X609600Y201610D02*
X609600Y229870D01*
X619440Y184150D02*
X641350Y184150D01*
X609600Y201610D02*
X597408Y189418D01*
X611058Y175768D02*
X619440Y184150D01*
D11*
X590470Y360680D03*
X718820Y495300D03*
X1022350Y412750D03*
X1010920Y438150D03*
D12*
X1022350Y426720D02*
X1022350Y412750D01*
X1022350Y426720D02*
X1010920Y438150D01*
X775970Y438150D01*
X718820Y495300D01*
X718693Y495173D01*
X540892Y495173D01*
X521843Y476124D01*
X552370Y360680D02*
X590470Y360680D01*
X552370Y360680D02*
X521843Y391207D01*
X521843Y476124D01*
D11*
X1054100Y367030D03*
D12*
X1036035Y348965D01*
X918495Y348965D01*
D11*
X911635Y342105D03*
X851689Y348461D03*
D12*
X911635Y342105D02*
X918495Y348965D01*
X905279Y348461D02*
X851689Y348461D01*
X905279Y348461D02*
X911635Y342105D01*
D11*
X749277Y384787D03*
D12*
X731512Y367022D01*
X709749Y347980D01*
X851209Y347980D01*
X851689Y348461D01*
X1066292Y407482D02*
X1066292Y415478D01*
X1060638Y421132D01*
X1052642Y421132D01*
X1054100Y395290D02*
X1054100Y367030D01*
X1044260Y412750D02*
X1022350Y412750D01*
X1054100Y395290D02*
X1066292Y407482D01*
X1052642Y421132D02*
X1044260Y412750D01*
D11*
X481330Y177800D03*
X381000Y429260D03*
X163954Y1011541D03*
X69850Y1021080D03*
X67310Y971550D03*
D12*
X67310Y1018540D01*
X69850Y1021080D01*
X154415Y1021080D01*
X163954Y1011541D01*
D11*
X34290Y50800D03*
X1073230Y680720D03*
X944880Y546100D03*
X641350Y628650D03*
X652780Y603250D03*
D12*
X641350Y614680D02*
X641350Y628650D01*
X641350Y614680D02*
X652780Y603250D01*
X887730Y603250D01*
X944880Y546100D01*
X945007Y546227D01*
X1122808Y546227D01*
X1141857Y565276D01*
X1111330Y680720D02*
X1073230Y680720D01*
X1111330Y680720D02*
X1141857Y650193D01*
X1141857Y565276D01*
D11*
X609600Y674370D03*
D12*
X627665Y692435D01*
X745205Y692435D01*
D11*
X752065Y699295D03*
X812011Y692939D03*
D12*
X752065Y699295D02*
X745205Y692435D01*
X758421Y692939D02*
X812011Y692939D01*
X758421Y692939D02*
X752065Y699295D01*
D11*
X914423Y656613D03*
D12*
X932188Y674378D01*
X953952Y693420D01*
X812491Y693420D01*
X812011Y692939D01*
X597408Y633918D02*
X597408Y625922D01*
X603062Y620268D01*
X611058Y620268D01*
X609600Y646110D02*
X609600Y674370D01*
X619440Y628650D02*
X641350Y628650D01*
X609600Y646110D02*
X597408Y633918D01*
X611058Y620268D02*
X619440Y628650D01*
D11*
X590470Y805180D03*
X718820Y939800D03*
X1022350Y857250D03*
X1010920Y882650D03*
D12*
X1022350Y871220D02*
X1022350Y857250D01*
X1022350Y871220D02*
X1010920Y882650D01*
X775970Y882650D01*
X718820Y939800D01*
X718693Y939673D01*
X540892Y939673D01*
X521843Y920624D01*
X552370Y805180D02*
X590470Y805180D01*
X552370Y805180D02*
X521843Y835707D01*
X521843Y920624D01*
D11*
X1054100Y811530D03*
D12*
X1036035Y793465D01*
X918495Y793465D01*
D11*
X911635Y786605D03*
X851689Y792961D03*
D12*
X911635Y786605D02*
X918495Y793465D01*
X905279Y792961D02*
X851689Y792961D01*
X905279Y792961D02*
X911635Y786605D01*
D11*
X749277Y829287D03*
D12*
X731512Y811522D01*
X709749Y792480D01*
X851209Y792480D01*
X851689Y792961D01*
X1066292Y851982D02*
X1066292Y859978D01*
X1060638Y865632D01*
X1052642Y865632D01*
X1054100Y839790D02*
X1054100Y811530D01*
X1044260Y857250D02*
X1022350Y857250D01*
X1054100Y839790D02*
X1066292Y851982D01*
X1052642Y865632D02*
X1044260Y857250D01*
D11*
X269240Y482600D03*
X353060Y1003300D03*
X84441Y267846D03*
X93980Y361950D03*
X44450Y364490D03*
D12*
X91440Y364490D01*
X93980Y361950D01*
X93980Y277385D01*
X84441Y267846D01*
D11*
X585470Y231140D03*
X588010Y170180D03*
X1078230Y365760D03*
X1075690Y426720D03*
X424180Y143510D03*
X438150Y463550D03*
X585470Y675640D03*
X588010Y614680D03*
X1078230Y810260D03*
X1075690Y871220D03*
X234950Y539750D03*
X387350Y946150D03*
X586265Y243045D03*
X438150Y450850D03*
X586740Y184150D03*
X585470Y218440D03*
X589280Y157480D03*
X1078230Y378460D03*
X1074420Y439420D03*
X411480Y130810D03*
X450850Y476250D03*
X585470Y662940D03*
X589280Y601980D03*
X1078230Y822960D03*
X1074420Y883920D03*
X222250Y552450D03*
X400050Y933450D03*
X1071880Y309880D03*
X1118708Y307702D03*
X591820Y287020D03*
X544992Y289198D03*
X1071880Y754380D03*
X1118708Y752202D03*
X591820Y731520D03*
X544992Y733698D03*
X1057910Y308610D03*
X1106170Y307702D03*
X605790Y288290D03*
X557530Y289198D03*
X1057910Y753110D03*
X1106170Y752202D03*
X605790Y732790D03*
X557530Y733698D03*
X586725Y205725D03*
X701040Y205740D03*
X849630Y107950D03*
X826770Y259080D03*
X966470Y271780D03*
X1043940Y285750D03*
X1090356Y262636D03*
X1076975Y391175D03*
X962660Y391160D03*
X814070Y488950D03*
X836930Y337820D03*
X697230Y325120D03*
X619760Y311150D03*
X573344Y334264D03*
X586725Y650225D03*
X701040Y650240D03*
X849630Y552450D03*
X826770Y703580D03*
X966470Y716280D03*
X1043940Y730250D03*
X1090356Y707136D03*
X1076975Y835675D03*
X962660Y835660D03*
X814070Y933450D03*
X836930Y782320D03*
X697230Y769620D03*
X619760Y755650D03*
X573344Y778764D03*
X895350Y165100D03*
X607060Y185420D03*
X757620Y203330D03*
X916940Y232410D03*
X1040130Y308610D03*
X1137920Y285750D03*
D12*
X916940Y232410D02*
X887860Y203330D01*
X757620Y203330D01*
X895350Y210820D02*
X916940Y232410D01*
X895350Y210820D02*
X895350Y165100D01*
X942340Y212090D01*
X943610Y212090D02*
X985520Y254000D01*
X1106170Y254000D01*
X1137920Y285750D01*
X1079500Y285750D01*
X1062990Y285750D01*
X1040130Y308610D01*
X951230Y212090D02*
X967740Y195580D01*
X951230Y212090D02*
X943610Y212090D01*
X942340Y212090D01*
D11*
X1082842Y303048D03*
D12*
X1049782Y298958D02*
X1040130Y308610D01*
X617350Y195710D02*
X607060Y185420D01*
X617350Y195710D02*
X750000Y195710D01*
X757620Y203330D01*
X1082842Y289092D02*
X1082842Y303048D01*
X1082842Y289092D02*
X1079500Y285750D01*
D11*
X768350Y431800D03*
X1056640Y411480D03*
X906080Y393570D03*
X746760Y364490D03*
X623570Y288290D03*
X525780Y311150D03*
D12*
X746760Y364490D02*
X775840Y393570D01*
X906080Y393570D01*
X768350Y386080D02*
X746760Y364490D01*
X768350Y386080D02*
X768350Y431800D01*
X721360Y384810D01*
X720090Y384810D02*
X678180Y342900D01*
X557530Y342900D01*
X525780Y311150D01*
X584200Y311150D01*
X600710Y311150D01*
X623570Y288290D01*
X712470Y384810D02*
X695960Y401320D01*
X712470Y384810D02*
X720090Y384810D01*
X721360Y384810D01*
D11*
X580858Y293852D03*
D12*
X613918Y297942D02*
X623570Y288290D01*
X1046350Y401190D02*
X1056640Y411480D01*
X1046350Y401190D02*
X913700Y401190D01*
X906080Y393570D01*
X580858Y307808D02*
X580858Y293852D01*
X580858Y307808D02*
X584200Y311150D01*
D11*
X177800Y307713D03*
D12*
X168013Y317500D01*
X165100Y317500D01*
D11*
X464820Y37672D03*
X397510Y569388D03*
X139700Y965200D03*
X142240Y34290D03*
X895350Y609600D03*
X607060Y629920D03*
X757620Y647830D03*
X916940Y676910D03*
X1040130Y753110D03*
X1137920Y730250D03*
D12*
X916940Y676910D02*
X887860Y647830D01*
X757620Y647830D01*
X895350Y655320D02*
X916940Y676910D01*
X895350Y655320D02*
X895350Y609600D01*
X942340Y656590D01*
X943610Y656590D02*
X985520Y698500D01*
X1106170Y698500D01*
X1137920Y730250D01*
X1079500Y730250D01*
X1062990Y730250D01*
X1040130Y753110D01*
X951230Y656590D02*
X967740Y640080D01*
X951230Y656590D02*
X943610Y656590D01*
X942340Y656590D01*
D11*
X1082842Y747548D03*
D12*
X1049782Y743458D02*
X1040130Y753110D01*
X617350Y640210D02*
X607060Y629920D01*
X617350Y640210D02*
X750000Y640210D01*
X757620Y647830D01*
X1082842Y733592D02*
X1082842Y747548D01*
X1082842Y733592D02*
X1079500Y730250D01*
D11*
X768350Y876300D03*
X1056640Y855980D03*
X906080Y838070D03*
X746760Y808990D03*
X623570Y732790D03*
X525780Y755650D03*
D12*
X746760Y808990D02*
X775840Y838070D01*
X906080Y838070D01*
X768350Y830580D02*
X746760Y808990D01*
X768350Y830580D02*
X768350Y876300D01*
X721360Y829310D01*
X720090Y829310D02*
X678180Y787400D01*
X557530Y787400D01*
X525780Y755650D01*
X584200Y755650D01*
X600710Y755650D01*
X623570Y732790D01*
X712470Y829310D02*
X695960Y845820D01*
X712470Y829310D02*
X720090Y829310D01*
X721360Y829310D01*
D11*
X580858Y738352D03*
D12*
X613918Y742442D02*
X623570Y732790D01*
X1046350Y845690D02*
X1056640Y855980D01*
X1046350Y845690D02*
X913700Y845690D01*
X906080Y838070D01*
X580858Y752308D02*
X580858Y738352D01*
X580858Y752308D02*
X584200Y755650D01*
D11*
X129112Y499110D03*
X127000Y790313D03*
D12*
X117213Y800100D01*
X114300Y800100D01*
D11*
X493188Y986790D03*
X38100Y292100D03*
X1077435Y353855D03*
X1076960Y412750D03*
X143510Y292100D03*
X165100Y279400D03*
X173990Y267020D03*
X241300Y292100D03*
X382222Y81253D03*
X413595Y118490D03*
X480108Y525807D03*
X448735Y488570D03*
X187960Y1027430D03*
X370840Y388620D03*
X349250Y457200D03*
X82550Y67310D03*
X172693Y581708D03*
X209930Y550335D03*
X190500Y774700D03*
X449607Y904192D03*
X412370Y935565D03*
X100330Y243840D03*
X424180Y156210D03*
X355600Y429260D03*
X335280Y414020D03*
X336550Y347980D03*
X355601Y334009D03*
X387350Y429260D03*
X76200Y50800D03*
X368300Y749300D03*
X482600Y520700D03*
X469900Y609092D03*
X468630Y698500D03*
X458470Y711200D03*
X466090Y551180D03*
X467360Y619760D03*
X375920Y701040D03*
X378460Y535940D03*
X369570Y610870D03*
X459740Y684530D03*
X458470Y522732D03*
X464820Y596900D03*
X379730Y689610D03*
X377190Y524510D03*
X372110Y598170D03*
X586265Y687545D03*
X586740Y628650D03*
X1077435Y798355D03*
X1076960Y857250D03*
X247650Y539750D03*
X92710Y774700D03*
X114300Y762000D03*
X123190Y749620D03*
X374650Y946150D03*
M02*
