G04 EAGLE Gerber RS-274X export*
G75*
%MOMM*%
%FSLAX34Y34*%
%LPD*%
%INSilkscreen Bottom*%
%IPPOS*%
%AMOC8*
5,1,8,0,0,1.08239X$1,22.5*%
G01*
%ADD10C,0.101600*%
%ADD11C,0.200000*%
%ADD12C,0.127000*%


D10*
X130938Y572579D02*
X130938Y569982D01*
X130940Y569883D01*
X130946Y569783D01*
X130955Y569684D01*
X130968Y569586D01*
X130985Y569488D01*
X131006Y569390D01*
X131031Y569294D01*
X131059Y569199D01*
X131091Y569105D01*
X131126Y569012D01*
X131165Y568920D01*
X131208Y568830D01*
X131253Y568742D01*
X131303Y568655D01*
X131355Y568571D01*
X131411Y568488D01*
X131469Y568408D01*
X131531Y568330D01*
X131596Y568255D01*
X131664Y568182D01*
X131734Y568112D01*
X131807Y568044D01*
X131882Y567979D01*
X131960Y567917D01*
X132040Y567859D01*
X132123Y567803D01*
X132207Y567751D01*
X132294Y567701D01*
X132382Y567656D01*
X132472Y567613D01*
X132564Y567574D01*
X132657Y567539D01*
X132751Y567507D01*
X132846Y567479D01*
X132942Y567454D01*
X133040Y567433D01*
X133138Y567416D01*
X133236Y567403D01*
X133335Y567394D01*
X133435Y567388D01*
X133534Y567386D01*
X140026Y567386D01*
X140125Y567388D01*
X140225Y567394D01*
X140324Y567403D01*
X140422Y567416D01*
X140520Y567433D01*
X140618Y567454D01*
X140714Y567479D01*
X140809Y567507D01*
X140903Y567539D01*
X140996Y567574D01*
X141088Y567613D01*
X141178Y567656D01*
X141266Y567701D01*
X141353Y567751D01*
X141437Y567803D01*
X141520Y567859D01*
X141600Y567917D01*
X141678Y567979D01*
X141753Y568044D01*
X141826Y568112D01*
X141896Y568182D01*
X141964Y568255D01*
X142029Y568330D01*
X142091Y568408D01*
X142149Y568488D01*
X142205Y568571D01*
X142257Y568655D01*
X142307Y568742D01*
X142352Y568830D01*
X142395Y568920D01*
X142434Y569012D01*
X142469Y569104D01*
X142501Y569199D01*
X142529Y569294D01*
X142554Y569390D01*
X142575Y569488D01*
X142592Y569586D01*
X142605Y569684D01*
X142614Y569783D01*
X142620Y569883D01*
X142622Y569982D01*
X142622Y572579D01*
X130938Y577348D02*
X130938Y582540D01*
X130938Y577348D02*
X142622Y577348D01*
X142622Y582540D01*
X137429Y581242D02*
X137429Y577348D01*
X129640Y586356D02*
X129640Y591549D01*
X130938Y596398D02*
X130938Y601590D01*
X130938Y596398D02*
X142622Y596398D01*
X142622Y601590D01*
X137429Y600292D02*
X137429Y596398D01*
X139376Y606567D02*
X134184Y606567D01*
X139376Y606567D02*
X139489Y606569D01*
X139602Y606575D01*
X139715Y606585D01*
X139828Y606599D01*
X139940Y606616D01*
X140051Y606638D01*
X140161Y606663D01*
X140271Y606693D01*
X140379Y606726D01*
X140486Y606763D01*
X140592Y606803D01*
X140696Y606848D01*
X140799Y606896D01*
X140900Y606947D01*
X140999Y607002D01*
X141096Y607060D01*
X141191Y607122D01*
X141284Y607187D01*
X141374Y607255D01*
X141462Y607326D01*
X141548Y607401D01*
X141631Y607478D01*
X141711Y607558D01*
X141788Y607641D01*
X141863Y607727D01*
X141934Y607815D01*
X142002Y607905D01*
X142067Y607998D01*
X142129Y608093D01*
X142187Y608190D01*
X142242Y608289D01*
X142293Y608390D01*
X142341Y608493D01*
X142386Y608597D01*
X142426Y608703D01*
X142463Y608810D01*
X142496Y608918D01*
X142526Y609028D01*
X142551Y609138D01*
X142573Y609249D01*
X142590Y609361D01*
X142604Y609474D01*
X142614Y609587D01*
X142620Y609700D01*
X142622Y609813D01*
X142620Y609926D01*
X142614Y610039D01*
X142604Y610152D01*
X142590Y610265D01*
X142573Y610377D01*
X142551Y610488D01*
X142526Y610598D01*
X142496Y610708D01*
X142463Y610816D01*
X142426Y610923D01*
X142386Y611029D01*
X142341Y611133D01*
X142293Y611236D01*
X142242Y611337D01*
X142187Y611436D01*
X142129Y611533D01*
X142067Y611628D01*
X142002Y611721D01*
X141934Y611811D01*
X141863Y611899D01*
X141788Y611985D01*
X141711Y612068D01*
X141631Y612148D01*
X141548Y612225D01*
X141462Y612300D01*
X141374Y612371D01*
X141284Y612439D01*
X141191Y612504D01*
X141096Y612566D01*
X140999Y612624D01*
X140900Y612679D01*
X140799Y612730D01*
X140696Y612778D01*
X140592Y612823D01*
X140486Y612863D01*
X140379Y612900D01*
X140271Y612933D01*
X140161Y612963D01*
X140051Y612988D01*
X139940Y613010D01*
X139828Y613027D01*
X139715Y613041D01*
X139602Y613051D01*
X139489Y613057D01*
X139376Y613059D01*
X139376Y613058D02*
X134184Y613058D01*
X134184Y613059D02*
X134071Y613057D01*
X133958Y613051D01*
X133845Y613041D01*
X133732Y613027D01*
X133620Y613010D01*
X133509Y612988D01*
X133399Y612963D01*
X133289Y612933D01*
X133181Y612900D01*
X133074Y612863D01*
X132968Y612823D01*
X132864Y612778D01*
X132761Y612730D01*
X132660Y612679D01*
X132561Y612624D01*
X132464Y612566D01*
X132369Y612504D01*
X132276Y612439D01*
X132186Y612371D01*
X132098Y612300D01*
X132012Y612225D01*
X131929Y612148D01*
X131849Y612068D01*
X131772Y611985D01*
X131697Y611899D01*
X131626Y611811D01*
X131558Y611721D01*
X131493Y611628D01*
X131431Y611533D01*
X131373Y611436D01*
X131318Y611337D01*
X131267Y611236D01*
X131219Y611133D01*
X131174Y611029D01*
X131134Y610923D01*
X131097Y610816D01*
X131064Y610708D01*
X131034Y610598D01*
X131009Y610488D01*
X130987Y610377D01*
X130970Y610265D01*
X130956Y610152D01*
X130946Y610039D01*
X130940Y609926D01*
X130938Y609813D01*
X130940Y609700D01*
X130946Y609587D01*
X130956Y609474D01*
X130970Y609361D01*
X130987Y609249D01*
X131009Y609138D01*
X131034Y609028D01*
X131064Y608918D01*
X131097Y608810D01*
X131134Y608703D01*
X131174Y608597D01*
X131219Y608493D01*
X131267Y608390D01*
X131318Y608289D01*
X131373Y608190D01*
X131431Y608093D01*
X131493Y607998D01*
X131558Y607905D01*
X131626Y607815D01*
X131697Y607727D01*
X131772Y607641D01*
X131849Y607558D01*
X131929Y607478D01*
X132012Y607401D01*
X132098Y607326D01*
X132186Y607255D01*
X132276Y607187D01*
X132369Y607122D01*
X132464Y607060D01*
X132561Y607002D01*
X132660Y606947D01*
X132761Y606896D01*
X132864Y606848D01*
X132968Y606803D01*
X133074Y606763D01*
X133181Y606726D01*
X133289Y606693D01*
X133399Y606663D01*
X133509Y606638D01*
X133620Y606616D01*
X133732Y606599D01*
X133845Y606585D01*
X133958Y606575D01*
X134071Y606569D01*
X134184Y606567D01*
X133534Y611760D02*
X130938Y614356D01*
X140026Y617711D02*
X142622Y620956D01*
X130938Y620956D01*
X130938Y617711D02*
X130938Y624202D01*
X740538Y585279D02*
X740538Y582682D01*
X740540Y582583D01*
X740546Y582483D01*
X740555Y582384D01*
X740568Y582286D01*
X740585Y582188D01*
X740606Y582090D01*
X740631Y581994D01*
X740659Y581899D01*
X740691Y581805D01*
X740726Y581712D01*
X740765Y581620D01*
X740808Y581530D01*
X740853Y581442D01*
X740903Y581355D01*
X740955Y581271D01*
X741011Y581188D01*
X741069Y581108D01*
X741131Y581030D01*
X741196Y580955D01*
X741264Y580882D01*
X741334Y580812D01*
X741407Y580744D01*
X741482Y580679D01*
X741560Y580617D01*
X741640Y580559D01*
X741723Y580503D01*
X741807Y580451D01*
X741894Y580401D01*
X741982Y580356D01*
X742072Y580313D01*
X742164Y580274D01*
X742257Y580239D01*
X742351Y580207D01*
X742446Y580179D01*
X742542Y580154D01*
X742640Y580133D01*
X742738Y580116D01*
X742836Y580103D01*
X742935Y580094D01*
X743035Y580088D01*
X743134Y580086D01*
X749626Y580086D01*
X749725Y580088D01*
X749825Y580094D01*
X749924Y580103D01*
X750022Y580116D01*
X750120Y580133D01*
X750218Y580154D01*
X750314Y580179D01*
X750409Y580207D01*
X750503Y580239D01*
X750596Y580274D01*
X750688Y580313D01*
X750778Y580356D01*
X750866Y580401D01*
X750953Y580451D01*
X751037Y580503D01*
X751120Y580559D01*
X751200Y580617D01*
X751278Y580679D01*
X751353Y580744D01*
X751426Y580812D01*
X751496Y580882D01*
X751564Y580955D01*
X751629Y581030D01*
X751691Y581108D01*
X751749Y581188D01*
X751805Y581271D01*
X751857Y581355D01*
X751907Y581442D01*
X751952Y581530D01*
X751995Y581620D01*
X752034Y581712D01*
X752069Y581804D01*
X752101Y581899D01*
X752129Y581994D01*
X752154Y582090D01*
X752175Y582188D01*
X752192Y582286D01*
X752205Y582384D01*
X752214Y582483D01*
X752220Y582583D01*
X752222Y582682D01*
X752222Y585279D01*
X740538Y590048D02*
X740538Y595240D01*
X740538Y590048D02*
X752222Y590048D01*
X752222Y595240D01*
X747029Y593942D02*
X747029Y590048D01*
X739240Y599056D02*
X739240Y604249D01*
X740538Y609098D02*
X740538Y614290D01*
X740538Y609098D02*
X752222Y609098D01*
X752222Y614290D01*
X747029Y612992D02*
X747029Y609098D01*
X748976Y619267D02*
X743784Y619267D01*
X748976Y619267D02*
X749089Y619269D01*
X749202Y619275D01*
X749315Y619285D01*
X749428Y619299D01*
X749540Y619316D01*
X749651Y619338D01*
X749761Y619363D01*
X749871Y619393D01*
X749979Y619426D01*
X750086Y619463D01*
X750192Y619503D01*
X750296Y619548D01*
X750399Y619596D01*
X750500Y619647D01*
X750599Y619702D01*
X750696Y619760D01*
X750791Y619822D01*
X750884Y619887D01*
X750974Y619955D01*
X751062Y620026D01*
X751148Y620101D01*
X751231Y620178D01*
X751311Y620258D01*
X751388Y620341D01*
X751463Y620427D01*
X751534Y620515D01*
X751602Y620605D01*
X751667Y620698D01*
X751729Y620793D01*
X751787Y620890D01*
X751842Y620989D01*
X751893Y621090D01*
X751941Y621193D01*
X751986Y621297D01*
X752026Y621403D01*
X752063Y621510D01*
X752096Y621618D01*
X752126Y621728D01*
X752151Y621838D01*
X752173Y621949D01*
X752190Y622061D01*
X752204Y622174D01*
X752214Y622287D01*
X752220Y622400D01*
X752222Y622513D01*
X752220Y622626D01*
X752214Y622739D01*
X752204Y622852D01*
X752190Y622965D01*
X752173Y623077D01*
X752151Y623188D01*
X752126Y623298D01*
X752096Y623408D01*
X752063Y623516D01*
X752026Y623623D01*
X751986Y623729D01*
X751941Y623833D01*
X751893Y623936D01*
X751842Y624037D01*
X751787Y624136D01*
X751729Y624233D01*
X751667Y624328D01*
X751602Y624421D01*
X751534Y624511D01*
X751463Y624599D01*
X751388Y624685D01*
X751311Y624768D01*
X751231Y624848D01*
X751148Y624925D01*
X751062Y625000D01*
X750974Y625071D01*
X750884Y625139D01*
X750791Y625204D01*
X750696Y625266D01*
X750599Y625324D01*
X750500Y625379D01*
X750399Y625430D01*
X750296Y625478D01*
X750192Y625523D01*
X750086Y625563D01*
X749979Y625600D01*
X749871Y625633D01*
X749761Y625663D01*
X749651Y625688D01*
X749540Y625710D01*
X749428Y625727D01*
X749315Y625741D01*
X749202Y625751D01*
X749089Y625757D01*
X748976Y625759D01*
X748976Y625758D02*
X743784Y625758D01*
X743784Y625759D02*
X743671Y625757D01*
X743558Y625751D01*
X743445Y625741D01*
X743332Y625727D01*
X743220Y625710D01*
X743109Y625688D01*
X742999Y625663D01*
X742889Y625633D01*
X742781Y625600D01*
X742674Y625563D01*
X742568Y625523D01*
X742464Y625478D01*
X742361Y625430D01*
X742260Y625379D01*
X742161Y625324D01*
X742064Y625266D01*
X741969Y625204D01*
X741876Y625139D01*
X741786Y625071D01*
X741698Y625000D01*
X741612Y624925D01*
X741529Y624848D01*
X741449Y624768D01*
X741372Y624685D01*
X741297Y624599D01*
X741226Y624511D01*
X741158Y624421D01*
X741093Y624328D01*
X741031Y624233D01*
X740973Y624136D01*
X740918Y624037D01*
X740867Y623936D01*
X740819Y623833D01*
X740774Y623729D01*
X740734Y623623D01*
X740697Y623516D01*
X740664Y623408D01*
X740634Y623298D01*
X740609Y623188D01*
X740587Y623077D01*
X740570Y622965D01*
X740556Y622852D01*
X740546Y622739D01*
X740540Y622626D01*
X740538Y622513D01*
X740540Y622400D01*
X740546Y622287D01*
X740556Y622174D01*
X740570Y622061D01*
X740587Y621949D01*
X740609Y621838D01*
X740634Y621728D01*
X740664Y621618D01*
X740697Y621510D01*
X740734Y621403D01*
X740774Y621297D01*
X740819Y621193D01*
X740867Y621090D01*
X740918Y620989D01*
X740973Y620890D01*
X741031Y620793D01*
X741093Y620698D01*
X741158Y620605D01*
X741226Y620515D01*
X741297Y620427D01*
X741372Y620341D01*
X741449Y620258D01*
X741529Y620178D01*
X741612Y620101D01*
X741698Y620026D01*
X741786Y619955D01*
X741876Y619887D01*
X741969Y619822D01*
X742064Y619760D01*
X742161Y619702D01*
X742260Y619647D01*
X742361Y619596D01*
X742464Y619548D01*
X742568Y619503D01*
X742674Y619463D01*
X742781Y619426D01*
X742889Y619393D01*
X742999Y619363D01*
X743109Y619338D01*
X743220Y619316D01*
X743332Y619299D01*
X743445Y619285D01*
X743558Y619275D01*
X743671Y619269D01*
X743784Y619267D01*
X743134Y624460D02*
X740538Y627056D01*
X749301Y636902D02*
X749408Y636900D01*
X749514Y636894D01*
X749620Y636884D01*
X749726Y636871D01*
X749832Y636853D01*
X749936Y636832D01*
X750040Y636807D01*
X750143Y636778D01*
X750244Y636746D01*
X750344Y636709D01*
X750443Y636669D01*
X750541Y636626D01*
X750637Y636579D01*
X750731Y636528D01*
X750823Y636474D01*
X750913Y636417D01*
X751001Y636357D01*
X751086Y636293D01*
X751169Y636226D01*
X751250Y636156D01*
X751328Y636084D01*
X751404Y636008D01*
X751476Y635930D01*
X751546Y635849D01*
X751613Y635766D01*
X751677Y635681D01*
X751737Y635593D01*
X751794Y635503D01*
X751848Y635411D01*
X751899Y635317D01*
X751946Y635221D01*
X751989Y635123D01*
X752029Y635024D01*
X752066Y634924D01*
X752098Y634823D01*
X752127Y634720D01*
X752152Y634616D01*
X752173Y634512D01*
X752191Y634406D01*
X752204Y634300D01*
X752214Y634194D01*
X752220Y634088D01*
X752222Y633981D01*
X752220Y633860D01*
X752214Y633739D01*
X752204Y633619D01*
X752191Y633498D01*
X752173Y633379D01*
X752152Y633259D01*
X752127Y633141D01*
X752098Y633024D01*
X752065Y632907D01*
X752029Y632792D01*
X751988Y632678D01*
X751945Y632565D01*
X751897Y632453D01*
X751846Y632344D01*
X751791Y632236D01*
X751733Y632129D01*
X751672Y632025D01*
X751607Y631923D01*
X751539Y631823D01*
X751468Y631725D01*
X751394Y631629D01*
X751317Y631536D01*
X751236Y631446D01*
X751153Y631358D01*
X751067Y631273D01*
X750978Y631190D01*
X750887Y631111D01*
X750793Y631034D01*
X750697Y630961D01*
X750599Y630891D01*
X750498Y630824D01*
X750395Y630760D01*
X750290Y630700D01*
X750183Y630643D01*
X750075Y630589D01*
X749965Y630539D01*
X749853Y630493D01*
X749740Y630450D01*
X749625Y630411D01*
X747029Y635929D02*
X747106Y636008D01*
X747187Y636084D01*
X747270Y636157D01*
X747355Y636227D01*
X747443Y636294D01*
X747533Y636358D01*
X747625Y636418D01*
X747720Y636475D01*
X747816Y636529D01*
X747914Y636580D01*
X748014Y636627D01*
X748116Y636671D01*
X748219Y636711D01*
X748323Y636747D01*
X748429Y636779D01*
X748535Y636808D01*
X748643Y636833D01*
X748751Y636855D01*
X748861Y636872D01*
X748970Y636886D01*
X749080Y636895D01*
X749191Y636901D01*
X749301Y636903D01*
X747029Y635928D02*
X740538Y630411D01*
X740538Y636902D01*
D11*
X342100Y1838400D02*
X342102Y1838463D01*
X342108Y1838525D01*
X342118Y1838587D01*
X342131Y1838649D01*
X342149Y1838709D01*
X342170Y1838768D01*
X342195Y1838826D01*
X342224Y1838882D01*
X342256Y1838936D01*
X342291Y1838988D01*
X342329Y1839037D01*
X342371Y1839085D01*
X342415Y1839129D01*
X342463Y1839171D01*
X342512Y1839209D01*
X342564Y1839244D01*
X342618Y1839276D01*
X342674Y1839305D01*
X342732Y1839330D01*
X342791Y1839351D01*
X342851Y1839369D01*
X342913Y1839382D01*
X342975Y1839392D01*
X343037Y1839398D01*
X343100Y1839400D01*
X343163Y1839398D01*
X343225Y1839392D01*
X343287Y1839382D01*
X343349Y1839369D01*
X343409Y1839351D01*
X343468Y1839330D01*
X343526Y1839305D01*
X343582Y1839276D01*
X343636Y1839244D01*
X343688Y1839209D01*
X343737Y1839171D01*
X343785Y1839129D01*
X343829Y1839085D01*
X343871Y1839037D01*
X343909Y1838988D01*
X343944Y1838936D01*
X343976Y1838882D01*
X344005Y1838826D01*
X344030Y1838768D01*
X344051Y1838709D01*
X344069Y1838649D01*
X344082Y1838587D01*
X344092Y1838525D01*
X344098Y1838463D01*
X344100Y1838400D01*
X344098Y1838337D01*
X344092Y1838275D01*
X344082Y1838213D01*
X344069Y1838151D01*
X344051Y1838091D01*
X344030Y1838032D01*
X344005Y1837974D01*
X343976Y1837918D01*
X343944Y1837864D01*
X343909Y1837812D01*
X343871Y1837763D01*
X343829Y1837715D01*
X343785Y1837671D01*
X343737Y1837629D01*
X343688Y1837591D01*
X343636Y1837556D01*
X343582Y1837524D01*
X343526Y1837495D01*
X343468Y1837470D01*
X343409Y1837449D01*
X343349Y1837431D01*
X343287Y1837418D01*
X343225Y1837408D01*
X343163Y1837402D01*
X343100Y1837400D01*
X343037Y1837402D01*
X342975Y1837408D01*
X342913Y1837418D01*
X342851Y1837431D01*
X342791Y1837449D01*
X342732Y1837470D01*
X342674Y1837495D01*
X342618Y1837524D01*
X342564Y1837556D01*
X342512Y1837591D01*
X342463Y1837629D01*
X342415Y1837671D01*
X342371Y1837715D01*
X342329Y1837763D01*
X342291Y1837812D01*
X342256Y1837864D01*
X342224Y1837918D01*
X342195Y1837974D01*
X342170Y1838032D01*
X342149Y1838091D01*
X342131Y1838151D01*
X342118Y1838213D01*
X342108Y1838275D01*
X342102Y1838337D01*
X342100Y1838400D01*
D12*
X340600Y1818400D02*
X340600Y1788400D01*
X370600Y1788400D02*
X370600Y1818400D01*
D11*
X431000Y1838400D02*
X431002Y1838463D01*
X431008Y1838525D01*
X431018Y1838587D01*
X431031Y1838649D01*
X431049Y1838709D01*
X431070Y1838768D01*
X431095Y1838826D01*
X431124Y1838882D01*
X431156Y1838936D01*
X431191Y1838988D01*
X431229Y1839037D01*
X431271Y1839085D01*
X431315Y1839129D01*
X431363Y1839171D01*
X431412Y1839209D01*
X431464Y1839244D01*
X431518Y1839276D01*
X431574Y1839305D01*
X431632Y1839330D01*
X431691Y1839351D01*
X431751Y1839369D01*
X431813Y1839382D01*
X431875Y1839392D01*
X431937Y1839398D01*
X432000Y1839400D01*
X432063Y1839398D01*
X432125Y1839392D01*
X432187Y1839382D01*
X432249Y1839369D01*
X432309Y1839351D01*
X432368Y1839330D01*
X432426Y1839305D01*
X432482Y1839276D01*
X432536Y1839244D01*
X432588Y1839209D01*
X432637Y1839171D01*
X432685Y1839129D01*
X432729Y1839085D01*
X432771Y1839037D01*
X432809Y1838988D01*
X432844Y1838936D01*
X432876Y1838882D01*
X432905Y1838826D01*
X432930Y1838768D01*
X432951Y1838709D01*
X432969Y1838649D01*
X432982Y1838587D01*
X432992Y1838525D01*
X432998Y1838463D01*
X433000Y1838400D01*
X432998Y1838337D01*
X432992Y1838275D01*
X432982Y1838213D01*
X432969Y1838151D01*
X432951Y1838091D01*
X432930Y1838032D01*
X432905Y1837974D01*
X432876Y1837918D01*
X432844Y1837864D01*
X432809Y1837812D01*
X432771Y1837763D01*
X432729Y1837715D01*
X432685Y1837671D01*
X432637Y1837629D01*
X432588Y1837591D01*
X432536Y1837556D01*
X432482Y1837524D01*
X432426Y1837495D01*
X432368Y1837470D01*
X432309Y1837449D01*
X432249Y1837431D01*
X432187Y1837418D01*
X432125Y1837408D01*
X432063Y1837402D01*
X432000Y1837400D01*
X431937Y1837402D01*
X431875Y1837408D01*
X431813Y1837418D01*
X431751Y1837431D01*
X431691Y1837449D01*
X431632Y1837470D01*
X431574Y1837495D01*
X431518Y1837524D01*
X431464Y1837556D01*
X431412Y1837591D01*
X431363Y1837629D01*
X431315Y1837671D01*
X431271Y1837715D01*
X431229Y1837763D01*
X431191Y1837812D01*
X431156Y1837864D01*
X431124Y1837918D01*
X431095Y1837974D01*
X431070Y1838032D01*
X431049Y1838091D01*
X431031Y1838151D01*
X431018Y1838213D01*
X431008Y1838275D01*
X431002Y1838337D01*
X431000Y1838400D01*
D12*
X429500Y1818400D02*
X429500Y1788400D01*
X459500Y1788400D02*
X459500Y1818400D01*
D11*
X508470Y1839670D02*
X508472Y1839733D01*
X508478Y1839795D01*
X508488Y1839857D01*
X508501Y1839919D01*
X508519Y1839979D01*
X508540Y1840038D01*
X508565Y1840096D01*
X508594Y1840152D01*
X508626Y1840206D01*
X508661Y1840258D01*
X508699Y1840307D01*
X508741Y1840355D01*
X508785Y1840399D01*
X508833Y1840441D01*
X508882Y1840479D01*
X508934Y1840514D01*
X508988Y1840546D01*
X509044Y1840575D01*
X509102Y1840600D01*
X509161Y1840621D01*
X509221Y1840639D01*
X509283Y1840652D01*
X509345Y1840662D01*
X509407Y1840668D01*
X509470Y1840670D01*
X509533Y1840668D01*
X509595Y1840662D01*
X509657Y1840652D01*
X509719Y1840639D01*
X509779Y1840621D01*
X509838Y1840600D01*
X509896Y1840575D01*
X509952Y1840546D01*
X510006Y1840514D01*
X510058Y1840479D01*
X510107Y1840441D01*
X510155Y1840399D01*
X510199Y1840355D01*
X510241Y1840307D01*
X510279Y1840258D01*
X510314Y1840206D01*
X510346Y1840152D01*
X510375Y1840096D01*
X510400Y1840038D01*
X510421Y1839979D01*
X510439Y1839919D01*
X510452Y1839857D01*
X510462Y1839795D01*
X510468Y1839733D01*
X510470Y1839670D01*
X510468Y1839607D01*
X510462Y1839545D01*
X510452Y1839483D01*
X510439Y1839421D01*
X510421Y1839361D01*
X510400Y1839302D01*
X510375Y1839244D01*
X510346Y1839188D01*
X510314Y1839134D01*
X510279Y1839082D01*
X510241Y1839033D01*
X510199Y1838985D01*
X510155Y1838941D01*
X510107Y1838899D01*
X510058Y1838861D01*
X510006Y1838826D01*
X509952Y1838794D01*
X509896Y1838765D01*
X509838Y1838740D01*
X509779Y1838719D01*
X509719Y1838701D01*
X509657Y1838688D01*
X509595Y1838678D01*
X509533Y1838672D01*
X509470Y1838670D01*
X509407Y1838672D01*
X509345Y1838678D01*
X509283Y1838688D01*
X509221Y1838701D01*
X509161Y1838719D01*
X509102Y1838740D01*
X509044Y1838765D01*
X508988Y1838794D01*
X508934Y1838826D01*
X508882Y1838861D01*
X508833Y1838899D01*
X508785Y1838941D01*
X508741Y1838985D01*
X508699Y1839033D01*
X508661Y1839082D01*
X508626Y1839134D01*
X508594Y1839188D01*
X508565Y1839244D01*
X508540Y1839302D01*
X508519Y1839361D01*
X508501Y1839421D01*
X508488Y1839483D01*
X508478Y1839545D01*
X508472Y1839607D01*
X508470Y1839670D01*
D12*
X506970Y1819670D02*
X506970Y1789670D01*
X536970Y1789670D02*
X536970Y1819670D01*
X358775Y1875155D02*
X358775Y1886585D01*
X354965Y1880235D01*
X351155Y1886585D01*
X351155Y1875155D01*
X345186Y1878330D02*
X345186Y1886585D01*
X345186Y1878330D02*
X345184Y1878219D01*
X345178Y1878109D01*
X345169Y1877998D01*
X345155Y1877888D01*
X345138Y1877779D01*
X345117Y1877670D01*
X345092Y1877562D01*
X345063Y1877455D01*
X345031Y1877349D01*
X344995Y1877244D01*
X344955Y1877141D01*
X344912Y1877039D01*
X344865Y1876938D01*
X344814Y1876839D01*
X344761Y1876743D01*
X344704Y1876648D01*
X344643Y1876555D01*
X344580Y1876464D01*
X344513Y1876375D01*
X344443Y1876289D01*
X344370Y1876206D01*
X344295Y1876124D01*
X344217Y1876046D01*
X344135Y1875971D01*
X344052Y1875898D01*
X343966Y1875828D01*
X343877Y1875761D01*
X343786Y1875698D01*
X343693Y1875637D01*
X343598Y1875580D01*
X343502Y1875527D01*
X343403Y1875476D01*
X343302Y1875429D01*
X343200Y1875386D01*
X343097Y1875346D01*
X342992Y1875310D01*
X342886Y1875278D01*
X342779Y1875249D01*
X342671Y1875224D01*
X342562Y1875203D01*
X342453Y1875186D01*
X342343Y1875172D01*
X342232Y1875163D01*
X342122Y1875157D01*
X342011Y1875155D01*
X341900Y1875157D01*
X341790Y1875163D01*
X341679Y1875172D01*
X341569Y1875186D01*
X341460Y1875203D01*
X341351Y1875224D01*
X341243Y1875249D01*
X341136Y1875278D01*
X341030Y1875310D01*
X340925Y1875346D01*
X340822Y1875386D01*
X340720Y1875429D01*
X340619Y1875476D01*
X340520Y1875527D01*
X340424Y1875580D01*
X340329Y1875637D01*
X340236Y1875698D01*
X340145Y1875761D01*
X340056Y1875828D01*
X339970Y1875898D01*
X339887Y1875971D01*
X339805Y1876046D01*
X339727Y1876124D01*
X339652Y1876206D01*
X339579Y1876289D01*
X339509Y1876375D01*
X339442Y1876464D01*
X339379Y1876555D01*
X339318Y1876648D01*
X339261Y1876743D01*
X339208Y1876839D01*
X339157Y1876938D01*
X339110Y1877039D01*
X339067Y1877141D01*
X339027Y1877244D01*
X338991Y1877349D01*
X338959Y1877455D01*
X338930Y1877562D01*
X338905Y1877670D01*
X338884Y1877779D01*
X338867Y1877888D01*
X338853Y1877998D01*
X338844Y1878109D01*
X338838Y1878219D01*
X338836Y1878330D01*
X338836Y1886585D01*
X334010Y1875155D02*
X326390Y1886585D01*
X334010Y1886585D02*
X326390Y1875155D01*
X315595Y1883728D02*
X315597Y1883832D01*
X315603Y1883937D01*
X315612Y1884041D01*
X315625Y1884144D01*
X315643Y1884247D01*
X315663Y1884349D01*
X315688Y1884451D01*
X315716Y1884551D01*
X315748Y1884651D01*
X315784Y1884749D01*
X315823Y1884846D01*
X315865Y1884941D01*
X315911Y1885035D01*
X315961Y1885127D01*
X316013Y1885217D01*
X316069Y1885305D01*
X316129Y1885391D01*
X316191Y1885475D01*
X316256Y1885556D01*
X316324Y1885635D01*
X316396Y1885712D01*
X316469Y1885785D01*
X316546Y1885857D01*
X316625Y1885925D01*
X316706Y1885990D01*
X316790Y1886052D01*
X316876Y1886112D01*
X316964Y1886168D01*
X317054Y1886220D01*
X317146Y1886270D01*
X317240Y1886316D01*
X317335Y1886358D01*
X317432Y1886397D01*
X317530Y1886433D01*
X317630Y1886465D01*
X317730Y1886493D01*
X317832Y1886518D01*
X317934Y1886538D01*
X318037Y1886556D01*
X318140Y1886569D01*
X318244Y1886578D01*
X318349Y1886584D01*
X318453Y1886586D01*
X318453Y1886585D02*
X318571Y1886583D01*
X318690Y1886577D01*
X318808Y1886568D01*
X318925Y1886555D01*
X319042Y1886537D01*
X319159Y1886517D01*
X319275Y1886492D01*
X319390Y1886464D01*
X319503Y1886431D01*
X319616Y1886396D01*
X319728Y1886356D01*
X319838Y1886314D01*
X319947Y1886267D01*
X320055Y1886217D01*
X320160Y1886164D01*
X320264Y1886107D01*
X320366Y1886047D01*
X320466Y1885984D01*
X320564Y1885917D01*
X320660Y1885848D01*
X320753Y1885775D01*
X320844Y1885699D01*
X320933Y1885621D01*
X321019Y1885539D01*
X321102Y1885455D01*
X321183Y1885369D01*
X321260Y1885279D01*
X321335Y1885188D01*
X321407Y1885094D01*
X321476Y1884997D01*
X321541Y1884899D01*
X321604Y1884798D01*
X321663Y1884695D01*
X321719Y1884591D01*
X321771Y1884485D01*
X321820Y1884377D01*
X321865Y1884268D01*
X321907Y1884157D01*
X321945Y1884045D01*
X316547Y1881506D02*
X316471Y1881581D01*
X316396Y1881660D01*
X316325Y1881741D01*
X316256Y1881825D01*
X316191Y1881911D01*
X316129Y1881999D01*
X316069Y1882089D01*
X316013Y1882181D01*
X315960Y1882276D01*
X315911Y1882372D01*
X315865Y1882470D01*
X315822Y1882569D01*
X315783Y1882670D01*
X315748Y1882772D01*
X315716Y1882875D01*
X315688Y1882979D01*
X315663Y1883084D01*
X315642Y1883191D01*
X315625Y1883297D01*
X315612Y1883404D01*
X315603Y1883512D01*
X315597Y1883620D01*
X315595Y1883728D01*
X316548Y1881505D02*
X321945Y1875155D01*
X315595Y1875155D01*
X324485Y1696085D02*
X335915Y1696085D01*
X329565Y1699895D01*
X335915Y1703705D01*
X324485Y1703705D01*
X327660Y1709674D02*
X335915Y1709674D01*
X327660Y1709674D02*
X327549Y1709676D01*
X327439Y1709682D01*
X327328Y1709691D01*
X327218Y1709705D01*
X327109Y1709722D01*
X327000Y1709743D01*
X326892Y1709768D01*
X326785Y1709797D01*
X326679Y1709829D01*
X326574Y1709865D01*
X326471Y1709905D01*
X326369Y1709948D01*
X326268Y1709995D01*
X326169Y1710046D01*
X326073Y1710099D01*
X325978Y1710156D01*
X325885Y1710217D01*
X325794Y1710280D01*
X325705Y1710347D01*
X325619Y1710417D01*
X325536Y1710490D01*
X325454Y1710565D01*
X325376Y1710643D01*
X325301Y1710725D01*
X325228Y1710808D01*
X325158Y1710894D01*
X325091Y1710983D01*
X325028Y1711074D01*
X324967Y1711167D01*
X324910Y1711262D01*
X324857Y1711358D01*
X324806Y1711457D01*
X324759Y1711558D01*
X324716Y1711660D01*
X324676Y1711763D01*
X324640Y1711868D01*
X324608Y1711974D01*
X324579Y1712081D01*
X324554Y1712189D01*
X324533Y1712298D01*
X324516Y1712407D01*
X324502Y1712517D01*
X324493Y1712628D01*
X324487Y1712738D01*
X324485Y1712849D01*
X324487Y1712960D01*
X324493Y1713070D01*
X324502Y1713181D01*
X324516Y1713291D01*
X324533Y1713400D01*
X324554Y1713509D01*
X324579Y1713617D01*
X324608Y1713724D01*
X324640Y1713830D01*
X324676Y1713935D01*
X324716Y1714038D01*
X324759Y1714140D01*
X324806Y1714241D01*
X324857Y1714340D01*
X324910Y1714437D01*
X324967Y1714531D01*
X325028Y1714624D01*
X325091Y1714715D01*
X325158Y1714804D01*
X325228Y1714890D01*
X325301Y1714973D01*
X325376Y1715055D01*
X325454Y1715133D01*
X325536Y1715208D01*
X325619Y1715281D01*
X325705Y1715351D01*
X325794Y1715418D01*
X325885Y1715481D01*
X325978Y1715542D01*
X326073Y1715599D01*
X326169Y1715652D01*
X326268Y1715703D01*
X326369Y1715750D01*
X326471Y1715793D01*
X326574Y1715833D01*
X326679Y1715869D01*
X326785Y1715901D01*
X326892Y1715930D01*
X327000Y1715955D01*
X327109Y1715976D01*
X327218Y1715993D01*
X327328Y1716007D01*
X327439Y1716016D01*
X327549Y1716022D01*
X327660Y1716024D01*
X335915Y1716024D01*
X324485Y1720850D02*
X335915Y1728470D01*
X335915Y1720850D02*
X324485Y1728470D01*
X324485Y1732915D02*
X324485Y1736090D01*
X324487Y1736201D01*
X324493Y1736311D01*
X324502Y1736422D01*
X324516Y1736532D01*
X324533Y1736641D01*
X324554Y1736750D01*
X324579Y1736858D01*
X324608Y1736965D01*
X324640Y1737071D01*
X324676Y1737176D01*
X324716Y1737279D01*
X324759Y1737381D01*
X324806Y1737482D01*
X324857Y1737581D01*
X324910Y1737678D01*
X324967Y1737772D01*
X325028Y1737865D01*
X325091Y1737956D01*
X325158Y1738045D01*
X325228Y1738131D01*
X325301Y1738214D01*
X325376Y1738296D01*
X325454Y1738374D01*
X325536Y1738449D01*
X325619Y1738522D01*
X325705Y1738592D01*
X325794Y1738659D01*
X325885Y1738722D01*
X325978Y1738783D01*
X326073Y1738840D01*
X326169Y1738893D01*
X326268Y1738944D01*
X326369Y1738991D01*
X326471Y1739034D01*
X326574Y1739074D01*
X326679Y1739110D01*
X326785Y1739142D01*
X326892Y1739171D01*
X327000Y1739196D01*
X327109Y1739217D01*
X327218Y1739234D01*
X327328Y1739248D01*
X327439Y1739257D01*
X327549Y1739263D01*
X327660Y1739265D01*
X327771Y1739263D01*
X327881Y1739257D01*
X327992Y1739248D01*
X328102Y1739234D01*
X328211Y1739217D01*
X328320Y1739196D01*
X328428Y1739171D01*
X328535Y1739142D01*
X328641Y1739110D01*
X328746Y1739074D01*
X328849Y1739034D01*
X328951Y1738991D01*
X329052Y1738944D01*
X329151Y1738893D01*
X329248Y1738840D01*
X329342Y1738783D01*
X329435Y1738722D01*
X329526Y1738659D01*
X329615Y1738592D01*
X329701Y1738522D01*
X329784Y1738449D01*
X329866Y1738374D01*
X329944Y1738296D01*
X330019Y1738214D01*
X330092Y1738131D01*
X330162Y1738045D01*
X330229Y1737956D01*
X330292Y1737865D01*
X330353Y1737772D01*
X330410Y1737678D01*
X330463Y1737581D01*
X330514Y1737482D01*
X330561Y1737381D01*
X330604Y1737279D01*
X330644Y1737176D01*
X330680Y1737071D01*
X330712Y1736965D01*
X330741Y1736858D01*
X330766Y1736750D01*
X330787Y1736641D01*
X330804Y1736532D01*
X330818Y1736422D01*
X330827Y1736311D01*
X330833Y1736201D01*
X330835Y1736090D01*
X335915Y1736725D02*
X335915Y1732915D01*
X335915Y1736725D02*
X335913Y1736825D01*
X335907Y1736924D01*
X335897Y1737024D01*
X335884Y1737122D01*
X335866Y1737221D01*
X335845Y1737318D01*
X335820Y1737414D01*
X335791Y1737510D01*
X335758Y1737604D01*
X335722Y1737697D01*
X335682Y1737788D01*
X335638Y1737878D01*
X335591Y1737966D01*
X335541Y1738052D01*
X335487Y1738136D01*
X335430Y1738218D01*
X335370Y1738297D01*
X335306Y1738375D01*
X335240Y1738449D01*
X335171Y1738521D01*
X335099Y1738590D01*
X335025Y1738656D01*
X334947Y1738720D01*
X334868Y1738780D01*
X334786Y1738837D01*
X334702Y1738891D01*
X334616Y1738941D01*
X334528Y1738988D01*
X334438Y1739032D01*
X334347Y1739072D01*
X334254Y1739108D01*
X334160Y1739141D01*
X334064Y1739170D01*
X333968Y1739195D01*
X333871Y1739216D01*
X333772Y1739234D01*
X333674Y1739247D01*
X333574Y1739257D01*
X333475Y1739263D01*
X333375Y1739265D01*
X333275Y1739263D01*
X333176Y1739257D01*
X333076Y1739247D01*
X332978Y1739234D01*
X332879Y1739216D01*
X332782Y1739195D01*
X332686Y1739170D01*
X332590Y1739141D01*
X332496Y1739108D01*
X332403Y1739072D01*
X332312Y1739032D01*
X332222Y1738988D01*
X332134Y1738941D01*
X332048Y1738891D01*
X331964Y1738837D01*
X331882Y1738780D01*
X331803Y1738720D01*
X331725Y1738656D01*
X331651Y1738590D01*
X331579Y1738521D01*
X331510Y1738449D01*
X331444Y1738375D01*
X331380Y1738297D01*
X331320Y1738218D01*
X331263Y1738136D01*
X331209Y1738052D01*
X331159Y1737966D01*
X331112Y1737878D01*
X331068Y1737788D01*
X331028Y1737697D01*
X330992Y1737604D01*
X330959Y1737510D01*
X330930Y1737414D01*
X330905Y1737318D01*
X330884Y1737221D01*
X330866Y1737122D01*
X330853Y1737024D01*
X330843Y1736924D01*
X330837Y1736825D01*
X330835Y1736725D01*
X330835Y1734185D01*
X315505Y1759585D02*
X312965Y1759585D01*
X315505Y1759585D02*
X315605Y1759587D01*
X315704Y1759593D01*
X315804Y1759603D01*
X315902Y1759616D01*
X316001Y1759634D01*
X316098Y1759655D01*
X316194Y1759680D01*
X316290Y1759709D01*
X316384Y1759742D01*
X316477Y1759778D01*
X316568Y1759818D01*
X316658Y1759862D01*
X316746Y1759909D01*
X316832Y1759959D01*
X316916Y1760013D01*
X316998Y1760070D01*
X317077Y1760130D01*
X317155Y1760194D01*
X317229Y1760260D01*
X317301Y1760329D01*
X317370Y1760401D01*
X317436Y1760475D01*
X317500Y1760553D01*
X317560Y1760632D01*
X317617Y1760714D01*
X317671Y1760798D01*
X317721Y1760884D01*
X317768Y1760972D01*
X317812Y1761062D01*
X317852Y1761153D01*
X317888Y1761246D01*
X317921Y1761340D01*
X317950Y1761436D01*
X317975Y1761532D01*
X317996Y1761629D01*
X318014Y1761728D01*
X318027Y1761826D01*
X318037Y1761926D01*
X318043Y1762025D01*
X318045Y1762125D01*
X318045Y1768475D01*
X318043Y1768575D01*
X318037Y1768674D01*
X318027Y1768774D01*
X318014Y1768872D01*
X317996Y1768971D01*
X317975Y1769068D01*
X317950Y1769164D01*
X317921Y1769260D01*
X317888Y1769354D01*
X317852Y1769447D01*
X317812Y1769538D01*
X317768Y1769628D01*
X317721Y1769716D01*
X317671Y1769802D01*
X317617Y1769886D01*
X317560Y1769968D01*
X317500Y1770047D01*
X317436Y1770125D01*
X317370Y1770199D01*
X317301Y1770271D01*
X317229Y1770340D01*
X317155Y1770406D01*
X317077Y1770470D01*
X316998Y1770530D01*
X316916Y1770587D01*
X316832Y1770641D01*
X316746Y1770691D01*
X316658Y1770738D01*
X316568Y1770782D01*
X316477Y1770822D01*
X316384Y1770858D01*
X316290Y1770891D01*
X316194Y1770920D01*
X316098Y1770945D01*
X316001Y1770966D01*
X315902Y1770984D01*
X315804Y1770997D01*
X315704Y1771007D01*
X315605Y1771013D01*
X315505Y1771015D01*
X312965Y1771015D01*
X302514Y1762125D02*
X302516Y1762025D01*
X302522Y1761926D01*
X302532Y1761826D01*
X302545Y1761728D01*
X302563Y1761629D01*
X302584Y1761532D01*
X302609Y1761436D01*
X302638Y1761340D01*
X302671Y1761246D01*
X302707Y1761153D01*
X302747Y1761062D01*
X302791Y1760972D01*
X302838Y1760884D01*
X302888Y1760798D01*
X302942Y1760714D01*
X302999Y1760632D01*
X303059Y1760553D01*
X303123Y1760475D01*
X303189Y1760401D01*
X303258Y1760329D01*
X303330Y1760260D01*
X303404Y1760194D01*
X303482Y1760130D01*
X303561Y1760070D01*
X303643Y1760013D01*
X303727Y1759959D01*
X303813Y1759909D01*
X303901Y1759862D01*
X303991Y1759818D01*
X304082Y1759778D01*
X304175Y1759742D01*
X304269Y1759709D01*
X304365Y1759680D01*
X304461Y1759655D01*
X304558Y1759634D01*
X304657Y1759616D01*
X304755Y1759603D01*
X304855Y1759593D01*
X304954Y1759587D01*
X305054Y1759585D01*
X305195Y1759587D01*
X305336Y1759592D01*
X305477Y1759602D01*
X305618Y1759615D01*
X305758Y1759631D01*
X305898Y1759652D01*
X306037Y1759676D01*
X306176Y1759704D01*
X306313Y1759735D01*
X306450Y1759770D01*
X306586Y1759808D01*
X306721Y1759850D01*
X306854Y1759896D01*
X306987Y1759945D01*
X307118Y1759998D01*
X307247Y1760054D01*
X307376Y1760113D01*
X307502Y1760176D01*
X307627Y1760242D01*
X307750Y1760311D01*
X307871Y1760384D01*
X307990Y1760460D01*
X308108Y1760539D01*
X308223Y1760620D01*
X308335Y1760705D01*
X308446Y1760793D01*
X308554Y1760884D01*
X308660Y1760977D01*
X308763Y1761074D01*
X308864Y1761173D01*
X308547Y1768475D02*
X308545Y1768575D01*
X308539Y1768674D01*
X308529Y1768774D01*
X308516Y1768872D01*
X308498Y1768971D01*
X308477Y1769068D01*
X308452Y1769164D01*
X308423Y1769260D01*
X308390Y1769354D01*
X308354Y1769447D01*
X308314Y1769538D01*
X308270Y1769628D01*
X308223Y1769716D01*
X308173Y1769802D01*
X308119Y1769886D01*
X308062Y1769968D01*
X308002Y1770047D01*
X307938Y1770125D01*
X307872Y1770199D01*
X307803Y1770271D01*
X307731Y1770340D01*
X307657Y1770406D01*
X307579Y1770470D01*
X307500Y1770530D01*
X307418Y1770587D01*
X307334Y1770641D01*
X307248Y1770691D01*
X307160Y1770738D01*
X307070Y1770782D01*
X306979Y1770822D01*
X306886Y1770858D01*
X306792Y1770891D01*
X306696Y1770920D01*
X306600Y1770945D01*
X306503Y1770966D01*
X306404Y1770984D01*
X306306Y1770997D01*
X306206Y1771007D01*
X306107Y1771013D01*
X306007Y1771015D01*
X306007Y1771016D02*
X305874Y1771014D01*
X305741Y1771009D01*
X305608Y1770999D01*
X305475Y1770986D01*
X305343Y1770969D01*
X305211Y1770949D01*
X305080Y1770925D01*
X304950Y1770897D01*
X304820Y1770866D01*
X304692Y1770831D01*
X304564Y1770792D01*
X304438Y1770750D01*
X304313Y1770704D01*
X304189Y1770655D01*
X304066Y1770603D01*
X303945Y1770547D01*
X303826Y1770487D01*
X303708Y1770425D01*
X303593Y1770359D01*
X303479Y1770290D01*
X303367Y1770217D01*
X303257Y1770142D01*
X303149Y1770063D01*
X307277Y1766252D02*
X307361Y1766304D01*
X307444Y1766359D01*
X307524Y1766418D01*
X307602Y1766479D01*
X307677Y1766543D01*
X307750Y1766611D01*
X307821Y1766681D01*
X307888Y1766753D01*
X307953Y1766828D01*
X308015Y1766906D01*
X308074Y1766986D01*
X308130Y1767068D01*
X308182Y1767152D01*
X308231Y1767238D01*
X308277Y1767326D01*
X308320Y1767416D01*
X308359Y1767507D01*
X308394Y1767600D01*
X308426Y1767694D01*
X308454Y1767789D01*
X308479Y1767885D01*
X308499Y1767982D01*
X308517Y1768080D01*
X308530Y1768178D01*
X308539Y1768277D01*
X308545Y1768376D01*
X308547Y1768475D01*
X303784Y1764348D02*
X303700Y1764296D01*
X303617Y1764241D01*
X303537Y1764182D01*
X303459Y1764121D01*
X303384Y1764057D01*
X303311Y1763989D01*
X303240Y1763919D01*
X303173Y1763847D01*
X303108Y1763772D01*
X303046Y1763694D01*
X302987Y1763614D01*
X302931Y1763532D01*
X302879Y1763448D01*
X302830Y1763362D01*
X302784Y1763274D01*
X302741Y1763184D01*
X302702Y1763093D01*
X302667Y1763000D01*
X302635Y1762906D01*
X302607Y1762811D01*
X302582Y1762715D01*
X302562Y1762618D01*
X302544Y1762520D01*
X302531Y1762422D01*
X302522Y1762323D01*
X302516Y1762224D01*
X302514Y1762125D01*
X303784Y1764348D02*
X307277Y1766253D01*
X297815Y1759585D02*
X294640Y1759585D01*
X294529Y1759587D01*
X294419Y1759593D01*
X294308Y1759602D01*
X294198Y1759616D01*
X294089Y1759633D01*
X293980Y1759654D01*
X293872Y1759679D01*
X293765Y1759708D01*
X293659Y1759740D01*
X293554Y1759776D01*
X293451Y1759816D01*
X293349Y1759859D01*
X293248Y1759906D01*
X293149Y1759957D01*
X293053Y1760010D01*
X292958Y1760067D01*
X292865Y1760128D01*
X292774Y1760191D01*
X292685Y1760258D01*
X292599Y1760328D01*
X292516Y1760401D01*
X292434Y1760476D01*
X292356Y1760554D01*
X292281Y1760636D01*
X292208Y1760719D01*
X292138Y1760805D01*
X292071Y1760894D01*
X292008Y1760985D01*
X291947Y1761078D01*
X291890Y1761173D01*
X291837Y1761269D01*
X291786Y1761368D01*
X291739Y1761469D01*
X291696Y1761571D01*
X291656Y1761674D01*
X291620Y1761779D01*
X291588Y1761885D01*
X291559Y1761992D01*
X291534Y1762100D01*
X291513Y1762209D01*
X291496Y1762318D01*
X291482Y1762428D01*
X291473Y1762539D01*
X291467Y1762649D01*
X291465Y1762760D01*
X291467Y1762871D01*
X291473Y1762981D01*
X291482Y1763092D01*
X291496Y1763202D01*
X291513Y1763311D01*
X291534Y1763420D01*
X291559Y1763528D01*
X291588Y1763635D01*
X291620Y1763741D01*
X291656Y1763846D01*
X291696Y1763949D01*
X291739Y1764051D01*
X291786Y1764152D01*
X291837Y1764251D01*
X291890Y1764348D01*
X291947Y1764442D01*
X292008Y1764535D01*
X292071Y1764626D01*
X292138Y1764715D01*
X292208Y1764801D01*
X292281Y1764884D01*
X292356Y1764966D01*
X292434Y1765044D01*
X292516Y1765119D01*
X292599Y1765192D01*
X292685Y1765262D01*
X292774Y1765329D01*
X292865Y1765392D01*
X292958Y1765453D01*
X293053Y1765510D01*
X293149Y1765563D01*
X293248Y1765614D01*
X293349Y1765661D01*
X293451Y1765704D01*
X293554Y1765744D01*
X293659Y1765780D01*
X293765Y1765812D01*
X293872Y1765841D01*
X293980Y1765866D01*
X294089Y1765887D01*
X294198Y1765904D01*
X294308Y1765918D01*
X294419Y1765927D01*
X294529Y1765933D01*
X294640Y1765935D01*
X294005Y1771015D02*
X297815Y1771015D01*
X294005Y1771015D02*
X293905Y1771013D01*
X293806Y1771007D01*
X293706Y1770997D01*
X293608Y1770984D01*
X293509Y1770966D01*
X293412Y1770945D01*
X293316Y1770920D01*
X293220Y1770891D01*
X293126Y1770858D01*
X293033Y1770822D01*
X292942Y1770782D01*
X292852Y1770738D01*
X292764Y1770691D01*
X292678Y1770641D01*
X292594Y1770587D01*
X292512Y1770530D01*
X292433Y1770470D01*
X292355Y1770406D01*
X292281Y1770340D01*
X292209Y1770271D01*
X292140Y1770199D01*
X292074Y1770125D01*
X292010Y1770047D01*
X291950Y1769968D01*
X291893Y1769886D01*
X291839Y1769802D01*
X291789Y1769716D01*
X291742Y1769628D01*
X291698Y1769538D01*
X291658Y1769447D01*
X291622Y1769354D01*
X291589Y1769260D01*
X291560Y1769164D01*
X291535Y1769068D01*
X291514Y1768971D01*
X291496Y1768872D01*
X291483Y1768774D01*
X291473Y1768674D01*
X291467Y1768575D01*
X291465Y1768475D01*
X291467Y1768375D01*
X291473Y1768276D01*
X291483Y1768176D01*
X291496Y1768078D01*
X291514Y1767979D01*
X291535Y1767882D01*
X291560Y1767786D01*
X291589Y1767690D01*
X291622Y1767596D01*
X291658Y1767503D01*
X291698Y1767412D01*
X291742Y1767322D01*
X291789Y1767234D01*
X291839Y1767148D01*
X291893Y1767064D01*
X291950Y1766982D01*
X292010Y1766903D01*
X292074Y1766825D01*
X292140Y1766751D01*
X292209Y1766679D01*
X292281Y1766610D01*
X292355Y1766544D01*
X292433Y1766480D01*
X292512Y1766420D01*
X292594Y1766363D01*
X292678Y1766309D01*
X292764Y1766259D01*
X292852Y1766212D01*
X292942Y1766168D01*
X293033Y1766128D01*
X293126Y1766092D01*
X293220Y1766059D01*
X293316Y1766030D01*
X293412Y1766005D01*
X293509Y1765984D01*
X293608Y1765966D01*
X293706Y1765953D01*
X293806Y1765943D01*
X293905Y1765937D01*
X294005Y1765935D01*
X296545Y1765935D01*
X493395Y1806575D02*
X495935Y1806575D01*
X496035Y1806577D01*
X496134Y1806583D01*
X496234Y1806593D01*
X496332Y1806606D01*
X496431Y1806624D01*
X496528Y1806645D01*
X496624Y1806670D01*
X496720Y1806699D01*
X496814Y1806732D01*
X496907Y1806768D01*
X496998Y1806808D01*
X497088Y1806852D01*
X497176Y1806899D01*
X497262Y1806949D01*
X497346Y1807003D01*
X497428Y1807060D01*
X497507Y1807120D01*
X497585Y1807184D01*
X497659Y1807250D01*
X497731Y1807319D01*
X497800Y1807391D01*
X497866Y1807465D01*
X497930Y1807543D01*
X497990Y1807622D01*
X498047Y1807704D01*
X498101Y1807788D01*
X498151Y1807874D01*
X498198Y1807962D01*
X498242Y1808052D01*
X498282Y1808143D01*
X498318Y1808236D01*
X498351Y1808330D01*
X498380Y1808426D01*
X498405Y1808522D01*
X498426Y1808619D01*
X498444Y1808718D01*
X498457Y1808816D01*
X498467Y1808916D01*
X498473Y1809015D01*
X498475Y1809115D01*
X498475Y1815465D01*
X498473Y1815565D01*
X498467Y1815664D01*
X498457Y1815764D01*
X498444Y1815862D01*
X498426Y1815961D01*
X498405Y1816058D01*
X498380Y1816154D01*
X498351Y1816250D01*
X498318Y1816344D01*
X498282Y1816437D01*
X498242Y1816528D01*
X498198Y1816618D01*
X498151Y1816706D01*
X498101Y1816792D01*
X498047Y1816876D01*
X497990Y1816958D01*
X497930Y1817037D01*
X497866Y1817115D01*
X497800Y1817189D01*
X497731Y1817261D01*
X497659Y1817330D01*
X497585Y1817396D01*
X497507Y1817460D01*
X497428Y1817520D01*
X497346Y1817577D01*
X497262Y1817631D01*
X497176Y1817681D01*
X497088Y1817728D01*
X496998Y1817772D01*
X496907Y1817812D01*
X496814Y1817848D01*
X496720Y1817881D01*
X496624Y1817910D01*
X496528Y1817935D01*
X496431Y1817956D01*
X496332Y1817974D01*
X496234Y1817987D01*
X496134Y1817997D01*
X496035Y1818003D01*
X495935Y1818005D01*
X493395Y1818005D01*
X482944Y1809115D02*
X482946Y1809015D01*
X482952Y1808916D01*
X482962Y1808816D01*
X482975Y1808718D01*
X482993Y1808619D01*
X483014Y1808522D01*
X483039Y1808426D01*
X483068Y1808330D01*
X483101Y1808236D01*
X483137Y1808143D01*
X483177Y1808052D01*
X483221Y1807962D01*
X483268Y1807874D01*
X483318Y1807788D01*
X483372Y1807704D01*
X483429Y1807622D01*
X483489Y1807543D01*
X483553Y1807465D01*
X483619Y1807391D01*
X483688Y1807319D01*
X483760Y1807250D01*
X483834Y1807184D01*
X483912Y1807120D01*
X483991Y1807060D01*
X484073Y1807003D01*
X484157Y1806949D01*
X484243Y1806899D01*
X484331Y1806852D01*
X484421Y1806808D01*
X484512Y1806768D01*
X484605Y1806732D01*
X484699Y1806699D01*
X484795Y1806670D01*
X484891Y1806645D01*
X484988Y1806624D01*
X485087Y1806606D01*
X485185Y1806593D01*
X485285Y1806583D01*
X485384Y1806577D01*
X485484Y1806575D01*
X485625Y1806577D01*
X485766Y1806582D01*
X485907Y1806592D01*
X486048Y1806605D01*
X486188Y1806621D01*
X486328Y1806642D01*
X486467Y1806666D01*
X486606Y1806694D01*
X486743Y1806725D01*
X486880Y1806760D01*
X487016Y1806798D01*
X487151Y1806840D01*
X487284Y1806886D01*
X487417Y1806935D01*
X487548Y1806988D01*
X487677Y1807044D01*
X487806Y1807103D01*
X487932Y1807166D01*
X488057Y1807232D01*
X488180Y1807301D01*
X488301Y1807374D01*
X488420Y1807450D01*
X488538Y1807529D01*
X488653Y1807610D01*
X488765Y1807695D01*
X488876Y1807783D01*
X488984Y1807874D01*
X489090Y1807967D01*
X489193Y1808064D01*
X489294Y1808163D01*
X488976Y1815465D02*
X488974Y1815565D01*
X488968Y1815664D01*
X488958Y1815764D01*
X488945Y1815862D01*
X488927Y1815961D01*
X488906Y1816058D01*
X488881Y1816154D01*
X488852Y1816250D01*
X488819Y1816344D01*
X488783Y1816437D01*
X488743Y1816528D01*
X488699Y1816618D01*
X488652Y1816706D01*
X488602Y1816792D01*
X488548Y1816876D01*
X488491Y1816958D01*
X488431Y1817037D01*
X488367Y1817115D01*
X488301Y1817189D01*
X488232Y1817261D01*
X488160Y1817330D01*
X488086Y1817396D01*
X488008Y1817460D01*
X487929Y1817520D01*
X487847Y1817577D01*
X487763Y1817631D01*
X487677Y1817681D01*
X487589Y1817728D01*
X487499Y1817772D01*
X487408Y1817812D01*
X487315Y1817848D01*
X487221Y1817881D01*
X487125Y1817910D01*
X487029Y1817935D01*
X486932Y1817956D01*
X486833Y1817974D01*
X486735Y1817987D01*
X486635Y1817997D01*
X486536Y1818003D01*
X486436Y1818005D01*
X486436Y1818006D02*
X486303Y1818004D01*
X486170Y1817999D01*
X486037Y1817989D01*
X485904Y1817976D01*
X485772Y1817959D01*
X485640Y1817939D01*
X485509Y1817915D01*
X485379Y1817887D01*
X485249Y1817856D01*
X485121Y1817821D01*
X484993Y1817782D01*
X484867Y1817740D01*
X484742Y1817694D01*
X484618Y1817645D01*
X484495Y1817593D01*
X484374Y1817537D01*
X484255Y1817477D01*
X484137Y1817415D01*
X484022Y1817349D01*
X483908Y1817280D01*
X483796Y1817207D01*
X483686Y1817132D01*
X483578Y1817053D01*
X487706Y1813242D02*
X487790Y1813294D01*
X487873Y1813349D01*
X487953Y1813408D01*
X488031Y1813469D01*
X488106Y1813533D01*
X488179Y1813601D01*
X488250Y1813671D01*
X488317Y1813743D01*
X488382Y1813818D01*
X488444Y1813896D01*
X488503Y1813976D01*
X488559Y1814058D01*
X488611Y1814142D01*
X488660Y1814228D01*
X488706Y1814316D01*
X488749Y1814406D01*
X488788Y1814497D01*
X488823Y1814590D01*
X488855Y1814684D01*
X488883Y1814779D01*
X488908Y1814875D01*
X488928Y1814972D01*
X488946Y1815070D01*
X488959Y1815168D01*
X488968Y1815267D01*
X488974Y1815366D01*
X488976Y1815465D01*
X484213Y1811338D02*
X484129Y1811286D01*
X484046Y1811231D01*
X483966Y1811172D01*
X483888Y1811111D01*
X483813Y1811047D01*
X483740Y1810979D01*
X483669Y1810909D01*
X483602Y1810837D01*
X483537Y1810762D01*
X483475Y1810684D01*
X483416Y1810604D01*
X483360Y1810522D01*
X483308Y1810438D01*
X483259Y1810352D01*
X483213Y1810264D01*
X483170Y1810174D01*
X483131Y1810083D01*
X483096Y1809990D01*
X483064Y1809896D01*
X483036Y1809801D01*
X483011Y1809705D01*
X482991Y1809608D01*
X482973Y1809510D01*
X482960Y1809412D01*
X482951Y1809313D01*
X482945Y1809214D01*
X482943Y1809115D01*
X484214Y1811338D02*
X487706Y1813243D01*
X478245Y1809115D02*
X475705Y1818005D01*
X478245Y1809115D02*
X471895Y1809115D01*
X473800Y1811655D02*
X473800Y1806575D01*
X414655Y1809115D02*
X412115Y1809115D01*
X414655Y1809115D02*
X414755Y1809117D01*
X414854Y1809123D01*
X414954Y1809133D01*
X415052Y1809146D01*
X415151Y1809164D01*
X415248Y1809185D01*
X415344Y1809210D01*
X415440Y1809239D01*
X415534Y1809272D01*
X415627Y1809308D01*
X415718Y1809348D01*
X415808Y1809392D01*
X415896Y1809439D01*
X415982Y1809489D01*
X416066Y1809543D01*
X416148Y1809600D01*
X416227Y1809660D01*
X416305Y1809724D01*
X416379Y1809790D01*
X416451Y1809859D01*
X416520Y1809931D01*
X416586Y1810005D01*
X416650Y1810083D01*
X416710Y1810162D01*
X416767Y1810244D01*
X416821Y1810328D01*
X416871Y1810414D01*
X416918Y1810502D01*
X416962Y1810592D01*
X417002Y1810683D01*
X417038Y1810776D01*
X417071Y1810870D01*
X417100Y1810966D01*
X417125Y1811062D01*
X417146Y1811159D01*
X417164Y1811258D01*
X417177Y1811356D01*
X417187Y1811456D01*
X417193Y1811555D01*
X417195Y1811655D01*
X417195Y1818005D01*
X417193Y1818105D01*
X417187Y1818204D01*
X417177Y1818304D01*
X417164Y1818402D01*
X417146Y1818501D01*
X417125Y1818598D01*
X417100Y1818694D01*
X417071Y1818790D01*
X417038Y1818884D01*
X417002Y1818977D01*
X416962Y1819068D01*
X416918Y1819158D01*
X416871Y1819246D01*
X416821Y1819332D01*
X416767Y1819416D01*
X416710Y1819498D01*
X416650Y1819577D01*
X416586Y1819655D01*
X416520Y1819729D01*
X416451Y1819801D01*
X416379Y1819870D01*
X416305Y1819936D01*
X416227Y1820000D01*
X416148Y1820060D01*
X416066Y1820117D01*
X415982Y1820171D01*
X415896Y1820221D01*
X415808Y1820268D01*
X415718Y1820312D01*
X415627Y1820352D01*
X415534Y1820388D01*
X415440Y1820421D01*
X415344Y1820450D01*
X415248Y1820475D01*
X415151Y1820496D01*
X415052Y1820514D01*
X414954Y1820527D01*
X414854Y1820537D01*
X414755Y1820543D01*
X414655Y1820545D01*
X412115Y1820545D01*
X401664Y1811655D02*
X401666Y1811555D01*
X401672Y1811456D01*
X401682Y1811356D01*
X401695Y1811258D01*
X401713Y1811159D01*
X401734Y1811062D01*
X401759Y1810966D01*
X401788Y1810870D01*
X401821Y1810776D01*
X401857Y1810683D01*
X401897Y1810592D01*
X401941Y1810502D01*
X401988Y1810414D01*
X402038Y1810328D01*
X402092Y1810244D01*
X402149Y1810162D01*
X402209Y1810083D01*
X402273Y1810005D01*
X402339Y1809931D01*
X402408Y1809859D01*
X402480Y1809790D01*
X402554Y1809724D01*
X402632Y1809660D01*
X402711Y1809600D01*
X402793Y1809543D01*
X402877Y1809489D01*
X402963Y1809439D01*
X403051Y1809392D01*
X403141Y1809348D01*
X403232Y1809308D01*
X403325Y1809272D01*
X403419Y1809239D01*
X403515Y1809210D01*
X403611Y1809185D01*
X403708Y1809164D01*
X403807Y1809146D01*
X403905Y1809133D01*
X404005Y1809123D01*
X404104Y1809117D01*
X404204Y1809115D01*
X404345Y1809117D01*
X404486Y1809122D01*
X404627Y1809132D01*
X404768Y1809145D01*
X404908Y1809161D01*
X405048Y1809182D01*
X405187Y1809206D01*
X405326Y1809234D01*
X405463Y1809265D01*
X405600Y1809300D01*
X405736Y1809338D01*
X405871Y1809380D01*
X406004Y1809426D01*
X406137Y1809475D01*
X406268Y1809528D01*
X406397Y1809584D01*
X406526Y1809643D01*
X406652Y1809706D01*
X406777Y1809772D01*
X406900Y1809841D01*
X407021Y1809914D01*
X407140Y1809990D01*
X407258Y1810069D01*
X407373Y1810150D01*
X407485Y1810235D01*
X407596Y1810323D01*
X407704Y1810414D01*
X407810Y1810507D01*
X407913Y1810604D01*
X408014Y1810703D01*
X407696Y1818005D02*
X407694Y1818105D01*
X407688Y1818204D01*
X407678Y1818304D01*
X407665Y1818402D01*
X407647Y1818501D01*
X407626Y1818598D01*
X407601Y1818694D01*
X407572Y1818790D01*
X407539Y1818884D01*
X407503Y1818977D01*
X407463Y1819068D01*
X407419Y1819158D01*
X407372Y1819246D01*
X407322Y1819332D01*
X407268Y1819416D01*
X407211Y1819498D01*
X407151Y1819577D01*
X407087Y1819655D01*
X407021Y1819729D01*
X406952Y1819801D01*
X406880Y1819870D01*
X406806Y1819936D01*
X406728Y1820000D01*
X406649Y1820060D01*
X406567Y1820117D01*
X406483Y1820171D01*
X406397Y1820221D01*
X406309Y1820268D01*
X406219Y1820312D01*
X406128Y1820352D01*
X406035Y1820388D01*
X405941Y1820421D01*
X405845Y1820450D01*
X405749Y1820475D01*
X405652Y1820496D01*
X405553Y1820514D01*
X405455Y1820527D01*
X405355Y1820537D01*
X405256Y1820543D01*
X405156Y1820545D01*
X405156Y1820546D02*
X405023Y1820544D01*
X404890Y1820539D01*
X404757Y1820529D01*
X404624Y1820516D01*
X404492Y1820499D01*
X404360Y1820479D01*
X404229Y1820455D01*
X404099Y1820427D01*
X403969Y1820396D01*
X403841Y1820361D01*
X403713Y1820322D01*
X403587Y1820280D01*
X403462Y1820234D01*
X403338Y1820185D01*
X403215Y1820133D01*
X403094Y1820077D01*
X402975Y1820017D01*
X402857Y1819955D01*
X402742Y1819889D01*
X402628Y1819820D01*
X402516Y1819747D01*
X402406Y1819672D01*
X402298Y1819593D01*
X406426Y1815782D02*
X406510Y1815834D01*
X406593Y1815889D01*
X406673Y1815948D01*
X406751Y1816009D01*
X406826Y1816073D01*
X406899Y1816141D01*
X406970Y1816211D01*
X407037Y1816283D01*
X407102Y1816358D01*
X407164Y1816436D01*
X407223Y1816516D01*
X407279Y1816598D01*
X407331Y1816682D01*
X407380Y1816768D01*
X407426Y1816856D01*
X407469Y1816946D01*
X407508Y1817037D01*
X407543Y1817130D01*
X407575Y1817224D01*
X407603Y1817319D01*
X407628Y1817415D01*
X407648Y1817512D01*
X407666Y1817610D01*
X407679Y1817708D01*
X407688Y1817807D01*
X407694Y1817906D01*
X407696Y1818005D01*
X402933Y1813878D02*
X402849Y1813826D01*
X402766Y1813771D01*
X402686Y1813712D01*
X402608Y1813651D01*
X402533Y1813587D01*
X402460Y1813519D01*
X402389Y1813449D01*
X402322Y1813377D01*
X402257Y1813302D01*
X402195Y1813224D01*
X402136Y1813144D01*
X402080Y1813062D01*
X402028Y1812978D01*
X401979Y1812892D01*
X401933Y1812804D01*
X401890Y1812714D01*
X401851Y1812623D01*
X401816Y1812530D01*
X401784Y1812436D01*
X401756Y1812341D01*
X401731Y1812245D01*
X401711Y1812148D01*
X401693Y1812050D01*
X401680Y1811952D01*
X401671Y1811853D01*
X401665Y1811754D01*
X401663Y1811655D01*
X402934Y1813878D02*
X406426Y1815783D01*
X396965Y1809115D02*
X393155Y1809115D01*
X393055Y1809117D01*
X392956Y1809123D01*
X392856Y1809133D01*
X392758Y1809146D01*
X392659Y1809164D01*
X392562Y1809185D01*
X392466Y1809210D01*
X392370Y1809239D01*
X392276Y1809272D01*
X392183Y1809308D01*
X392092Y1809348D01*
X392002Y1809392D01*
X391914Y1809439D01*
X391828Y1809489D01*
X391744Y1809543D01*
X391662Y1809600D01*
X391583Y1809660D01*
X391505Y1809724D01*
X391431Y1809790D01*
X391359Y1809859D01*
X391290Y1809931D01*
X391224Y1810005D01*
X391160Y1810083D01*
X391100Y1810162D01*
X391043Y1810244D01*
X390989Y1810328D01*
X390939Y1810414D01*
X390892Y1810502D01*
X390848Y1810592D01*
X390808Y1810683D01*
X390772Y1810776D01*
X390739Y1810870D01*
X390710Y1810966D01*
X390685Y1811062D01*
X390664Y1811159D01*
X390646Y1811258D01*
X390633Y1811356D01*
X390623Y1811456D01*
X390617Y1811555D01*
X390615Y1811655D01*
X390615Y1812925D01*
X390617Y1813025D01*
X390623Y1813124D01*
X390633Y1813224D01*
X390646Y1813322D01*
X390664Y1813421D01*
X390685Y1813518D01*
X390710Y1813614D01*
X390739Y1813710D01*
X390772Y1813804D01*
X390808Y1813897D01*
X390848Y1813988D01*
X390892Y1814078D01*
X390939Y1814166D01*
X390989Y1814252D01*
X391043Y1814336D01*
X391100Y1814418D01*
X391160Y1814497D01*
X391224Y1814575D01*
X391290Y1814649D01*
X391359Y1814721D01*
X391431Y1814790D01*
X391505Y1814856D01*
X391583Y1814920D01*
X391662Y1814980D01*
X391744Y1815037D01*
X391828Y1815091D01*
X391914Y1815141D01*
X392002Y1815188D01*
X392092Y1815232D01*
X392183Y1815272D01*
X392276Y1815308D01*
X392370Y1815341D01*
X392466Y1815370D01*
X392562Y1815395D01*
X392659Y1815416D01*
X392758Y1815434D01*
X392856Y1815447D01*
X392956Y1815457D01*
X393055Y1815463D01*
X393155Y1815465D01*
X396965Y1815465D01*
X396965Y1820545D01*
X390615Y1820545D01*
X104775Y1600835D02*
X104675Y1600837D01*
X104576Y1600843D01*
X104476Y1600853D01*
X104378Y1600866D01*
X104279Y1600884D01*
X104182Y1600905D01*
X104086Y1600930D01*
X103990Y1600959D01*
X103896Y1600992D01*
X103803Y1601028D01*
X103712Y1601068D01*
X103622Y1601112D01*
X103534Y1601159D01*
X103448Y1601209D01*
X103364Y1601263D01*
X103282Y1601320D01*
X103203Y1601380D01*
X103125Y1601444D01*
X103051Y1601510D01*
X102979Y1601579D01*
X102910Y1601651D01*
X102844Y1601725D01*
X102780Y1601803D01*
X102720Y1601882D01*
X102663Y1601964D01*
X102609Y1602048D01*
X102559Y1602134D01*
X102512Y1602222D01*
X102468Y1602312D01*
X102428Y1602403D01*
X102392Y1602496D01*
X102359Y1602590D01*
X102330Y1602686D01*
X102305Y1602782D01*
X102284Y1602879D01*
X102266Y1602978D01*
X102253Y1603076D01*
X102243Y1603176D01*
X102237Y1603275D01*
X102235Y1603375D01*
X104775Y1600835D02*
X104916Y1600837D01*
X105057Y1600842D01*
X105198Y1600852D01*
X105339Y1600865D01*
X105479Y1600881D01*
X105619Y1600902D01*
X105758Y1600926D01*
X105897Y1600954D01*
X106034Y1600985D01*
X106171Y1601020D01*
X106307Y1601058D01*
X106442Y1601100D01*
X106575Y1601146D01*
X106708Y1601195D01*
X106839Y1601248D01*
X106968Y1601304D01*
X107097Y1601363D01*
X107223Y1601426D01*
X107348Y1601492D01*
X107471Y1601561D01*
X107592Y1601634D01*
X107711Y1601710D01*
X107829Y1601789D01*
X107944Y1601870D01*
X108056Y1601955D01*
X108167Y1602043D01*
X108275Y1602134D01*
X108381Y1602227D01*
X108484Y1602324D01*
X108585Y1602423D01*
X108268Y1609725D02*
X108266Y1609825D01*
X108260Y1609924D01*
X108250Y1610024D01*
X108237Y1610122D01*
X108219Y1610221D01*
X108198Y1610318D01*
X108173Y1610414D01*
X108144Y1610510D01*
X108111Y1610604D01*
X108075Y1610697D01*
X108035Y1610788D01*
X107991Y1610878D01*
X107944Y1610966D01*
X107894Y1611052D01*
X107840Y1611136D01*
X107783Y1611218D01*
X107723Y1611297D01*
X107659Y1611375D01*
X107593Y1611449D01*
X107524Y1611521D01*
X107452Y1611590D01*
X107378Y1611656D01*
X107300Y1611720D01*
X107221Y1611780D01*
X107139Y1611837D01*
X107055Y1611891D01*
X106969Y1611941D01*
X106881Y1611988D01*
X106791Y1612032D01*
X106700Y1612072D01*
X106607Y1612108D01*
X106513Y1612141D01*
X106417Y1612170D01*
X106321Y1612195D01*
X106224Y1612216D01*
X106125Y1612234D01*
X106027Y1612247D01*
X105927Y1612257D01*
X105828Y1612263D01*
X105728Y1612265D01*
X105728Y1612266D02*
X105595Y1612264D01*
X105462Y1612259D01*
X105329Y1612249D01*
X105196Y1612236D01*
X105064Y1612219D01*
X104932Y1612199D01*
X104801Y1612175D01*
X104671Y1612147D01*
X104541Y1612116D01*
X104413Y1612081D01*
X104285Y1612042D01*
X104159Y1612000D01*
X104034Y1611954D01*
X103910Y1611905D01*
X103787Y1611853D01*
X103666Y1611797D01*
X103547Y1611737D01*
X103429Y1611675D01*
X103314Y1611609D01*
X103200Y1611540D01*
X103088Y1611467D01*
X102978Y1611392D01*
X102870Y1611313D01*
X106998Y1607502D02*
X107082Y1607554D01*
X107165Y1607609D01*
X107245Y1607668D01*
X107323Y1607729D01*
X107398Y1607793D01*
X107471Y1607861D01*
X107542Y1607931D01*
X107609Y1608003D01*
X107674Y1608078D01*
X107736Y1608156D01*
X107795Y1608236D01*
X107851Y1608318D01*
X107903Y1608402D01*
X107952Y1608488D01*
X107998Y1608576D01*
X108041Y1608666D01*
X108080Y1608757D01*
X108115Y1608850D01*
X108147Y1608944D01*
X108175Y1609039D01*
X108200Y1609135D01*
X108220Y1609232D01*
X108238Y1609330D01*
X108251Y1609428D01*
X108260Y1609527D01*
X108266Y1609626D01*
X108268Y1609725D01*
X103505Y1605598D02*
X103421Y1605546D01*
X103338Y1605491D01*
X103258Y1605432D01*
X103180Y1605371D01*
X103105Y1605307D01*
X103032Y1605239D01*
X102961Y1605169D01*
X102894Y1605097D01*
X102829Y1605022D01*
X102767Y1604944D01*
X102708Y1604864D01*
X102652Y1604782D01*
X102600Y1604698D01*
X102551Y1604612D01*
X102505Y1604524D01*
X102462Y1604434D01*
X102423Y1604343D01*
X102388Y1604250D01*
X102356Y1604156D01*
X102328Y1604061D01*
X102303Y1603965D01*
X102283Y1603868D01*
X102265Y1603770D01*
X102252Y1603672D01*
X102243Y1603573D01*
X102237Y1603474D01*
X102235Y1603375D01*
X103505Y1605598D02*
X106998Y1607503D01*
X97155Y1612265D02*
X97155Y1600835D01*
X97155Y1612265D02*
X93980Y1612265D01*
X93869Y1612263D01*
X93759Y1612257D01*
X93648Y1612248D01*
X93538Y1612234D01*
X93429Y1612217D01*
X93320Y1612196D01*
X93212Y1612171D01*
X93105Y1612142D01*
X92999Y1612110D01*
X92894Y1612074D01*
X92791Y1612034D01*
X92689Y1611991D01*
X92588Y1611944D01*
X92489Y1611893D01*
X92393Y1611840D01*
X92298Y1611783D01*
X92205Y1611722D01*
X92114Y1611659D01*
X92025Y1611592D01*
X91939Y1611522D01*
X91856Y1611449D01*
X91774Y1611374D01*
X91696Y1611296D01*
X91621Y1611214D01*
X91548Y1611131D01*
X91478Y1611045D01*
X91411Y1610956D01*
X91348Y1610865D01*
X91287Y1610772D01*
X91230Y1610678D01*
X91177Y1610581D01*
X91126Y1610482D01*
X91079Y1610381D01*
X91036Y1610279D01*
X90996Y1610176D01*
X90960Y1610071D01*
X90928Y1609965D01*
X90899Y1609858D01*
X90874Y1609750D01*
X90853Y1609641D01*
X90836Y1609532D01*
X90822Y1609422D01*
X90813Y1609311D01*
X90807Y1609201D01*
X90805Y1609090D01*
X90805Y1604010D01*
X90807Y1603899D01*
X90813Y1603789D01*
X90822Y1603678D01*
X90836Y1603568D01*
X90853Y1603459D01*
X90874Y1603350D01*
X90899Y1603242D01*
X90928Y1603135D01*
X90960Y1603029D01*
X90996Y1602924D01*
X91036Y1602821D01*
X91079Y1602719D01*
X91126Y1602618D01*
X91177Y1602519D01*
X91230Y1602423D01*
X91287Y1602328D01*
X91348Y1602235D01*
X91411Y1602144D01*
X91478Y1602055D01*
X91548Y1601969D01*
X91621Y1601886D01*
X91696Y1601804D01*
X91774Y1601726D01*
X91856Y1601651D01*
X91939Y1601578D01*
X92025Y1601508D01*
X92114Y1601441D01*
X92205Y1601378D01*
X92298Y1601317D01*
X92393Y1601260D01*
X92489Y1601207D01*
X92588Y1601156D01*
X92689Y1601109D01*
X92791Y1601066D01*
X92894Y1601026D01*
X92999Y1600990D01*
X93105Y1600958D01*
X93212Y1600929D01*
X93320Y1600904D01*
X93429Y1600883D01*
X93538Y1600866D01*
X93648Y1600852D01*
X93759Y1600843D01*
X93869Y1600837D01*
X93980Y1600835D01*
X97155Y1600835D01*
X84455Y1600835D02*
X84455Y1612265D01*
X85725Y1600835D02*
X83185Y1600835D01*
X83185Y1612265D02*
X85725Y1612265D01*
X73914Y1613535D02*
X78994Y1599565D01*
X69342Y1604010D02*
X69342Y1609090D01*
X69340Y1609201D01*
X69334Y1609311D01*
X69325Y1609422D01*
X69311Y1609532D01*
X69294Y1609641D01*
X69273Y1609750D01*
X69248Y1609858D01*
X69219Y1609965D01*
X69187Y1610071D01*
X69151Y1610176D01*
X69111Y1610279D01*
X69068Y1610381D01*
X69021Y1610482D01*
X68970Y1610581D01*
X68917Y1610678D01*
X68860Y1610772D01*
X68799Y1610865D01*
X68736Y1610956D01*
X68669Y1611045D01*
X68599Y1611131D01*
X68526Y1611214D01*
X68451Y1611296D01*
X68373Y1611374D01*
X68291Y1611449D01*
X68208Y1611522D01*
X68122Y1611592D01*
X68033Y1611659D01*
X67942Y1611722D01*
X67849Y1611783D01*
X67755Y1611840D01*
X67658Y1611893D01*
X67559Y1611944D01*
X67458Y1611991D01*
X67356Y1612034D01*
X67253Y1612074D01*
X67148Y1612110D01*
X67042Y1612142D01*
X66935Y1612171D01*
X66827Y1612196D01*
X66718Y1612217D01*
X66609Y1612234D01*
X66499Y1612248D01*
X66388Y1612257D01*
X66278Y1612263D01*
X66167Y1612265D01*
X66056Y1612263D01*
X65946Y1612257D01*
X65835Y1612248D01*
X65725Y1612234D01*
X65616Y1612217D01*
X65507Y1612196D01*
X65399Y1612171D01*
X65292Y1612142D01*
X65186Y1612110D01*
X65081Y1612074D01*
X64978Y1612034D01*
X64876Y1611991D01*
X64775Y1611944D01*
X64676Y1611893D01*
X64579Y1611840D01*
X64485Y1611783D01*
X64392Y1611722D01*
X64301Y1611659D01*
X64212Y1611592D01*
X64126Y1611522D01*
X64043Y1611449D01*
X63961Y1611374D01*
X63883Y1611296D01*
X63808Y1611214D01*
X63735Y1611131D01*
X63665Y1611045D01*
X63598Y1610956D01*
X63535Y1610865D01*
X63474Y1610772D01*
X63417Y1610678D01*
X63364Y1610581D01*
X63313Y1610482D01*
X63266Y1610381D01*
X63223Y1610279D01*
X63183Y1610176D01*
X63147Y1610071D01*
X63115Y1609965D01*
X63086Y1609858D01*
X63061Y1609750D01*
X63040Y1609641D01*
X63023Y1609532D01*
X63009Y1609422D01*
X63000Y1609311D01*
X62994Y1609201D01*
X62992Y1609090D01*
X62992Y1604010D01*
X62994Y1603899D01*
X63000Y1603789D01*
X63009Y1603678D01*
X63023Y1603568D01*
X63040Y1603459D01*
X63061Y1603350D01*
X63086Y1603242D01*
X63115Y1603135D01*
X63147Y1603029D01*
X63183Y1602924D01*
X63223Y1602821D01*
X63266Y1602719D01*
X63313Y1602618D01*
X63364Y1602519D01*
X63417Y1602423D01*
X63474Y1602328D01*
X63535Y1602235D01*
X63598Y1602144D01*
X63665Y1602055D01*
X63735Y1601969D01*
X63808Y1601886D01*
X63883Y1601804D01*
X63961Y1601726D01*
X64043Y1601651D01*
X64126Y1601578D01*
X64212Y1601508D01*
X64301Y1601441D01*
X64392Y1601378D01*
X64485Y1601317D01*
X64579Y1601260D01*
X64676Y1601207D01*
X64775Y1601156D01*
X64876Y1601109D01*
X64978Y1601066D01*
X65081Y1601026D01*
X65186Y1600990D01*
X65292Y1600958D01*
X65399Y1600929D01*
X65507Y1600904D01*
X65616Y1600883D01*
X65725Y1600866D01*
X65835Y1600852D01*
X65946Y1600843D01*
X66056Y1600837D01*
X66167Y1600835D01*
X66278Y1600837D01*
X66388Y1600843D01*
X66499Y1600852D01*
X66609Y1600866D01*
X66718Y1600883D01*
X66827Y1600904D01*
X66935Y1600929D01*
X67042Y1600958D01*
X67148Y1600990D01*
X67253Y1601026D01*
X67356Y1601066D01*
X67458Y1601109D01*
X67559Y1601156D01*
X67658Y1601207D01*
X67754Y1601260D01*
X67849Y1601317D01*
X67942Y1601378D01*
X68033Y1601441D01*
X68122Y1601508D01*
X68208Y1601578D01*
X68291Y1601651D01*
X68373Y1601726D01*
X68451Y1601804D01*
X68526Y1601886D01*
X68599Y1601969D01*
X68669Y1602055D01*
X68736Y1602144D01*
X68799Y1602235D01*
X68860Y1602328D01*
X68917Y1602423D01*
X68970Y1602519D01*
X69021Y1602618D01*
X69068Y1602719D01*
X69111Y1602821D01*
X69151Y1602924D01*
X69187Y1603029D01*
X69219Y1603135D01*
X69248Y1603242D01*
X69273Y1603350D01*
X69294Y1603459D01*
X69311Y1603568D01*
X69325Y1603678D01*
X69334Y1603789D01*
X69340Y1603899D01*
X69342Y1604010D01*
X57912Y1609725D02*
X54737Y1612265D01*
X54737Y1600835D01*
X57912Y1600835D02*
X51562Y1600835D01*
X135255Y1602105D02*
X135257Y1602005D01*
X135263Y1601906D01*
X135273Y1601806D01*
X135286Y1601708D01*
X135304Y1601609D01*
X135325Y1601512D01*
X135350Y1601416D01*
X135379Y1601320D01*
X135412Y1601226D01*
X135448Y1601133D01*
X135488Y1601042D01*
X135532Y1600952D01*
X135579Y1600864D01*
X135629Y1600778D01*
X135683Y1600694D01*
X135740Y1600612D01*
X135800Y1600533D01*
X135864Y1600455D01*
X135930Y1600381D01*
X135999Y1600309D01*
X136071Y1600240D01*
X136145Y1600174D01*
X136223Y1600110D01*
X136302Y1600050D01*
X136384Y1599993D01*
X136468Y1599939D01*
X136554Y1599889D01*
X136642Y1599842D01*
X136732Y1599798D01*
X136823Y1599758D01*
X136916Y1599722D01*
X137010Y1599689D01*
X137106Y1599660D01*
X137202Y1599635D01*
X137299Y1599614D01*
X137398Y1599596D01*
X137496Y1599583D01*
X137596Y1599573D01*
X137695Y1599567D01*
X137795Y1599565D01*
X137936Y1599567D01*
X138077Y1599572D01*
X138218Y1599582D01*
X138359Y1599595D01*
X138499Y1599611D01*
X138639Y1599632D01*
X138778Y1599656D01*
X138917Y1599684D01*
X139054Y1599715D01*
X139191Y1599750D01*
X139327Y1599788D01*
X139462Y1599830D01*
X139595Y1599876D01*
X139728Y1599925D01*
X139859Y1599978D01*
X139988Y1600034D01*
X140117Y1600093D01*
X140243Y1600156D01*
X140368Y1600222D01*
X140491Y1600291D01*
X140612Y1600364D01*
X140731Y1600440D01*
X140849Y1600519D01*
X140964Y1600600D01*
X141076Y1600685D01*
X141187Y1600773D01*
X141295Y1600864D01*
X141401Y1600957D01*
X141504Y1601054D01*
X141605Y1601153D01*
X141288Y1608455D02*
X141286Y1608555D01*
X141280Y1608654D01*
X141270Y1608754D01*
X141257Y1608852D01*
X141239Y1608951D01*
X141218Y1609048D01*
X141193Y1609144D01*
X141164Y1609240D01*
X141131Y1609334D01*
X141095Y1609427D01*
X141055Y1609518D01*
X141011Y1609608D01*
X140964Y1609696D01*
X140914Y1609782D01*
X140860Y1609866D01*
X140803Y1609948D01*
X140743Y1610027D01*
X140679Y1610105D01*
X140613Y1610179D01*
X140544Y1610251D01*
X140472Y1610320D01*
X140398Y1610386D01*
X140320Y1610450D01*
X140241Y1610510D01*
X140159Y1610567D01*
X140075Y1610621D01*
X139989Y1610671D01*
X139901Y1610718D01*
X139811Y1610762D01*
X139720Y1610802D01*
X139627Y1610838D01*
X139533Y1610871D01*
X139437Y1610900D01*
X139341Y1610925D01*
X139244Y1610946D01*
X139145Y1610964D01*
X139047Y1610977D01*
X138947Y1610987D01*
X138848Y1610993D01*
X138748Y1610995D01*
X138748Y1610996D02*
X138615Y1610994D01*
X138482Y1610989D01*
X138349Y1610979D01*
X138216Y1610966D01*
X138084Y1610949D01*
X137952Y1610929D01*
X137821Y1610905D01*
X137691Y1610877D01*
X137561Y1610846D01*
X137433Y1610811D01*
X137305Y1610772D01*
X137179Y1610730D01*
X137054Y1610684D01*
X136930Y1610635D01*
X136807Y1610583D01*
X136686Y1610527D01*
X136567Y1610467D01*
X136449Y1610405D01*
X136334Y1610339D01*
X136220Y1610270D01*
X136108Y1610197D01*
X135998Y1610122D01*
X135890Y1610043D01*
X140018Y1606232D02*
X140102Y1606284D01*
X140185Y1606339D01*
X140265Y1606398D01*
X140343Y1606459D01*
X140418Y1606523D01*
X140491Y1606591D01*
X140562Y1606661D01*
X140629Y1606733D01*
X140694Y1606808D01*
X140756Y1606886D01*
X140815Y1606966D01*
X140871Y1607048D01*
X140923Y1607132D01*
X140972Y1607218D01*
X141018Y1607306D01*
X141061Y1607396D01*
X141100Y1607487D01*
X141135Y1607580D01*
X141167Y1607674D01*
X141195Y1607769D01*
X141220Y1607865D01*
X141240Y1607962D01*
X141258Y1608060D01*
X141271Y1608158D01*
X141280Y1608257D01*
X141286Y1608356D01*
X141288Y1608455D01*
X136525Y1604328D02*
X136441Y1604276D01*
X136358Y1604221D01*
X136278Y1604162D01*
X136200Y1604101D01*
X136125Y1604037D01*
X136052Y1603969D01*
X135981Y1603899D01*
X135914Y1603827D01*
X135849Y1603752D01*
X135787Y1603674D01*
X135728Y1603594D01*
X135672Y1603512D01*
X135620Y1603428D01*
X135571Y1603342D01*
X135525Y1603254D01*
X135482Y1603164D01*
X135443Y1603073D01*
X135408Y1602980D01*
X135376Y1602886D01*
X135348Y1602791D01*
X135323Y1602695D01*
X135303Y1602598D01*
X135285Y1602500D01*
X135272Y1602402D01*
X135263Y1602303D01*
X135257Y1602204D01*
X135255Y1602105D01*
X136525Y1604328D02*
X140018Y1606233D01*
X128053Y1599565D02*
X125513Y1599565D01*
X128053Y1599565D02*
X128153Y1599567D01*
X128252Y1599573D01*
X128352Y1599583D01*
X128450Y1599596D01*
X128549Y1599614D01*
X128646Y1599635D01*
X128742Y1599660D01*
X128838Y1599689D01*
X128932Y1599722D01*
X129025Y1599758D01*
X129116Y1599798D01*
X129206Y1599842D01*
X129294Y1599889D01*
X129380Y1599939D01*
X129464Y1599993D01*
X129546Y1600050D01*
X129625Y1600110D01*
X129703Y1600174D01*
X129777Y1600240D01*
X129849Y1600309D01*
X129918Y1600381D01*
X129984Y1600455D01*
X130048Y1600533D01*
X130108Y1600612D01*
X130165Y1600694D01*
X130219Y1600778D01*
X130269Y1600864D01*
X130316Y1600952D01*
X130360Y1601042D01*
X130400Y1601133D01*
X130436Y1601226D01*
X130469Y1601320D01*
X130498Y1601416D01*
X130523Y1601512D01*
X130544Y1601609D01*
X130562Y1601708D01*
X130575Y1601806D01*
X130585Y1601906D01*
X130591Y1602005D01*
X130593Y1602105D01*
X130593Y1608455D01*
X130591Y1608555D01*
X130585Y1608654D01*
X130575Y1608754D01*
X130562Y1608852D01*
X130544Y1608951D01*
X130523Y1609048D01*
X130498Y1609144D01*
X130469Y1609240D01*
X130436Y1609334D01*
X130400Y1609427D01*
X130360Y1609518D01*
X130316Y1609608D01*
X130269Y1609696D01*
X130219Y1609782D01*
X130165Y1609866D01*
X130108Y1609948D01*
X130048Y1610027D01*
X129984Y1610105D01*
X129918Y1610179D01*
X129849Y1610251D01*
X129777Y1610320D01*
X129703Y1610386D01*
X129625Y1610450D01*
X129546Y1610510D01*
X129464Y1610567D01*
X129380Y1610621D01*
X129294Y1610671D01*
X129206Y1610718D01*
X129116Y1610762D01*
X129025Y1610802D01*
X128932Y1610838D01*
X128838Y1610871D01*
X128742Y1610900D01*
X128646Y1610925D01*
X128549Y1610946D01*
X128450Y1610964D01*
X128352Y1610977D01*
X128252Y1610987D01*
X128153Y1610993D01*
X128053Y1610995D01*
X125513Y1610995D01*
X120460Y1610995D02*
X120460Y1599565D01*
X120460Y1604010D02*
X114110Y1610995D01*
X117920Y1606550D02*
X114110Y1599565D01*
X109601Y1608455D02*
X106426Y1610995D01*
X106426Y1599565D01*
X109601Y1599565D02*
X103251Y1599565D01*
X659765Y1091565D02*
X659767Y1091665D01*
X659773Y1091764D01*
X659783Y1091864D01*
X659796Y1091962D01*
X659814Y1092061D01*
X659835Y1092158D01*
X659860Y1092254D01*
X659889Y1092350D01*
X659922Y1092444D01*
X659958Y1092537D01*
X659998Y1092628D01*
X660042Y1092718D01*
X660089Y1092806D01*
X660139Y1092892D01*
X660193Y1092976D01*
X660250Y1093058D01*
X660310Y1093137D01*
X660374Y1093215D01*
X660440Y1093289D01*
X660509Y1093361D01*
X660581Y1093430D01*
X660655Y1093496D01*
X660733Y1093560D01*
X660812Y1093620D01*
X660894Y1093677D01*
X660978Y1093731D01*
X661064Y1093781D01*
X661152Y1093828D01*
X661242Y1093872D01*
X661333Y1093912D01*
X661426Y1093948D01*
X661520Y1093981D01*
X661616Y1094010D01*
X661712Y1094035D01*
X661809Y1094056D01*
X661908Y1094074D01*
X662006Y1094087D01*
X662106Y1094097D01*
X662205Y1094103D01*
X662305Y1094105D01*
X659765Y1091565D02*
X659767Y1091424D01*
X659772Y1091283D01*
X659782Y1091142D01*
X659795Y1091001D01*
X659811Y1090861D01*
X659832Y1090721D01*
X659856Y1090582D01*
X659884Y1090443D01*
X659915Y1090306D01*
X659950Y1090169D01*
X659988Y1090033D01*
X660030Y1089898D01*
X660076Y1089765D01*
X660125Y1089632D01*
X660178Y1089501D01*
X660234Y1089372D01*
X660293Y1089243D01*
X660356Y1089117D01*
X660422Y1088992D01*
X660491Y1088869D01*
X660564Y1088748D01*
X660640Y1088629D01*
X660719Y1088511D01*
X660800Y1088396D01*
X660885Y1088284D01*
X660973Y1088173D01*
X661064Y1088065D01*
X661157Y1087959D01*
X661254Y1087856D01*
X661353Y1087755D01*
X668655Y1088073D02*
X668755Y1088075D01*
X668854Y1088081D01*
X668954Y1088091D01*
X669052Y1088104D01*
X669151Y1088122D01*
X669248Y1088143D01*
X669344Y1088168D01*
X669440Y1088197D01*
X669534Y1088230D01*
X669627Y1088266D01*
X669718Y1088306D01*
X669808Y1088350D01*
X669896Y1088397D01*
X669982Y1088447D01*
X670066Y1088501D01*
X670148Y1088558D01*
X670227Y1088618D01*
X670305Y1088682D01*
X670379Y1088748D01*
X670451Y1088817D01*
X670520Y1088889D01*
X670586Y1088963D01*
X670650Y1089041D01*
X670710Y1089120D01*
X670767Y1089202D01*
X670821Y1089286D01*
X670871Y1089372D01*
X670918Y1089460D01*
X670962Y1089550D01*
X671002Y1089641D01*
X671038Y1089734D01*
X671071Y1089828D01*
X671100Y1089924D01*
X671125Y1090020D01*
X671146Y1090117D01*
X671164Y1090216D01*
X671177Y1090314D01*
X671187Y1090414D01*
X671193Y1090513D01*
X671195Y1090613D01*
X671196Y1090613D02*
X671194Y1090746D01*
X671189Y1090879D01*
X671179Y1091012D01*
X671166Y1091145D01*
X671149Y1091277D01*
X671129Y1091409D01*
X671105Y1091540D01*
X671077Y1091670D01*
X671046Y1091800D01*
X671011Y1091928D01*
X670972Y1092056D01*
X670930Y1092182D01*
X670884Y1092307D01*
X670835Y1092431D01*
X670783Y1092554D01*
X670727Y1092675D01*
X670667Y1092794D01*
X670605Y1092912D01*
X670539Y1093027D01*
X670470Y1093141D01*
X670397Y1093253D01*
X670322Y1093363D01*
X670243Y1093471D01*
X666432Y1089342D02*
X666484Y1089258D01*
X666539Y1089175D01*
X666598Y1089095D01*
X666659Y1089017D01*
X666723Y1088942D01*
X666791Y1088869D01*
X666861Y1088798D01*
X666933Y1088731D01*
X667008Y1088666D01*
X667086Y1088604D01*
X667166Y1088545D01*
X667248Y1088489D01*
X667332Y1088437D01*
X667418Y1088388D01*
X667506Y1088342D01*
X667596Y1088299D01*
X667687Y1088260D01*
X667780Y1088225D01*
X667874Y1088193D01*
X667969Y1088165D01*
X668065Y1088140D01*
X668162Y1088120D01*
X668260Y1088102D01*
X668358Y1088089D01*
X668457Y1088080D01*
X668556Y1088074D01*
X668655Y1088072D01*
X664528Y1092835D02*
X664476Y1092919D01*
X664421Y1093002D01*
X664362Y1093082D01*
X664301Y1093160D01*
X664237Y1093235D01*
X664169Y1093308D01*
X664099Y1093379D01*
X664027Y1093446D01*
X663952Y1093511D01*
X663874Y1093573D01*
X663794Y1093632D01*
X663712Y1093688D01*
X663628Y1093740D01*
X663542Y1093789D01*
X663454Y1093835D01*
X663364Y1093878D01*
X663273Y1093917D01*
X663180Y1093952D01*
X663086Y1093984D01*
X662991Y1094012D01*
X662895Y1094037D01*
X662798Y1094057D01*
X662700Y1094075D01*
X662602Y1094088D01*
X662503Y1094097D01*
X662404Y1094103D01*
X662305Y1094105D01*
X664528Y1092835D02*
X666433Y1089343D01*
X659765Y1101307D02*
X659765Y1103847D01*
X659765Y1101307D02*
X659767Y1101207D01*
X659773Y1101108D01*
X659783Y1101008D01*
X659796Y1100910D01*
X659814Y1100811D01*
X659835Y1100714D01*
X659860Y1100618D01*
X659889Y1100522D01*
X659922Y1100428D01*
X659958Y1100335D01*
X659998Y1100244D01*
X660042Y1100154D01*
X660089Y1100066D01*
X660139Y1099980D01*
X660193Y1099896D01*
X660250Y1099814D01*
X660310Y1099735D01*
X660374Y1099657D01*
X660440Y1099583D01*
X660509Y1099511D01*
X660581Y1099442D01*
X660655Y1099376D01*
X660733Y1099312D01*
X660812Y1099252D01*
X660894Y1099195D01*
X660978Y1099141D01*
X661064Y1099091D01*
X661152Y1099044D01*
X661242Y1099000D01*
X661333Y1098960D01*
X661426Y1098924D01*
X661520Y1098891D01*
X661616Y1098862D01*
X661712Y1098837D01*
X661809Y1098816D01*
X661908Y1098798D01*
X662006Y1098785D01*
X662106Y1098775D01*
X662205Y1098769D01*
X662305Y1098767D01*
X668655Y1098767D01*
X668755Y1098769D01*
X668854Y1098775D01*
X668954Y1098785D01*
X669052Y1098798D01*
X669151Y1098816D01*
X669248Y1098837D01*
X669344Y1098862D01*
X669440Y1098891D01*
X669534Y1098924D01*
X669627Y1098960D01*
X669718Y1099000D01*
X669808Y1099044D01*
X669896Y1099091D01*
X669982Y1099141D01*
X670066Y1099195D01*
X670148Y1099252D01*
X670227Y1099312D01*
X670305Y1099376D01*
X670379Y1099442D01*
X670451Y1099511D01*
X670520Y1099583D01*
X670586Y1099657D01*
X670650Y1099735D01*
X670710Y1099814D01*
X670767Y1099896D01*
X670821Y1099980D01*
X670871Y1100066D01*
X670918Y1100154D01*
X670962Y1100244D01*
X671002Y1100335D01*
X671038Y1100428D01*
X671071Y1100522D01*
X671100Y1100618D01*
X671125Y1100714D01*
X671146Y1100811D01*
X671164Y1100910D01*
X671177Y1101008D01*
X671187Y1101108D01*
X671193Y1101207D01*
X671195Y1101307D01*
X671195Y1103847D01*
X671195Y1108735D02*
X659765Y1108735D01*
X659765Y1113815D01*
X668655Y1118235D02*
X671195Y1121410D01*
X659765Y1121410D01*
X659765Y1118235D02*
X659765Y1124585D01*
X667385Y1183894D02*
X667387Y1183994D01*
X667393Y1184093D01*
X667403Y1184193D01*
X667416Y1184291D01*
X667434Y1184390D01*
X667455Y1184487D01*
X667480Y1184583D01*
X667509Y1184679D01*
X667542Y1184773D01*
X667578Y1184866D01*
X667618Y1184957D01*
X667662Y1185047D01*
X667709Y1185135D01*
X667759Y1185221D01*
X667813Y1185305D01*
X667870Y1185387D01*
X667930Y1185466D01*
X667994Y1185544D01*
X668060Y1185618D01*
X668129Y1185690D01*
X668201Y1185759D01*
X668275Y1185825D01*
X668353Y1185889D01*
X668432Y1185949D01*
X668514Y1186006D01*
X668598Y1186060D01*
X668684Y1186110D01*
X668772Y1186157D01*
X668862Y1186201D01*
X668953Y1186241D01*
X669046Y1186277D01*
X669140Y1186310D01*
X669236Y1186339D01*
X669332Y1186364D01*
X669429Y1186385D01*
X669528Y1186403D01*
X669626Y1186416D01*
X669726Y1186426D01*
X669825Y1186432D01*
X669925Y1186434D01*
X667385Y1183894D02*
X667387Y1183753D01*
X667392Y1183612D01*
X667402Y1183471D01*
X667415Y1183330D01*
X667431Y1183190D01*
X667452Y1183050D01*
X667476Y1182911D01*
X667504Y1182772D01*
X667535Y1182635D01*
X667570Y1182498D01*
X667608Y1182362D01*
X667650Y1182227D01*
X667696Y1182094D01*
X667745Y1181961D01*
X667798Y1181830D01*
X667854Y1181701D01*
X667913Y1181572D01*
X667976Y1181446D01*
X668042Y1181321D01*
X668111Y1181198D01*
X668184Y1181077D01*
X668260Y1180958D01*
X668339Y1180840D01*
X668420Y1180725D01*
X668505Y1180613D01*
X668593Y1180502D01*
X668684Y1180394D01*
X668777Y1180288D01*
X668874Y1180185D01*
X668973Y1180084D01*
X676275Y1180402D02*
X676375Y1180404D01*
X676474Y1180410D01*
X676574Y1180420D01*
X676672Y1180433D01*
X676771Y1180451D01*
X676868Y1180472D01*
X676964Y1180497D01*
X677060Y1180526D01*
X677154Y1180559D01*
X677247Y1180595D01*
X677338Y1180635D01*
X677428Y1180679D01*
X677516Y1180726D01*
X677602Y1180776D01*
X677686Y1180830D01*
X677768Y1180887D01*
X677847Y1180947D01*
X677925Y1181011D01*
X677999Y1181077D01*
X678071Y1181146D01*
X678140Y1181218D01*
X678206Y1181292D01*
X678270Y1181370D01*
X678330Y1181449D01*
X678387Y1181531D01*
X678441Y1181615D01*
X678491Y1181701D01*
X678538Y1181789D01*
X678582Y1181879D01*
X678622Y1181970D01*
X678658Y1182063D01*
X678691Y1182157D01*
X678720Y1182253D01*
X678745Y1182349D01*
X678766Y1182446D01*
X678784Y1182545D01*
X678797Y1182643D01*
X678807Y1182743D01*
X678813Y1182842D01*
X678815Y1182942D01*
X678816Y1182942D02*
X678814Y1183075D01*
X678809Y1183208D01*
X678799Y1183341D01*
X678786Y1183474D01*
X678769Y1183606D01*
X678749Y1183738D01*
X678725Y1183869D01*
X678697Y1183999D01*
X678666Y1184129D01*
X678631Y1184257D01*
X678592Y1184385D01*
X678550Y1184511D01*
X678504Y1184636D01*
X678455Y1184760D01*
X678403Y1184883D01*
X678347Y1185004D01*
X678287Y1185123D01*
X678225Y1185241D01*
X678159Y1185356D01*
X678090Y1185470D01*
X678017Y1185582D01*
X677942Y1185692D01*
X677863Y1185800D01*
X674052Y1181671D02*
X674104Y1181587D01*
X674159Y1181504D01*
X674218Y1181424D01*
X674279Y1181346D01*
X674343Y1181271D01*
X674411Y1181198D01*
X674481Y1181127D01*
X674553Y1181060D01*
X674628Y1180995D01*
X674706Y1180933D01*
X674786Y1180874D01*
X674868Y1180818D01*
X674952Y1180766D01*
X675038Y1180717D01*
X675126Y1180671D01*
X675216Y1180628D01*
X675307Y1180589D01*
X675400Y1180554D01*
X675494Y1180522D01*
X675589Y1180494D01*
X675685Y1180469D01*
X675782Y1180449D01*
X675880Y1180431D01*
X675978Y1180418D01*
X676077Y1180409D01*
X676176Y1180403D01*
X676275Y1180401D01*
X672148Y1185164D02*
X672096Y1185248D01*
X672041Y1185331D01*
X671982Y1185411D01*
X671921Y1185489D01*
X671857Y1185564D01*
X671789Y1185637D01*
X671719Y1185708D01*
X671647Y1185775D01*
X671572Y1185840D01*
X671494Y1185902D01*
X671414Y1185961D01*
X671332Y1186017D01*
X671248Y1186069D01*
X671162Y1186118D01*
X671074Y1186164D01*
X670984Y1186207D01*
X670893Y1186246D01*
X670800Y1186281D01*
X670706Y1186313D01*
X670611Y1186341D01*
X670515Y1186366D01*
X670418Y1186386D01*
X670320Y1186404D01*
X670222Y1186417D01*
X670123Y1186426D01*
X670024Y1186432D01*
X669925Y1186434D01*
X672148Y1185164D02*
X674053Y1181672D01*
X678815Y1191514D02*
X667385Y1191514D01*
X678815Y1191514D02*
X678815Y1194689D01*
X678813Y1194800D01*
X678807Y1194910D01*
X678798Y1195021D01*
X678784Y1195131D01*
X678767Y1195240D01*
X678746Y1195349D01*
X678721Y1195457D01*
X678692Y1195564D01*
X678660Y1195670D01*
X678624Y1195775D01*
X678584Y1195878D01*
X678541Y1195980D01*
X678494Y1196081D01*
X678443Y1196180D01*
X678390Y1196277D01*
X678333Y1196371D01*
X678272Y1196464D01*
X678209Y1196555D01*
X678142Y1196644D01*
X678072Y1196730D01*
X677999Y1196813D01*
X677924Y1196895D01*
X677846Y1196973D01*
X677764Y1197048D01*
X677681Y1197121D01*
X677595Y1197191D01*
X677506Y1197258D01*
X677415Y1197321D01*
X677322Y1197382D01*
X677228Y1197439D01*
X677131Y1197492D01*
X677032Y1197543D01*
X676931Y1197590D01*
X676829Y1197633D01*
X676726Y1197673D01*
X676621Y1197709D01*
X676515Y1197741D01*
X676408Y1197770D01*
X676300Y1197795D01*
X676191Y1197816D01*
X676082Y1197833D01*
X675972Y1197847D01*
X675861Y1197856D01*
X675751Y1197862D01*
X675640Y1197864D01*
X670560Y1197864D01*
X670449Y1197862D01*
X670339Y1197856D01*
X670228Y1197847D01*
X670118Y1197833D01*
X670009Y1197816D01*
X669900Y1197795D01*
X669792Y1197770D01*
X669685Y1197741D01*
X669579Y1197709D01*
X669474Y1197673D01*
X669371Y1197633D01*
X669269Y1197590D01*
X669168Y1197543D01*
X669069Y1197492D01*
X668973Y1197439D01*
X668878Y1197382D01*
X668785Y1197321D01*
X668694Y1197258D01*
X668605Y1197191D01*
X668519Y1197121D01*
X668436Y1197048D01*
X668354Y1196973D01*
X668276Y1196895D01*
X668201Y1196813D01*
X668128Y1196730D01*
X668058Y1196644D01*
X667991Y1196555D01*
X667928Y1196464D01*
X667867Y1196371D01*
X667810Y1196277D01*
X667757Y1196180D01*
X667706Y1196081D01*
X667659Y1195980D01*
X667616Y1195878D01*
X667576Y1195775D01*
X667540Y1195670D01*
X667508Y1195564D01*
X667479Y1195457D01*
X667454Y1195349D01*
X667433Y1195240D01*
X667416Y1195131D01*
X667402Y1195021D01*
X667393Y1194910D01*
X667387Y1194800D01*
X667385Y1194689D01*
X667385Y1191514D01*
X667385Y1202690D02*
X678815Y1206500D01*
X667385Y1210310D01*
X670243Y1209358D02*
X670243Y1203643D01*
X676275Y1214755D02*
X678815Y1217930D01*
X667385Y1217930D01*
X667385Y1214755D02*
X667385Y1221105D01*
X291465Y1838325D02*
X288290Y1838325D01*
X288179Y1838327D01*
X288069Y1838333D01*
X287958Y1838342D01*
X287848Y1838356D01*
X287739Y1838373D01*
X287630Y1838394D01*
X287522Y1838419D01*
X287415Y1838448D01*
X287309Y1838480D01*
X287204Y1838516D01*
X287101Y1838556D01*
X286999Y1838599D01*
X286898Y1838646D01*
X286799Y1838697D01*
X286703Y1838750D01*
X286608Y1838807D01*
X286515Y1838868D01*
X286424Y1838931D01*
X286335Y1838998D01*
X286249Y1839068D01*
X286166Y1839141D01*
X286084Y1839216D01*
X286006Y1839294D01*
X285931Y1839376D01*
X285858Y1839459D01*
X285788Y1839545D01*
X285721Y1839634D01*
X285658Y1839725D01*
X285597Y1839818D01*
X285540Y1839913D01*
X285487Y1840009D01*
X285436Y1840108D01*
X285389Y1840209D01*
X285346Y1840311D01*
X285306Y1840414D01*
X285270Y1840519D01*
X285238Y1840625D01*
X285209Y1840732D01*
X285184Y1840840D01*
X285163Y1840949D01*
X285146Y1841058D01*
X285132Y1841168D01*
X285123Y1841279D01*
X285117Y1841389D01*
X285115Y1841500D01*
X285117Y1841611D01*
X285123Y1841721D01*
X285132Y1841832D01*
X285146Y1841942D01*
X285163Y1842051D01*
X285184Y1842160D01*
X285209Y1842268D01*
X285238Y1842375D01*
X285270Y1842481D01*
X285306Y1842586D01*
X285346Y1842689D01*
X285389Y1842791D01*
X285436Y1842892D01*
X285487Y1842991D01*
X285540Y1843088D01*
X285597Y1843182D01*
X285658Y1843275D01*
X285721Y1843366D01*
X285788Y1843455D01*
X285858Y1843541D01*
X285931Y1843624D01*
X286006Y1843706D01*
X286084Y1843784D01*
X286166Y1843859D01*
X286249Y1843932D01*
X286335Y1844002D01*
X286424Y1844069D01*
X286515Y1844132D01*
X286608Y1844193D01*
X286703Y1844250D01*
X286799Y1844303D01*
X286898Y1844354D01*
X286999Y1844401D01*
X287101Y1844444D01*
X287204Y1844484D01*
X287309Y1844520D01*
X287415Y1844552D01*
X287522Y1844581D01*
X287630Y1844606D01*
X287739Y1844627D01*
X287848Y1844644D01*
X287958Y1844658D01*
X288069Y1844667D01*
X288179Y1844673D01*
X288290Y1844675D01*
X287655Y1849755D02*
X291465Y1849755D01*
X287655Y1849755D02*
X287555Y1849753D01*
X287456Y1849747D01*
X287356Y1849737D01*
X287258Y1849724D01*
X287159Y1849706D01*
X287062Y1849685D01*
X286966Y1849660D01*
X286870Y1849631D01*
X286776Y1849598D01*
X286683Y1849562D01*
X286592Y1849522D01*
X286502Y1849478D01*
X286414Y1849431D01*
X286328Y1849381D01*
X286244Y1849327D01*
X286162Y1849270D01*
X286083Y1849210D01*
X286005Y1849146D01*
X285931Y1849080D01*
X285859Y1849011D01*
X285790Y1848939D01*
X285724Y1848865D01*
X285660Y1848787D01*
X285600Y1848708D01*
X285543Y1848626D01*
X285489Y1848542D01*
X285439Y1848456D01*
X285392Y1848368D01*
X285348Y1848278D01*
X285308Y1848187D01*
X285272Y1848094D01*
X285239Y1848000D01*
X285210Y1847904D01*
X285185Y1847808D01*
X285164Y1847711D01*
X285146Y1847612D01*
X285133Y1847514D01*
X285123Y1847414D01*
X285117Y1847315D01*
X285115Y1847215D01*
X285117Y1847115D01*
X285123Y1847016D01*
X285133Y1846916D01*
X285146Y1846818D01*
X285164Y1846719D01*
X285185Y1846622D01*
X285210Y1846526D01*
X285239Y1846430D01*
X285272Y1846336D01*
X285308Y1846243D01*
X285348Y1846152D01*
X285392Y1846062D01*
X285439Y1845974D01*
X285489Y1845888D01*
X285543Y1845804D01*
X285600Y1845722D01*
X285660Y1845643D01*
X285724Y1845565D01*
X285790Y1845491D01*
X285859Y1845419D01*
X285931Y1845350D01*
X286005Y1845284D01*
X286083Y1845220D01*
X286162Y1845160D01*
X286244Y1845103D01*
X286328Y1845049D01*
X286414Y1844999D01*
X286502Y1844952D01*
X286592Y1844908D01*
X286683Y1844868D01*
X286776Y1844832D01*
X286870Y1844799D01*
X286966Y1844770D01*
X287062Y1844745D01*
X287159Y1844724D01*
X287258Y1844706D01*
X287356Y1844693D01*
X287456Y1844683D01*
X287555Y1844677D01*
X287655Y1844675D01*
X290195Y1844675D01*
X280670Y1849755D02*
X276860Y1838325D01*
X273050Y1849755D01*
X268605Y1838325D02*
X265430Y1838325D01*
X265319Y1838327D01*
X265209Y1838333D01*
X265098Y1838342D01*
X264988Y1838356D01*
X264879Y1838373D01*
X264770Y1838394D01*
X264662Y1838419D01*
X264555Y1838448D01*
X264449Y1838480D01*
X264344Y1838516D01*
X264241Y1838556D01*
X264139Y1838599D01*
X264038Y1838646D01*
X263939Y1838697D01*
X263843Y1838750D01*
X263748Y1838807D01*
X263655Y1838868D01*
X263564Y1838931D01*
X263475Y1838998D01*
X263389Y1839068D01*
X263306Y1839141D01*
X263224Y1839216D01*
X263146Y1839294D01*
X263071Y1839376D01*
X262998Y1839459D01*
X262928Y1839545D01*
X262861Y1839634D01*
X262798Y1839725D01*
X262737Y1839818D01*
X262680Y1839913D01*
X262627Y1840009D01*
X262576Y1840108D01*
X262529Y1840209D01*
X262486Y1840311D01*
X262446Y1840414D01*
X262410Y1840519D01*
X262378Y1840625D01*
X262349Y1840732D01*
X262324Y1840840D01*
X262303Y1840949D01*
X262286Y1841058D01*
X262272Y1841168D01*
X262263Y1841279D01*
X262257Y1841389D01*
X262255Y1841500D01*
X262257Y1841611D01*
X262263Y1841721D01*
X262272Y1841832D01*
X262286Y1841942D01*
X262303Y1842051D01*
X262324Y1842160D01*
X262349Y1842268D01*
X262378Y1842375D01*
X262410Y1842481D01*
X262446Y1842586D01*
X262486Y1842689D01*
X262529Y1842791D01*
X262576Y1842892D01*
X262627Y1842991D01*
X262680Y1843088D01*
X262737Y1843182D01*
X262798Y1843275D01*
X262861Y1843366D01*
X262928Y1843455D01*
X262998Y1843541D01*
X263071Y1843624D01*
X263146Y1843706D01*
X263224Y1843784D01*
X263306Y1843859D01*
X263389Y1843932D01*
X263475Y1844002D01*
X263564Y1844069D01*
X263655Y1844132D01*
X263748Y1844193D01*
X263843Y1844250D01*
X263939Y1844303D01*
X264038Y1844354D01*
X264139Y1844401D01*
X264241Y1844444D01*
X264344Y1844484D01*
X264449Y1844520D01*
X264555Y1844552D01*
X264662Y1844581D01*
X264770Y1844606D01*
X264879Y1844627D01*
X264988Y1844644D01*
X265098Y1844658D01*
X265209Y1844667D01*
X265319Y1844673D01*
X265430Y1844675D01*
X264795Y1849755D02*
X268605Y1849755D01*
X264795Y1849755D02*
X264695Y1849753D01*
X264596Y1849747D01*
X264496Y1849737D01*
X264398Y1849724D01*
X264299Y1849706D01*
X264202Y1849685D01*
X264106Y1849660D01*
X264010Y1849631D01*
X263916Y1849598D01*
X263823Y1849562D01*
X263732Y1849522D01*
X263642Y1849478D01*
X263554Y1849431D01*
X263468Y1849381D01*
X263384Y1849327D01*
X263302Y1849270D01*
X263223Y1849210D01*
X263145Y1849146D01*
X263071Y1849080D01*
X262999Y1849011D01*
X262930Y1848939D01*
X262864Y1848865D01*
X262800Y1848787D01*
X262740Y1848708D01*
X262683Y1848626D01*
X262629Y1848542D01*
X262579Y1848456D01*
X262532Y1848368D01*
X262488Y1848278D01*
X262448Y1848187D01*
X262412Y1848094D01*
X262379Y1848000D01*
X262350Y1847904D01*
X262325Y1847808D01*
X262304Y1847711D01*
X262286Y1847612D01*
X262273Y1847514D01*
X262263Y1847414D01*
X262257Y1847315D01*
X262255Y1847215D01*
X262257Y1847115D01*
X262263Y1847016D01*
X262273Y1846916D01*
X262286Y1846818D01*
X262304Y1846719D01*
X262325Y1846622D01*
X262350Y1846526D01*
X262379Y1846430D01*
X262412Y1846336D01*
X262448Y1846243D01*
X262488Y1846152D01*
X262532Y1846062D01*
X262579Y1845974D01*
X262629Y1845888D01*
X262683Y1845804D01*
X262740Y1845722D01*
X262800Y1845643D01*
X262864Y1845565D01*
X262930Y1845491D01*
X262999Y1845419D01*
X263071Y1845350D01*
X263145Y1845284D01*
X263223Y1845220D01*
X263302Y1845160D01*
X263384Y1845103D01*
X263468Y1845049D01*
X263554Y1844999D01*
X263642Y1844952D01*
X263732Y1844908D01*
X263823Y1844868D01*
X263916Y1844832D01*
X264010Y1844799D01*
X264106Y1844770D01*
X264202Y1844745D01*
X264299Y1844724D01*
X264398Y1844706D01*
X264496Y1844693D01*
X264596Y1844683D01*
X264695Y1844677D01*
X264795Y1844675D01*
X267335Y1844675D01*
X257683Y1837055D02*
X252603Y1837055D01*
X247650Y1838325D02*
X247650Y1849755D01*
X244475Y1849755D01*
X244364Y1849753D01*
X244254Y1849747D01*
X244143Y1849738D01*
X244033Y1849724D01*
X243924Y1849707D01*
X243815Y1849686D01*
X243707Y1849661D01*
X243600Y1849632D01*
X243494Y1849600D01*
X243389Y1849564D01*
X243286Y1849524D01*
X243184Y1849481D01*
X243083Y1849434D01*
X242984Y1849383D01*
X242888Y1849330D01*
X242793Y1849273D01*
X242700Y1849212D01*
X242609Y1849149D01*
X242520Y1849082D01*
X242434Y1849012D01*
X242351Y1848939D01*
X242269Y1848864D01*
X242191Y1848786D01*
X242116Y1848704D01*
X242043Y1848621D01*
X241973Y1848535D01*
X241906Y1848446D01*
X241843Y1848355D01*
X241782Y1848262D01*
X241725Y1848168D01*
X241672Y1848071D01*
X241621Y1847972D01*
X241574Y1847871D01*
X241531Y1847769D01*
X241491Y1847666D01*
X241455Y1847561D01*
X241423Y1847455D01*
X241394Y1847348D01*
X241369Y1847240D01*
X241348Y1847131D01*
X241331Y1847022D01*
X241317Y1846912D01*
X241308Y1846801D01*
X241302Y1846691D01*
X241300Y1846580D01*
X241300Y1841500D01*
X241302Y1841389D01*
X241308Y1841279D01*
X241317Y1841168D01*
X241331Y1841058D01*
X241348Y1840949D01*
X241369Y1840840D01*
X241394Y1840732D01*
X241423Y1840625D01*
X241455Y1840519D01*
X241491Y1840414D01*
X241531Y1840311D01*
X241574Y1840209D01*
X241621Y1840108D01*
X241672Y1840009D01*
X241725Y1839913D01*
X241782Y1839818D01*
X241843Y1839725D01*
X241906Y1839634D01*
X241973Y1839545D01*
X242043Y1839459D01*
X242116Y1839376D01*
X242191Y1839294D01*
X242269Y1839216D01*
X242351Y1839141D01*
X242434Y1839068D01*
X242520Y1838998D01*
X242609Y1838931D01*
X242700Y1838868D01*
X242793Y1838807D01*
X242888Y1838750D01*
X242984Y1838697D01*
X243083Y1838646D01*
X243184Y1838599D01*
X243286Y1838556D01*
X243389Y1838516D01*
X243494Y1838480D01*
X243600Y1838448D01*
X243707Y1838419D01*
X243815Y1838394D01*
X243924Y1838373D01*
X244033Y1838356D01*
X244143Y1838342D01*
X244254Y1838333D01*
X244364Y1838327D01*
X244475Y1838325D01*
X247650Y1838325D01*
X235839Y1847215D02*
X232664Y1849755D01*
X232664Y1838325D01*
X235839Y1838325D02*
X229489Y1838325D01*
X580390Y1778635D02*
X582295Y1778635D01*
X580390Y1778635D02*
X580390Y1772285D01*
X584200Y1772285D01*
X584300Y1772287D01*
X584399Y1772293D01*
X584499Y1772303D01*
X584597Y1772316D01*
X584696Y1772334D01*
X584793Y1772355D01*
X584889Y1772380D01*
X584985Y1772409D01*
X585079Y1772442D01*
X585172Y1772478D01*
X585263Y1772518D01*
X585353Y1772562D01*
X585441Y1772609D01*
X585527Y1772659D01*
X585611Y1772713D01*
X585693Y1772770D01*
X585772Y1772830D01*
X585850Y1772894D01*
X585924Y1772960D01*
X585996Y1773029D01*
X586065Y1773101D01*
X586131Y1773175D01*
X586195Y1773253D01*
X586255Y1773332D01*
X586312Y1773414D01*
X586366Y1773498D01*
X586416Y1773584D01*
X586463Y1773672D01*
X586507Y1773762D01*
X586547Y1773853D01*
X586583Y1773946D01*
X586616Y1774040D01*
X586645Y1774136D01*
X586670Y1774232D01*
X586691Y1774329D01*
X586709Y1774428D01*
X586722Y1774526D01*
X586732Y1774626D01*
X586738Y1774725D01*
X586740Y1774825D01*
X586740Y1781175D01*
X586738Y1781275D01*
X586732Y1781374D01*
X586722Y1781474D01*
X586709Y1781572D01*
X586691Y1781671D01*
X586670Y1781768D01*
X586645Y1781864D01*
X586616Y1781960D01*
X586583Y1782054D01*
X586547Y1782147D01*
X586507Y1782238D01*
X586463Y1782328D01*
X586416Y1782416D01*
X586366Y1782502D01*
X586312Y1782586D01*
X586255Y1782668D01*
X586195Y1782747D01*
X586131Y1782825D01*
X586065Y1782899D01*
X585996Y1782971D01*
X585924Y1783040D01*
X585850Y1783106D01*
X585772Y1783170D01*
X585693Y1783230D01*
X585611Y1783287D01*
X585527Y1783341D01*
X585441Y1783391D01*
X585353Y1783438D01*
X585263Y1783482D01*
X585172Y1783522D01*
X585079Y1783558D01*
X584985Y1783591D01*
X584889Y1783620D01*
X584793Y1783645D01*
X584696Y1783666D01*
X584597Y1783684D01*
X584499Y1783697D01*
X584399Y1783707D01*
X584300Y1783713D01*
X584200Y1783715D01*
X580390Y1783715D01*
X574548Y1783715D02*
X574548Y1772285D01*
X568198Y1772285D02*
X574548Y1783715D01*
X568198Y1783715D02*
X568198Y1772285D01*
X562356Y1772285D02*
X562356Y1783715D01*
X559181Y1783715D01*
X559070Y1783713D01*
X558960Y1783707D01*
X558849Y1783698D01*
X558739Y1783684D01*
X558630Y1783667D01*
X558521Y1783646D01*
X558413Y1783621D01*
X558306Y1783592D01*
X558200Y1783560D01*
X558095Y1783524D01*
X557992Y1783484D01*
X557890Y1783441D01*
X557789Y1783394D01*
X557690Y1783343D01*
X557594Y1783290D01*
X557499Y1783233D01*
X557406Y1783172D01*
X557315Y1783109D01*
X557226Y1783042D01*
X557140Y1782972D01*
X557057Y1782899D01*
X556975Y1782824D01*
X556897Y1782746D01*
X556822Y1782664D01*
X556749Y1782581D01*
X556679Y1782495D01*
X556612Y1782406D01*
X556549Y1782315D01*
X556488Y1782222D01*
X556431Y1782128D01*
X556378Y1782031D01*
X556327Y1781932D01*
X556280Y1781831D01*
X556237Y1781729D01*
X556197Y1781626D01*
X556161Y1781521D01*
X556129Y1781415D01*
X556100Y1781308D01*
X556075Y1781200D01*
X556054Y1781091D01*
X556037Y1780982D01*
X556023Y1780872D01*
X556014Y1780761D01*
X556008Y1780651D01*
X556006Y1780540D01*
X556006Y1775460D01*
X556008Y1775349D01*
X556014Y1775239D01*
X556023Y1775128D01*
X556037Y1775018D01*
X556054Y1774909D01*
X556075Y1774800D01*
X556100Y1774692D01*
X556129Y1774585D01*
X556161Y1774479D01*
X556197Y1774374D01*
X556237Y1774271D01*
X556280Y1774169D01*
X556327Y1774068D01*
X556378Y1773969D01*
X556431Y1773873D01*
X556488Y1773778D01*
X556549Y1773685D01*
X556612Y1773594D01*
X556679Y1773505D01*
X556749Y1773419D01*
X556822Y1773336D01*
X556897Y1773254D01*
X556975Y1773176D01*
X557057Y1773101D01*
X557140Y1773028D01*
X557226Y1772958D01*
X557315Y1772891D01*
X557406Y1772828D01*
X557499Y1772767D01*
X557594Y1772710D01*
X557690Y1772657D01*
X557789Y1772606D01*
X557890Y1772559D01*
X557992Y1772516D01*
X558095Y1772476D01*
X558200Y1772440D01*
X558306Y1772408D01*
X558413Y1772379D01*
X558521Y1772354D01*
X558630Y1772333D01*
X558739Y1772316D01*
X558849Y1772302D01*
X558960Y1772293D01*
X559070Y1772287D01*
X559181Y1772285D01*
X562356Y1772285D01*
X550545Y1778635D02*
X546735Y1778635D01*
X546635Y1778633D01*
X546536Y1778627D01*
X546436Y1778617D01*
X546338Y1778604D01*
X546239Y1778586D01*
X546142Y1778565D01*
X546046Y1778540D01*
X545950Y1778511D01*
X545856Y1778478D01*
X545763Y1778442D01*
X545672Y1778402D01*
X545582Y1778358D01*
X545494Y1778311D01*
X545408Y1778261D01*
X545324Y1778207D01*
X545242Y1778150D01*
X545163Y1778090D01*
X545085Y1778026D01*
X545011Y1777960D01*
X544939Y1777891D01*
X544870Y1777819D01*
X544804Y1777745D01*
X544740Y1777667D01*
X544680Y1777588D01*
X544623Y1777506D01*
X544569Y1777422D01*
X544519Y1777336D01*
X544472Y1777248D01*
X544428Y1777158D01*
X544388Y1777067D01*
X544352Y1776974D01*
X544319Y1776880D01*
X544290Y1776784D01*
X544265Y1776688D01*
X544244Y1776591D01*
X544226Y1776492D01*
X544213Y1776394D01*
X544203Y1776294D01*
X544197Y1776195D01*
X544195Y1776095D01*
X544195Y1775460D01*
X544197Y1775349D01*
X544203Y1775239D01*
X544212Y1775128D01*
X544226Y1775018D01*
X544243Y1774909D01*
X544264Y1774800D01*
X544289Y1774692D01*
X544318Y1774585D01*
X544350Y1774479D01*
X544386Y1774374D01*
X544426Y1774271D01*
X544469Y1774169D01*
X544516Y1774068D01*
X544567Y1773969D01*
X544620Y1773873D01*
X544677Y1773778D01*
X544738Y1773685D01*
X544801Y1773594D01*
X544868Y1773505D01*
X544938Y1773419D01*
X545011Y1773336D01*
X545086Y1773254D01*
X545164Y1773176D01*
X545246Y1773101D01*
X545329Y1773028D01*
X545415Y1772958D01*
X545504Y1772891D01*
X545595Y1772828D01*
X545688Y1772767D01*
X545783Y1772710D01*
X545879Y1772657D01*
X545978Y1772606D01*
X546079Y1772559D01*
X546181Y1772516D01*
X546284Y1772476D01*
X546389Y1772440D01*
X546495Y1772408D01*
X546602Y1772379D01*
X546710Y1772354D01*
X546819Y1772333D01*
X546928Y1772316D01*
X547038Y1772302D01*
X547149Y1772293D01*
X547259Y1772287D01*
X547370Y1772285D01*
X547481Y1772287D01*
X547591Y1772293D01*
X547702Y1772302D01*
X547812Y1772316D01*
X547921Y1772333D01*
X548030Y1772354D01*
X548138Y1772379D01*
X548245Y1772408D01*
X548351Y1772440D01*
X548456Y1772476D01*
X548559Y1772516D01*
X548661Y1772559D01*
X548762Y1772606D01*
X548861Y1772657D01*
X548958Y1772710D01*
X549052Y1772767D01*
X549145Y1772828D01*
X549236Y1772891D01*
X549325Y1772958D01*
X549411Y1773028D01*
X549494Y1773101D01*
X549576Y1773176D01*
X549654Y1773254D01*
X549729Y1773336D01*
X549802Y1773419D01*
X549872Y1773505D01*
X549939Y1773594D01*
X550002Y1773685D01*
X550063Y1773778D01*
X550120Y1773873D01*
X550173Y1773969D01*
X550224Y1774068D01*
X550271Y1774169D01*
X550314Y1774271D01*
X550354Y1774374D01*
X550390Y1774479D01*
X550422Y1774585D01*
X550451Y1774692D01*
X550476Y1774800D01*
X550497Y1774909D01*
X550514Y1775018D01*
X550528Y1775128D01*
X550537Y1775239D01*
X550543Y1775349D01*
X550545Y1775460D01*
X550545Y1778635D01*
X550543Y1778775D01*
X550537Y1778915D01*
X550528Y1779055D01*
X550514Y1779194D01*
X550497Y1779333D01*
X550476Y1779471D01*
X550451Y1779609D01*
X550422Y1779746D01*
X550390Y1779882D01*
X550353Y1780017D01*
X550313Y1780151D01*
X550270Y1780284D01*
X550222Y1780416D01*
X550172Y1780547D01*
X550117Y1780676D01*
X550059Y1780803D01*
X549998Y1780929D01*
X549933Y1781053D01*
X549864Y1781175D01*
X549793Y1781295D01*
X549718Y1781413D01*
X549640Y1781530D01*
X549558Y1781644D01*
X549474Y1781755D01*
X549386Y1781864D01*
X549296Y1781971D01*
X549202Y1782076D01*
X549106Y1782177D01*
X549007Y1782276D01*
X548906Y1782372D01*
X548801Y1782466D01*
X548694Y1782556D01*
X548585Y1782644D01*
X548474Y1782728D01*
X548360Y1782810D01*
X548243Y1782888D01*
X548125Y1782963D01*
X548005Y1783034D01*
X547883Y1783103D01*
X547759Y1783168D01*
X547633Y1783229D01*
X547506Y1783287D01*
X547377Y1783342D01*
X547246Y1783392D01*
X547114Y1783440D01*
X546981Y1783483D01*
X546847Y1783523D01*
X546712Y1783560D01*
X546576Y1783592D01*
X546439Y1783621D01*
X546301Y1783646D01*
X546163Y1783667D01*
X546024Y1783684D01*
X545885Y1783698D01*
X545745Y1783707D01*
X545605Y1783713D01*
X545465Y1783715D01*
D11*
X583400Y1838400D02*
X583402Y1838463D01*
X583408Y1838525D01*
X583418Y1838587D01*
X583431Y1838649D01*
X583449Y1838709D01*
X583470Y1838768D01*
X583495Y1838826D01*
X583524Y1838882D01*
X583556Y1838936D01*
X583591Y1838988D01*
X583629Y1839037D01*
X583671Y1839085D01*
X583715Y1839129D01*
X583763Y1839171D01*
X583812Y1839209D01*
X583864Y1839244D01*
X583918Y1839276D01*
X583974Y1839305D01*
X584032Y1839330D01*
X584091Y1839351D01*
X584151Y1839369D01*
X584213Y1839382D01*
X584275Y1839392D01*
X584337Y1839398D01*
X584400Y1839400D01*
X584463Y1839398D01*
X584525Y1839392D01*
X584587Y1839382D01*
X584649Y1839369D01*
X584709Y1839351D01*
X584768Y1839330D01*
X584826Y1839305D01*
X584882Y1839276D01*
X584936Y1839244D01*
X584988Y1839209D01*
X585037Y1839171D01*
X585085Y1839129D01*
X585129Y1839085D01*
X585171Y1839037D01*
X585209Y1838988D01*
X585244Y1838936D01*
X585276Y1838882D01*
X585305Y1838826D01*
X585330Y1838768D01*
X585351Y1838709D01*
X585369Y1838649D01*
X585382Y1838587D01*
X585392Y1838525D01*
X585398Y1838463D01*
X585400Y1838400D01*
X585398Y1838337D01*
X585392Y1838275D01*
X585382Y1838213D01*
X585369Y1838151D01*
X585351Y1838091D01*
X585330Y1838032D01*
X585305Y1837974D01*
X585276Y1837918D01*
X585244Y1837864D01*
X585209Y1837812D01*
X585171Y1837763D01*
X585129Y1837715D01*
X585085Y1837671D01*
X585037Y1837629D01*
X584988Y1837591D01*
X584936Y1837556D01*
X584882Y1837524D01*
X584826Y1837495D01*
X584768Y1837470D01*
X584709Y1837449D01*
X584649Y1837431D01*
X584587Y1837418D01*
X584525Y1837408D01*
X584463Y1837402D01*
X584400Y1837400D01*
X584337Y1837402D01*
X584275Y1837408D01*
X584213Y1837418D01*
X584151Y1837431D01*
X584091Y1837449D01*
X584032Y1837470D01*
X583974Y1837495D01*
X583918Y1837524D01*
X583864Y1837556D01*
X583812Y1837591D01*
X583763Y1837629D01*
X583715Y1837671D01*
X583671Y1837715D01*
X583629Y1837763D01*
X583591Y1837812D01*
X583556Y1837864D01*
X583524Y1837918D01*
X583495Y1837974D01*
X583470Y1838032D01*
X583449Y1838091D01*
X583431Y1838151D01*
X583418Y1838213D01*
X583408Y1838275D01*
X583402Y1838337D01*
X583400Y1838400D01*
D12*
X581900Y1818400D02*
X581900Y1788400D01*
X611900Y1788400D02*
X611900Y1818400D01*
D10*
X538608Y1792668D02*
X538608Y1790071D01*
X538610Y1789972D01*
X538616Y1789872D01*
X538625Y1789773D01*
X538638Y1789675D01*
X538655Y1789577D01*
X538676Y1789479D01*
X538701Y1789383D01*
X538729Y1789288D01*
X538761Y1789194D01*
X538796Y1789101D01*
X538835Y1789009D01*
X538878Y1788919D01*
X538923Y1788831D01*
X538973Y1788744D01*
X539025Y1788660D01*
X539081Y1788577D01*
X539139Y1788497D01*
X539201Y1788419D01*
X539266Y1788344D01*
X539334Y1788271D01*
X539404Y1788201D01*
X539477Y1788133D01*
X539552Y1788068D01*
X539630Y1788006D01*
X539710Y1787948D01*
X539793Y1787892D01*
X539877Y1787840D01*
X539964Y1787790D01*
X540052Y1787745D01*
X540142Y1787702D01*
X540234Y1787663D01*
X540327Y1787628D01*
X540421Y1787596D01*
X540516Y1787568D01*
X540612Y1787543D01*
X540710Y1787522D01*
X540808Y1787505D01*
X540906Y1787492D01*
X541005Y1787483D01*
X541105Y1787477D01*
X541204Y1787475D01*
X547696Y1787475D01*
X547795Y1787477D01*
X547895Y1787483D01*
X547994Y1787492D01*
X548092Y1787505D01*
X548190Y1787522D01*
X548288Y1787543D01*
X548384Y1787568D01*
X548479Y1787596D01*
X548573Y1787628D01*
X548666Y1787663D01*
X548758Y1787702D01*
X548848Y1787745D01*
X548936Y1787790D01*
X549023Y1787840D01*
X549107Y1787892D01*
X549190Y1787948D01*
X549270Y1788006D01*
X549348Y1788068D01*
X549423Y1788133D01*
X549496Y1788201D01*
X549566Y1788271D01*
X549634Y1788344D01*
X549699Y1788419D01*
X549761Y1788497D01*
X549819Y1788577D01*
X549875Y1788660D01*
X549927Y1788744D01*
X549977Y1788831D01*
X550022Y1788919D01*
X550065Y1789009D01*
X550104Y1789101D01*
X550139Y1789193D01*
X550171Y1789288D01*
X550199Y1789383D01*
X550224Y1789479D01*
X550245Y1789577D01*
X550262Y1789675D01*
X550275Y1789773D01*
X550284Y1789872D01*
X550290Y1789972D01*
X550292Y1790071D01*
X550292Y1792668D01*
X541204Y1803143D02*
X541105Y1803141D01*
X541005Y1803135D01*
X540906Y1803126D01*
X540808Y1803113D01*
X540710Y1803096D01*
X540612Y1803075D01*
X540516Y1803050D01*
X540421Y1803022D01*
X540327Y1802990D01*
X540234Y1802955D01*
X540142Y1802916D01*
X540052Y1802873D01*
X539964Y1802828D01*
X539877Y1802778D01*
X539793Y1802726D01*
X539710Y1802670D01*
X539630Y1802612D01*
X539552Y1802550D01*
X539477Y1802485D01*
X539404Y1802417D01*
X539334Y1802347D01*
X539266Y1802274D01*
X539201Y1802199D01*
X539139Y1802121D01*
X539081Y1802041D01*
X539025Y1801958D01*
X538973Y1801874D01*
X538923Y1801787D01*
X538878Y1801699D01*
X538835Y1801609D01*
X538796Y1801517D01*
X538761Y1801424D01*
X538729Y1801330D01*
X538701Y1801235D01*
X538676Y1801139D01*
X538655Y1801041D01*
X538638Y1800943D01*
X538625Y1800845D01*
X538616Y1800746D01*
X538610Y1800646D01*
X538608Y1800547D01*
X538610Y1800403D01*
X538616Y1800258D01*
X538625Y1800114D01*
X538638Y1799971D01*
X538655Y1799827D01*
X538676Y1799684D01*
X538701Y1799542D01*
X538729Y1799401D01*
X538761Y1799260D01*
X538797Y1799120D01*
X538836Y1798981D01*
X538879Y1798843D01*
X538926Y1798707D01*
X538976Y1798571D01*
X539030Y1798437D01*
X539087Y1798305D01*
X539148Y1798174D01*
X539212Y1798045D01*
X539280Y1797917D01*
X539350Y1797791D01*
X539425Y1797667D01*
X539502Y1797546D01*
X539583Y1797426D01*
X539666Y1797308D01*
X539753Y1797193D01*
X539843Y1797080D01*
X539936Y1796969D01*
X540031Y1796861D01*
X540130Y1796755D01*
X540231Y1796652D01*
X547696Y1796977D02*
X547795Y1796979D01*
X547895Y1796985D01*
X547994Y1796994D01*
X548092Y1797007D01*
X548190Y1797024D01*
X548288Y1797045D01*
X548384Y1797070D01*
X548479Y1797098D01*
X548573Y1797130D01*
X548666Y1797165D01*
X548758Y1797204D01*
X548848Y1797247D01*
X548936Y1797292D01*
X549023Y1797342D01*
X549107Y1797394D01*
X549190Y1797450D01*
X549270Y1797508D01*
X549348Y1797570D01*
X549423Y1797635D01*
X549496Y1797703D01*
X549566Y1797773D01*
X549634Y1797846D01*
X549699Y1797921D01*
X549761Y1797999D01*
X549819Y1798079D01*
X549875Y1798162D01*
X549927Y1798246D01*
X549977Y1798333D01*
X550022Y1798421D01*
X550065Y1798511D01*
X550104Y1798603D01*
X550139Y1798696D01*
X550171Y1798790D01*
X550199Y1798885D01*
X550224Y1798982D01*
X550245Y1799079D01*
X550262Y1799177D01*
X550275Y1799275D01*
X550284Y1799374D01*
X550290Y1799474D01*
X550292Y1799573D01*
X550290Y1799709D01*
X550284Y1799845D01*
X550275Y1799981D01*
X550262Y1800117D01*
X550244Y1800252D01*
X550224Y1800386D01*
X550199Y1800520D01*
X550171Y1800654D01*
X550138Y1800786D01*
X550103Y1800917D01*
X550063Y1801048D01*
X550020Y1801177D01*
X549974Y1801305D01*
X549923Y1801431D01*
X549870Y1801557D01*
X549812Y1801680D01*
X549752Y1801802D01*
X549688Y1801922D01*
X549620Y1802041D01*
X549550Y1802157D01*
X549476Y1802271D01*
X549399Y1802384D01*
X549318Y1802494D01*
X545424Y1798274D02*
X545477Y1798188D01*
X545534Y1798104D01*
X545593Y1798022D01*
X545656Y1797942D01*
X545722Y1797865D01*
X545790Y1797790D01*
X545862Y1797718D01*
X545936Y1797649D01*
X546013Y1797583D01*
X546092Y1797520D01*
X546174Y1797460D01*
X546258Y1797403D01*
X546344Y1797349D01*
X546432Y1797299D01*
X546522Y1797252D01*
X546613Y1797208D01*
X546707Y1797169D01*
X546801Y1797132D01*
X546897Y1797100D01*
X546995Y1797071D01*
X547093Y1797046D01*
X547192Y1797025D01*
X547292Y1797007D01*
X547392Y1796994D01*
X547493Y1796984D01*
X547595Y1796978D01*
X547696Y1796976D01*
X543476Y1801845D02*
X543423Y1801931D01*
X543366Y1802015D01*
X543307Y1802097D01*
X543244Y1802177D01*
X543178Y1802254D01*
X543110Y1802329D01*
X543038Y1802401D01*
X542964Y1802470D01*
X542887Y1802536D01*
X542808Y1802599D01*
X542726Y1802659D01*
X542642Y1802716D01*
X542556Y1802770D01*
X542468Y1802820D01*
X542378Y1802867D01*
X542287Y1802911D01*
X542193Y1802950D01*
X542099Y1802987D01*
X542003Y1803019D01*
X541905Y1803048D01*
X541807Y1803073D01*
X541708Y1803094D01*
X541608Y1803112D01*
X541508Y1803125D01*
X541407Y1803135D01*
X541305Y1803141D01*
X541204Y1803143D01*
X543476Y1801845D02*
X545424Y1798275D01*
X545099Y1807701D02*
X545099Y1811596D01*
X545097Y1811695D01*
X545091Y1811795D01*
X545082Y1811894D01*
X545069Y1811992D01*
X545052Y1812090D01*
X545031Y1812188D01*
X545006Y1812284D01*
X544978Y1812379D01*
X544946Y1812473D01*
X544911Y1812566D01*
X544872Y1812658D01*
X544829Y1812748D01*
X544784Y1812836D01*
X544734Y1812923D01*
X544682Y1813007D01*
X544626Y1813090D01*
X544568Y1813170D01*
X544506Y1813248D01*
X544441Y1813323D01*
X544373Y1813396D01*
X544303Y1813466D01*
X544230Y1813534D01*
X544155Y1813599D01*
X544077Y1813661D01*
X543997Y1813719D01*
X543914Y1813775D01*
X543830Y1813827D01*
X543743Y1813877D01*
X543655Y1813922D01*
X543565Y1813965D01*
X543473Y1814004D01*
X543380Y1814039D01*
X543286Y1814071D01*
X543191Y1814099D01*
X543095Y1814124D01*
X542997Y1814145D01*
X542899Y1814162D01*
X542801Y1814175D01*
X542702Y1814184D01*
X542602Y1814190D01*
X542503Y1814192D01*
X541854Y1814192D01*
X541741Y1814190D01*
X541628Y1814184D01*
X541515Y1814174D01*
X541402Y1814160D01*
X541290Y1814143D01*
X541179Y1814121D01*
X541069Y1814096D01*
X540959Y1814066D01*
X540851Y1814033D01*
X540744Y1813996D01*
X540638Y1813956D01*
X540534Y1813911D01*
X540431Y1813863D01*
X540330Y1813812D01*
X540231Y1813757D01*
X540134Y1813699D01*
X540039Y1813637D01*
X539946Y1813572D01*
X539856Y1813504D01*
X539768Y1813433D01*
X539682Y1813358D01*
X539599Y1813281D01*
X539519Y1813201D01*
X539442Y1813118D01*
X539367Y1813032D01*
X539296Y1812944D01*
X539228Y1812854D01*
X539163Y1812761D01*
X539101Y1812666D01*
X539043Y1812569D01*
X538988Y1812470D01*
X538937Y1812369D01*
X538889Y1812266D01*
X538844Y1812162D01*
X538804Y1812056D01*
X538767Y1811949D01*
X538734Y1811841D01*
X538704Y1811731D01*
X538679Y1811621D01*
X538657Y1811510D01*
X538640Y1811398D01*
X538626Y1811285D01*
X538616Y1811172D01*
X538610Y1811059D01*
X538608Y1810946D01*
X538610Y1810833D01*
X538616Y1810720D01*
X538626Y1810607D01*
X538640Y1810494D01*
X538657Y1810382D01*
X538679Y1810271D01*
X538704Y1810161D01*
X538734Y1810051D01*
X538767Y1809943D01*
X538804Y1809836D01*
X538844Y1809730D01*
X538889Y1809626D01*
X538937Y1809523D01*
X538988Y1809422D01*
X539043Y1809323D01*
X539101Y1809226D01*
X539163Y1809131D01*
X539228Y1809038D01*
X539296Y1808948D01*
X539367Y1808860D01*
X539442Y1808774D01*
X539519Y1808691D01*
X539599Y1808611D01*
X539682Y1808534D01*
X539768Y1808459D01*
X539856Y1808388D01*
X539946Y1808320D01*
X540039Y1808255D01*
X540134Y1808193D01*
X540231Y1808135D01*
X540330Y1808080D01*
X540431Y1808029D01*
X540534Y1807981D01*
X540638Y1807936D01*
X540744Y1807896D01*
X540851Y1807859D01*
X540959Y1807826D01*
X541069Y1807796D01*
X541179Y1807771D01*
X541290Y1807749D01*
X541402Y1807732D01*
X541515Y1807718D01*
X541628Y1807708D01*
X541741Y1807702D01*
X541854Y1807700D01*
X541854Y1807701D02*
X545099Y1807701D01*
X545242Y1807703D01*
X545385Y1807709D01*
X545528Y1807719D01*
X545670Y1807733D01*
X545812Y1807750D01*
X545954Y1807772D01*
X546095Y1807797D01*
X546235Y1807827D01*
X546374Y1807860D01*
X546512Y1807897D01*
X546649Y1807938D01*
X546785Y1807982D01*
X546920Y1808031D01*
X547053Y1808083D01*
X547185Y1808138D01*
X547315Y1808198D01*
X547444Y1808261D01*
X547571Y1808327D01*
X547695Y1808397D01*
X547818Y1808470D01*
X547939Y1808547D01*
X548058Y1808627D01*
X548174Y1808710D01*
X548289Y1808796D01*
X548400Y1808885D01*
X548510Y1808978D01*
X548616Y1809073D01*
X548720Y1809172D01*
X548821Y1809273D01*
X548920Y1809377D01*
X549015Y1809483D01*
X549108Y1809593D01*
X549197Y1809704D01*
X549283Y1809819D01*
X549366Y1809935D01*
X549446Y1810054D01*
X549523Y1810175D01*
X549596Y1810297D01*
X549666Y1810422D01*
X549732Y1810549D01*
X549795Y1810678D01*
X549855Y1810808D01*
X549910Y1810940D01*
X549962Y1811073D01*
X550011Y1811208D01*
X550055Y1811344D01*
X550096Y1811481D01*
X550133Y1811619D01*
X550166Y1811758D01*
X550196Y1811898D01*
X550221Y1812039D01*
X550243Y1812181D01*
X550260Y1812323D01*
X550274Y1812465D01*
X550284Y1812608D01*
X550290Y1812751D01*
X550292Y1812894D01*
D12*
X938900Y650100D02*
X1016900Y650100D01*
X1016900Y696100D01*
X938900Y696100D01*
X938900Y650100D01*
X942150Y687100D02*
X942152Y687209D01*
X942158Y687318D01*
X942168Y687426D01*
X942182Y687534D01*
X942199Y687642D01*
X942221Y687749D01*
X942246Y687855D01*
X942276Y687959D01*
X942309Y688063D01*
X942346Y688166D01*
X942386Y688267D01*
X942430Y688366D01*
X942478Y688464D01*
X942530Y688561D01*
X942584Y688655D01*
X942642Y688747D01*
X942704Y688837D01*
X942769Y688924D01*
X942836Y689010D01*
X942907Y689093D01*
X942981Y689173D01*
X943058Y689250D01*
X943137Y689325D01*
X943219Y689396D01*
X943304Y689465D01*
X943391Y689530D01*
X943480Y689593D01*
X943572Y689651D01*
X943666Y689707D01*
X943761Y689759D01*
X943859Y689808D01*
X943958Y689853D01*
X944059Y689895D01*
X944161Y689932D01*
X944264Y689966D01*
X944369Y689997D01*
X944475Y690023D01*
X944581Y690046D01*
X944689Y690064D01*
X944797Y690079D01*
X944905Y690090D01*
X945014Y690097D01*
X945123Y690100D01*
X945232Y690099D01*
X945341Y690094D01*
X945449Y690085D01*
X945557Y690072D01*
X945665Y690055D01*
X945772Y690035D01*
X945878Y690010D01*
X945983Y689982D01*
X946087Y689950D01*
X946190Y689914D01*
X946292Y689874D01*
X946392Y689831D01*
X946490Y689784D01*
X946587Y689734D01*
X946681Y689680D01*
X946774Y689622D01*
X946865Y689562D01*
X946953Y689498D01*
X947039Y689431D01*
X947122Y689361D01*
X947203Y689288D01*
X947281Y689212D01*
X947356Y689133D01*
X947429Y689051D01*
X947498Y688967D01*
X947564Y688881D01*
X947627Y688792D01*
X947687Y688701D01*
X947744Y688608D01*
X947797Y688513D01*
X947846Y688416D01*
X947892Y688317D01*
X947934Y688217D01*
X947973Y688115D01*
X948008Y688011D01*
X948039Y687907D01*
X948067Y687802D01*
X948090Y687695D01*
X948110Y687588D01*
X948126Y687480D01*
X948138Y687372D01*
X948146Y687263D01*
X948150Y687154D01*
X948150Y687046D01*
X948146Y686937D01*
X948138Y686828D01*
X948126Y686720D01*
X948110Y686612D01*
X948090Y686505D01*
X948067Y686398D01*
X948039Y686293D01*
X948008Y686189D01*
X947973Y686085D01*
X947934Y685983D01*
X947892Y685883D01*
X947846Y685784D01*
X947797Y685687D01*
X947744Y685592D01*
X947687Y685499D01*
X947627Y685408D01*
X947564Y685319D01*
X947498Y685233D01*
X947429Y685149D01*
X947356Y685067D01*
X947281Y684988D01*
X947203Y684912D01*
X947122Y684839D01*
X947039Y684769D01*
X946953Y684702D01*
X946865Y684638D01*
X946774Y684578D01*
X946681Y684520D01*
X946587Y684466D01*
X946490Y684416D01*
X946392Y684369D01*
X946292Y684326D01*
X946190Y684286D01*
X946087Y684250D01*
X945983Y684218D01*
X945878Y684190D01*
X945772Y684165D01*
X945665Y684145D01*
X945557Y684128D01*
X945449Y684115D01*
X945341Y684106D01*
X945232Y684101D01*
X945123Y684100D01*
X945014Y684103D01*
X944905Y684110D01*
X944797Y684121D01*
X944689Y684136D01*
X944581Y684154D01*
X944475Y684177D01*
X944369Y684203D01*
X944264Y684234D01*
X944161Y684268D01*
X944059Y684305D01*
X943958Y684347D01*
X943859Y684392D01*
X943761Y684441D01*
X943666Y684493D01*
X943572Y684549D01*
X943480Y684607D01*
X943391Y684670D01*
X943304Y684735D01*
X943219Y684804D01*
X943137Y684875D01*
X943058Y684950D01*
X942981Y685027D01*
X942907Y685107D01*
X942836Y685190D01*
X942769Y685276D01*
X942704Y685363D01*
X942642Y685453D01*
X942584Y685545D01*
X942530Y685639D01*
X942478Y685736D01*
X942430Y685834D01*
X942386Y685933D01*
X942346Y686034D01*
X942309Y686137D01*
X942276Y686241D01*
X942246Y686345D01*
X942221Y686451D01*
X942199Y686558D01*
X942182Y686666D01*
X942168Y686774D01*
X942158Y686882D01*
X942152Y686991D01*
X942150Y687100D01*
D10*
X1037208Y687821D02*
X1037208Y685224D01*
X1037210Y685125D01*
X1037216Y685025D01*
X1037225Y684926D01*
X1037238Y684828D01*
X1037255Y684730D01*
X1037276Y684632D01*
X1037301Y684536D01*
X1037329Y684441D01*
X1037361Y684347D01*
X1037396Y684254D01*
X1037435Y684162D01*
X1037478Y684072D01*
X1037523Y683984D01*
X1037573Y683897D01*
X1037625Y683813D01*
X1037681Y683730D01*
X1037739Y683650D01*
X1037801Y683572D01*
X1037866Y683497D01*
X1037934Y683424D01*
X1038004Y683354D01*
X1038077Y683286D01*
X1038152Y683221D01*
X1038230Y683159D01*
X1038310Y683101D01*
X1038393Y683045D01*
X1038477Y682993D01*
X1038564Y682943D01*
X1038652Y682898D01*
X1038742Y682855D01*
X1038834Y682816D01*
X1038927Y682781D01*
X1039021Y682749D01*
X1039116Y682721D01*
X1039212Y682696D01*
X1039310Y682675D01*
X1039408Y682658D01*
X1039506Y682645D01*
X1039605Y682636D01*
X1039705Y682630D01*
X1039804Y682628D01*
X1046296Y682628D01*
X1046395Y682630D01*
X1046495Y682636D01*
X1046594Y682645D01*
X1046692Y682658D01*
X1046790Y682675D01*
X1046888Y682696D01*
X1046984Y682721D01*
X1047079Y682749D01*
X1047173Y682781D01*
X1047266Y682816D01*
X1047358Y682855D01*
X1047448Y682898D01*
X1047536Y682943D01*
X1047623Y682993D01*
X1047707Y683045D01*
X1047790Y683101D01*
X1047870Y683159D01*
X1047948Y683221D01*
X1048023Y683286D01*
X1048096Y683354D01*
X1048166Y683424D01*
X1048234Y683497D01*
X1048299Y683572D01*
X1048361Y683650D01*
X1048419Y683730D01*
X1048475Y683813D01*
X1048527Y683897D01*
X1048577Y683984D01*
X1048622Y684072D01*
X1048665Y684162D01*
X1048704Y684254D01*
X1048739Y684346D01*
X1048771Y684441D01*
X1048799Y684536D01*
X1048824Y684632D01*
X1048845Y684730D01*
X1048862Y684828D01*
X1048875Y684926D01*
X1048884Y685025D01*
X1048890Y685125D01*
X1048892Y685224D01*
X1048892Y687821D01*
X1048892Y692590D02*
X1037208Y692590D01*
X1037208Y697783D01*
X1037208Y702643D02*
X1048892Y702643D01*
X1048892Y709134D02*
X1041752Y702643D01*
X1044348Y705239D02*
X1037208Y709134D01*
X1035910Y713028D02*
X1035910Y718221D01*
X1037208Y722017D02*
X1048892Y725912D01*
X1037208Y729806D01*
X1040129Y728833D02*
X1040129Y722991D01*
X1037208Y734477D02*
X1048892Y734477D01*
X1048892Y737723D01*
X1048890Y737836D01*
X1048884Y737949D01*
X1048874Y738062D01*
X1048860Y738175D01*
X1048843Y738287D01*
X1048821Y738398D01*
X1048796Y738508D01*
X1048766Y738618D01*
X1048733Y738726D01*
X1048696Y738833D01*
X1048656Y738939D01*
X1048611Y739043D01*
X1048563Y739146D01*
X1048512Y739247D01*
X1048457Y739346D01*
X1048399Y739443D01*
X1048337Y739538D01*
X1048272Y739631D01*
X1048204Y739721D01*
X1048133Y739809D01*
X1048058Y739895D01*
X1047981Y739978D01*
X1047901Y740058D01*
X1047818Y740135D01*
X1047732Y740210D01*
X1047644Y740281D01*
X1047554Y740349D01*
X1047461Y740414D01*
X1047366Y740476D01*
X1047269Y740534D01*
X1047170Y740589D01*
X1047069Y740640D01*
X1046966Y740688D01*
X1046862Y740733D01*
X1046756Y740773D01*
X1046649Y740810D01*
X1046541Y740843D01*
X1046431Y740873D01*
X1046321Y740898D01*
X1046210Y740920D01*
X1046098Y740937D01*
X1045985Y740951D01*
X1045872Y740961D01*
X1045759Y740967D01*
X1045646Y740969D01*
X1045646Y740968D02*
X1040454Y740968D01*
X1040454Y740969D02*
X1040341Y740967D01*
X1040228Y740961D01*
X1040115Y740951D01*
X1040002Y740937D01*
X1039890Y740920D01*
X1039779Y740898D01*
X1039669Y740873D01*
X1039559Y740843D01*
X1039451Y740810D01*
X1039344Y740773D01*
X1039238Y740733D01*
X1039134Y740688D01*
X1039031Y740640D01*
X1038930Y740589D01*
X1038831Y740534D01*
X1038734Y740476D01*
X1038639Y740414D01*
X1038546Y740349D01*
X1038456Y740281D01*
X1038368Y740210D01*
X1038282Y740135D01*
X1038199Y740058D01*
X1038119Y739978D01*
X1038042Y739895D01*
X1037967Y739809D01*
X1037896Y739721D01*
X1037828Y739631D01*
X1037763Y739538D01*
X1037701Y739443D01*
X1037643Y739346D01*
X1037588Y739247D01*
X1037537Y739146D01*
X1037489Y739043D01*
X1037444Y738939D01*
X1037404Y738833D01*
X1037367Y738726D01*
X1037334Y738618D01*
X1037304Y738508D01*
X1037279Y738398D01*
X1037257Y738287D01*
X1037240Y738175D01*
X1037226Y738062D01*
X1037216Y737949D01*
X1037210Y737836D01*
X1037208Y737723D01*
X1037208Y734477D01*
X1037208Y748851D02*
X1037208Y751448D01*
X1037208Y748851D02*
X1037210Y748752D01*
X1037216Y748652D01*
X1037225Y748553D01*
X1037238Y748455D01*
X1037255Y748357D01*
X1037276Y748259D01*
X1037301Y748163D01*
X1037329Y748068D01*
X1037361Y747974D01*
X1037396Y747881D01*
X1037435Y747789D01*
X1037478Y747699D01*
X1037523Y747611D01*
X1037573Y747524D01*
X1037625Y747440D01*
X1037681Y747357D01*
X1037739Y747277D01*
X1037801Y747199D01*
X1037866Y747124D01*
X1037934Y747051D01*
X1038004Y746981D01*
X1038077Y746913D01*
X1038152Y746848D01*
X1038230Y746786D01*
X1038310Y746728D01*
X1038393Y746672D01*
X1038477Y746620D01*
X1038564Y746570D01*
X1038652Y746525D01*
X1038742Y746482D01*
X1038834Y746443D01*
X1038927Y746408D01*
X1039021Y746376D01*
X1039116Y746348D01*
X1039212Y746323D01*
X1039310Y746302D01*
X1039408Y746285D01*
X1039506Y746272D01*
X1039605Y746263D01*
X1039705Y746257D01*
X1039804Y746255D01*
X1046296Y746255D01*
X1046395Y746257D01*
X1046495Y746263D01*
X1046594Y746272D01*
X1046692Y746285D01*
X1046790Y746302D01*
X1046888Y746323D01*
X1046984Y746348D01*
X1047079Y746376D01*
X1047173Y746408D01*
X1047266Y746443D01*
X1047358Y746482D01*
X1047448Y746525D01*
X1047536Y746570D01*
X1047623Y746620D01*
X1047707Y746672D01*
X1047790Y746728D01*
X1047870Y746786D01*
X1047948Y746848D01*
X1048023Y746913D01*
X1048096Y746981D01*
X1048166Y747051D01*
X1048234Y747124D01*
X1048299Y747199D01*
X1048361Y747277D01*
X1048419Y747357D01*
X1048475Y747440D01*
X1048527Y747524D01*
X1048577Y747611D01*
X1048622Y747699D01*
X1048665Y747789D01*
X1048704Y747881D01*
X1048739Y747973D01*
X1048771Y748068D01*
X1048799Y748163D01*
X1048824Y748259D01*
X1048845Y748357D01*
X1048862Y748455D01*
X1048875Y748553D01*
X1048884Y748652D01*
X1048890Y748752D01*
X1048892Y748851D01*
X1048892Y751448D01*
X1046296Y755813D02*
X1048892Y759059D01*
X1037208Y759059D01*
X1037208Y762304D02*
X1037208Y755813D01*
X1033398Y588648D02*
X1045082Y588648D01*
X1033398Y588648D02*
X1033398Y593841D01*
X1033398Y598605D02*
X1045082Y598605D01*
X1045082Y601851D01*
X1045080Y601964D01*
X1045074Y602077D01*
X1045064Y602190D01*
X1045050Y602303D01*
X1045033Y602415D01*
X1045011Y602526D01*
X1044986Y602636D01*
X1044956Y602746D01*
X1044923Y602854D01*
X1044886Y602961D01*
X1044846Y603067D01*
X1044801Y603171D01*
X1044753Y603274D01*
X1044702Y603375D01*
X1044647Y603474D01*
X1044589Y603571D01*
X1044527Y603666D01*
X1044462Y603759D01*
X1044394Y603849D01*
X1044323Y603937D01*
X1044248Y604023D01*
X1044171Y604106D01*
X1044091Y604186D01*
X1044008Y604263D01*
X1043922Y604338D01*
X1043834Y604409D01*
X1043744Y604477D01*
X1043651Y604542D01*
X1043556Y604604D01*
X1043459Y604662D01*
X1043360Y604717D01*
X1043259Y604768D01*
X1043156Y604816D01*
X1043052Y604861D01*
X1042946Y604901D01*
X1042839Y604938D01*
X1042731Y604971D01*
X1042621Y605001D01*
X1042511Y605026D01*
X1042400Y605048D01*
X1042288Y605065D01*
X1042175Y605079D01*
X1042062Y605089D01*
X1041949Y605095D01*
X1041836Y605097D01*
X1041723Y605095D01*
X1041610Y605089D01*
X1041497Y605079D01*
X1041384Y605065D01*
X1041272Y605048D01*
X1041161Y605026D01*
X1041051Y605001D01*
X1040941Y604971D01*
X1040833Y604938D01*
X1040726Y604901D01*
X1040620Y604861D01*
X1040516Y604816D01*
X1040413Y604768D01*
X1040312Y604717D01*
X1040213Y604662D01*
X1040116Y604604D01*
X1040021Y604542D01*
X1039928Y604477D01*
X1039838Y604409D01*
X1039750Y604338D01*
X1039664Y604263D01*
X1039581Y604186D01*
X1039501Y604106D01*
X1039424Y604023D01*
X1039349Y603937D01*
X1039278Y603849D01*
X1039210Y603759D01*
X1039145Y603666D01*
X1039083Y603571D01*
X1039025Y603474D01*
X1038970Y603375D01*
X1038919Y603274D01*
X1038871Y603171D01*
X1038826Y603067D01*
X1038786Y602961D01*
X1038749Y602854D01*
X1038716Y602746D01*
X1038686Y602636D01*
X1038661Y602526D01*
X1038639Y602415D01*
X1038622Y602303D01*
X1038608Y602190D01*
X1038598Y602077D01*
X1038592Y601964D01*
X1038590Y601851D01*
X1038591Y601851D02*
X1038591Y598605D01*
X1038591Y602500D02*
X1033398Y605096D01*
X1033398Y612525D02*
X1033398Y615121D01*
X1033398Y612525D02*
X1033400Y612426D01*
X1033406Y612326D01*
X1033415Y612227D01*
X1033428Y612129D01*
X1033445Y612031D01*
X1033466Y611933D01*
X1033491Y611837D01*
X1033519Y611742D01*
X1033551Y611648D01*
X1033586Y611555D01*
X1033625Y611463D01*
X1033668Y611373D01*
X1033713Y611285D01*
X1033763Y611198D01*
X1033815Y611114D01*
X1033871Y611031D01*
X1033929Y610951D01*
X1033991Y610873D01*
X1034056Y610798D01*
X1034124Y610725D01*
X1034194Y610655D01*
X1034267Y610587D01*
X1034342Y610522D01*
X1034420Y610460D01*
X1034500Y610402D01*
X1034583Y610346D01*
X1034667Y610294D01*
X1034754Y610244D01*
X1034842Y610199D01*
X1034932Y610156D01*
X1035024Y610117D01*
X1035117Y610082D01*
X1035211Y610050D01*
X1035306Y610022D01*
X1035402Y609997D01*
X1035500Y609976D01*
X1035598Y609959D01*
X1035696Y609946D01*
X1035795Y609937D01*
X1035895Y609931D01*
X1035994Y609929D01*
X1035994Y609928D02*
X1042486Y609928D01*
X1042486Y609929D02*
X1042585Y609931D01*
X1042685Y609937D01*
X1042784Y609946D01*
X1042882Y609959D01*
X1042980Y609976D01*
X1043078Y609997D01*
X1043174Y610022D01*
X1043269Y610050D01*
X1043363Y610082D01*
X1043456Y610117D01*
X1043548Y610156D01*
X1043638Y610199D01*
X1043726Y610244D01*
X1043813Y610294D01*
X1043897Y610346D01*
X1043980Y610402D01*
X1044060Y610460D01*
X1044138Y610522D01*
X1044213Y610587D01*
X1044286Y610655D01*
X1044356Y610725D01*
X1044424Y610798D01*
X1044489Y610873D01*
X1044551Y610951D01*
X1044609Y611031D01*
X1044665Y611114D01*
X1044717Y611198D01*
X1044767Y611285D01*
X1044812Y611373D01*
X1044855Y611463D01*
X1044894Y611555D01*
X1044929Y611647D01*
X1044961Y611742D01*
X1044989Y611837D01*
X1045014Y611933D01*
X1045035Y612031D01*
X1045052Y612129D01*
X1045065Y612227D01*
X1045074Y612326D01*
X1045080Y612426D01*
X1045082Y612525D01*
X1045082Y615121D01*
X1045082Y620037D02*
X1033398Y620037D01*
X1037942Y620037D02*
X1045082Y626528D01*
X1040538Y622633D02*
X1033398Y626528D01*
X1032100Y630422D02*
X1032100Y635615D01*
X1033398Y639411D02*
X1045082Y643306D01*
X1033398Y647201D01*
X1036319Y646227D02*
X1036319Y640385D01*
X1033398Y651871D02*
X1045082Y651871D01*
X1045082Y655117D01*
X1045080Y655230D01*
X1045074Y655343D01*
X1045064Y655456D01*
X1045050Y655569D01*
X1045033Y655681D01*
X1045011Y655792D01*
X1044986Y655902D01*
X1044956Y656012D01*
X1044923Y656120D01*
X1044886Y656227D01*
X1044846Y656333D01*
X1044801Y656437D01*
X1044753Y656540D01*
X1044702Y656641D01*
X1044647Y656740D01*
X1044589Y656837D01*
X1044527Y656932D01*
X1044462Y657025D01*
X1044394Y657115D01*
X1044323Y657203D01*
X1044248Y657289D01*
X1044171Y657372D01*
X1044091Y657452D01*
X1044008Y657529D01*
X1043922Y657604D01*
X1043834Y657675D01*
X1043744Y657743D01*
X1043651Y657808D01*
X1043556Y657870D01*
X1043459Y657928D01*
X1043360Y657983D01*
X1043259Y658034D01*
X1043156Y658082D01*
X1043052Y658127D01*
X1042946Y658167D01*
X1042839Y658204D01*
X1042731Y658237D01*
X1042621Y658267D01*
X1042511Y658292D01*
X1042400Y658314D01*
X1042288Y658331D01*
X1042175Y658345D01*
X1042062Y658355D01*
X1041949Y658361D01*
X1041836Y658363D01*
X1041836Y658362D02*
X1036644Y658362D01*
X1036644Y658363D02*
X1036531Y658361D01*
X1036418Y658355D01*
X1036305Y658345D01*
X1036192Y658331D01*
X1036080Y658314D01*
X1035969Y658292D01*
X1035859Y658267D01*
X1035749Y658237D01*
X1035641Y658204D01*
X1035534Y658167D01*
X1035428Y658127D01*
X1035324Y658082D01*
X1035221Y658034D01*
X1035120Y657983D01*
X1035021Y657928D01*
X1034924Y657870D01*
X1034829Y657808D01*
X1034736Y657743D01*
X1034646Y657675D01*
X1034558Y657604D01*
X1034472Y657529D01*
X1034389Y657452D01*
X1034309Y657372D01*
X1034232Y657289D01*
X1034157Y657203D01*
X1034086Y657115D01*
X1034018Y657025D01*
X1033953Y656932D01*
X1033891Y656837D01*
X1033833Y656740D01*
X1033778Y656641D01*
X1033727Y656540D01*
X1033679Y656437D01*
X1033634Y656333D01*
X1033594Y656227D01*
X1033557Y656120D01*
X1033524Y656012D01*
X1033494Y655902D01*
X1033469Y655792D01*
X1033447Y655681D01*
X1033430Y655569D01*
X1033416Y655456D01*
X1033406Y655343D01*
X1033400Y655230D01*
X1033398Y655117D01*
X1033398Y651871D01*
X1033398Y666246D02*
X1033398Y668842D01*
X1033398Y666246D02*
X1033400Y666147D01*
X1033406Y666047D01*
X1033415Y665948D01*
X1033428Y665850D01*
X1033445Y665752D01*
X1033466Y665654D01*
X1033491Y665558D01*
X1033519Y665463D01*
X1033551Y665369D01*
X1033586Y665276D01*
X1033625Y665184D01*
X1033668Y665094D01*
X1033713Y665006D01*
X1033763Y664919D01*
X1033815Y664835D01*
X1033871Y664752D01*
X1033929Y664672D01*
X1033991Y664594D01*
X1034056Y664519D01*
X1034124Y664446D01*
X1034194Y664376D01*
X1034267Y664308D01*
X1034342Y664243D01*
X1034420Y664181D01*
X1034500Y664123D01*
X1034583Y664067D01*
X1034667Y664015D01*
X1034754Y663965D01*
X1034842Y663920D01*
X1034932Y663877D01*
X1035024Y663838D01*
X1035117Y663803D01*
X1035211Y663771D01*
X1035306Y663743D01*
X1035402Y663718D01*
X1035500Y663697D01*
X1035598Y663680D01*
X1035696Y663667D01*
X1035795Y663658D01*
X1035895Y663652D01*
X1035994Y663650D01*
X1035994Y663649D02*
X1042486Y663649D01*
X1042486Y663650D02*
X1042585Y663652D01*
X1042685Y663658D01*
X1042784Y663667D01*
X1042882Y663680D01*
X1042980Y663697D01*
X1043078Y663718D01*
X1043174Y663743D01*
X1043269Y663771D01*
X1043363Y663803D01*
X1043456Y663838D01*
X1043548Y663877D01*
X1043638Y663920D01*
X1043726Y663965D01*
X1043813Y664015D01*
X1043897Y664067D01*
X1043980Y664123D01*
X1044060Y664181D01*
X1044138Y664243D01*
X1044213Y664308D01*
X1044286Y664376D01*
X1044356Y664446D01*
X1044424Y664519D01*
X1044489Y664594D01*
X1044551Y664672D01*
X1044609Y664752D01*
X1044665Y664835D01*
X1044717Y664919D01*
X1044767Y665006D01*
X1044812Y665094D01*
X1044855Y665184D01*
X1044894Y665276D01*
X1044929Y665368D01*
X1044961Y665463D01*
X1044989Y665558D01*
X1045014Y665654D01*
X1045035Y665752D01*
X1045052Y665850D01*
X1045065Y665948D01*
X1045074Y666047D01*
X1045080Y666147D01*
X1045082Y666246D01*
X1045082Y668842D01*
X1042486Y673207D02*
X1045082Y676453D01*
X1033398Y676453D01*
X1033398Y679698D02*
X1033398Y673207D01*
X1023379Y576654D02*
X1023379Y573408D01*
X1023380Y576654D02*
X1023378Y576767D01*
X1023372Y576880D01*
X1023362Y576993D01*
X1023348Y577106D01*
X1023331Y577218D01*
X1023309Y577329D01*
X1023284Y577439D01*
X1023254Y577549D01*
X1023221Y577657D01*
X1023184Y577764D01*
X1023144Y577870D01*
X1023099Y577974D01*
X1023051Y578077D01*
X1023000Y578178D01*
X1022945Y578277D01*
X1022887Y578374D01*
X1022825Y578469D01*
X1022760Y578562D01*
X1022692Y578652D01*
X1022621Y578740D01*
X1022546Y578826D01*
X1022469Y578909D01*
X1022389Y578989D01*
X1022306Y579066D01*
X1022220Y579141D01*
X1022132Y579212D01*
X1022042Y579280D01*
X1021949Y579345D01*
X1021854Y579407D01*
X1021757Y579465D01*
X1021658Y579520D01*
X1021557Y579571D01*
X1021454Y579619D01*
X1021350Y579664D01*
X1021244Y579704D01*
X1021137Y579741D01*
X1021029Y579774D01*
X1020919Y579804D01*
X1020809Y579829D01*
X1020698Y579851D01*
X1020586Y579868D01*
X1020473Y579882D01*
X1020360Y579892D01*
X1020247Y579898D01*
X1020134Y579900D01*
X1020021Y579898D01*
X1019908Y579892D01*
X1019795Y579882D01*
X1019682Y579868D01*
X1019570Y579851D01*
X1019459Y579829D01*
X1019349Y579804D01*
X1019239Y579774D01*
X1019131Y579741D01*
X1019024Y579704D01*
X1018918Y579664D01*
X1018814Y579619D01*
X1018711Y579571D01*
X1018610Y579520D01*
X1018511Y579465D01*
X1018414Y579407D01*
X1018319Y579345D01*
X1018226Y579280D01*
X1018136Y579212D01*
X1018048Y579141D01*
X1017962Y579066D01*
X1017879Y578989D01*
X1017799Y578909D01*
X1017722Y578826D01*
X1017647Y578740D01*
X1017576Y578652D01*
X1017508Y578562D01*
X1017443Y578469D01*
X1017381Y578374D01*
X1017323Y578277D01*
X1017268Y578178D01*
X1017217Y578077D01*
X1017169Y577974D01*
X1017124Y577870D01*
X1017084Y577764D01*
X1017047Y577657D01*
X1017014Y577549D01*
X1016984Y577439D01*
X1016959Y577329D01*
X1016937Y577218D01*
X1016920Y577106D01*
X1016906Y576993D01*
X1016896Y576880D01*
X1016890Y576767D01*
X1016888Y576654D01*
X1016888Y573408D01*
X1028572Y573408D01*
X1028572Y576654D01*
X1028570Y576755D01*
X1028564Y576855D01*
X1028554Y576955D01*
X1028541Y577055D01*
X1028523Y577154D01*
X1028502Y577253D01*
X1028477Y577350D01*
X1028448Y577447D01*
X1028415Y577542D01*
X1028379Y577636D01*
X1028339Y577728D01*
X1028296Y577819D01*
X1028249Y577908D01*
X1028199Y577995D01*
X1028145Y578081D01*
X1028088Y578164D01*
X1028028Y578244D01*
X1027965Y578323D01*
X1027898Y578399D01*
X1027829Y578472D01*
X1027757Y578542D01*
X1027683Y578610D01*
X1027606Y578675D01*
X1027526Y578736D01*
X1027444Y578795D01*
X1027360Y578850D01*
X1027274Y578902D01*
X1027186Y578951D01*
X1027096Y578996D01*
X1027004Y579038D01*
X1026911Y579076D01*
X1026816Y579110D01*
X1026721Y579141D01*
X1026624Y579168D01*
X1026526Y579191D01*
X1026427Y579211D01*
X1026327Y579226D01*
X1026227Y579238D01*
X1026127Y579246D01*
X1026026Y579250D01*
X1025926Y579250D01*
X1025825Y579246D01*
X1025725Y579238D01*
X1025625Y579226D01*
X1025525Y579211D01*
X1025426Y579191D01*
X1025328Y579168D01*
X1025231Y579141D01*
X1025136Y579110D01*
X1025041Y579076D01*
X1024948Y579038D01*
X1024856Y578996D01*
X1024766Y578951D01*
X1024678Y578902D01*
X1024592Y578850D01*
X1024508Y578795D01*
X1024426Y578736D01*
X1024346Y578675D01*
X1024269Y578610D01*
X1024195Y578542D01*
X1024123Y578472D01*
X1024054Y578399D01*
X1023987Y578323D01*
X1023924Y578244D01*
X1023864Y578164D01*
X1023807Y578081D01*
X1023753Y577995D01*
X1023703Y577908D01*
X1023656Y577819D01*
X1023613Y577728D01*
X1023573Y577636D01*
X1023537Y577542D01*
X1023504Y577447D01*
X1023475Y577350D01*
X1023450Y577253D01*
X1023429Y577154D01*
X1023411Y577055D01*
X1023398Y576955D01*
X1023388Y576855D01*
X1023382Y576755D01*
X1023380Y576654D01*
X1016888Y586851D02*
X1016888Y589447D01*
X1016888Y586851D02*
X1016890Y586752D01*
X1016896Y586652D01*
X1016905Y586553D01*
X1016918Y586455D01*
X1016935Y586357D01*
X1016956Y586259D01*
X1016981Y586163D01*
X1017009Y586068D01*
X1017041Y585974D01*
X1017076Y585881D01*
X1017115Y585789D01*
X1017158Y585699D01*
X1017203Y585611D01*
X1017253Y585524D01*
X1017305Y585440D01*
X1017361Y585357D01*
X1017419Y585277D01*
X1017481Y585199D01*
X1017546Y585124D01*
X1017614Y585051D01*
X1017684Y584981D01*
X1017757Y584913D01*
X1017832Y584848D01*
X1017910Y584786D01*
X1017990Y584728D01*
X1018073Y584672D01*
X1018157Y584620D01*
X1018244Y584570D01*
X1018332Y584525D01*
X1018422Y584482D01*
X1018514Y584443D01*
X1018607Y584408D01*
X1018701Y584376D01*
X1018796Y584348D01*
X1018892Y584323D01*
X1018990Y584302D01*
X1019088Y584285D01*
X1019186Y584272D01*
X1019285Y584263D01*
X1019385Y584257D01*
X1019484Y584255D01*
X1019484Y584254D02*
X1025976Y584254D01*
X1025976Y584255D02*
X1026075Y584257D01*
X1026175Y584263D01*
X1026274Y584272D01*
X1026372Y584285D01*
X1026470Y584302D01*
X1026568Y584323D01*
X1026664Y584348D01*
X1026759Y584376D01*
X1026853Y584408D01*
X1026946Y584443D01*
X1027038Y584482D01*
X1027128Y584525D01*
X1027216Y584570D01*
X1027303Y584620D01*
X1027387Y584672D01*
X1027470Y584728D01*
X1027550Y584786D01*
X1027628Y584848D01*
X1027703Y584913D01*
X1027776Y584981D01*
X1027846Y585051D01*
X1027914Y585124D01*
X1027979Y585199D01*
X1028041Y585277D01*
X1028099Y585357D01*
X1028155Y585440D01*
X1028207Y585524D01*
X1028257Y585611D01*
X1028302Y585699D01*
X1028345Y585789D01*
X1028384Y585881D01*
X1028419Y585973D01*
X1028451Y586068D01*
X1028479Y586163D01*
X1028504Y586259D01*
X1028525Y586357D01*
X1028542Y586455D01*
X1028555Y586553D01*
X1028564Y586652D01*
X1028570Y586752D01*
X1028572Y586851D01*
X1028572Y589447D01*
X1028572Y594363D02*
X1016888Y594363D01*
X1021432Y594363D02*
X1028572Y600854D01*
X1024028Y596959D02*
X1016888Y600854D01*
X1015590Y604749D02*
X1015590Y609942D01*
X1016888Y613738D02*
X1028572Y617632D01*
X1016888Y621527D01*
X1019809Y620553D02*
X1019809Y614711D01*
X1016888Y626198D02*
X1028572Y626198D01*
X1028572Y629443D01*
X1028570Y629556D01*
X1028564Y629669D01*
X1028554Y629782D01*
X1028540Y629895D01*
X1028523Y630007D01*
X1028501Y630118D01*
X1028476Y630228D01*
X1028446Y630338D01*
X1028413Y630446D01*
X1028376Y630553D01*
X1028336Y630659D01*
X1028291Y630763D01*
X1028243Y630866D01*
X1028192Y630967D01*
X1028137Y631066D01*
X1028079Y631163D01*
X1028017Y631258D01*
X1027952Y631351D01*
X1027884Y631441D01*
X1027813Y631529D01*
X1027738Y631615D01*
X1027661Y631698D01*
X1027581Y631778D01*
X1027498Y631855D01*
X1027412Y631930D01*
X1027324Y632001D01*
X1027234Y632069D01*
X1027141Y632134D01*
X1027046Y632196D01*
X1026949Y632254D01*
X1026850Y632309D01*
X1026749Y632360D01*
X1026646Y632408D01*
X1026542Y632453D01*
X1026436Y632493D01*
X1026329Y632530D01*
X1026221Y632563D01*
X1026111Y632593D01*
X1026001Y632618D01*
X1025890Y632640D01*
X1025778Y632657D01*
X1025665Y632671D01*
X1025552Y632681D01*
X1025439Y632687D01*
X1025326Y632689D01*
X1020134Y632689D01*
X1020021Y632687D01*
X1019908Y632681D01*
X1019795Y632671D01*
X1019682Y632657D01*
X1019570Y632640D01*
X1019459Y632618D01*
X1019349Y632593D01*
X1019239Y632563D01*
X1019131Y632530D01*
X1019024Y632493D01*
X1018918Y632453D01*
X1018814Y632408D01*
X1018711Y632360D01*
X1018610Y632309D01*
X1018511Y632254D01*
X1018414Y632196D01*
X1018319Y632134D01*
X1018226Y632069D01*
X1018136Y632001D01*
X1018048Y631930D01*
X1017962Y631855D01*
X1017879Y631778D01*
X1017799Y631698D01*
X1017722Y631615D01*
X1017647Y631529D01*
X1017576Y631441D01*
X1017508Y631351D01*
X1017443Y631258D01*
X1017381Y631163D01*
X1017323Y631066D01*
X1017268Y630967D01*
X1017217Y630866D01*
X1017169Y630763D01*
X1017124Y630659D01*
X1017084Y630553D01*
X1017047Y630446D01*
X1017014Y630338D01*
X1016984Y630228D01*
X1016959Y630118D01*
X1016937Y630007D01*
X1016920Y629895D01*
X1016906Y629782D01*
X1016896Y629669D01*
X1016890Y629556D01*
X1016888Y629443D01*
X1016888Y626198D01*
X1016888Y640572D02*
X1016888Y643168D01*
X1016888Y640572D02*
X1016890Y640473D01*
X1016896Y640373D01*
X1016905Y640274D01*
X1016918Y640176D01*
X1016935Y640078D01*
X1016956Y639980D01*
X1016981Y639884D01*
X1017009Y639789D01*
X1017041Y639695D01*
X1017076Y639602D01*
X1017115Y639510D01*
X1017158Y639420D01*
X1017203Y639332D01*
X1017253Y639245D01*
X1017305Y639161D01*
X1017361Y639078D01*
X1017419Y638998D01*
X1017481Y638920D01*
X1017546Y638845D01*
X1017614Y638772D01*
X1017684Y638702D01*
X1017757Y638634D01*
X1017832Y638569D01*
X1017910Y638507D01*
X1017990Y638449D01*
X1018073Y638393D01*
X1018157Y638341D01*
X1018244Y638291D01*
X1018332Y638246D01*
X1018422Y638203D01*
X1018514Y638164D01*
X1018607Y638129D01*
X1018701Y638097D01*
X1018796Y638069D01*
X1018892Y638044D01*
X1018990Y638023D01*
X1019088Y638006D01*
X1019186Y637993D01*
X1019285Y637984D01*
X1019385Y637978D01*
X1019484Y637976D01*
X1019484Y637975D02*
X1025976Y637975D01*
X1025976Y637976D02*
X1026075Y637978D01*
X1026175Y637984D01*
X1026274Y637993D01*
X1026372Y638006D01*
X1026470Y638023D01*
X1026568Y638044D01*
X1026664Y638069D01*
X1026759Y638097D01*
X1026853Y638129D01*
X1026946Y638164D01*
X1027038Y638203D01*
X1027128Y638246D01*
X1027216Y638291D01*
X1027303Y638341D01*
X1027387Y638393D01*
X1027470Y638449D01*
X1027550Y638507D01*
X1027628Y638569D01*
X1027703Y638634D01*
X1027776Y638702D01*
X1027846Y638772D01*
X1027914Y638845D01*
X1027979Y638920D01*
X1028041Y638998D01*
X1028099Y639078D01*
X1028155Y639161D01*
X1028207Y639245D01*
X1028257Y639332D01*
X1028302Y639420D01*
X1028345Y639510D01*
X1028384Y639602D01*
X1028419Y639694D01*
X1028451Y639789D01*
X1028479Y639884D01*
X1028504Y639980D01*
X1028525Y640078D01*
X1028542Y640176D01*
X1028555Y640274D01*
X1028564Y640373D01*
X1028570Y640473D01*
X1028572Y640572D01*
X1028572Y643168D01*
X1025976Y647534D02*
X1028572Y650779D01*
X1016888Y650779D01*
X1016888Y647534D02*
X1016888Y654025D01*
D12*
X1046300Y720800D02*
X1056700Y720800D01*
X1046300Y720800D02*
X1046300Y650800D01*
X1056700Y650800D01*
X1076900Y650800D02*
X1087300Y650800D01*
X1087300Y720800D01*
X1076900Y720800D01*
D10*
X1027104Y541799D02*
X1027005Y541797D01*
X1026905Y541791D01*
X1026806Y541782D01*
X1026708Y541769D01*
X1026610Y541752D01*
X1026512Y541731D01*
X1026416Y541706D01*
X1026321Y541678D01*
X1026227Y541646D01*
X1026134Y541611D01*
X1026042Y541572D01*
X1025952Y541529D01*
X1025864Y541484D01*
X1025777Y541434D01*
X1025693Y541382D01*
X1025610Y541326D01*
X1025530Y541268D01*
X1025452Y541206D01*
X1025377Y541141D01*
X1025304Y541073D01*
X1025234Y541003D01*
X1025166Y540930D01*
X1025101Y540855D01*
X1025039Y540777D01*
X1024981Y540697D01*
X1024925Y540614D01*
X1024873Y540530D01*
X1024823Y540443D01*
X1024778Y540355D01*
X1024735Y540265D01*
X1024696Y540173D01*
X1024661Y540080D01*
X1024629Y539986D01*
X1024601Y539891D01*
X1024576Y539795D01*
X1024555Y539697D01*
X1024538Y539599D01*
X1024525Y539501D01*
X1024516Y539402D01*
X1024510Y539302D01*
X1024508Y539203D01*
X1024510Y539059D01*
X1024516Y538914D01*
X1024525Y538770D01*
X1024538Y538627D01*
X1024555Y538483D01*
X1024576Y538340D01*
X1024601Y538198D01*
X1024629Y538057D01*
X1024661Y537916D01*
X1024697Y537776D01*
X1024736Y537637D01*
X1024779Y537499D01*
X1024826Y537363D01*
X1024876Y537227D01*
X1024930Y537093D01*
X1024987Y536961D01*
X1025048Y536830D01*
X1025112Y536701D01*
X1025180Y536573D01*
X1025250Y536447D01*
X1025325Y536323D01*
X1025402Y536202D01*
X1025483Y536082D01*
X1025566Y535964D01*
X1025653Y535849D01*
X1025743Y535736D01*
X1025836Y535625D01*
X1025931Y535517D01*
X1026030Y535411D01*
X1026131Y535308D01*
X1033596Y535633D02*
X1033695Y535635D01*
X1033795Y535641D01*
X1033894Y535650D01*
X1033992Y535663D01*
X1034090Y535680D01*
X1034188Y535701D01*
X1034284Y535726D01*
X1034379Y535754D01*
X1034473Y535786D01*
X1034566Y535821D01*
X1034658Y535860D01*
X1034748Y535903D01*
X1034836Y535948D01*
X1034923Y535998D01*
X1035007Y536050D01*
X1035090Y536106D01*
X1035170Y536164D01*
X1035248Y536226D01*
X1035323Y536291D01*
X1035396Y536359D01*
X1035466Y536429D01*
X1035534Y536502D01*
X1035599Y536577D01*
X1035661Y536655D01*
X1035719Y536735D01*
X1035775Y536818D01*
X1035827Y536902D01*
X1035877Y536989D01*
X1035922Y537077D01*
X1035965Y537167D01*
X1036004Y537259D01*
X1036039Y537352D01*
X1036071Y537446D01*
X1036099Y537541D01*
X1036124Y537638D01*
X1036145Y537735D01*
X1036162Y537833D01*
X1036175Y537931D01*
X1036184Y538030D01*
X1036190Y538130D01*
X1036192Y538229D01*
X1036190Y538365D01*
X1036184Y538501D01*
X1036175Y538637D01*
X1036162Y538773D01*
X1036144Y538908D01*
X1036124Y539042D01*
X1036099Y539176D01*
X1036071Y539310D01*
X1036038Y539442D01*
X1036003Y539573D01*
X1035963Y539704D01*
X1035920Y539833D01*
X1035874Y539961D01*
X1035823Y540087D01*
X1035770Y540213D01*
X1035712Y540336D01*
X1035652Y540458D01*
X1035588Y540578D01*
X1035520Y540697D01*
X1035450Y540813D01*
X1035376Y540927D01*
X1035299Y541040D01*
X1035218Y541150D01*
X1031324Y536931D02*
X1031377Y536845D01*
X1031434Y536761D01*
X1031493Y536679D01*
X1031556Y536599D01*
X1031622Y536522D01*
X1031690Y536447D01*
X1031762Y536375D01*
X1031836Y536306D01*
X1031913Y536240D01*
X1031992Y536177D01*
X1032074Y536117D01*
X1032158Y536060D01*
X1032244Y536006D01*
X1032332Y535956D01*
X1032422Y535909D01*
X1032513Y535865D01*
X1032607Y535826D01*
X1032701Y535789D01*
X1032797Y535757D01*
X1032895Y535728D01*
X1032993Y535703D01*
X1033092Y535682D01*
X1033192Y535664D01*
X1033292Y535651D01*
X1033393Y535641D01*
X1033495Y535635D01*
X1033596Y535633D01*
X1029376Y540501D02*
X1029323Y540587D01*
X1029266Y540671D01*
X1029207Y540753D01*
X1029144Y540833D01*
X1029078Y540910D01*
X1029010Y540985D01*
X1028938Y541057D01*
X1028864Y541126D01*
X1028787Y541192D01*
X1028708Y541255D01*
X1028626Y541315D01*
X1028542Y541372D01*
X1028456Y541426D01*
X1028368Y541476D01*
X1028278Y541523D01*
X1028187Y541567D01*
X1028093Y541606D01*
X1027999Y541643D01*
X1027903Y541675D01*
X1027805Y541704D01*
X1027707Y541729D01*
X1027608Y541750D01*
X1027508Y541768D01*
X1027408Y541781D01*
X1027307Y541791D01*
X1027205Y541797D01*
X1027104Y541799D01*
X1029376Y540501D02*
X1031324Y536931D01*
X1036192Y546738D02*
X1024508Y546738D01*
X1036192Y546738D02*
X1036192Y549984D01*
X1036190Y550097D01*
X1036184Y550210D01*
X1036174Y550323D01*
X1036160Y550436D01*
X1036143Y550548D01*
X1036121Y550659D01*
X1036096Y550769D01*
X1036066Y550879D01*
X1036033Y550987D01*
X1035996Y551094D01*
X1035956Y551200D01*
X1035911Y551304D01*
X1035863Y551407D01*
X1035812Y551508D01*
X1035757Y551607D01*
X1035699Y551704D01*
X1035637Y551799D01*
X1035572Y551892D01*
X1035504Y551982D01*
X1035433Y552070D01*
X1035358Y552156D01*
X1035281Y552239D01*
X1035201Y552319D01*
X1035118Y552396D01*
X1035032Y552471D01*
X1034944Y552542D01*
X1034854Y552610D01*
X1034761Y552675D01*
X1034666Y552737D01*
X1034569Y552795D01*
X1034470Y552850D01*
X1034369Y552901D01*
X1034266Y552949D01*
X1034162Y552994D01*
X1034056Y553034D01*
X1033949Y553071D01*
X1033841Y553104D01*
X1033731Y553134D01*
X1033621Y553159D01*
X1033510Y553181D01*
X1033398Y553198D01*
X1033285Y553212D01*
X1033172Y553222D01*
X1033059Y553228D01*
X1032946Y553230D01*
X1032946Y553229D02*
X1027754Y553229D01*
X1027754Y553230D02*
X1027641Y553228D01*
X1027528Y553222D01*
X1027415Y553212D01*
X1027302Y553198D01*
X1027190Y553181D01*
X1027079Y553159D01*
X1026969Y553134D01*
X1026859Y553104D01*
X1026751Y553071D01*
X1026644Y553034D01*
X1026538Y552994D01*
X1026434Y552949D01*
X1026331Y552901D01*
X1026230Y552850D01*
X1026131Y552795D01*
X1026034Y552737D01*
X1025939Y552675D01*
X1025846Y552610D01*
X1025756Y552542D01*
X1025668Y552471D01*
X1025582Y552396D01*
X1025499Y552319D01*
X1025419Y552239D01*
X1025342Y552156D01*
X1025267Y552070D01*
X1025196Y551982D01*
X1025128Y551892D01*
X1025063Y551799D01*
X1025001Y551704D01*
X1024943Y551607D01*
X1024888Y551508D01*
X1024837Y551407D01*
X1024789Y551304D01*
X1024744Y551200D01*
X1024704Y551094D01*
X1024667Y550987D01*
X1024634Y550879D01*
X1024604Y550769D01*
X1024579Y550659D01*
X1024557Y550548D01*
X1024540Y550436D01*
X1024526Y550323D01*
X1024516Y550210D01*
X1024510Y550097D01*
X1024508Y549984D01*
X1024508Y546738D01*
X1024508Y557900D02*
X1036192Y561795D01*
X1024508Y565689D01*
X1027429Y564716D02*
X1027429Y558874D01*
X1036192Y573549D02*
X1036190Y573656D01*
X1036184Y573762D01*
X1036174Y573868D01*
X1036161Y573974D01*
X1036143Y574080D01*
X1036122Y574184D01*
X1036097Y574288D01*
X1036068Y574391D01*
X1036036Y574492D01*
X1035999Y574592D01*
X1035959Y574691D01*
X1035916Y574789D01*
X1035869Y574885D01*
X1035818Y574979D01*
X1035764Y575071D01*
X1035707Y575161D01*
X1035647Y575249D01*
X1035583Y575334D01*
X1035516Y575417D01*
X1035446Y575498D01*
X1035374Y575576D01*
X1035298Y575652D01*
X1035220Y575724D01*
X1035139Y575794D01*
X1035056Y575861D01*
X1034971Y575925D01*
X1034883Y575985D01*
X1034793Y576042D01*
X1034701Y576096D01*
X1034607Y576147D01*
X1034511Y576194D01*
X1034413Y576237D01*
X1034314Y576277D01*
X1034214Y576314D01*
X1034113Y576346D01*
X1034010Y576375D01*
X1033906Y576400D01*
X1033802Y576421D01*
X1033696Y576439D01*
X1033590Y576452D01*
X1033484Y576462D01*
X1033378Y576468D01*
X1033271Y576470D01*
X1036192Y573549D02*
X1036190Y573428D01*
X1036184Y573307D01*
X1036174Y573187D01*
X1036161Y573066D01*
X1036143Y572947D01*
X1036122Y572827D01*
X1036097Y572709D01*
X1036068Y572592D01*
X1036035Y572475D01*
X1035999Y572360D01*
X1035958Y572246D01*
X1035915Y572133D01*
X1035867Y572021D01*
X1035816Y571912D01*
X1035761Y571804D01*
X1035703Y571697D01*
X1035642Y571593D01*
X1035577Y571491D01*
X1035509Y571391D01*
X1035438Y571293D01*
X1035364Y571197D01*
X1035287Y571104D01*
X1035206Y571014D01*
X1035123Y570926D01*
X1035037Y570841D01*
X1034948Y570758D01*
X1034857Y570679D01*
X1034763Y570602D01*
X1034667Y570529D01*
X1034569Y570459D01*
X1034468Y570392D01*
X1034365Y570328D01*
X1034260Y570268D01*
X1034153Y570211D01*
X1034045Y570157D01*
X1033935Y570107D01*
X1033823Y570061D01*
X1033710Y570018D01*
X1033595Y569979D01*
X1030999Y575497D02*
X1031076Y575576D01*
X1031157Y575652D01*
X1031240Y575725D01*
X1031325Y575795D01*
X1031413Y575862D01*
X1031503Y575926D01*
X1031595Y575986D01*
X1031690Y576043D01*
X1031786Y576097D01*
X1031884Y576148D01*
X1031984Y576195D01*
X1032086Y576239D01*
X1032189Y576279D01*
X1032293Y576315D01*
X1032399Y576347D01*
X1032505Y576376D01*
X1032613Y576401D01*
X1032721Y576423D01*
X1032831Y576440D01*
X1032940Y576454D01*
X1033050Y576463D01*
X1033161Y576469D01*
X1033271Y576471D01*
X1030999Y575496D02*
X1024508Y569979D01*
X1024508Y576470D01*
X1001704Y541799D02*
X1001605Y541797D01*
X1001505Y541791D01*
X1001406Y541782D01*
X1001308Y541769D01*
X1001210Y541752D01*
X1001112Y541731D01*
X1001016Y541706D01*
X1000921Y541678D01*
X1000827Y541646D01*
X1000734Y541611D01*
X1000642Y541572D01*
X1000552Y541529D01*
X1000464Y541484D01*
X1000377Y541434D01*
X1000293Y541382D01*
X1000210Y541326D01*
X1000130Y541268D01*
X1000052Y541206D01*
X999977Y541141D01*
X999904Y541073D01*
X999834Y541003D01*
X999766Y540930D01*
X999701Y540855D01*
X999639Y540777D01*
X999581Y540697D01*
X999525Y540614D01*
X999473Y540530D01*
X999423Y540443D01*
X999378Y540355D01*
X999335Y540265D01*
X999296Y540173D01*
X999261Y540080D01*
X999229Y539986D01*
X999201Y539891D01*
X999176Y539795D01*
X999155Y539697D01*
X999138Y539599D01*
X999125Y539501D01*
X999116Y539402D01*
X999110Y539302D01*
X999108Y539203D01*
X999110Y539059D01*
X999116Y538914D01*
X999125Y538770D01*
X999138Y538627D01*
X999155Y538483D01*
X999176Y538340D01*
X999201Y538198D01*
X999229Y538057D01*
X999261Y537916D01*
X999297Y537776D01*
X999336Y537637D01*
X999379Y537499D01*
X999426Y537363D01*
X999476Y537227D01*
X999530Y537093D01*
X999587Y536961D01*
X999648Y536830D01*
X999712Y536701D01*
X999780Y536573D01*
X999850Y536447D01*
X999925Y536323D01*
X1000002Y536202D01*
X1000083Y536082D01*
X1000166Y535964D01*
X1000253Y535849D01*
X1000343Y535736D01*
X1000436Y535625D01*
X1000531Y535517D01*
X1000630Y535411D01*
X1000731Y535308D01*
X1008196Y535633D02*
X1008295Y535635D01*
X1008395Y535641D01*
X1008494Y535650D01*
X1008592Y535663D01*
X1008690Y535680D01*
X1008788Y535701D01*
X1008884Y535726D01*
X1008979Y535754D01*
X1009073Y535786D01*
X1009166Y535821D01*
X1009258Y535860D01*
X1009348Y535903D01*
X1009436Y535948D01*
X1009523Y535998D01*
X1009607Y536050D01*
X1009690Y536106D01*
X1009770Y536164D01*
X1009848Y536226D01*
X1009923Y536291D01*
X1009996Y536359D01*
X1010066Y536429D01*
X1010134Y536502D01*
X1010199Y536577D01*
X1010261Y536655D01*
X1010319Y536735D01*
X1010375Y536818D01*
X1010427Y536902D01*
X1010477Y536989D01*
X1010522Y537077D01*
X1010565Y537167D01*
X1010604Y537259D01*
X1010639Y537352D01*
X1010671Y537446D01*
X1010699Y537541D01*
X1010724Y537638D01*
X1010745Y537735D01*
X1010762Y537833D01*
X1010775Y537931D01*
X1010784Y538030D01*
X1010790Y538130D01*
X1010792Y538229D01*
X1010790Y538365D01*
X1010784Y538501D01*
X1010775Y538637D01*
X1010762Y538773D01*
X1010744Y538908D01*
X1010724Y539042D01*
X1010699Y539176D01*
X1010671Y539310D01*
X1010638Y539442D01*
X1010603Y539573D01*
X1010563Y539704D01*
X1010520Y539833D01*
X1010474Y539961D01*
X1010423Y540087D01*
X1010370Y540213D01*
X1010312Y540336D01*
X1010252Y540458D01*
X1010188Y540578D01*
X1010120Y540697D01*
X1010050Y540813D01*
X1009976Y540927D01*
X1009899Y541040D01*
X1009818Y541150D01*
X1005924Y536931D02*
X1005977Y536845D01*
X1006034Y536761D01*
X1006093Y536679D01*
X1006156Y536599D01*
X1006222Y536522D01*
X1006290Y536447D01*
X1006362Y536375D01*
X1006436Y536306D01*
X1006513Y536240D01*
X1006592Y536177D01*
X1006674Y536117D01*
X1006758Y536060D01*
X1006844Y536006D01*
X1006932Y535956D01*
X1007022Y535909D01*
X1007113Y535865D01*
X1007207Y535826D01*
X1007301Y535789D01*
X1007397Y535757D01*
X1007495Y535728D01*
X1007593Y535703D01*
X1007692Y535682D01*
X1007792Y535664D01*
X1007892Y535651D01*
X1007993Y535641D01*
X1008095Y535635D01*
X1008196Y535633D01*
X1003976Y540501D02*
X1003923Y540587D01*
X1003866Y540671D01*
X1003807Y540753D01*
X1003744Y540833D01*
X1003678Y540910D01*
X1003610Y540985D01*
X1003538Y541057D01*
X1003464Y541126D01*
X1003387Y541192D01*
X1003308Y541255D01*
X1003226Y541315D01*
X1003142Y541372D01*
X1003056Y541426D01*
X1002968Y541476D01*
X1002878Y541523D01*
X1002787Y541567D01*
X1002693Y541606D01*
X1002599Y541643D01*
X1002503Y541675D01*
X1002405Y541704D01*
X1002307Y541729D01*
X1002208Y541750D01*
X1002108Y541768D01*
X1002008Y541781D01*
X1001907Y541791D01*
X1001805Y541797D01*
X1001704Y541799D01*
X1003976Y540501D02*
X1005924Y536931D01*
X999108Y548920D02*
X999108Y551517D01*
X999108Y548920D02*
X999110Y548821D01*
X999116Y548721D01*
X999125Y548622D01*
X999138Y548524D01*
X999155Y548426D01*
X999176Y548328D01*
X999201Y548232D01*
X999229Y548137D01*
X999261Y548043D01*
X999296Y547950D01*
X999335Y547858D01*
X999378Y547768D01*
X999423Y547680D01*
X999473Y547593D01*
X999525Y547509D01*
X999581Y547426D01*
X999639Y547346D01*
X999701Y547268D01*
X999766Y547193D01*
X999834Y547120D01*
X999904Y547050D01*
X999977Y546982D01*
X1000052Y546917D01*
X1000130Y546855D01*
X1000210Y546797D01*
X1000293Y546741D01*
X1000377Y546689D01*
X1000464Y546639D01*
X1000552Y546594D01*
X1000642Y546551D01*
X1000734Y546512D01*
X1000827Y546477D01*
X1000921Y546445D01*
X1001016Y546417D01*
X1001112Y546392D01*
X1001210Y546371D01*
X1001308Y546354D01*
X1001406Y546341D01*
X1001505Y546332D01*
X1001605Y546326D01*
X1001704Y546324D01*
X1008196Y546324D01*
X1008295Y546326D01*
X1008395Y546332D01*
X1008494Y546341D01*
X1008592Y546354D01*
X1008690Y546371D01*
X1008788Y546392D01*
X1008884Y546417D01*
X1008979Y546445D01*
X1009073Y546477D01*
X1009166Y546512D01*
X1009258Y546551D01*
X1009348Y546594D01*
X1009436Y546639D01*
X1009523Y546689D01*
X1009607Y546741D01*
X1009690Y546797D01*
X1009770Y546855D01*
X1009848Y546917D01*
X1009923Y546982D01*
X1009996Y547050D01*
X1010066Y547120D01*
X1010134Y547193D01*
X1010199Y547268D01*
X1010261Y547346D01*
X1010319Y547426D01*
X1010375Y547509D01*
X1010427Y547593D01*
X1010477Y547680D01*
X1010522Y547768D01*
X1010565Y547858D01*
X1010604Y547950D01*
X1010639Y548042D01*
X1010671Y548137D01*
X1010699Y548232D01*
X1010724Y548328D01*
X1010745Y548426D01*
X1010762Y548524D01*
X1010775Y548622D01*
X1010784Y548721D01*
X1010790Y548821D01*
X1010792Y548920D01*
X1010792Y551517D01*
X1010792Y556286D02*
X999108Y556286D01*
X999108Y561478D01*
X1007871Y572279D02*
X1007978Y572277D01*
X1008084Y572271D01*
X1008190Y572261D01*
X1008296Y572248D01*
X1008402Y572230D01*
X1008506Y572209D01*
X1008610Y572184D01*
X1008713Y572155D01*
X1008814Y572123D01*
X1008914Y572086D01*
X1009013Y572046D01*
X1009111Y572003D01*
X1009207Y571956D01*
X1009301Y571905D01*
X1009393Y571851D01*
X1009483Y571794D01*
X1009571Y571734D01*
X1009656Y571670D01*
X1009739Y571603D01*
X1009820Y571533D01*
X1009898Y571461D01*
X1009974Y571385D01*
X1010046Y571307D01*
X1010116Y571226D01*
X1010183Y571143D01*
X1010247Y571058D01*
X1010307Y570970D01*
X1010364Y570880D01*
X1010418Y570788D01*
X1010469Y570694D01*
X1010516Y570598D01*
X1010559Y570500D01*
X1010599Y570401D01*
X1010636Y570301D01*
X1010668Y570200D01*
X1010697Y570097D01*
X1010722Y569993D01*
X1010743Y569889D01*
X1010761Y569783D01*
X1010774Y569677D01*
X1010784Y569571D01*
X1010790Y569465D01*
X1010792Y569358D01*
X1010790Y569237D01*
X1010784Y569116D01*
X1010774Y568996D01*
X1010761Y568875D01*
X1010743Y568756D01*
X1010722Y568636D01*
X1010697Y568518D01*
X1010668Y568401D01*
X1010635Y568284D01*
X1010599Y568169D01*
X1010558Y568055D01*
X1010515Y567942D01*
X1010467Y567830D01*
X1010416Y567721D01*
X1010361Y567613D01*
X1010303Y567506D01*
X1010242Y567402D01*
X1010177Y567300D01*
X1010109Y567200D01*
X1010038Y567102D01*
X1009964Y567006D01*
X1009887Y566913D01*
X1009806Y566823D01*
X1009723Y566735D01*
X1009637Y566650D01*
X1009548Y566567D01*
X1009457Y566488D01*
X1009363Y566411D01*
X1009267Y566338D01*
X1009169Y566268D01*
X1009068Y566201D01*
X1008965Y566137D01*
X1008860Y566077D01*
X1008753Y566020D01*
X1008645Y565966D01*
X1008535Y565916D01*
X1008423Y565870D01*
X1008310Y565827D01*
X1008195Y565788D01*
X1005599Y571306D02*
X1005676Y571385D01*
X1005757Y571461D01*
X1005840Y571534D01*
X1005925Y571604D01*
X1006013Y571671D01*
X1006103Y571735D01*
X1006195Y571795D01*
X1006290Y571852D01*
X1006386Y571906D01*
X1006484Y571957D01*
X1006584Y572004D01*
X1006686Y572048D01*
X1006789Y572088D01*
X1006893Y572124D01*
X1006999Y572156D01*
X1007105Y572185D01*
X1007213Y572210D01*
X1007321Y572232D01*
X1007431Y572249D01*
X1007540Y572263D01*
X1007650Y572272D01*
X1007761Y572278D01*
X1007871Y572280D01*
X1005599Y571305D02*
X999108Y565788D01*
X999108Y572279D01*
M02*
