G04 EAGLE Gerber RS-274X export*
G75*
%MOMM*%
%FSLAX34Y34*%
%LPD*%
%INSoldermask Top*%
%IPPOS*%
%AMOC8*
5,1,8,0,0,1.08239X$1,22.5*%
G01*
%ADD10R,1.103200X0.903200*%
%ADD11R,0.903200X1.103200*%
%ADD12R,0.711200X0.914400*%
%ADD13R,0.914400X0.711200*%
%ADD14R,0.803200X0.903200*%
%ADD15R,0.903200X0.803200*%
%ADD16R,1.701800X1.701800*%
%ADD17C,1.701800*%
%ADD18C,0.353406*%
%ADD19C,0.282525*%
%ADD20R,2.503200X1.703200*%
%ADD21R,2.743200X5.283200*%
%ADD22C,0.413250*%
%ADD23R,5.283200X2.743200*%
%ADD24R,2.743200X1.473200*%
%ADD25R,1.473200X2.743200*%
%ADD26C,1.117600*%


D10*
X886460Y197970D03*
X886460Y210970D03*
D11*
X594510Y129540D03*
X581510Y129540D03*
D10*
X1149350Y156360D03*
X1149350Y143360D03*
D11*
X1106320Y236220D03*
X1093320Y236220D03*
D12*
X965200Y246380D03*
X1005840Y246380D03*
D13*
X777240Y129540D03*
X777240Y170180D03*
X800100Y170180D03*
X800100Y129540D03*
X822960Y125730D03*
X822960Y166370D03*
X1023620Y254000D03*
X1023620Y213360D03*
D12*
X1005840Y220980D03*
X965200Y220980D03*
X1029970Y276860D03*
X989330Y276860D03*
D13*
X859790Y254000D03*
X859790Y213360D03*
X692150Y179070D03*
X692150Y138430D03*
X721360Y134620D03*
X721360Y175260D03*
X748030Y179070D03*
X748030Y138430D03*
D14*
X656510Y228600D03*
X646510Y228600D03*
X652700Y204470D03*
X642700Y204470D03*
D15*
X1051560Y246300D03*
X1051560Y236300D03*
D14*
X839550Y262890D03*
X849550Y262890D03*
D15*
X842010Y146130D03*
X842010Y156130D03*
D14*
X919400Y111760D03*
X909400Y111760D03*
X932100Y99060D03*
X922100Y99060D03*
D15*
X934720Y115650D03*
X934720Y125650D03*
D14*
X814150Y176530D03*
X824150Y176530D03*
D15*
X902970Y202010D03*
X902970Y212010D03*
X1162050Y154860D03*
X1162050Y144860D03*
D14*
X790020Y182880D03*
X800020Y182880D03*
X652700Y130810D03*
X642700Y130810D03*
X642700Y144780D03*
X652700Y144780D03*
X760650Y127000D03*
X750650Y127000D03*
D15*
X1073150Y224710D03*
X1073150Y214710D03*
X665480Y193120D03*
X665480Y203120D03*
D14*
X932260Y218440D03*
X942260Y218440D03*
X831770Y187960D03*
X821770Y187960D03*
X646510Y215900D03*
X656510Y215900D03*
D16*
X967740Y119380D03*
D17*
X993140Y119380D03*
X1018540Y119380D03*
X1043940Y119380D03*
X1069340Y119380D03*
X1094740Y119380D03*
X1120140Y119380D03*
X1120140Y195580D03*
X1094740Y195580D03*
X1069340Y195580D03*
X1043940Y195580D03*
X1018540Y195580D03*
X993140Y195580D03*
X967740Y195580D03*
D18*
X577349Y240321D02*
X563051Y240321D01*
X563051Y244819D01*
X577349Y244819D01*
X577349Y240321D01*
X577349Y243678D02*
X563051Y243678D01*
X563051Y227621D02*
X577349Y227621D01*
X563051Y227621D02*
X563051Y232119D01*
X577349Y232119D01*
X577349Y227621D01*
X577349Y230978D02*
X563051Y230978D01*
X563051Y214921D02*
X577349Y214921D01*
X563051Y214921D02*
X563051Y219419D01*
X577349Y219419D01*
X577349Y214921D01*
X577349Y218278D02*
X563051Y218278D01*
X563051Y202221D02*
X577349Y202221D01*
X563051Y202221D02*
X563051Y206719D01*
X577349Y206719D01*
X577349Y202221D01*
X577349Y205578D02*
X563051Y205578D01*
X616451Y202221D02*
X630749Y202221D01*
X616451Y202221D02*
X616451Y206719D01*
X630749Y206719D01*
X630749Y202221D01*
X630749Y205578D02*
X616451Y205578D01*
X616451Y214921D02*
X630749Y214921D01*
X616451Y214921D02*
X616451Y219419D01*
X630749Y219419D01*
X630749Y214921D01*
X630749Y218278D02*
X616451Y218278D01*
X616451Y227621D02*
X630749Y227621D01*
X616451Y227621D02*
X616451Y232119D01*
X630749Y232119D01*
X630749Y227621D01*
X630749Y230978D02*
X616451Y230978D01*
X616451Y240321D02*
X630749Y240321D01*
X616451Y240321D02*
X616451Y244819D01*
X630749Y244819D01*
X630749Y240321D01*
X630749Y243678D02*
X616451Y243678D01*
X577349Y181901D02*
X563051Y181901D01*
X563051Y186399D01*
X577349Y186399D01*
X577349Y181901D01*
X577349Y185258D02*
X563051Y185258D01*
X563051Y169201D02*
X577349Y169201D01*
X563051Y169201D02*
X563051Y173699D01*
X577349Y173699D01*
X577349Y169201D01*
X577349Y172558D02*
X563051Y172558D01*
X563051Y156501D02*
X577349Y156501D01*
X563051Y156501D02*
X563051Y160999D01*
X577349Y160999D01*
X577349Y156501D01*
X577349Y159858D02*
X563051Y159858D01*
X563051Y143801D02*
X577349Y143801D01*
X563051Y143801D02*
X563051Y148299D01*
X577349Y148299D01*
X577349Y143801D01*
X577349Y147158D02*
X563051Y147158D01*
X616451Y143801D02*
X630749Y143801D01*
X616451Y143801D02*
X616451Y148299D01*
X630749Y148299D01*
X630749Y143801D01*
X630749Y147158D02*
X616451Y147158D01*
X616451Y156501D02*
X630749Y156501D01*
X616451Y156501D02*
X616451Y160999D01*
X630749Y160999D01*
X630749Y156501D01*
X630749Y159858D02*
X616451Y159858D01*
X616451Y169201D02*
X630749Y169201D01*
X616451Y169201D02*
X616451Y173699D01*
X630749Y173699D01*
X630749Y169201D01*
X630749Y172558D02*
X616451Y172558D01*
X616451Y181901D02*
X630749Y181901D01*
X616451Y181901D02*
X616451Y186399D01*
X630749Y186399D01*
X630749Y181901D01*
X630749Y185258D02*
X616451Y185258D01*
D19*
X1121066Y293386D02*
X1121066Y300194D01*
X1123474Y300194D01*
X1123474Y293386D01*
X1121066Y293386D01*
X1121066Y296070D02*
X1123474Y296070D01*
X1123474Y298754D02*
X1121066Y298754D01*
X1114566Y300194D02*
X1114566Y293386D01*
X1114566Y300194D02*
X1116974Y300194D01*
X1116974Y293386D01*
X1114566Y293386D01*
X1114566Y296070D02*
X1116974Y296070D01*
X1116974Y298754D02*
X1114566Y298754D01*
X1108066Y300194D02*
X1108066Y293386D01*
X1108066Y300194D02*
X1110474Y300194D01*
X1110474Y293386D01*
X1108066Y293386D01*
X1108066Y296070D02*
X1110474Y296070D01*
X1110474Y298754D02*
X1108066Y298754D01*
X1101566Y300194D02*
X1101566Y293386D01*
X1101566Y300194D02*
X1103974Y300194D01*
X1103974Y293386D01*
X1101566Y293386D01*
X1101566Y296070D02*
X1103974Y296070D01*
X1103974Y298754D02*
X1101566Y298754D01*
X1101566Y270494D02*
X1101566Y263686D01*
X1101566Y270494D02*
X1103974Y270494D01*
X1103974Y263686D01*
X1101566Y263686D01*
X1101566Y266370D02*
X1103974Y266370D01*
X1103974Y269054D02*
X1101566Y269054D01*
X1108066Y270494D02*
X1108066Y263686D01*
X1108066Y270494D02*
X1110474Y270494D01*
X1110474Y263686D01*
X1108066Y263686D01*
X1108066Y266370D02*
X1110474Y266370D01*
X1110474Y269054D02*
X1108066Y269054D01*
X1114566Y270494D02*
X1114566Y263686D01*
X1114566Y270494D02*
X1116974Y270494D01*
X1116974Y263686D01*
X1114566Y263686D01*
X1114566Y266370D02*
X1116974Y266370D01*
X1116974Y269054D02*
X1114566Y269054D01*
X1121066Y270494D02*
X1121066Y263686D01*
X1121066Y270494D02*
X1123474Y270494D01*
X1123474Y263686D01*
X1121066Y263686D01*
X1121066Y266370D02*
X1123474Y266370D01*
X1123474Y269054D02*
X1121066Y269054D01*
D20*
X1112520Y281940D03*
D19*
X1074076Y293386D02*
X1074076Y300194D01*
X1076484Y300194D01*
X1076484Y293386D01*
X1074076Y293386D01*
X1074076Y296070D02*
X1076484Y296070D01*
X1076484Y298754D02*
X1074076Y298754D01*
X1067576Y300194D02*
X1067576Y293386D01*
X1067576Y300194D02*
X1069984Y300194D01*
X1069984Y293386D01*
X1067576Y293386D01*
X1067576Y296070D02*
X1069984Y296070D01*
X1069984Y298754D02*
X1067576Y298754D01*
X1061076Y300194D02*
X1061076Y293386D01*
X1061076Y300194D02*
X1063484Y300194D01*
X1063484Y293386D01*
X1061076Y293386D01*
X1061076Y296070D02*
X1063484Y296070D01*
X1063484Y298754D02*
X1061076Y298754D01*
X1054576Y300194D02*
X1054576Y293386D01*
X1054576Y300194D02*
X1056984Y300194D01*
X1056984Y293386D01*
X1054576Y293386D01*
X1054576Y296070D02*
X1056984Y296070D01*
X1056984Y298754D02*
X1054576Y298754D01*
X1054576Y270494D02*
X1054576Y263686D01*
X1054576Y270494D02*
X1056984Y270494D01*
X1056984Y263686D01*
X1054576Y263686D01*
X1054576Y266370D02*
X1056984Y266370D01*
X1056984Y269054D02*
X1054576Y269054D01*
X1061076Y270494D02*
X1061076Y263686D01*
X1061076Y270494D02*
X1063484Y270494D01*
X1063484Y263686D01*
X1061076Y263686D01*
X1061076Y266370D02*
X1063484Y266370D01*
X1063484Y269054D02*
X1061076Y269054D01*
X1067576Y270494D02*
X1067576Y263686D01*
X1067576Y270494D02*
X1069984Y270494D01*
X1069984Y263686D01*
X1067576Y263686D01*
X1067576Y266370D02*
X1069984Y266370D01*
X1069984Y269054D02*
X1067576Y269054D01*
X1074076Y270494D02*
X1074076Y263686D01*
X1074076Y270494D02*
X1076484Y270494D01*
X1076484Y263686D01*
X1074076Y263686D01*
X1074076Y266370D02*
X1076484Y266370D01*
X1076484Y269054D02*
X1074076Y269054D01*
D20*
X1065530Y281940D03*
D18*
X953279Y234659D02*
X935081Y234659D01*
X953279Y234659D02*
X953279Y230161D01*
X935081Y230161D01*
X935081Y234659D01*
X935081Y233518D02*
X953279Y233518D01*
X953279Y247359D02*
X935081Y247359D01*
X953279Y247359D02*
X953279Y242861D01*
X935081Y242861D01*
X935081Y247359D01*
X935081Y246218D02*
X953279Y246218D01*
X953279Y260059D02*
X935081Y260059D01*
X953279Y260059D02*
X953279Y255561D01*
X935081Y255561D01*
X935081Y260059D01*
X935081Y258918D02*
X953279Y258918D01*
X953279Y272759D02*
X935081Y272759D01*
X953279Y272759D02*
X953279Y268261D01*
X935081Y268261D01*
X935081Y272759D01*
X935081Y271618D02*
X953279Y271618D01*
X903879Y272759D02*
X885681Y272759D01*
X903879Y272759D02*
X903879Y268261D01*
X885681Y268261D01*
X885681Y272759D01*
X885681Y271618D02*
X903879Y271618D01*
X903879Y260059D02*
X885681Y260059D01*
X903879Y260059D02*
X903879Y255561D01*
X885681Y255561D01*
X885681Y260059D01*
X885681Y258918D02*
X903879Y258918D01*
X903879Y247359D02*
X885681Y247359D01*
X903879Y247359D02*
X903879Y242861D01*
X885681Y242861D01*
X885681Y247359D01*
X885681Y246218D02*
X903879Y246218D01*
X903879Y234659D02*
X885681Y234659D01*
X903879Y234659D02*
X903879Y230161D01*
X885681Y230161D01*
X885681Y234659D01*
X885681Y233518D02*
X903879Y233518D01*
X693059Y240321D02*
X674861Y240321D01*
X674861Y244819D01*
X693059Y244819D01*
X693059Y240321D01*
X693059Y243678D02*
X674861Y243678D01*
X674861Y227621D02*
X693059Y227621D01*
X674861Y227621D02*
X674861Y232119D01*
X693059Y232119D01*
X693059Y227621D01*
X693059Y230978D02*
X674861Y230978D01*
X674861Y214921D02*
X693059Y214921D01*
X674861Y214921D02*
X674861Y219419D01*
X693059Y219419D01*
X693059Y214921D01*
X693059Y218278D02*
X674861Y218278D01*
X674861Y202221D02*
X693059Y202221D01*
X674861Y202221D02*
X674861Y206719D01*
X693059Y206719D01*
X693059Y202221D01*
X693059Y205578D02*
X674861Y205578D01*
X724261Y202221D02*
X742459Y202221D01*
X724261Y202221D02*
X724261Y206719D01*
X742459Y206719D01*
X742459Y202221D01*
X742459Y205578D02*
X724261Y205578D01*
X724261Y214921D02*
X742459Y214921D01*
X724261Y214921D02*
X724261Y219419D01*
X742459Y219419D01*
X742459Y214921D01*
X742459Y218278D02*
X724261Y218278D01*
X724261Y227621D02*
X742459Y227621D01*
X724261Y227621D02*
X724261Y232119D01*
X742459Y232119D01*
X742459Y227621D01*
X742459Y230978D02*
X724261Y230978D01*
X724261Y240321D02*
X742459Y240321D01*
X724261Y240321D02*
X724261Y244819D01*
X742459Y244819D01*
X742459Y240321D01*
X742459Y243678D02*
X724261Y243678D01*
X818241Y205449D02*
X836439Y205449D01*
X836439Y200951D01*
X818241Y200951D01*
X818241Y205449D01*
X818241Y204308D02*
X836439Y204308D01*
X836439Y218149D02*
X818241Y218149D01*
X836439Y218149D02*
X836439Y213651D01*
X818241Y213651D01*
X818241Y218149D01*
X818241Y217008D02*
X836439Y217008D01*
X836439Y230849D02*
X818241Y230849D01*
X836439Y230849D02*
X836439Y226351D01*
X818241Y226351D01*
X818241Y230849D01*
X818241Y229708D02*
X836439Y229708D01*
X836439Y243549D02*
X818241Y243549D01*
X836439Y243549D02*
X836439Y239051D01*
X818241Y239051D01*
X818241Y243549D01*
X818241Y242408D02*
X836439Y242408D01*
X787039Y243549D02*
X768841Y243549D01*
X787039Y243549D02*
X787039Y239051D01*
X768841Y239051D01*
X768841Y243549D01*
X768841Y242408D02*
X787039Y242408D01*
X787039Y230849D02*
X768841Y230849D01*
X787039Y230849D02*
X787039Y226351D01*
X768841Y226351D01*
X768841Y230849D01*
X768841Y229708D02*
X787039Y229708D01*
X787039Y218149D02*
X768841Y218149D01*
X787039Y218149D02*
X787039Y213651D01*
X768841Y213651D01*
X768841Y218149D01*
X768841Y217008D02*
X787039Y217008D01*
X787039Y205449D02*
X768841Y205449D01*
X787039Y205449D02*
X787039Y200951D01*
X768841Y200951D01*
X768841Y205449D01*
X768841Y204308D02*
X787039Y204308D01*
X853931Y162851D02*
X872129Y162851D01*
X853931Y162851D02*
X853931Y167349D01*
X872129Y167349D01*
X872129Y162851D01*
X872129Y166208D02*
X853931Y166208D01*
X853931Y150151D02*
X872129Y150151D01*
X853931Y150151D02*
X853931Y154649D01*
X872129Y154649D01*
X872129Y150151D01*
X872129Y153508D02*
X853931Y153508D01*
X853931Y137451D02*
X872129Y137451D01*
X853931Y137451D02*
X853931Y141949D01*
X872129Y141949D01*
X872129Y137451D01*
X872129Y140808D02*
X853931Y140808D01*
X853931Y124751D02*
X872129Y124751D01*
X853931Y124751D02*
X853931Y129249D01*
X872129Y129249D01*
X872129Y124751D01*
X872129Y128108D02*
X853931Y128108D01*
X903331Y124751D02*
X921529Y124751D01*
X903331Y124751D02*
X903331Y129249D01*
X921529Y129249D01*
X921529Y124751D01*
X921529Y128108D02*
X903331Y128108D01*
X903331Y137451D02*
X921529Y137451D01*
X903331Y137451D02*
X903331Y141949D01*
X921529Y141949D01*
X921529Y137451D01*
X921529Y140808D02*
X903331Y140808D01*
X903331Y150151D02*
X921529Y150151D01*
X903331Y150151D02*
X903331Y154649D01*
X921529Y154649D01*
X921529Y150151D01*
X921529Y153508D02*
X903331Y153508D01*
X903331Y162851D02*
X921529Y162851D01*
X903331Y162851D02*
X903331Y167349D01*
X921529Y167349D01*
X921529Y162851D01*
X921529Y166208D02*
X903331Y166208D01*
D21*
X530860Y167640D03*
X530860Y222250D03*
D10*
X777240Y398930D03*
X777240Y385930D03*
D11*
X1069190Y467360D03*
X1082190Y467360D03*
D10*
X514350Y440540D03*
X514350Y453540D03*
D11*
X557380Y360680D03*
X570380Y360680D03*
D12*
X698500Y350520D03*
X657860Y350520D03*
D13*
X886460Y467360D03*
X886460Y426720D03*
X863600Y426720D03*
X863600Y467360D03*
X840740Y471170D03*
X840740Y430530D03*
X640080Y342900D03*
X640080Y383540D03*
D12*
X657860Y375920D03*
X698500Y375920D03*
X633730Y320040D03*
X674370Y320040D03*
D13*
X803910Y342900D03*
X803910Y383540D03*
X971550Y417830D03*
X971550Y458470D03*
X942340Y462280D03*
X942340Y421640D03*
X915670Y417830D03*
X915670Y458470D03*
D14*
X1007190Y368300D03*
X1017190Y368300D03*
X1011000Y392430D03*
X1021000Y392430D03*
D15*
X612140Y350600D03*
X612140Y360600D03*
D14*
X824150Y334010D03*
X814150Y334010D03*
D15*
X821690Y450770D03*
X821690Y440770D03*
D14*
X744300Y485140D03*
X754300Y485140D03*
X731600Y497840D03*
X741600Y497840D03*
D15*
X728980Y481250D03*
X728980Y471250D03*
D14*
X849550Y420370D03*
X839550Y420370D03*
D15*
X760730Y394890D03*
X760730Y384890D03*
X501650Y442040D03*
X501650Y452040D03*
D14*
X873680Y414020D03*
X863680Y414020D03*
X1011000Y466090D03*
X1021000Y466090D03*
X1021000Y452120D03*
X1011000Y452120D03*
X903050Y469900D03*
X913050Y469900D03*
D15*
X590550Y372190D03*
X590550Y382190D03*
X998220Y403780D03*
X998220Y393780D03*
D14*
X731440Y378460D03*
X721440Y378460D03*
X831930Y408940D03*
X841930Y408940D03*
X1017190Y381000D03*
X1007190Y381000D03*
D16*
X695960Y477520D03*
D17*
X670560Y477520D03*
X645160Y477520D03*
X619760Y477520D03*
X594360Y477520D03*
X568960Y477520D03*
X543560Y477520D03*
X543560Y401320D03*
X568960Y401320D03*
X594360Y401320D03*
X619760Y401320D03*
X645160Y401320D03*
X670560Y401320D03*
X695960Y401320D03*
D18*
X1086351Y356579D02*
X1100649Y356579D01*
X1100649Y352081D01*
X1086351Y352081D01*
X1086351Y356579D01*
X1086351Y355438D02*
X1100649Y355438D01*
X1100649Y369279D02*
X1086351Y369279D01*
X1100649Y369279D02*
X1100649Y364781D01*
X1086351Y364781D01*
X1086351Y369279D01*
X1086351Y368138D02*
X1100649Y368138D01*
X1100649Y381979D02*
X1086351Y381979D01*
X1100649Y381979D02*
X1100649Y377481D01*
X1086351Y377481D01*
X1086351Y381979D01*
X1086351Y380838D02*
X1100649Y380838D01*
X1100649Y394679D02*
X1086351Y394679D01*
X1100649Y394679D02*
X1100649Y390181D01*
X1086351Y390181D01*
X1086351Y394679D01*
X1086351Y393538D02*
X1100649Y393538D01*
X1047249Y394679D02*
X1032951Y394679D01*
X1047249Y394679D02*
X1047249Y390181D01*
X1032951Y390181D01*
X1032951Y394679D01*
X1032951Y393538D02*
X1047249Y393538D01*
X1047249Y381979D02*
X1032951Y381979D01*
X1047249Y381979D02*
X1047249Y377481D01*
X1032951Y377481D01*
X1032951Y381979D01*
X1032951Y380838D02*
X1047249Y380838D01*
X1047249Y369279D02*
X1032951Y369279D01*
X1047249Y369279D02*
X1047249Y364781D01*
X1032951Y364781D01*
X1032951Y369279D01*
X1032951Y368138D02*
X1047249Y368138D01*
X1047249Y356579D02*
X1032951Y356579D01*
X1047249Y356579D02*
X1047249Y352081D01*
X1032951Y352081D01*
X1032951Y356579D01*
X1032951Y355438D02*
X1047249Y355438D01*
X1086351Y414999D02*
X1100649Y414999D01*
X1100649Y410501D01*
X1086351Y410501D01*
X1086351Y414999D01*
X1086351Y413858D02*
X1100649Y413858D01*
X1100649Y427699D02*
X1086351Y427699D01*
X1100649Y427699D02*
X1100649Y423201D01*
X1086351Y423201D01*
X1086351Y427699D01*
X1086351Y426558D02*
X1100649Y426558D01*
X1100649Y440399D02*
X1086351Y440399D01*
X1100649Y440399D02*
X1100649Y435901D01*
X1086351Y435901D01*
X1086351Y440399D01*
X1086351Y439258D02*
X1100649Y439258D01*
X1100649Y453099D02*
X1086351Y453099D01*
X1100649Y453099D02*
X1100649Y448601D01*
X1086351Y448601D01*
X1086351Y453099D01*
X1086351Y451958D02*
X1100649Y451958D01*
X1047249Y453099D02*
X1032951Y453099D01*
X1047249Y453099D02*
X1047249Y448601D01*
X1032951Y448601D01*
X1032951Y453099D01*
X1032951Y451958D02*
X1047249Y451958D01*
X1047249Y440399D02*
X1032951Y440399D01*
X1047249Y440399D02*
X1047249Y435901D01*
X1032951Y435901D01*
X1032951Y440399D01*
X1032951Y439258D02*
X1047249Y439258D01*
X1047249Y427699D02*
X1032951Y427699D01*
X1047249Y427699D02*
X1047249Y423201D01*
X1032951Y423201D01*
X1032951Y427699D01*
X1032951Y426558D02*
X1047249Y426558D01*
X1047249Y414999D02*
X1032951Y414999D01*
X1047249Y414999D02*
X1047249Y410501D01*
X1032951Y410501D01*
X1032951Y414999D01*
X1032951Y413858D02*
X1047249Y413858D01*
D19*
X542634Y303514D02*
X542634Y296706D01*
X540226Y296706D01*
X540226Y303514D01*
X542634Y303514D01*
X542634Y299390D02*
X540226Y299390D01*
X540226Y302074D02*
X542634Y302074D01*
X549134Y303514D02*
X549134Y296706D01*
X546726Y296706D01*
X546726Y303514D01*
X549134Y303514D01*
X549134Y299390D02*
X546726Y299390D01*
X546726Y302074D02*
X549134Y302074D01*
X555634Y303514D02*
X555634Y296706D01*
X553226Y296706D01*
X553226Y303514D01*
X555634Y303514D01*
X555634Y299390D02*
X553226Y299390D01*
X553226Y302074D02*
X555634Y302074D01*
X562134Y303514D02*
X562134Y296706D01*
X559726Y296706D01*
X559726Y303514D01*
X562134Y303514D01*
X562134Y299390D02*
X559726Y299390D01*
X559726Y302074D02*
X562134Y302074D01*
X562134Y326406D02*
X562134Y333214D01*
X562134Y326406D02*
X559726Y326406D01*
X559726Y333214D01*
X562134Y333214D01*
X562134Y329090D02*
X559726Y329090D01*
X559726Y331774D02*
X562134Y331774D01*
X555634Y333214D02*
X555634Y326406D01*
X553226Y326406D01*
X553226Y333214D01*
X555634Y333214D01*
X555634Y329090D02*
X553226Y329090D01*
X553226Y331774D02*
X555634Y331774D01*
X549134Y333214D02*
X549134Y326406D01*
X546726Y326406D01*
X546726Y333214D01*
X549134Y333214D01*
X549134Y329090D02*
X546726Y329090D01*
X546726Y331774D02*
X549134Y331774D01*
X542634Y333214D02*
X542634Y326406D01*
X540226Y326406D01*
X540226Y333214D01*
X542634Y333214D01*
X542634Y329090D02*
X540226Y329090D01*
X540226Y331774D02*
X542634Y331774D01*
D20*
X551180Y314960D03*
D19*
X589624Y303514D02*
X589624Y296706D01*
X587216Y296706D01*
X587216Y303514D01*
X589624Y303514D01*
X589624Y299390D02*
X587216Y299390D01*
X587216Y302074D02*
X589624Y302074D01*
X596124Y303514D02*
X596124Y296706D01*
X593716Y296706D01*
X593716Y303514D01*
X596124Y303514D01*
X596124Y299390D02*
X593716Y299390D01*
X593716Y302074D02*
X596124Y302074D01*
X602624Y303514D02*
X602624Y296706D01*
X600216Y296706D01*
X600216Y303514D01*
X602624Y303514D01*
X602624Y299390D02*
X600216Y299390D01*
X600216Y302074D02*
X602624Y302074D01*
X609124Y303514D02*
X609124Y296706D01*
X606716Y296706D01*
X606716Y303514D01*
X609124Y303514D01*
X609124Y299390D02*
X606716Y299390D01*
X606716Y302074D02*
X609124Y302074D01*
X609124Y326406D02*
X609124Y333214D01*
X609124Y326406D02*
X606716Y326406D01*
X606716Y333214D01*
X609124Y333214D01*
X609124Y329090D02*
X606716Y329090D01*
X606716Y331774D02*
X609124Y331774D01*
X602624Y333214D02*
X602624Y326406D01*
X600216Y326406D01*
X600216Y333214D01*
X602624Y333214D01*
X602624Y329090D02*
X600216Y329090D01*
X600216Y331774D02*
X602624Y331774D01*
X596124Y333214D02*
X596124Y326406D01*
X593716Y326406D01*
X593716Y333214D01*
X596124Y333214D01*
X596124Y329090D02*
X593716Y329090D01*
X593716Y331774D02*
X596124Y331774D01*
X589624Y333214D02*
X589624Y326406D01*
X587216Y326406D01*
X587216Y333214D01*
X589624Y333214D01*
X589624Y329090D02*
X587216Y329090D01*
X587216Y331774D02*
X589624Y331774D01*
D20*
X598170Y314960D03*
D18*
X710421Y362241D02*
X728619Y362241D01*
X710421Y362241D02*
X710421Y366739D01*
X728619Y366739D01*
X728619Y362241D01*
X728619Y365598D02*
X710421Y365598D01*
X710421Y349541D02*
X728619Y349541D01*
X710421Y349541D02*
X710421Y354039D01*
X728619Y354039D01*
X728619Y349541D01*
X728619Y352898D02*
X710421Y352898D01*
X710421Y336841D02*
X728619Y336841D01*
X710421Y336841D02*
X710421Y341339D01*
X728619Y341339D01*
X728619Y336841D01*
X728619Y340198D02*
X710421Y340198D01*
X710421Y324141D02*
X728619Y324141D01*
X710421Y324141D02*
X710421Y328639D01*
X728619Y328639D01*
X728619Y324141D01*
X728619Y327498D02*
X710421Y327498D01*
X759821Y324141D02*
X778019Y324141D01*
X759821Y324141D02*
X759821Y328639D01*
X778019Y328639D01*
X778019Y324141D01*
X778019Y327498D02*
X759821Y327498D01*
X759821Y336841D02*
X778019Y336841D01*
X759821Y336841D02*
X759821Y341339D01*
X778019Y341339D01*
X778019Y336841D01*
X778019Y340198D02*
X759821Y340198D01*
X759821Y349541D02*
X778019Y349541D01*
X759821Y349541D02*
X759821Y354039D01*
X778019Y354039D01*
X778019Y349541D01*
X778019Y352898D02*
X759821Y352898D01*
X759821Y362241D02*
X778019Y362241D01*
X759821Y362241D02*
X759821Y366739D01*
X778019Y366739D01*
X778019Y362241D01*
X778019Y365598D02*
X759821Y365598D01*
X970641Y356579D02*
X988839Y356579D01*
X988839Y352081D01*
X970641Y352081D01*
X970641Y356579D01*
X970641Y355438D02*
X988839Y355438D01*
X988839Y369279D02*
X970641Y369279D01*
X988839Y369279D02*
X988839Y364781D01*
X970641Y364781D01*
X970641Y369279D01*
X970641Y368138D02*
X988839Y368138D01*
X988839Y381979D02*
X970641Y381979D01*
X988839Y381979D02*
X988839Y377481D01*
X970641Y377481D01*
X970641Y381979D01*
X970641Y380838D02*
X988839Y380838D01*
X988839Y394679D02*
X970641Y394679D01*
X988839Y394679D02*
X988839Y390181D01*
X970641Y390181D01*
X970641Y394679D01*
X970641Y393538D02*
X988839Y393538D01*
X939439Y394679D02*
X921241Y394679D01*
X939439Y394679D02*
X939439Y390181D01*
X921241Y390181D01*
X921241Y394679D01*
X921241Y393538D02*
X939439Y393538D01*
X939439Y381979D02*
X921241Y381979D01*
X939439Y381979D02*
X939439Y377481D01*
X921241Y377481D01*
X921241Y381979D01*
X921241Y380838D02*
X939439Y380838D01*
X939439Y369279D02*
X921241Y369279D01*
X939439Y369279D02*
X939439Y364781D01*
X921241Y364781D01*
X921241Y369279D01*
X921241Y368138D02*
X939439Y368138D01*
X939439Y356579D02*
X921241Y356579D01*
X939439Y356579D02*
X939439Y352081D01*
X921241Y352081D01*
X921241Y356579D01*
X921241Y355438D02*
X939439Y355438D01*
X845459Y391451D02*
X827261Y391451D01*
X827261Y395949D01*
X845459Y395949D01*
X845459Y391451D01*
X845459Y394808D02*
X827261Y394808D01*
X827261Y378751D02*
X845459Y378751D01*
X827261Y378751D02*
X827261Y383249D01*
X845459Y383249D01*
X845459Y378751D01*
X845459Y382108D02*
X827261Y382108D01*
X827261Y366051D02*
X845459Y366051D01*
X827261Y366051D02*
X827261Y370549D01*
X845459Y370549D01*
X845459Y366051D01*
X845459Y369408D02*
X827261Y369408D01*
X827261Y353351D02*
X845459Y353351D01*
X827261Y353351D02*
X827261Y357849D01*
X845459Y357849D01*
X845459Y353351D01*
X845459Y356708D02*
X827261Y356708D01*
X876661Y353351D02*
X894859Y353351D01*
X876661Y353351D02*
X876661Y357849D01*
X894859Y357849D01*
X894859Y353351D01*
X894859Y356708D02*
X876661Y356708D01*
X876661Y366051D02*
X894859Y366051D01*
X876661Y366051D02*
X876661Y370549D01*
X894859Y370549D01*
X894859Y366051D01*
X894859Y369408D02*
X876661Y369408D01*
X876661Y378751D02*
X894859Y378751D01*
X876661Y378751D02*
X876661Y383249D01*
X894859Y383249D01*
X894859Y378751D01*
X894859Y382108D02*
X876661Y382108D01*
X876661Y391451D02*
X894859Y391451D01*
X876661Y391451D02*
X876661Y395949D01*
X894859Y395949D01*
X894859Y391451D01*
X894859Y394808D02*
X876661Y394808D01*
X809769Y434049D02*
X791571Y434049D01*
X809769Y434049D02*
X809769Y429551D01*
X791571Y429551D01*
X791571Y434049D01*
X791571Y432908D02*
X809769Y432908D01*
X809769Y446749D02*
X791571Y446749D01*
X809769Y446749D02*
X809769Y442251D01*
X791571Y442251D01*
X791571Y446749D01*
X791571Y445608D02*
X809769Y445608D01*
X809769Y459449D02*
X791571Y459449D01*
X809769Y459449D02*
X809769Y454951D01*
X791571Y454951D01*
X791571Y459449D01*
X791571Y458308D02*
X809769Y458308D01*
X809769Y472149D02*
X791571Y472149D01*
X809769Y472149D02*
X809769Y467651D01*
X791571Y467651D01*
X791571Y472149D01*
X791571Y471008D02*
X809769Y471008D01*
X760369Y472149D02*
X742171Y472149D01*
X760369Y472149D02*
X760369Y467651D01*
X742171Y467651D01*
X742171Y472149D01*
X742171Y471008D02*
X760369Y471008D01*
X760369Y459449D02*
X742171Y459449D01*
X760369Y459449D02*
X760369Y454951D01*
X742171Y454951D01*
X742171Y459449D01*
X742171Y458308D02*
X760369Y458308D01*
X760369Y446749D02*
X742171Y446749D01*
X760369Y446749D02*
X760369Y442251D01*
X742171Y442251D01*
X742171Y446749D01*
X742171Y445608D02*
X760369Y445608D01*
X760369Y434049D02*
X742171Y434049D01*
X760369Y434049D02*
X760369Y429551D01*
X742171Y429551D01*
X742171Y434049D01*
X742171Y432908D02*
X760369Y432908D01*
D21*
X1132840Y429260D03*
X1132840Y374650D03*
D10*
X387350Y390040D03*
X387350Y377040D03*
X345440Y392280D03*
X345440Y405280D03*
X322580Y429410D03*
X322580Y416410D03*
X302260Y415140D03*
X302260Y428140D03*
X274320Y429410D03*
X274320Y416410D03*
X254000Y417680D03*
X254000Y430680D03*
X214630Y383390D03*
X214630Y396390D03*
D11*
X181760Y361950D03*
X168760Y361950D03*
X189380Y217170D03*
X176380Y217170D03*
D10*
X209550Y200810D03*
X209550Y187810D03*
D11*
X243990Y147320D03*
X230990Y147320D03*
D10*
X262890Y157630D03*
X262890Y144630D03*
X309880Y148740D03*
X309880Y135740D03*
X326390Y156060D03*
X326390Y169060D03*
X368300Y175410D03*
X368300Y162410D03*
X381000Y192890D03*
X381000Y205890D03*
D11*
X337670Y424180D03*
X350670Y424180D03*
X293220Y448310D03*
X306220Y448310D03*
D10*
X229870Y410060D03*
X229870Y423060D03*
D11*
X181760Y336550D03*
X168760Y336550D03*
X161440Y304800D03*
X148440Y304800D03*
X184300Y247650D03*
X171300Y247650D03*
D10*
X228600Y176680D03*
X228600Y163680D03*
X285750Y147470D03*
X285750Y134470D03*
D11*
X340210Y158750D03*
X353210Y158750D03*
X421490Y237490D03*
X434490Y237490D03*
X401170Y254000D03*
X414170Y254000D03*
X416410Y266700D03*
X429410Y266700D03*
X396090Y285750D03*
X409090Y285750D03*
X406250Y306070D03*
X419250Y306070D03*
X406250Y318770D03*
X419250Y318770D03*
X402440Y345440D03*
X415440Y345440D03*
X402440Y358140D03*
X415440Y358140D03*
D22*
X350541Y365630D02*
X350541Y381108D01*
X353659Y381108D01*
X353659Y365630D01*
X350541Y365630D01*
X350541Y369556D02*
X353659Y369556D01*
X353659Y373482D02*
X350541Y373482D01*
X350541Y377408D02*
X353659Y377408D01*
X342541Y381108D02*
X342541Y365630D01*
X342541Y381108D02*
X345659Y381108D01*
X345659Y365630D01*
X342541Y365630D01*
X342541Y369556D02*
X345659Y369556D01*
X345659Y373482D02*
X342541Y373482D01*
X342541Y377408D02*
X345659Y377408D01*
X334541Y381108D02*
X334541Y365630D01*
X334541Y381108D02*
X337659Y381108D01*
X337659Y365630D01*
X334541Y365630D01*
X334541Y369556D02*
X337659Y369556D01*
X337659Y373482D02*
X334541Y373482D01*
X334541Y377408D02*
X337659Y377408D01*
X326541Y381108D02*
X326541Y365630D01*
X326541Y381108D02*
X329659Y381108D01*
X329659Y365630D01*
X326541Y365630D01*
X326541Y369556D02*
X329659Y369556D01*
X329659Y373482D02*
X326541Y373482D01*
X326541Y377408D02*
X329659Y377408D01*
X318541Y381108D02*
X318541Y365630D01*
X318541Y381108D02*
X321659Y381108D01*
X321659Y365630D01*
X318541Y365630D01*
X318541Y369556D02*
X321659Y369556D01*
X321659Y373482D02*
X318541Y373482D01*
X318541Y377408D02*
X321659Y377408D01*
X310541Y381108D02*
X310541Y365630D01*
X310541Y381108D02*
X313659Y381108D01*
X313659Y365630D01*
X310541Y365630D01*
X310541Y369556D02*
X313659Y369556D01*
X313659Y373482D02*
X310541Y373482D01*
X310541Y377408D02*
X313659Y377408D01*
X302541Y381108D02*
X302541Y365630D01*
X302541Y381108D02*
X305659Y381108D01*
X305659Y365630D01*
X302541Y365630D01*
X302541Y369556D02*
X305659Y369556D01*
X305659Y373482D02*
X302541Y373482D01*
X302541Y377408D02*
X305659Y377408D01*
X294541Y381108D02*
X294541Y365630D01*
X294541Y381108D02*
X297659Y381108D01*
X297659Y365630D01*
X294541Y365630D01*
X294541Y369556D02*
X297659Y369556D01*
X297659Y373482D02*
X294541Y373482D01*
X294541Y377408D02*
X297659Y377408D01*
X286541Y381108D02*
X286541Y365630D01*
X286541Y381108D02*
X289659Y381108D01*
X289659Y365630D01*
X286541Y365630D01*
X286541Y369556D02*
X289659Y369556D01*
X289659Y373482D02*
X286541Y373482D01*
X286541Y377408D02*
X289659Y377408D01*
X278541Y381108D02*
X278541Y365630D01*
X278541Y381108D02*
X281659Y381108D01*
X281659Y365630D01*
X278541Y365630D01*
X278541Y369556D02*
X281659Y369556D01*
X281659Y373482D02*
X278541Y373482D01*
X278541Y377408D02*
X281659Y377408D01*
X270541Y381108D02*
X270541Y365630D01*
X270541Y381108D02*
X273659Y381108D01*
X273659Y365630D01*
X270541Y365630D01*
X270541Y369556D02*
X273659Y369556D01*
X273659Y373482D02*
X270541Y373482D01*
X270541Y377408D02*
X273659Y377408D01*
X262541Y381108D02*
X262541Y365630D01*
X262541Y381108D02*
X265659Y381108D01*
X265659Y365630D01*
X262541Y365630D01*
X262541Y369556D02*
X265659Y369556D01*
X265659Y373482D02*
X262541Y373482D01*
X262541Y377408D02*
X265659Y377408D01*
X254541Y381108D02*
X254541Y365630D01*
X254541Y381108D02*
X257659Y381108D01*
X257659Y365630D01*
X254541Y365630D01*
X254541Y369556D02*
X257659Y369556D01*
X257659Y373482D02*
X254541Y373482D01*
X254541Y377408D02*
X257659Y377408D01*
X246541Y381108D02*
X246541Y365630D01*
X246541Y381108D02*
X249659Y381108D01*
X249659Y365630D01*
X246541Y365630D01*
X246541Y369556D02*
X249659Y369556D01*
X249659Y373482D02*
X246541Y373482D01*
X246541Y377408D02*
X249659Y377408D01*
X238541Y381108D02*
X238541Y365630D01*
X238541Y381108D02*
X241659Y381108D01*
X241659Y365630D01*
X238541Y365630D01*
X238541Y369556D02*
X241659Y369556D01*
X241659Y373482D02*
X238541Y373482D01*
X238541Y377408D02*
X241659Y377408D01*
X230541Y381108D02*
X230541Y365630D01*
X230541Y381108D02*
X233659Y381108D01*
X233659Y365630D01*
X230541Y365630D01*
X230541Y369556D02*
X233659Y369556D01*
X233659Y373482D02*
X230541Y373482D01*
X230541Y377408D02*
X233659Y377408D01*
X218570Y350541D02*
X203092Y350541D01*
X203092Y353659D01*
X218570Y353659D01*
X218570Y350541D01*
X218570Y342541D02*
X203092Y342541D01*
X203092Y345659D01*
X218570Y345659D01*
X218570Y342541D01*
X218570Y334541D02*
X203092Y334541D01*
X203092Y337659D01*
X218570Y337659D01*
X218570Y334541D01*
X218570Y326541D02*
X203092Y326541D01*
X203092Y329659D01*
X218570Y329659D01*
X218570Y326541D01*
X218570Y318541D02*
X203092Y318541D01*
X203092Y321659D01*
X218570Y321659D01*
X218570Y318541D01*
X218570Y310541D02*
X203092Y310541D01*
X203092Y313659D01*
X218570Y313659D01*
X218570Y310541D01*
X218570Y302541D02*
X203092Y302541D01*
X203092Y305659D01*
X218570Y305659D01*
X218570Y302541D01*
X218570Y294541D02*
X203092Y294541D01*
X203092Y297659D01*
X218570Y297659D01*
X218570Y294541D01*
X218570Y286541D02*
X203092Y286541D01*
X203092Y289659D01*
X218570Y289659D01*
X218570Y286541D01*
X218570Y278541D02*
X203092Y278541D01*
X203092Y281659D01*
X218570Y281659D01*
X218570Y278541D01*
X218570Y270541D02*
X203092Y270541D01*
X203092Y273659D01*
X218570Y273659D01*
X218570Y270541D01*
X218570Y262541D02*
X203092Y262541D01*
X203092Y265659D01*
X218570Y265659D01*
X218570Y262541D01*
X218570Y254541D02*
X203092Y254541D01*
X203092Y257659D01*
X218570Y257659D01*
X218570Y254541D01*
X218570Y246541D02*
X203092Y246541D01*
X203092Y249659D01*
X218570Y249659D01*
X218570Y246541D01*
X218570Y238541D02*
X203092Y238541D01*
X203092Y241659D01*
X218570Y241659D01*
X218570Y238541D01*
X218570Y230541D02*
X203092Y230541D01*
X203092Y233659D01*
X218570Y233659D01*
X218570Y230541D01*
X230541Y218570D02*
X230541Y203092D01*
X230541Y218570D02*
X233659Y218570D01*
X233659Y203092D01*
X230541Y203092D01*
X230541Y207018D02*
X233659Y207018D01*
X233659Y210944D02*
X230541Y210944D01*
X230541Y214870D02*
X233659Y214870D01*
X238541Y218570D02*
X238541Y203092D01*
X238541Y218570D02*
X241659Y218570D01*
X241659Y203092D01*
X238541Y203092D01*
X238541Y207018D02*
X241659Y207018D01*
X241659Y210944D02*
X238541Y210944D01*
X238541Y214870D02*
X241659Y214870D01*
X246541Y218570D02*
X246541Y203092D01*
X246541Y218570D02*
X249659Y218570D01*
X249659Y203092D01*
X246541Y203092D01*
X246541Y207018D02*
X249659Y207018D01*
X249659Y210944D02*
X246541Y210944D01*
X246541Y214870D02*
X249659Y214870D01*
X254541Y218570D02*
X254541Y203092D01*
X254541Y218570D02*
X257659Y218570D01*
X257659Y203092D01*
X254541Y203092D01*
X254541Y207018D02*
X257659Y207018D01*
X257659Y210944D02*
X254541Y210944D01*
X254541Y214870D02*
X257659Y214870D01*
X262541Y218570D02*
X262541Y203092D01*
X262541Y218570D02*
X265659Y218570D01*
X265659Y203092D01*
X262541Y203092D01*
X262541Y207018D02*
X265659Y207018D01*
X265659Y210944D02*
X262541Y210944D01*
X262541Y214870D02*
X265659Y214870D01*
X270541Y218570D02*
X270541Y203092D01*
X270541Y218570D02*
X273659Y218570D01*
X273659Y203092D01*
X270541Y203092D01*
X270541Y207018D02*
X273659Y207018D01*
X273659Y210944D02*
X270541Y210944D01*
X270541Y214870D02*
X273659Y214870D01*
X278541Y218570D02*
X278541Y203092D01*
X278541Y218570D02*
X281659Y218570D01*
X281659Y203092D01*
X278541Y203092D01*
X278541Y207018D02*
X281659Y207018D01*
X281659Y210944D02*
X278541Y210944D01*
X278541Y214870D02*
X281659Y214870D01*
X286541Y218570D02*
X286541Y203092D01*
X286541Y218570D02*
X289659Y218570D01*
X289659Y203092D01*
X286541Y203092D01*
X286541Y207018D02*
X289659Y207018D01*
X289659Y210944D02*
X286541Y210944D01*
X286541Y214870D02*
X289659Y214870D01*
X294541Y218570D02*
X294541Y203092D01*
X294541Y218570D02*
X297659Y218570D01*
X297659Y203092D01*
X294541Y203092D01*
X294541Y207018D02*
X297659Y207018D01*
X297659Y210944D02*
X294541Y210944D01*
X294541Y214870D02*
X297659Y214870D01*
X302541Y218570D02*
X302541Y203092D01*
X302541Y218570D02*
X305659Y218570D01*
X305659Y203092D01*
X302541Y203092D01*
X302541Y207018D02*
X305659Y207018D01*
X305659Y210944D02*
X302541Y210944D01*
X302541Y214870D02*
X305659Y214870D01*
X310541Y218570D02*
X310541Y203092D01*
X310541Y218570D02*
X313659Y218570D01*
X313659Y203092D01*
X310541Y203092D01*
X310541Y207018D02*
X313659Y207018D01*
X313659Y210944D02*
X310541Y210944D01*
X310541Y214870D02*
X313659Y214870D01*
X318541Y218570D02*
X318541Y203092D01*
X318541Y218570D02*
X321659Y218570D01*
X321659Y203092D01*
X318541Y203092D01*
X318541Y207018D02*
X321659Y207018D01*
X321659Y210944D02*
X318541Y210944D01*
X318541Y214870D02*
X321659Y214870D01*
X326541Y218570D02*
X326541Y203092D01*
X326541Y218570D02*
X329659Y218570D01*
X329659Y203092D01*
X326541Y203092D01*
X326541Y207018D02*
X329659Y207018D01*
X329659Y210944D02*
X326541Y210944D01*
X326541Y214870D02*
X329659Y214870D01*
X334541Y218570D02*
X334541Y203092D01*
X334541Y218570D02*
X337659Y218570D01*
X337659Y203092D01*
X334541Y203092D01*
X334541Y207018D02*
X337659Y207018D01*
X337659Y210944D02*
X334541Y210944D01*
X334541Y214870D02*
X337659Y214870D01*
X342541Y218570D02*
X342541Y203092D01*
X342541Y218570D02*
X345659Y218570D01*
X345659Y203092D01*
X342541Y203092D01*
X342541Y207018D02*
X345659Y207018D01*
X345659Y210944D02*
X342541Y210944D01*
X342541Y214870D02*
X345659Y214870D01*
X350541Y218570D02*
X350541Y203092D01*
X350541Y218570D02*
X353659Y218570D01*
X353659Y203092D01*
X350541Y203092D01*
X350541Y207018D02*
X353659Y207018D01*
X353659Y210944D02*
X350541Y210944D01*
X350541Y214870D02*
X353659Y214870D01*
X365630Y230541D02*
X381108Y230541D01*
X365630Y230541D02*
X365630Y233659D01*
X381108Y233659D01*
X381108Y230541D01*
X381108Y238541D02*
X365630Y238541D01*
X365630Y241659D01*
X381108Y241659D01*
X381108Y238541D01*
X381108Y246541D02*
X365630Y246541D01*
X365630Y249659D01*
X381108Y249659D01*
X381108Y246541D01*
X381108Y254541D02*
X365630Y254541D01*
X365630Y257659D01*
X381108Y257659D01*
X381108Y254541D01*
X381108Y262541D02*
X365630Y262541D01*
X365630Y265659D01*
X381108Y265659D01*
X381108Y262541D01*
X381108Y270541D02*
X365630Y270541D01*
X365630Y273659D01*
X381108Y273659D01*
X381108Y270541D01*
X381108Y278541D02*
X365630Y278541D01*
X365630Y281659D01*
X381108Y281659D01*
X381108Y278541D01*
X381108Y286541D02*
X365630Y286541D01*
X365630Y289659D01*
X381108Y289659D01*
X381108Y286541D01*
X381108Y294541D02*
X365630Y294541D01*
X365630Y297659D01*
X381108Y297659D01*
X381108Y294541D01*
X381108Y302541D02*
X365630Y302541D01*
X365630Y305659D01*
X381108Y305659D01*
X381108Y302541D01*
X381108Y310541D02*
X365630Y310541D01*
X365630Y313659D01*
X381108Y313659D01*
X381108Y310541D01*
X381108Y318541D02*
X365630Y318541D01*
X365630Y321659D01*
X381108Y321659D01*
X381108Y318541D01*
X381108Y326541D02*
X365630Y326541D01*
X365630Y329659D01*
X381108Y329659D01*
X381108Y326541D01*
X381108Y334541D02*
X365630Y334541D01*
X365630Y337659D01*
X381108Y337659D01*
X381108Y334541D01*
X381108Y342541D02*
X365630Y342541D01*
X365630Y345659D01*
X381108Y345659D01*
X381108Y342541D01*
X381108Y350541D02*
X365630Y350541D01*
X365630Y353659D01*
X381108Y353659D01*
X381108Y350541D01*
D11*
X449730Y87630D03*
X436730Y87630D03*
X449730Y101600D03*
X436730Y101600D03*
D14*
X452040Y203200D03*
X442040Y203200D03*
X409020Y99060D03*
X419020Y99060D03*
X400130Y81280D03*
X410130Y81280D03*
X449500Y187960D03*
X439500Y187960D03*
X449500Y173990D03*
X439500Y173990D03*
D15*
X505460Y90250D03*
X505460Y100250D03*
D14*
X425370Y48260D03*
X415370Y48260D03*
X518240Y48260D03*
X528240Y48260D03*
D15*
X541020Y35480D03*
X541020Y25480D03*
X528320Y100250D03*
X528320Y90250D03*
D14*
X528240Y35560D03*
X518240Y35560D03*
D18*
X449079Y153961D02*
X434781Y153961D01*
X434781Y158459D01*
X449079Y158459D01*
X449079Y153961D01*
X449079Y157318D02*
X434781Y157318D01*
X434781Y141261D02*
X449079Y141261D01*
X434781Y141261D02*
X434781Y145759D01*
X449079Y145759D01*
X449079Y141261D01*
X449079Y144618D02*
X434781Y144618D01*
X434781Y128561D02*
X449079Y128561D01*
X434781Y128561D02*
X434781Y133059D01*
X449079Y133059D01*
X449079Y128561D01*
X449079Y131918D02*
X434781Y131918D01*
X434781Y115861D02*
X449079Y115861D01*
X434781Y115861D02*
X434781Y120359D01*
X449079Y120359D01*
X449079Y115861D01*
X449079Y119218D02*
X434781Y119218D01*
X488181Y115861D02*
X502479Y115861D01*
X488181Y115861D02*
X488181Y120359D01*
X502479Y120359D01*
X502479Y115861D01*
X502479Y119218D02*
X488181Y119218D01*
X488181Y128561D02*
X502479Y128561D01*
X488181Y128561D02*
X488181Y133059D01*
X502479Y133059D01*
X502479Y128561D01*
X502479Y131918D02*
X488181Y131918D01*
X488181Y141261D02*
X502479Y141261D01*
X488181Y141261D02*
X488181Y145759D01*
X502479Y145759D01*
X502479Y141261D01*
X502479Y144618D02*
X488181Y144618D01*
X488181Y153961D02*
X502479Y153961D01*
X488181Y153961D02*
X488181Y158459D01*
X502479Y158459D01*
X502479Y153961D01*
X502479Y157318D02*
X488181Y157318D01*
X484231Y37809D02*
X502429Y37809D01*
X502429Y33311D01*
X484231Y33311D01*
X484231Y37809D01*
X484231Y36668D02*
X502429Y36668D01*
X502429Y50509D02*
X484231Y50509D01*
X502429Y50509D02*
X502429Y46011D01*
X484231Y46011D01*
X484231Y50509D01*
X484231Y49368D02*
X502429Y49368D01*
X502429Y63209D02*
X484231Y63209D01*
X502429Y63209D02*
X502429Y58711D01*
X484231Y58711D01*
X484231Y63209D01*
X484231Y62068D02*
X502429Y62068D01*
X502429Y75909D02*
X484231Y75909D01*
X502429Y75909D02*
X502429Y71411D01*
X484231Y71411D01*
X484231Y75909D01*
X484231Y74768D02*
X502429Y74768D01*
X453029Y75909D02*
X434831Y75909D01*
X453029Y75909D02*
X453029Y71411D01*
X434831Y71411D01*
X434831Y75909D01*
X434831Y74768D02*
X453029Y74768D01*
X453029Y63209D02*
X434831Y63209D01*
X453029Y63209D02*
X453029Y58711D01*
X434831Y58711D01*
X434831Y63209D01*
X434831Y62068D02*
X453029Y62068D01*
X453029Y50509D02*
X434831Y50509D01*
X453029Y50509D02*
X453029Y46011D01*
X434831Y46011D01*
X434831Y50509D01*
X434831Y49368D02*
X453029Y49368D01*
X453029Y37809D02*
X434831Y37809D01*
X453029Y37809D02*
X453029Y33311D01*
X434831Y33311D01*
X434831Y37809D01*
X434831Y36668D02*
X453029Y36668D01*
D11*
X385930Y187960D03*
X398930Y187960D03*
X412600Y519430D03*
X425600Y519430D03*
X412600Y505460D03*
X425600Y505460D03*
D14*
X410290Y403860D03*
X420290Y403860D03*
X453310Y508000D03*
X443310Y508000D03*
X462200Y525780D03*
X452200Y525780D03*
X412830Y419100D03*
X422830Y419100D03*
X412830Y433070D03*
X422830Y433070D03*
D15*
X356870Y516810D03*
X356870Y506810D03*
D14*
X436960Y558800D03*
X446960Y558800D03*
X344090Y558800D03*
X334090Y558800D03*
D15*
X321310Y571580D03*
X321310Y581580D03*
X334010Y506810D03*
X334010Y516810D03*
D14*
X334090Y571500D03*
X344090Y571500D03*
D18*
X413251Y453099D02*
X427549Y453099D01*
X427549Y448601D01*
X413251Y448601D01*
X413251Y453099D01*
X413251Y451958D02*
X427549Y451958D01*
X427549Y465799D02*
X413251Y465799D01*
X427549Y465799D02*
X427549Y461301D01*
X413251Y461301D01*
X413251Y465799D01*
X413251Y464658D02*
X427549Y464658D01*
X427549Y478499D02*
X413251Y478499D01*
X427549Y478499D02*
X427549Y474001D01*
X413251Y474001D01*
X413251Y478499D01*
X413251Y477358D02*
X427549Y477358D01*
X427549Y491199D02*
X413251Y491199D01*
X427549Y491199D02*
X427549Y486701D01*
X413251Y486701D01*
X413251Y491199D01*
X413251Y490058D02*
X427549Y490058D01*
X374149Y491199D02*
X359851Y491199D01*
X374149Y491199D02*
X374149Y486701D01*
X359851Y486701D01*
X359851Y491199D01*
X359851Y490058D02*
X374149Y490058D01*
X374149Y478499D02*
X359851Y478499D01*
X374149Y478499D02*
X374149Y474001D01*
X359851Y474001D01*
X359851Y478499D01*
X359851Y477358D02*
X374149Y477358D01*
X374149Y465799D02*
X359851Y465799D01*
X374149Y465799D02*
X374149Y461301D01*
X359851Y461301D01*
X359851Y465799D01*
X359851Y464658D02*
X374149Y464658D01*
X374149Y453099D02*
X359851Y453099D01*
X374149Y453099D02*
X374149Y448601D01*
X359851Y448601D01*
X359851Y453099D01*
X359851Y451958D02*
X374149Y451958D01*
X378099Y569251D02*
X359901Y569251D01*
X359901Y573749D01*
X378099Y573749D01*
X378099Y569251D01*
X378099Y572608D02*
X359901Y572608D01*
X359901Y556551D02*
X378099Y556551D01*
X359901Y556551D02*
X359901Y561049D01*
X378099Y561049D01*
X378099Y556551D01*
X378099Y559908D02*
X359901Y559908D01*
X359901Y543851D02*
X378099Y543851D01*
X359901Y543851D02*
X359901Y548349D01*
X378099Y548349D01*
X378099Y543851D01*
X378099Y547208D02*
X359901Y547208D01*
X359901Y531151D02*
X378099Y531151D01*
X359901Y531151D02*
X359901Y535649D01*
X378099Y535649D01*
X378099Y531151D01*
X378099Y534508D02*
X359901Y534508D01*
X409301Y531151D02*
X427499Y531151D01*
X409301Y531151D02*
X409301Y535649D01*
X427499Y535649D01*
X427499Y531151D01*
X427499Y534508D02*
X409301Y534508D01*
X409301Y543851D02*
X427499Y543851D01*
X409301Y543851D02*
X409301Y548349D01*
X427499Y548349D01*
X427499Y543851D01*
X427499Y547208D02*
X409301Y547208D01*
X409301Y556551D02*
X427499Y556551D01*
X409301Y556551D02*
X409301Y561049D01*
X427499Y561049D01*
X427499Y556551D01*
X427499Y559908D02*
X409301Y559908D01*
X409301Y569251D02*
X427499Y569251D01*
X409301Y569251D02*
X409301Y573749D01*
X427499Y573749D01*
X427499Y569251D01*
X427499Y572608D02*
X409301Y572608D01*
D11*
X476400Y419100D03*
X463400Y419100D03*
X219560Y1003300D03*
X232560Y1003300D03*
D14*
X78820Y1040130D03*
X88820Y1040130D03*
X78820Y989330D03*
X88820Y989330D03*
X102950Y1014730D03*
X112950Y1014730D03*
X104220Y1028700D03*
X114220Y1028700D03*
D15*
X121920Y1003220D03*
X121920Y993220D03*
X209550Y991790D03*
X209550Y981790D03*
D14*
X161370Y963930D03*
X171370Y963930D03*
D15*
X222250Y981790D03*
X222250Y991790D03*
D14*
X209630Y1017270D03*
X219630Y1017270D03*
X101680Y963930D03*
X111680Y963930D03*
X78820Y1004570D03*
X88820Y1004570D03*
X101680Y976630D03*
X111680Y976630D03*
X77550Y963930D03*
X87550Y963930D03*
X88820Y976630D03*
X78820Y976630D03*
X88820Y1016000D03*
X78820Y1016000D03*
X88820Y1028700D03*
X78820Y1028700D03*
X77550Y951230D03*
X87550Y951230D03*
D18*
X181971Y981419D02*
X200169Y981419D01*
X200169Y976921D01*
X181971Y976921D01*
X181971Y981419D01*
X181971Y980278D02*
X200169Y980278D01*
X200169Y994119D02*
X181971Y994119D01*
X200169Y994119D02*
X200169Y989621D01*
X181971Y989621D01*
X181971Y994119D01*
X181971Y992978D02*
X200169Y992978D01*
X200169Y1006819D02*
X181971Y1006819D01*
X200169Y1006819D02*
X200169Y1002321D01*
X181971Y1002321D01*
X181971Y1006819D01*
X181971Y1005678D02*
X200169Y1005678D01*
X200169Y1019519D02*
X181971Y1019519D01*
X200169Y1019519D02*
X200169Y1015021D01*
X181971Y1015021D01*
X181971Y1019519D01*
X181971Y1018378D02*
X200169Y1018378D01*
X150769Y1019519D02*
X132571Y1019519D01*
X150769Y1019519D02*
X150769Y1015021D01*
X132571Y1015021D01*
X132571Y1019519D01*
X132571Y1018378D02*
X150769Y1018378D01*
X150769Y1006819D02*
X132571Y1006819D01*
X150769Y1006819D02*
X150769Y1002321D01*
X132571Y1002321D01*
X132571Y1006819D01*
X132571Y1005678D02*
X150769Y1005678D01*
X150769Y994119D02*
X132571Y994119D01*
X150769Y994119D02*
X150769Y989621D01*
X132571Y989621D01*
X132571Y994119D01*
X132571Y992978D02*
X150769Y992978D01*
X150769Y981419D02*
X132571Y981419D01*
X150769Y981419D02*
X150769Y976921D01*
X132571Y976921D01*
X132571Y981419D01*
X132571Y980278D02*
X150769Y980278D01*
D23*
X254000Y1040130D03*
X242570Y962660D03*
D14*
X105330Y96520D03*
X95330Y96520D03*
D15*
X144780Y61040D03*
X144780Y71040D03*
D14*
X120730Y96520D03*
X130730Y96520D03*
D15*
X133350Y44530D03*
X133350Y54530D03*
D18*
X109999Y33999D02*
X91801Y33999D01*
X109999Y33999D02*
X109999Y29501D01*
X91801Y29501D01*
X91801Y33999D01*
X91801Y32858D02*
X109999Y32858D01*
X109999Y46699D02*
X91801Y46699D01*
X109999Y46699D02*
X109999Y42201D01*
X91801Y42201D01*
X91801Y46699D01*
X91801Y45558D02*
X109999Y45558D01*
X109999Y59399D02*
X91801Y59399D01*
X109999Y59399D02*
X109999Y54901D01*
X91801Y54901D01*
X91801Y59399D01*
X91801Y58258D02*
X109999Y58258D01*
X109999Y72099D02*
X91801Y72099D01*
X109999Y72099D02*
X109999Y67601D01*
X91801Y67601D01*
X91801Y72099D01*
X91801Y70958D02*
X109999Y70958D01*
X60599Y72099D02*
X42401Y72099D01*
X60599Y72099D02*
X60599Y67601D01*
X42401Y67601D01*
X42401Y72099D01*
X42401Y70958D02*
X60599Y70958D01*
X60599Y59399D02*
X42401Y59399D01*
X60599Y59399D02*
X60599Y54901D01*
X42401Y54901D01*
X42401Y59399D01*
X42401Y58258D02*
X60599Y58258D01*
X60599Y46699D02*
X42401Y46699D01*
X60599Y46699D02*
X60599Y42201D01*
X42401Y42201D01*
X42401Y46699D01*
X42401Y45558D02*
X60599Y45558D01*
X60599Y33999D02*
X42401Y33999D01*
X60599Y33999D02*
X60599Y29501D01*
X42401Y29501D01*
X42401Y33999D01*
X42401Y32858D02*
X60599Y32858D01*
D24*
X137160Y21590D03*
D25*
X121920Y74930D03*
D10*
X886460Y642470D03*
X886460Y655470D03*
D11*
X594510Y574040D03*
X581510Y574040D03*
D10*
X1149350Y600860D03*
X1149350Y587860D03*
D11*
X1106320Y680720D03*
X1093320Y680720D03*
D12*
X965200Y690880D03*
X1005840Y690880D03*
D13*
X777240Y574040D03*
X777240Y614680D03*
X800100Y614680D03*
X800100Y574040D03*
X822960Y570230D03*
X822960Y610870D03*
X1023620Y698500D03*
X1023620Y657860D03*
D12*
X1005840Y665480D03*
X965200Y665480D03*
X1029970Y721360D03*
X989330Y721360D03*
D13*
X859790Y698500D03*
X859790Y657860D03*
X692150Y623570D03*
X692150Y582930D03*
X721360Y579120D03*
X721360Y619760D03*
X748030Y623570D03*
X748030Y582930D03*
D14*
X656510Y673100D03*
X646510Y673100D03*
X652700Y648970D03*
X642700Y648970D03*
D15*
X1051560Y690800D03*
X1051560Y680800D03*
D14*
X839550Y707390D03*
X849550Y707390D03*
D15*
X842010Y590630D03*
X842010Y600630D03*
D14*
X919400Y556260D03*
X909400Y556260D03*
X932100Y543560D03*
X922100Y543560D03*
D15*
X934720Y560150D03*
X934720Y570150D03*
D14*
X814150Y621030D03*
X824150Y621030D03*
D15*
X902970Y646510D03*
X902970Y656510D03*
X1162050Y599360D03*
X1162050Y589360D03*
D14*
X790020Y627380D03*
X800020Y627380D03*
X652700Y575310D03*
X642700Y575310D03*
X642700Y589280D03*
X652700Y589280D03*
X760650Y571500D03*
X750650Y571500D03*
D15*
X1073150Y669210D03*
X1073150Y659210D03*
X665480Y637620D03*
X665480Y647620D03*
D14*
X932260Y662940D03*
X942260Y662940D03*
X831770Y632460D03*
X821770Y632460D03*
X646510Y660400D03*
X656510Y660400D03*
D16*
X967740Y563880D03*
D17*
X993140Y563880D03*
X1018540Y563880D03*
X1043940Y563880D03*
X1069340Y563880D03*
X1094740Y563880D03*
X1120140Y563880D03*
X1120140Y640080D03*
X1094740Y640080D03*
X1069340Y640080D03*
X1043940Y640080D03*
X1018540Y640080D03*
X993140Y640080D03*
X967740Y640080D03*
D18*
X577349Y684821D02*
X563051Y684821D01*
X563051Y689319D01*
X577349Y689319D01*
X577349Y684821D01*
X577349Y688178D02*
X563051Y688178D01*
X563051Y672121D02*
X577349Y672121D01*
X563051Y672121D02*
X563051Y676619D01*
X577349Y676619D01*
X577349Y672121D01*
X577349Y675478D02*
X563051Y675478D01*
X563051Y659421D02*
X577349Y659421D01*
X563051Y659421D02*
X563051Y663919D01*
X577349Y663919D01*
X577349Y659421D01*
X577349Y662778D02*
X563051Y662778D01*
X563051Y646721D02*
X577349Y646721D01*
X563051Y646721D02*
X563051Y651219D01*
X577349Y651219D01*
X577349Y646721D01*
X577349Y650078D02*
X563051Y650078D01*
X616451Y646721D02*
X630749Y646721D01*
X616451Y646721D02*
X616451Y651219D01*
X630749Y651219D01*
X630749Y646721D01*
X630749Y650078D02*
X616451Y650078D01*
X616451Y659421D02*
X630749Y659421D01*
X616451Y659421D02*
X616451Y663919D01*
X630749Y663919D01*
X630749Y659421D01*
X630749Y662778D02*
X616451Y662778D01*
X616451Y672121D02*
X630749Y672121D01*
X616451Y672121D02*
X616451Y676619D01*
X630749Y676619D01*
X630749Y672121D01*
X630749Y675478D02*
X616451Y675478D01*
X616451Y684821D02*
X630749Y684821D01*
X616451Y684821D02*
X616451Y689319D01*
X630749Y689319D01*
X630749Y684821D01*
X630749Y688178D02*
X616451Y688178D01*
X577349Y626401D02*
X563051Y626401D01*
X563051Y630899D01*
X577349Y630899D01*
X577349Y626401D01*
X577349Y629758D02*
X563051Y629758D01*
X563051Y613701D02*
X577349Y613701D01*
X563051Y613701D02*
X563051Y618199D01*
X577349Y618199D01*
X577349Y613701D01*
X577349Y617058D02*
X563051Y617058D01*
X563051Y601001D02*
X577349Y601001D01*
X563051Y601001D02*
X563051Y605499D01*
X577349Y605499D01*
X577349Y601001D01*
X577349Y604358D02*
X563051Y604358D01*
X563051Y588301D02*
X577349Y588301D01*
X563051Y588301D02*
X563051Y592799D01*
X577349Y592799D01*
X577349Y588301D01*
X577349Y591658D02*
X563051Y591658D01*
X616451Y588301D02*
X630749Y588301D01*
X616451Y588301D02*
X616451Y592799D01*
X630749Y592799D01*
X630749Y588301D01*
X630749Y591658D02*
X616451Y591658D01*
X616451Y601001D02*
X630749Y601001D01*
X616451Y601001D02*
X616451Y605499D01*
X630749Y605499D01*
X630749Y601001D01*
X630749Y604358D02*
X616451Y604358D01*
X616451Y613701D02*
X630749Y613701D01*
X616451Y613701D02*
X616451Y618199D01*
X630749Y618199D01*
X630749Y613701D01*
X630749Y617058D02*
X616451Y617058D01*
X616451Y626401D02*
X630749Y626401D01*
X616451Y626401D02*
X616451Y630899D01*
X630749Y630899D01*
X630749Y626401D01*
X630749Y629758D02*
X616451Y629758D01*
D19*
X1121066Y737886D02*
X1121066Y744694D01*
X1123474Y744694D01*
X1123474Y737886D01*
X1121066Y737886D01*
X1121066Y740570D02*
X1123474Y740570D01*
X1123474Y743254D02*
X1121066Y743254D01*
X1114566Y744694D02*
X1114566Y737886D01*
X1114566Y744694D02*
X1116974Y744694D01*
X1116974Y737886D01*
X1114566Y737886D01*
X1114566Y740570D02*
X1116974Y740570D01*
X1116974Y743254D02*
X1114566Y743254D01*
X1108066Y744694D02*
X1108066Y737886D01*
X1108066Y744694D02*
X1110474Y744694D01*
X1110474Y737886D01*
X1108066Y737886D01*
X1108066Y740570D02*
X1110474Y740570D01*
X1110474Y743254D02*
X1108066Y743254D01*
X1101566Y744694D02*
X1101566Y737886D01*
X1101566Y744694D02*
X1103974Y744694D01*
X1103974Y737886D01*
X1101566Y737886D01*
X1101566Y740570D02*
X1103974Y740570D01*
X1103974Y743254D02*
X1101566Y743254D01*
X1101566Y714994D02*
X1101566Y708186D01*
X1101566Y714994D02*
X1103974Y714994D01*
X1103974Y708186D01*
X1101566Y708186D01*
X1101566Y710870D02*
X1103974Y710870D01*
X1103974Y713554D02*
X1101566Y713554D01*
X1108066Y714994D02*
X1108066Y708186D01*
X1108066Y714994D02*
X1110474Y714994D01*
X1110474Y708186D01*
X1108066Y708186D01*
X1108066Y710870D02*
X1110474Y710870D01*
X1110474Y713554D02*
X1108066Y713554D01*
X1114566Y714994D02*
X1114566Y708186D01*
X1114566Y714994D02*
X1116974Y714994D01*
X1116974Y708186D01*
X1114566Y708186D01*
X1114566Y710870D02*
X1116974Y710870D01*
X1116974Y713554D02*
X1114566Y713554D01*
X1121066Y714994D02*
X1121066Y708186D01*
X1121066Y714994D02*
X1123474Y714994D01*
X1123474Y708186D01*
X1121066Y708186D01*
X1121066Y710870D02*
X1123474Y710870D01*
X1123474Y713554D02*
X1121066Y713554D01*
D20*
X1112520Y726440D03*
D19*
X1074076Y737886D02*
X1074076Y744694D01*
X1076484Y744694D01*
X1076484Y737886D01*
X1074076Y737886D01*
X1074076Y740570D02*
X1076484Y740570D01*
X1076484Y743254D02*
X1074076Y743254D01*
X1067576Y744694D02*
X1067576Y737886D01*
X1067576Y744694D02*
X1069984Y744694D01*
X1069984Y737886D01*
X1067576Y737886D01*
X1067576Y740570D02*
X1069984Y740570D01*
X1069984Y743254D02*
X1067576Y743254D01*
X1061076Y744694D02*
X1061076Y737886D01*
X1061076Y744694D02*
X1063484Y744694D01*
X1063484Y737886D01*
X1061076Y737886D01*
X1061076Y740570D02*
X1063484Y740570D01*
X1063484Y743254D02*
X1061076Y743254D01*
X1054576Y744694D02*
X1054576Y737886D01*
X1054576Y744694D02*
X1056984Y744694D01*
X1056984Y737886D01*
X1054576Y737886D01*
X1054576Y740570D02*
X1056984Y740570D01*
X1056984Y743254D02*
X1054576Y743254D01*
X1054576Y714994D02*
X1054576Y708186D01*
X1054576Y714994D02*
X1056984Y714994D01*
X1056984Y708186D01*
X1054576Y708186D01*
X1054576Y710870D02*
X1056984Y710870D01*
X1056984Y713554D02*
X1054576Y713554D01*
X1061076Y714994D02*
X1061076Y708186D01*
X1061076Y714994D02*
X1063484Y714994D01*
X1063484Y708186D01*
X1061076Y708186D01*
X1061076Y710870D02*
X1063484Y710870D01*
X1063484Y713554D02*
X1061076Y713554D01*
X1067576Y714994D02*
X1067576Y708186D01*
X1067576Y714994D02*
X1069984Y714994D01*
X1069984Y708186D01*
X1067576Y708186D01*
X1067576Y710870D02*
X1069984Y710870D01*
X1069984Y713554D02*
X1067576Y713554D01*
X1074076Y714994D02*
X1074076Y708186D01*
X1074076Y714994D02*
X1076484Y714994D01*
X1076484Y708186D01*
X1074076Y708186D01*
X1074076Y710870D02*
X1076484Y710870D01*
X1076484Y713554D02*
X1074076Y713554D01*
D20*
X1065530Y726440D03*
D18*
X953279Y679159D02*
X935081Y679159D01*
X953279Y679159D02*
X953279Y674661D01*
X935081Y674661D01*
X935081Y679159D01*
X935081Y678018D02*
X953279Y678018D01*
X953279Y691859D02*
X935081Y691859D01*
X953279Y691859D02*
X953279Y687361D01*
X935081Y687361D01*
X935081Y691859D01*
X935081Y690718D02*
X953279Y690718D01*
X953279Y704559D02*
X935081Y704559D01*
X953279Y704559D02*
X953279Y700061D01*
X935081Y700061D01*
X935081Y704559D01*
X935081Y703418D02*
X953279Y703418D01*
X953279Y717259D02*
X935081Y717259D01*
X953279Y717259D02*
X953279Y712761D01*
X935081Y712761D01*
X935081Y717259D01*
X935081Y716118D02*
X953279Y716118D01*
X903879Y717259D02*
X885681Y717259D01*
X903879Y717259D02*
X903879Y712761D01*
X885681Y712761D01*
X885681Y717259D01*
X885681Y716118D02*
X903879Y716118D01*
X903879Y704559D02*
X885681Y704559D01*
X903879Y704559D02*
X903879Y700061D01*
X885681Y700061D01*
X885681Y704559D01*
X885681Y703418D02*
X903879Y703418D01*
X903879Y691859D02*
X885681Y691859D01*
X903879Y691859D02*
X903879Y687361D01*
X885681Y687361D01*
X885681Y691859D01*
X885681Y690718D02*
X903879Y690718D01*
X903879Y679159D02*
X885681Y679159D01*
X903879Y679159D02*
X903879Y674661D01*
X885681Y674661D01*
X885681Y679159D01*
X885681Y678018D02*
X903879Y678018D01*
X693059Y684821D02*
X674861Y684821D01*
X674861Y689319D01*
X693059Y689319D01*
X693059Y684821D01*
X693059Y688178D02*
X674861Y688178D01*
X674861Y672121D02*
X693059Y672121D01*
X674861Y672121D02*
X674861Y676619D01*
X693059Y676619D01*
X693059Y672121D01*
X693059Y675478D02*
X674861Y675478D01*
X674861Y659421D02*
X693059Y659421D01*
X674861Y659421D02*
X674861Y663919D01*
X693059Y663919D01*
X693059Y659421D01*
X693059Y662778D02*
X674861Y662778D01*
X674861Y646721D02*
X693059Y646721D01*
X674861Y646721D02*
X674861Y651219D01*
X693059Y651219D01*
X693059Y646721D01*
X693059Y650078D02*
X674861Y650078D01*
X724261Y646721D02*
X742459Y646721D01*
X724261Y646721D02*
X724261Y651219D01*
X742459Y651219D01*
X742459Y646721D01*
X742459Y650078D02*
X724261Y650078D01*
X724261Y659421D02*
X742459Y659421D01*
X724261Y659421D02*
X724261Y663919D01*
X742459Y663919D01*
X742459Y659421D01*
X742459Y662778D02*
X724261Y662778D01*
X724261Y672121D02*
X742459Y672121D01*
X724261Y672121D02*
X724261Y676619D01*
X742459Y676619D01*
X742459Y672121D01*
X742459Y675478D02*
X724261Y675478D01*
X724261Y684821D02*
X742459Y684821D01*
X724261Y684821D02*
X724261Y689319D01*
X742459Y689319D01*
X742459Y684821D01*
X742459Y688178D02*
X724261Y688178D01*
X818241Y649949D02*
X836439Y649949D01*
X836439Y645451D01*
X818241Y645451D01*
X818241Y649949D01*
X818241Y648808D02*
X836439Y648808D01*
X836439Y662649D02*
X818241Y662649D01*
X836439Y662649D02*
X836439Y658151D01*
X818241Y658151D01*
X818241Y662649D01*
X818241Y661508D02*
X836439Y661508D01*
X836439Y675349D02*
X818241Y675349D01*
X836439Y675349D02*
X836439Y670851D01*
X818241Y670851D01*
X818241Y675349D01*
X818241Y674208D02*
X836439Y674208D01*
X836439Y688049D02*
X818241Y688049D01*
X836439Y688049D02*
X836439Y683551D01*
X818241Y683551D01*
X818241Y688049D01*
X818241Y686908D02*
X836439Y686908D01*
X787039Y688049D02*
X768841Y688049D01*
X787039Y688049D02*
X787039Y683551D01*
X768841Y683551D01*
X768841Y688049D01*
X768841Y686908D02*
X787039Y686908D01*
X787039Y675349D02*
X768841Y675349D01*
X787039Y675349D02*
X787039Y670851D01*
X768841Y670851D01*
X768841Y675349D01*
X768841Y674208D02*
X787039Y674208D01*
X787039Y662649D02*
X768841Y662649D01*
X787039Y662649D02*
X787039Y658151D01*
X768841Y658151D01*
X768841Y662649D01*
X768841Y661508D02*
X787039Y661508D01*
X787039Y649949D02*
X768841Y649949D01*
X787039Y649949D02*
X787039Y645451D01*
X768841Y645451D01*
X768841Y649949D01*
X768841Y648808D02*
X787039Y648808D01*
X853931Y607351D02*
X872129Y607351D01*
X853931Y607351D02*
X853931Y611849D01*
X872129Y611849D01*
X872129Y607351D01*
X872129Y610708D02*
X853931Y610708D01*
X853931Y594651D02*
X872129Y594651D01*
X853931Y594651D02*
X853931Y599149D01*
X872129Y599149D01*
X872129Y594651D01*
X872129Y598008D02*
X853931Y598008D01*
X853931Y581951D02*
X872129Y581951D01*
X853931Y581951D02*
X853931Y586449D01*
X872129Y586449D01*
X872129Y581951D01*
X872129Y585308D02*
X853931Y585308D01*
X853931Y569251D02*
X872129Y569251D01*
X853931Y569251D02*
X853931Y573749D01*
X872129Y573749D01*
X872129Y569251D01*
X872129Y572608D02*
X853931Y572608D01*
X903331Y569251D02*
X921529Y569251D01*
X903331Y569251D02*
X903331Y573749D01*
X921529Y573749D01*
X921529Y569251D01*
X921529Y572608D02*
X903331Y572608D01*
X903331Y581951D02*
X921529Y581951D01*
X903331Y581951D02*
X903331Y586449D01*
X921529Y586449D01*
X921529Y581951D01*
X921529Y585308D02*
X903331Y585308D01*
X903331Y594651D02*
X921529Y594651D01*
X903331Y594651D02*
X903331Y599149D01*
X921529Y599149D01*
X921529Y594651D01*
X921529Y598008D02*
X903331Y598008D01*
X903331Y607351D02*
X921529Y607351D01*
X903331Y607351D02*
X903331Y611849D01*
X921529Y611849D01*
X921529Y607351D01*
X921529Y610708D02*
X903331Y610708D01*
D21*
X530860Y612140D03*
X530860Y666750D03*
D10*
X777240Y843430D03*
X777240Y830430D03*
D11*
X1069190Y911860D03*
X1082190Y911860D03*
D10*
X514350Y885040D03*
X514350Y898040D03*
D11*
X557380Y805180D03*
X570380Y805180D03*
D12*
X698500Y795020D03*
X657860Y795020D03*
D13*
X886460Y911860D03*
X886460Y871220D03*
X863600Y871220D03*
X863600Y911860D03*
X840740Y915670D03*
X840740Y875030D03*
X640080Y787400D03*
X640080Y828040D03*
D12*
X657860Y820420D03*
X698500Y820420D03*
X633730Y764540D03*
X674370Y764540D03*
D13*
X803910Y787400D03*
X803910Y828040D03*
X971550Y862330D03*
X971550Y902970D03*
X942340Y906780D03*
X942340Y866140D03*
X915670Y862330D03*
X915670Y902970D03*
D14*
X1007190Y812800D03*
X1017190Y812800D03*
X1011000Y836930D03*
X1021000Y836930D03*
D15*
X612140Y795100D03*
X612140Y805100D03*
D14*
X824150Y778510D03*
X814150Y778510D03*
D15*
X821690Y895270D03*
X821690Y885270D03*
D14*
X744300Y929640D03*
X754300Y929640D03*
X731600Y942340D03*
X741600Y942340D03*
D15*
X728980Y925750D03*
X728980Y915750D03*
D14*
X849550Y864870D03*
X839550Y864870D03*
D15*
X760730Y839390D03*
X760730Y829390D03*
X501650Y886540D03*
X501650Y896540D03*
D14*
X873680Y858520D03*
X863680Y858520D03*
X1011000Y910590D03*
X1021000Y910590D03*
X1021000Y896620D03*
X1011000Y896620D03*
X903050Y914400D03*
X913050Y914400D03*
D15*
X590550Y816690D03*
X590550Y826690D03*
X998220Y848280D03*
X998220Y838280D03*
D14*
X731440Y822960D03*
X721440Y822960D03*
X831930Y853440D03*
X841930Y853440D03*
X1017190Y825500D03*
X1007190Y825500D03*
D16*
X695960Y922020D03*
D17*
X670560Y922020D03*
X645160Y922020D03*
X619760Y922020D03*
X594360Y922020D03*
X568960Y922020D03*
X543560Y922020D03*
X543560Y845820D03*
X568960Y845820D03*
X594360Y845820D03*
X619760Y845820D03*
X645160Y845820D03*
X670560Y845820D03*
X695960Y845820D03*
D18*
X1086351Y801079D02*
X1100649Y801079D01*
X1100649Y796581D01*
X1086351Y796581D01*
X1086351Y801079D01*
X1086351Y799938D02*
X1100649Y799938D01*
X1100649Y813779D02*
X1086351Y813779D01*
X1100649Y813779D02*
X1100649Y809281D01*
X1086351Y809281D01*
X1086351Y813779D01*
X1086351Y812638D02*
X1100649Y812638D01*
X1100649Y826479D02*
X1086351Y826479D01*
X1100649Y826479D02*
X1100649Y821981D01*
X1086351Y821981D01*
X1086351Y826479D01*
X1086351Y825338D02*
X1100649Y825338D01*
X1100649Y839179D02*
X1086351Y839179D01*
X1100649Y839179D02*
X1100649Y834681D01*
X1086351Y834681D01*
X1086351Y839179D01*
X1086351Y838038D02*
X1100649Y838038D01*
X1047249Y839179D02*
X1032951Y839179D01*
X1047249Y839179D02*
X1047249Y834681D01*
X1032951Y834681D01*
X1032951Y839179D01*
X1032951Y838038D02*
X1047249Y838038D01*
X1047249Y826479D02*
X1032951Y826479D01*
X1047249Y826479D02*
X1047249Y821981D01*
X1032951Y821981D01*
X1032951Y826479D01*
X1032951Y825338D02*
X1047249Y825338D01*
X1047249Y813779D02*
X1032951Y813779D01*
X1047249Y813779D02*
X1047249Y809281D01*
X1032951Y809281D01*
X1032951Y813779D01*
X1032951Y812638D02*
X1047249Y812638D01*
X1047249Y801079D02*
X1032951Y801079D01*
X1047249Y801079D02*
X1047249Y796581D01*
X1032951Y796581D01*
X1032951Y801079D01*
X1032951Y799938D02*
X1047249Y799938D01*
X1086351Y859499D02*
X1100649Y859499D01*
X1100649Y855001D01*
X1086351Y855001D01*
X1086351Y859499D01*
X1086351Y858358D02*
X1100649Y858358D01*
X1100649Y872199D02*
X1086351Y872199D01*
X1100649Y872199D02*
X1100649Y867701D01*
X1086351Y867701D01*
X1086351Y872199D01*
X1086351Y871058D02*
X1100649Y871058D01*
X1100649Y884899D02*
X1086351Y884899D01*
X1100649Y884899D02*
X1100649Y880401D01*
X1086351Y880401D01*
X1086351Y884899D01*
X1086351Y883758D02*
X1100649Y883758D01*
X1100649Y897599D02*
X1086351Y897599D01*
X1100649Y897599D02*
X1100649Y893101D01*
X1086351Y893101D01*
X1086351Y897599D01*
X1086351Y896458D02*
X1100649Y896458D01*
X1047249Y897599D02*
X1032951Y897599D01*
X1047249Y897599D02*
X1047249Y893101D01*
X1032951Y893101D01*
X1032951Y897599D01*
X1032951Y896458D02*
X1047249Y896458D01*
X1047249Y884899D02*
X1032951Y884899D01*
X1047249Y884899D02*
X1047249Y880401D01*
X1032951Y880401D01*
X1032951Y884899D01*
X1032951Y883758D02*
X1047249Y883758D01*
X1047249Y872199D02*
X1032951Y872199D01*
X1047249Y872199D02*
X1047249Y867701D01*
X1032951Y867701D01*
X1032951Y872199D01*
X1032951Y871058D02*
X1047249Y871058D01*
X1047249Y859499D02*
X1032951Y859499D01*
X1047249Y859499D02*
X1047249Y855001D01*
X1032951Y855001D01*
X1032951Y859499D01*
X1032951Y858358D02*
X1047249Y858358D01*
D19*
X542634Y748014D02*
X542634Y741206D01*
X540226Y741206D01*
X540226Y748014D01*
X542634Y748014D01*
X542634Y743890D02*
X540226Y743890D01*
X540226Y746574D02*
X542634Y746574D01*
X549134Y748014D02*
X549134Y741206D01*
X546726Y741206D01*
X546726Y748014D01*
X549134Y748014D01*
X549134Y743890D02*
X546726Y743890D01*
X546726Y746574D02*
X549134Y746574D01*
X555634Y748014D02*
X555634Y741206D01*
X553226Y741206D01*
X553226Y748014D01*
X555634Y748014D01*
X555634Y743890D02*
X553226Y743890D01*
X553226Y746574D02*
X555634Y746574D01*
X562134Y748014D02*
X562134Y741206D01*
X559726Y741206D01*
X559726Y748014D01*
X562134Y748014D01*
X562134Y743890D02*
X559726Y743890D01*
X559726Y746574D02*
X562134Y746574D01*
X562134Y770906D02*
X562134Y777714D01*
X562134Y770906D02*
X559726Y770906D01*
X559726Y777714D01*
X562134Y777714D01*
X562134Y773590D02*
X559726Y773590D01*
X559726Y776274D02*
X562134Y776274D01*
X555634Y777714D02*
X555634Y770906D01*
X553226Y770906D01*
X553226Y777714D01*
X555634Y777714D01*
X555634Y773590D02*
X553226Y773590D01*
X553226Y776274D02*
X555634Y776274D01*
X549134Y777714D02*
X549134Y770906D01*
X546726Y770906D01*
X546726Y777714D01*
X549134Y777714D01*
X549134Y773590D02*
X546726Y773590D01*
X546726Y776274D02*
X549134Y776274D01*
X542634Y777714D02*
X542634Y770906D01*
X540226Y770906D01*
X540226Y777714D01*
X542634Y777714D01*
X542634Y773590D02*
X540226Y773590D01*
X540226Y776274D02*
X542634Y776274D01*
D20*
X551180Y759460D03*
D19*
X589624Y748014D02*
X589624Y741206D01*
X587216Y741206D01*
X587216Y748014D01*
X589624Y748014D01*
X589624Y743890D02*
X587216Y743890D01*
X587216Y746574D02*
X589624Y746574D01*
X596124Y748014D02*
X596124Y741206D01*
X593716Y741206D01*
X593716Y748014D01*
X596124Y748014D01*
X596124Y743890D02*
X593716Y743890D01*
X593716Y746574D02*
X596124Y746574D01*
X602624Y748014D02*
X602624Y741206D01*
X600216Y741206D01*
X600216Y748014D01*
X602624Y748014D01*
X602624Y743890D02*
X600216Y743890D01*
X600216Y746574D02*
X602624Y746574D01*
X609124Y748014D02*
X609124Y741206D01*
X606716Y741206D01*
X606716Y748014D01*
X609124Y748014D01*
X609124Y743890D02*
X606716Y743890D01*
X606716Y746574D02*
X609124Y746574D01*
X609124Y770906D02*
X609124Y777714D01*
X609124Y770906D02*
X606716Y770906D01*
X606716Y777714D01*
X609124Y777714D01*
X609124Y773590D02*
X606716Y773590D01*
X606716Y776274D02*
X609124Y776274D01*
X602624Y777714D02*
X602624Y770906D01*
X600216Y770906D01*
X600216Y777714D01*
X602624Y777714D01*
X602624Y773590D02*
X600216Y773590D01*
X600216Y776274D02*
X602624Y776274D01*
X596124Y777714D02*
X596124Y770906D01*
X593716Y770906D01*
X593716Y777714D01*
X596124Y777714D01*
X596124Y773590D02*
X593716Y773590D01*
X593716Y776274D02*
X596124Y776274D01*
X589624Y777714D02*
X589624Y770906D01*
X587216Y770906D01*
X587216Y777714D01*
X589624Y777714D01*
X589624Y773590D02*
X587216Y773590D01*
X587216Y776274D02*
X589624Y776274D01*
D20*
X598170Y759460D03*
D18*
X710421Y806741D02*
X728619Y806741D01*
X710421Y806741D02*
X710421Y811239D01*
X728619Y811239D01*
X728619Y806741D01*
X728619Y810098D02*
X710421Y810098D01*
X710421Y794041D02*
X728619Y794041D01*
X710421Y794041D02*
X710421Y798539D01*
X728619Y798539D01*
X728619Y794041D01*
X728619Y797398D02*
X710421Y797398D01*
X710421Y781341D02*
X728619Y781341D01*
X710421Y781341D02*
X710421Y785839D01*
X728619Y785839D01*
X728619Y781341D01*
X728619Y784698D02*
X710421Y784698D01*
X710421Y768641D02*
X728619Y768641D01*
X710421Y768641D02*
X710421Y773139D01*
X728619Y773139D01*
X728619Y768641D01*
X728619Y771998D02*
X710421Y771998D01*
X759821Y768641D02*
X778019Y768641D01*
X759821Y768641D02*
X759821Y773139D01*
X778019Y773139D01*
X778019Y768641D01*
X778019Y771998D02*
X759821Y771998D01*
X759821Y781341D02*
X778019Y781341D01*
X759821Y781341D02*
X759821Y785839D01*
X778019Y785839D01*
X778019Y781341D01*
X778019Y784698D02*
X759821Y784698D01*
X759821Y794041D02*
X778019Y794041D01*
X759821Y794041D02*
X759821Y798539D01*
X778019Y798539D01*
X778019Y794041D01*
X778019Y797398D02*
X759821Y797398D01*
X759821Y806741D02*
X778019Y806741D01*
X759821Y806741D02*
X759821Y811239D01*
X778019Y811239D01*
X778019Y806741D01*
X778019Y810098D02*
X759821Y810098D01*
X970641Y801079D02*
X988839Y801079D01*
X988839Y796581D01*
X970641Y796581D01*
X970641Y801079D01*
X970641Y799938D02*
X988839Y799938D01*
X988839Y813779D02*
X970641Y813779D01*
X988839Y813779D02*
X988839Y809281D01*
X970641Y809281D01*
X970641Y813779D01*
X970641Y812638D02*
X988839Y812638D01*
X988839Y826479D02*
X970641Y826479D01*
X988839Y826479D02*
X988839Y821981D01*
X970641Y821981D01*
X970641Y826479D01*
X970641Y825338D02*
X988839Y825338D01*
X988839Y839179D02*
X970641Y839179D01*
X988839Y839179D02*
X988839Y834681D01*
X970641Y834681D01*
X970641Y839179D01*
X970641Y838038D02*
X988839Y838038D01*
X939439Y839179D02*
X921241Y839179D01*
X939439Y839179D02*
X939439Y834681D01*
X921241Y834681D01*
X921241Y839179D01*
X921241Y838038D02*
X939439Y838038D01*
X939439Y826479D02*
X921241Y826479D01*
X939439Y826479D02*
X939439Y821981D01*
X921241Y821981D01*
X921241Y826479D01*
X921241Y825338D02*
X939439Y825338D01*
X939439Y813779D02*
X921241Y813779D01*
X939439Y813779D02*
X939439Y809281D01*
X921241Y809281D01*
X921241Y813779D01*
X921241Y812638D02*
X939439Y812638D01*
X939439Y801079D02*
X921241Y801079D01*
X939439Y801079D02*
X939439Y796581D01*
X921241Y796581D01*
X921241Y801079D01*
X921241Y799938D02*
X939439Y799938D01*
X845459Y835951D02*
X827261Y835951D01*
X827261Y840449D01*
X845459Y840449D01*
X845459Y835951D01*
X845459Y839308D02*
X827261Y839308D01*
X827261Y823251D02*
X845459Y823251D01*
X827261Y823251D02*
X827261Y827749D01*
X845459Y827749D01*
X845459Y823251D01*
X845459Y826608D02*
X827261Y826608D01*
X827261Y810551D02*
X845459Y810551D01*
X827261Y810551D02*
X827261Y815049D01*
X845459Y815049D01*
X845459Y810551D01*
X845459Y813908D02*
X827261Y813908D01*
X827261Y797851D02*
X845459Y797851D01*
X827261Y797851D02*
X827261Y802349D01*
X845459Y802349D01*
X845459Y797851D01*
X845459Y801208D02*
X827261Y801208D01*
X876661Y797851D02*
X894859Y797851D01*
X876661Y797851D02*
X876661Y802349D01*
X894859Y802349D01*
X894859Y797851D01*
X894859Y801208D02*
X876661Y801208D01*
X876661Y810551D02*
X894859Y810551D01*
X876661Y810551D02*
X876661Y815049D01*
X894859Y815049D01*
X894859Y810551D01*
X894859Y813908D02*
X876661Y813908D01*
X876661Y823251D02*
X894859Y823251D01*
X876661Y823251D02*
X876661Y827749D01*
X894859Y827749D01*
X894859Y823251D01*
X894859Y826608D02*
X876661Y826608D01*
X876661Y835951D02*
X894859Y835951D01*
X876661Y835951D02*
X876661Y840449D01*
X894859Y840449D01*
X894859Y835951D01*
X894859Y839308D02*
X876661Y839308D01*
X809769Y878549D02*
X791571Y878549D01*
X809769Y878549D02*
X809769Y874051D01*
X791571Y874051D01*
X791571Y878549D01*
X791571Y877408D02*
X809769Y877408D01*
X809769Y891249D02*
X791571Y891249D01*
X809769Y891249D02*
X809769Y886751D01*
X791571Y886751D01*
X791571Y891249D01*
X791571Y890108D02*
X809769Y890108D01*
X809769Y903949D02*
X791571Y903949D01*
X809769Y903949D02*
X809769Y899451D01*
X791571Y899451D01*
X791571Y903949D01*
X791571Y902808D02*
X809769Y902808D01*
X809769Y916649D02*
X791571Y916649D01*
X809769Y916649D02*
X809769Y912151D01*
X791571Y912151D01*
X791571Y916649D01*
X791571Y915508D02*
X809769Y915508D01*
X760369Y916649D02*
X742171Y916649D01*
X760369Y916649D02*
X760369Y912151D01*
X742171Y912151D01*
X742171Y916649D01*
X742171Y915508D02*
X760369Y915508D01*
X760369Y903949D02*
X742171Y903949D01*
X760369Y903949D02*
X760369Y899451D01*
X742171Y899451D01*
X742171Y903949D01*
X742171Y902808D02*
X760369Y902808D01*
X760369Y891249D02*
X742171Y891249D01*
X760369Y891249D02*
X760369Y886751D01*
X742171Y886751D01*
X742171Y891249D01*
X742171Y890108D02*
X760369Y890108D01*
X760369Y878549D02*
X742171Y878549D01*
X760369Y878549D02*
X760369Y874051D01*
X742171Y874051D01*
X742171Y878549D01*
X742171Y877408D02*
X760369Y877408D01*
D21*
X1132840Y873760D03*
X1132840Y819150D03*
D10*
X179070Y514200D03*
X179070Y527200D03*
X193040Y514200D03*
X193040Y527200D03*
D15*
X294640Y511890D03*
X294640Y521890D03*
X190500Y554910D03*
X190500Y544910D03*
X172720Y563800D03*
X172720Y553800D03*
X279400Y514430D03*
X279400Y524430D03*
X265430Y514430D03*
X265430Y524430D03*
D14*
X181690Y458470D03*
X191690Y458470D03*
D15*
X139700Y538560D03*
X139700Y548560D03*
X139700Y445690D03*
X139700Y435690D03*
D14*
X126920Y422910D03*
X116920Y422910D03*
X191690Y435610D03*
X181690Y435610D03*
D15*
X127000Y435690D03*
X127000Y445690D03*
D18*
X245401Y514851D02*
X245401Y529149D01*
X249899Y529149D01*
X249899Y514851D01*
X245401Y514851D01*
X245401Y518208D02*
X249899Y518208D01*
X249899Y521565D02*
X245401Y521565D01*
X245401Y524922D02*
X249899Y524922D01*
X249899Y528279D02*
X245401Y528279D01*
X232701Y529149D02*
X232701Y514851D01*
X232701Y529149D02*
X237199Y529149D01*
X237199Y514851D01*
X232701Y514851D01*
X232701Y518208D02*
X237199Y518208D01*
X237199Y521565D02*
X232701Y521565D01*
X232701Y524922D02*
X237199Y524922D01*
X237199Y528279D02*
X232701Y528279D01*
X220001Y529149D02*
X220001Y514851D01*
X220001Y529149D02*
X224499Y529149D01*
X224499Y514851D01*
X220001Y514851D01*
X220001Y518208D02*
X224499Y518208D01*
X224499Y521565D02*
X220001Y521565D01*
X220001Y524922D02*
X224499Y524922D01*
X224499Y528279D02*
X220001Y528279D01*
X207301Y529149D02*
X207301Y514851D01*
X207301Y529149D02*
X211799Y529149D01*
X211799Y514851D01*
X207301Y514851D01*
X207301Y518208D02*
X211799Y518208D01*
X211799Y521565D02*
X207301Y521565D01*
X207301Y524922D02*
X211799Y524922D01*
X211799Y528279D02*
X207301Y528279D01*
X207301Y475749D02*
X207301Y461451D01*
X207301Y475749D02*
X211799Y475749D01*
X211799Y461451D01*
X207301Y461451D01*
X207301Y464808D02*
X211799Y464808D01*
X211799Y468165D02*
X207301Y468165D01*
X207301Y471522D02*
X211799Y471522D01*
X211799Y474879D02*
X207301Y474879D01*
X220001Y475749D02*
X220001Y461451D01*
X220001Y475749D02*
X224499Y475749D01*
X224499Y461451D01*
X220001Y461451D01*
X220001Y464808D02*
X224499Y464808D01*
X224499Y468165D02*
X220001Y468165D01*
X220001Y471522D02*
X224499Y471522D01*
X224499Y474879D02*
X220001Y474879D01*
X232701Y475749D02*
X232701Y461451D01*
X232701Y475749D02*
X237199Y475749D01*
X237199Y461451D01*
X232701Y461451D01*
X232701Y464808D02*
X237199Y464808D01*
X237199Y468165D02*
X232701Y468165D01*
X232701Y471522D02*
X237199Y471522D01*
X237199Y474879D02*
X232701Y474879D01*
X245401Y475749D02*
X245401Y461451D01*
X245401Y475749D02*
X249899Y475749D01*
X249899Y461451D01*
X245401Y461451D01*
X245401Y464808D02*
X249899Y464808D01*
X249899Y468165D02*
X245401Y468165D01*
X245401Y471522D02*
X249899Y471522D01*
X249899Y474879D02*
X245401Y474879D01*
X129249Y479699D02*
X129249Y461501D01*
X124751Y461501D01*
X124751Y479699D01*
X129249Y479699D01*
X129249Y464858D02*
X124751Y464858D01*
X124751Y468215D02*
X129249Y468215D01*
X129249Y471572D02*
X124751Y471572D01*
X124751Y474929D02*
X129249Y474929D01*
X129249Y478286D02*
X124751Y478286D01*
X141949Y479699D02*
X141949Y461501D01*
X137451Y461501D01*
X137451Y479699D01*
X141949Y479699D01*
X141949Y464858D02*
X137451Y464858D01*
X137451Y468215D02*
X141949Y468215D01*
X141949Y471572D02*
X137451Y471572D01*
X137451Y474929D02*
X141949Y474929D01*
X141949Y478286D02*
X137451Y478286D01*
X154649Y479699D02*
X154649Y461501D01*
X150151Y461501D01*
X150151Y479699D01*
X154649Y479699D01*
X154649Y464858D02*
X150151Y464858D01*
X150151Y468215D02*
X154649Y468215D01*
X154649Y471572D02*
X150151Y471572D01*
X150151Y474929D02*
X154649Y474929D01*
X154649Y478286D02*
X150151Y478286D01*
X167349Y479699D02*
X167349Y461501D01*
X162851Y461501D01*
X162851Y479699D01*
X167349Y479699D01*
X167349Y464858D02*
X162851Y464858D01*
X162851Y468215D02*
X167349Y468215D01*
X167349Y471572D02*
X162851Y471572D01*
X162851Y474929D02*
X167349Y474929D01*
X167349Y478286D02*
X162851Y478286D01*
X167349Y510901D02*
X167349Y529099D01*
X167349Y510901D02*
X162851Y510901D01*
X162851Y529099D01*
X167349Y529099D01*
X167349Y514258D02*
X162851Y514258D01*
X162851Y517615D02*
X167349Y517615D01*
X167349Y520972D02*
X162851Y520972D01*
X162851Y524329D02*
X167349Y524329D01*
X167349Y527686D02*
X162851Y527686D01*
X154649Y529099D02*
X154649Y510901D01*
X150151Y510901D01*
X150151Y529099D01*
X154649Y529099D01*
X154649Y514258D02*
X150151Y514258D01*
X150151Y517615D02*
X154649Y517615D01*
X154649Y520972D02*
X150151Y520972D01*
X150151Y524329D02*
X154649Y524329D01*
X154649Y527686D02*
X150151Y527686D01*
X141949Y529099D02*
X141949Y510901D01*
X137451Y510901D01*
X137451Y529099D01*
X141949Y529099D01*
X141949Y514258D02*
X137451Y514258D01*
X137451Y517615D02*
X141949Y517615D01*
X141949Y520972D02*
X137451Y520972D01*
X137451Y524329D02*
X141949Y524329D01*
X141949Y527686D02*
X137451Y527686D01*
X129249Y529099D02*
X129249Y510901D01*
X124751Y510901D01*
X124751Y529099D01*
X129249Y529099D01*
X129249Y514258D02*
X124751Y514258D01*
X124751Y517615D02*
X129249Y517615D01*
X129249Y520972D02*
X124751Y520972D01*
X124751Y524329D02*
X129249Y524329D01*
X129249Y527686D02*
X124751Y527686D01*
D10*
X279400Y578000D03*
X279400Y565000D03*
X336550Y872640D03*
X336550Y859640D03*
X294640Y874880D03*
X294640Y887880D03*
X271780Y912010D03*
X271780Y899010D03*
X251460Y897740D03*
X251460Y910740D03*
X223520Y912010D03*
X223520Y899010D03*
X203200Y900280D03*
X203200Y913280D03*
X163830Y865990D03*
X163830Y878990D03*
D11*
X130960Y844550D03*
X117960Y844550D03*
X138580Y699770D03*
X125580Y699770D03*
D10*
X158750Y683410D03*
X158750Y670410D03*
D11*
X193190Y629920D03*
X180190Y629920D03*
D10*
X212090Y640230D03*
X212090Y627230D03*
X259080Y631340D03*
X259080Y618340D03*
X275590Y638660D03*
X275590Y651660D03*
X317500Y658010D03*
X317500Y645010D03*
X330200Y675490D03*
X330200Y688490D03*
D11*
X286870Y906780D03*
X299870Y906780D03*
X242420Y930910D03*
X255420Y930910D03*
D10*
X179070Y892660D03*
X179070Y905660D03*
D11*
X130960Y819150D03*
X117960Y819150D03*
X110640Y787400D03*
X97640Y787400D03*
X133500Y730250D03*
X120500Y730250D03*
D10*
X177800Y659280D03*
X177800Y646280D03*
X234950Y630070D03*
X234950Y617070D03*
D11*
X289410Y641350D03*
X302410Y641350D03*
X370690Y720090D03*
X383690Y720090D03*
X350370Y736600D03*
X363370Y736600D03*
X365610Y749300D03*
X378610Y749300D03*
X345290Y768350D03*
X358290Y768350D03*
X355450Y788670D03*
X368450Y788670D03*
X355450Y801370D03*
X368450Y801370D03*
X351640Y828040D03*
X364640Y828040D03*
X351640Y840740D03*
X364640Y840740D03*
D22*
X299741Y848230D02*
X299741Y863708D01*
X302859Y863708D01*
X302859Y848230D01*
X299741Y848230D01*
X299741Y852156D02*
X302859Y852156D01*
X302859Y856082D02*
X299741Y856082D01*
X299741Y860008D02*
X302859Y860008D01*
X291741Y863708D02*
X291741Y848230D01*
X291741Y863708D02*
X294859Y863708D01*
X294859Y848230D01*
X291741Y848230D01*
X291741Y852156D02*
X294859Y852156D01*
X294859Y856082D02*
X291741Y856082D01*
X291741Y860008D02*
X294859Y860008D01*
X283741Y863708D02*
X283741Y848230D01*
X283741Y863708D02*
X286859Y863708D01*
X286859Y848230D01*
X283741Y848230D01*
X283741Y852156D02*
X286859Y852156D01*
X286859Y856082D02*
X283741Y856082D01*
X283741Y860008D02*
X286859Y860008D01*
X275741Y863708D02*
X275741Y848230D01*
X275741Y863708D02*
X278859Y863708D01*
X278859Y848230D01*
X275741Y848230D01*
X275741Y852156D02*
X278859Y852156D01*
X278859Y856082D02*
X275741Y856082D01*
X275741Y860008D02*
X278859Y860008D01*
X267741Y863708D02*
X267741Y848230D01*
X267741Y863708D02*
X270859Y863708D01*
X270859Y848230D01*
X267741Y848230D01*
X267741Y852156D02*
X270859Y852156D01*
X270859Y856082D02*
X267741Y856082D01*
X267741Y860008D02*
X270859Y860008D01*
X259741Y863708D02*
X259741Y848230D01*
X259741Y863708D02*
X262859Y863708D01*
X262859Y848230D01*
X259741Y848230D01*
X259741Y852156D02*
X262859Y852156D01*
X262859Y856082D02*
X259741Y856082D01*
X259741Y860008D02*
X262859Y860008D01*
X251741Y863708D02*
X251741Y848230D01*
X251741Y863708D02*
X254859Y863708D01*
X254859Y848230D01*
X251741Y848230D01*
X251741Y852156D02*
X254859Y852156D01*
X254859Y856082D02*
X251741Y856082D01*
X251741Y860008D02*
X254859Y860008D01*
X243741Y863708D02*
X243741Y848230D01*
X243741Y863708D02*
X246859Y863708D01*
X246859Y848230D01*
X243741Y848230D01*
X243741Y852156D02*
X246859Y852156D01*
X246859Y856082D02*
X243741Y856082D01*
X243741Y860008D02*
X246859Y860008D01*
X235741Y863708D02*
X235741Y848230D01*
X235741Y863708D02*
X238859Y863708D01*
X238859Y848230D01*
X235741Y848230D01*
X235741Y852156D02*
X238859Y852156D01*
X238859Y856082D02*
X235741Y856082D01*
X235741Y860008D02*
X238859Y860008D01*
X227741Y863708D02*
X227741Y848230D01*
X227741Y863708D02*
X230859Y863708D01*
X230859Y848230D01*
X227741Y848230D01*
X227741Y852156D02*
X230859Y852156D01*
X230859Y856082D02*
X227741Y856082D01*
X227741Y860008D02*
X230859Y860008D01*
X219741Y863708D02*
X219741Y848230D01*
X219741Y863708D02*
X222859Y863708D01*
X222859Y848230D01*
X219741Y848230D01*
X219741Y852156D02*
X222859Y852156D01*
X222859Y856082D02*
X219741Y856082D01*
X219741Y860008D02*
X222859Y860008D01*
X211741Y863708D02*
X211741Y848230D01*
X211741Y863708D02*
X214859Y863708D01*
X214859Y848230D01*
X211741Y848230D01*
X211741Y852156D02*
X214859Y852156D01*
X214859Y856082D02*
X211741Y856082D01*
X211741Y860008D02*
X214859Y860008D01*
X203741Y863708D02*
X203741Y848230D01*
X203741Y863708D02*
X206859Y863708D01*
X206859Y848230D01*
X203741Y848230D01*
X203741Y852156D02*
X206859Y852156D01*
X206859Y856082D02*
X203741Y856082D01*
X203741Y860008D02*
X206859Y860008D01*
X195741Y863708D02*
X195741Y848230D01*
X195741Y863708D02*
X198859Y863708D01*
X198859Y848230D01*
X195741Y848230D01*
X195741Y852156D02*
X198859Y852156D01*
X198859Y856082D02*
X195741Y856082D01*
X195741Y860008D02*
X198859Y860008D01*
X187741Y863708D02*
X187741Y848230D01*
X187741Y863708D02*
X190859Y863708D01*
X190859Y848230D01*
X187741Y848230D01*
X187741Y852156D02*
X190859Y852156D01*
X190859Y856082D02*
X187741Y856082D01*
X187741Y860008D02*
X190859Y860008D01*
X179741Y863708D02*
X179741Y848230D01*
X179741Y863708D02*
X182859Y863708D01*
X182859Y848230D01*
X179741Y848230D01*
X179741Y852156D02*
X182859Y852156D01*
X182859Y856082D02*
X179741Y856082D01*
X179741Y860008D02*
X182859Y860008D01*
X167770Y833141D02*
X152292Y833141D01*
X152292Y836259D01*
X167770Y836259D01*
X167770Y833141D01*
X167770Y825141D02*
X152292Y825141D01*
X152292Y828259D01*
X167770Y828259D01*
X167770Y825141D01*
X167770Y817141D02*
X152292Y817141D01*
X152292Y820259D01*
X167770Y820259D01*
X167770Y817141D01*
X167770Y809141D02*
X152292Y809141D01*
X152292Y812259D01*
X167770Y812259D01*
X167770Y809141D01*
X167770Y801141D02*
X152292Y801141D01*
X152292Y804259D01*
X167770Y804259D01*
X167770Y801141D01*
X167770Y793141D02*
X152292Y793141D01*
X152292Y796259D01*
X167770Y796259D01*
X167770Y793141D01*
X167770Y785141D02*
X152292Y785141D01*
X152292Y788259D01*
X167770Y788259D01*
X167770Y785141D01*
X167770Y777141D02*
X152292Y777141D01*
X152292Y780259D01*
X167770Y780259D01*
X167770Y777141D01*
X167770Y769141D02*
X152292Y769141D01*
X152292Y772259D01*
X167770Y772259D01*
X167770Y769141D01*
X167770Y761141D02*
X152292Y761141D01*
X152292Y764259D01*
X167770Y764259D01*
X167770Y761141D01*
X167770Y753141D02*
X152292Y753141D01*
X152292Y756259D01*
X167770Y756259D01*
X167770Y753141D01*
X167770Y745141D02*
X152292Y745141D01*
X152292Y748259D01*
X167770Y748259D01*
X167770Y745141D01*
X167770Y737141D02*
X152292Y737141D01*
X152292Y740259D01*
X167770Y740259D01*
X167770Y737141D01*
X167770Y729141D02*
X152292Y729141D01*
X152292Y732259D01*
X167770Y732259D01*
X167770Y729141D01*
X167770Y721141D02*
X152292Y721141D01*
X152292Y724259D01*
X167770Y724259D01*
X167770Y721141D01*
X167770Y713141D02*
X152292Y713141D01*
X152292Y716259D01*
X167770Y716259D01*
X167770Y713141D01*
X179741Y701170D02*
X179741Y685692D01*
X179741Y701170D02*
X182859Y701170D01*
X182859Y685692D01*
X179741Y685692D01*
X179741Y689618D02*
X182859Y689618D01*
X182859Y693544D02*
X179741Y693544D01*
X179741Y697470D02*
X182859Y697470D01*
X187741Y701170D02*
X187741Y685692D01*
X187741Y701170D02*
X190859Y701170D01*
X190859Y685692D01*
X187741Y685692D01*
X187741Y689618D02*
X190859Y689618D01*
X190859Y693544D02*
X187741Y693544D01*
X187741Y697470D02*
X190859Y697470D01*
X195741Y701170D02*
X195741Y685692D01*
X195741Y701170D02*
X198859Y701170D01*
X198859Y685692D01*
X195741Y685692D01*
X195741Y689618D02*
X198859Y689618D01*
X198859Y693544D02*
X195741Y693544D01*
X195741Y697470D02*
X198859Y697470D01*
X203741Y701170D02*
X203741Y685692D01*
X203741Y701170D02*
X206859Y701170D01*
X206859Y685692D01*
X203741Y685692D01*
X203741Y689618D02*
X206859Y689618D01*
X206859Y693544D02*
X203741Y693544D01*
X203741Y697470D02*
X206859Y697470D01*
X211741Y701170D02*
X211741Y685692D01*
X211741Y701170D02*
X214859Y701170D01*
X214859Y685692D01*
X211741Y685692D01*
X211741Y689618D02*
X214859Y689618D01*
X214859Y693544D02*
X211741Y693544D01*
X211741Y697470D02*
X214859Y697470D01*
X219741Y701170D02*
X219741Y685692D01*
X219741Y701170D02*
X222859Y701170D01*
X222859Y685692D01*
X219741Y685692D01*
X219741Y689618D02*
X222859Y689618D01*
X222859Y693544D02*
X219741Y693544D01*
X219741Y697470D02*
X222859Y697470D01*
X227741Y701170D02*
X227741Y685692D01*
X227741Y701170D02*
X230859Y701170D01*
X230859Y685692D01*
X227741Y685692D01*
X227741Y689618D02*
X230859Y689618D01*
X230859Y693544D02*
X227741Y693544D01*
X227741Y697470D02*
X230859Y697470D01*
X235741Y701170D02*
X235741Y685692D01*
X235741Y701170D02*
X238859Y701170D01*
X238859Y685692D01*
X235741Y685692D01*
X235741Y689618D02*
X238859Y689618D01*
X238859Y693544D02*
X235741Y693544D01*
X235741Y697470D02*
X238859Y697470D01*
X243741Y701170D02*
X243741Y685692D01*
X243741Y701170D02*
X246859Y701170D01*
X246859Y685692D01*
X243741Y685692D01*
X243741Y689618D02*
X246859Y689618D01*
X246859Y693544D02*
X243741Y693544D01*
X243741Y697470D02*
X246859Y697470D01*
X251741Y701170D02*
X251741Y685692D01*
X251741Y701170D02*
X254859Y701170D01*
X254859Y685692D01*
X251741Y685692D01*
X251741Y689618D02*
X254859Y689618D01*
X254859Y693544D02*
X251741Y693544D01*
X251741Y697470D02*
X254859Y697470D01*
X259741Y701170D02*
X259741Y685692D01*
X259741Y701170D02*
X262859Y701170D01*
X262859Y685692D01*
X259741Y685692D01*
X259741Y689618D02*
X262859Y689618D01*
X262859Y693544D02*
X259741Y693544D01*
X259741Y697470D02*
X262859Y697470D01*
X267741Y701170D02*
X267741Y685692D01*
X267741Y701170D02*
X270859Y701170D01*
X270859Y685692D01*
X267741Y685692D01*
X267741Y689618D02*
X270859Y689618D01*
X270859Y693544D02*
X267741Y693544D01*
X267741Y697470D02*
X270859Y697470D01*
X275741Y701170D02*
X275741Y685692D01*
X275741Y701170D02*
X278859Y701170D01*
X278859Y685692D01*
X275741Y685692D01*
X275741Y689618D02*
X278859Y689618D01*
X278859Y693544D02*
X275741Y693544D01*
X275741Y697470D02*
X278859Y697470D01*
X283741Y701170D02*
X283741Y685692D01*
X283741Y701170D02*
X286859Y701170D01*
X286859Y685692D01*
X283741Y685692D01*
X283741Y689618D02*
X286859Y689618D01*
X286859Y693544D02*
X283741Y693544D01*
X283741Y697470D02*
X286859Y697470D01*
X291741Y701170D02*
X291741Y685692D01*
X291741Y701170D02*
X294859Y701170D01*
X294859Y685692D01*
X291741Y685692D01*
X291741Y689618D02*
X294859Y689618D01*
X294859Y693544D02*
X291741Y693544D01*
X291741Y697470D02*
X294859Y697470D01*
X299741Y701170D02*
X299741Y685692D01*
X299741Y701170D02*
X302859Y701170D01*
X302859Y685692D01*
X299741Y685692D01*
X299741Y689618D02*
X302859Y689618D01*
X302859Y693544D02*
X299741Y693544D01*
X299741Y697470D02*
X302859Y697470D01*
X314830Y713141D02*
X330308Y713141D01*
X314830Y713141D02*
X314830Y716259D01*
X330308Y716259D01*
X330308Y713141D01*
X330308Y721141D02*
X314830Y721141D01*
X314830Y724259D01*
X330308Y724259D01*
X330308Y721141D01*
X330308Y729141D02*
X314830Y729141D01*
X314830Y732259D01*
X330308Y732259D01*
X330308Y729141D01*
X330308Y737141D02*
X314830Y737141D01*
X314830Y740259D01*
X330308Y740259D01*
X330308Y737141D01*
X330308Y745141D02*
X314830Y745141D01*
X314830Y748259D01*
X330308Y748259D01*
X330308Y745141D01*
X330308Y753141D02*
X314830Y753141D01*
X314830Y756259D01*
X330308Y756259D01*
X330308Y753141D01*
X330308Y761141D02*
X314830Y761141D01*
X314830Y764259D01*
X330308Y764259D01*
X330308Y761141D01*
X330308Y769141D02*
X314830Y769141D01*
X314830Y772259D01*
X330308Y772259D01*
X330308Y769141D01*
X330308Y777141D02*
X314830Y777141D01*
X314830Y780259D01*
X330308Y780259D01*
X330308Y777141D01*
X330308Y785141D02*
X314830Y785141D01*
X314830Y788259D01*
X330308Y788259D01*
X330308Y785141D01*
X330308Y793141D02*
X314830Y793141D01*
X314830Y796259D01*
X330308Y796259D01*
X330308Y793141D01*
X330308Y801141D02*
X314830Y801141D01*
X314830Y804259D01*
X330308Y804259D01*
X330308Y801141D01*
X330308Y809141D02*
X314830Y809141D01*
X314830Y812259D01*
X330308Y812259D01*
X330308Y809141D01*
X330308Y817141D02*
X314830Y817141D01*
X314830Y820259D01*
X330308Y820259D01*
X330308Y817141D01*
X330308Y825141D02*
X314830Y825141D01*
X314830Y828259D01*
X330308Y828259D01*
X330308Y825141D01*
X330308Y833141D02*
X314830Y833141D01*
X314830Y836259D01*
X330308Y836259D01*
X330308Y833141D01*
D10*
X443230Y971700D03*
X443230Y958700D03*
X429260Y971700D03*
X429260Y958700D03*
D15*
X327660Y974010D03*
X327660Y964010D03*
X431800Y930990D03*
X431800Y940990D03*
X449580Y922100D03*
X449580Y932100D03*
X342900Y971470D03*
X342900Y961470D03*
X356870Y971470D03*
X356870Y961470D03*
D14*
X440610Y1027430D03*
X430610Y1027430D03*
D15*
X482600Y947340D03*
X482600Y937340D03*
X482600Y1040210D03*
X482600Y1050210D03*
D14*
X495380Y1062990D03*
X505380Y1062990D03*
X430610Y1050290D03*
X440610Y1050290D03*
D15*
X495300Y1050210D03*
X495300Y1040210D03*
D18*
X376899Y971049D02*
X376899Y956751D01*
X372401Y956751D01*
X372401Y971049D01*
X376899Y971049D01*
X376899Y960108D02*
X372401Y960108D01*
X372401Y963465D02*
X376899Y963465D01*
X376899Y966822D02*
X372401Y966822D01*
X372401Y970179D02*
X376899Y970179D01*
X389599Y971049D02*
X389599Y956751D01*
X385101Y956751D01*
X385101Y971049D01*
X389599Y971049D01*
X389599Y960108D02*
X385101Y960108D01*
X385101Y963465D02*
X389599Y963465D01*
X389599Y966822D02*
X385101Y966822D01*
X385101Y970179D02*
X389599Y970179D01*
X402299Y971049D02*
X402299Y956751D01*
X397801Y956751D01*
X397801Y971049D01*
X402299Y971049D01*
X402299Y960108D02*
X397801Y960108D01*
X397801Y963465D02*
X402299Y963465D01*
X402299Y966822D02*
X397801Y966822D01*
X397801Y970179D02*
X402299Y970179D01*
X414999Y971049D02*
X414999Y956751D01*
X410501Y956751D01*
X410501Y971049D01*
X414999Y971049D01*
X414999Y960108D02*
X410501Y960108D01*
X410501Y963465D02*
X414999Y963465D01*
X414999Y966822D02*
X410501Y966822D01*
X410501Y970179D02*
X414999Y970179D01*
X414999Y1010151D02*
X414999Y1024449D01*
X414999Y1010151D02*
X410501Y1010151D01*
X410501Y1024449D01*
X414999Y1024449D01*
X414999Y1013508D02*
X410501Y1013508D01*
X410501Y1016865D02*
X414999Y1016865D01*
X414999Y1020222D02*
X410501Y1020222D01*
X410501Y1023579D02*
X414999Y1023579D01*
X402299Y1024449D02*
X402299Y1010151D01*
X397801Y1010151D01*
X397801Y1024449D01*
X402299Y1024449D01*
X402299Y1013508D02*
X397801Y1013508D01*
X397801Y1016865D02*
X402299Y1016865D01*
X402299Y1020222D02*
X397801Y1020222D01*
X397801Y1023579D02*
X402299Y1023579D01*
X389599Y1024449D02*
X389599Y1010151D01*
X385101Y1010151D01*
X385101Y1024449D01*
X389599Y1024449D01*
X389599Y1013508D02*
X385101Y1013508D01*
X385101Y1016865D02*
X389599Y1016865D01*
X389599Y1020222D02*
X385101Y1020222D01*
X385101Y1023579D02*
X389599Y1023579D01*
X376899Y1024449D02*
X376899Y1010151D01*
X372401Y1010151D01*
X372401Y1024449D01*
X376899Y1024449D01*
X376899Y1013508D02*
X372401Y1013508D01*
X372401Y1016865D02*
X376899Y1016865D01*
X376899Y1020222D02*
X372401Y1020222D01*
X372401Y1023579D02*
X376899Y1023579D01*
X493051Y1024399D02*
X493051Y1006201D01*
X493051Y1024399D02*
X497549Y1024399D01*
X497549Y1006201D01*
X493051Y1006201D01*
X493051Y1009558D02*
X497549Y1009558D01*
X497549Y1012915D02*
X493051Y1012915D01*
X493051Y1016272D02*
X497549Y1016272D01*
X497549Y1019629D02*
X493051Y1019629D01*
X493051Y1022986D02*
X497549Y1022986D01*
X480351Y1024399D02*
X480351Y1006201D01*
X480351Y1024399D02*
X484849Y1024399D01*
X484849Y1006201D01*
X480351Y1006201D01*
X480351Y1009558D02*
X484849Y1009558D01*
X484849Y1012915D02*
X480351Y1012915D01*
X480351Y1016272D02*
X484849Y1016272D01*
X484849Y1019629D02*
X480351Y1019629D01*
X480351Y1022986D02*
X484849Y1022986D01*
X467651Y1024399D02*
X467651Y1006201D01*
X467651Y1024399D02*
X472149Y1024399D01*
X472149Y1006201D01*
X467651Y1006201D01*
X467651Y1009558D02*
X472149Y1009558D01*
X472149Y1012915D02*
X467651Y1012915D01*
X467651Y1016272D02*
X472149Y1016272D01*
X472149Y1019629D02*
X467651Y1019629D01*
X467651Y1022986D02*
X472149Y1022986D01*
X454951Y1024399D02*
X454951Y1006201D01*
X454951Y1024399D02*
X459449Y1024399D01*
X459449Y1006201D01*
X454951Y1006201D01*
X454951Y1009558D02*
X459449Y1009558D01*
X459449Y1012915D02*
X454951Y1012915D01*
X454951Y1016272D02*
X459449Y1016272D01*
X459449Y1019629D02*
X454951Y1019629D01*
X454951Y1022986D02*
X459449Y1022986D01*
X454951Y974999D02*
X454951Y956801D01*
X454951Y974999D02*
X459449Y974999D01*
X459449Y956801D01*
X454951Y956801D01*
X454951Y960158D02*
X459449Y960158D01*
X459449Y963515D02*
X454951Y963515D01*
X454951Y966872D02*
X459449Y966872D01*
X459449Y970229D02*
X454951Y970229D01*
X454951Y973586D02*
X459449Y973586D01*
X467651Y974999D02*
X467651Y956801D01*
X467651Y974999D02*
X472149Y974999D01*
X472149Y956801D01*
X467651Y956801D01*
X467651Y960158D02*
X472149Y960158D01*
X472149Y963515D02*
X467651Y963515D01*
X467651Y966872D02*
X472149Y966872D01*
X472149Y970229D02*
X467651Y970229D01*
X467651Y973586D02*
X472149Y973586D01*
X480351Y974999D02*
X480351Y956801D01*
X480351Y974999D02*
X484849Y974999D01*
X484849Y956801D01*
X480351Y956801D01*
X480351Y960158D02*
X484849Y960158D01*
X484849Y963515D02*
X480351Y963515D01*
X480351Y966872D02*
X484849Y966872D01*
X484849Y970229D02*
X480351Y970229D01*
X480351Y973586D02*
X484849Y973586D01*
X493051Y974999D02*
X493051Y956801D01*
X493051Y974999D02*
X497549Y974999D01*
X497549Y956801D01*
X493051Y956801D01*
X493051Y960158D02*
X497549Y960158D01*
X497549Y963515D02*
X493051Y963515D01*
X493051Y966872D02*
X497549Y966872D01*
X497549Y970229D02*
X493051Y970229D01*
X493051Y973586D02*
X497549Y973586D01*
D10*
X342900Y907900D03*
X342900Y920900D03*
X76200Y212240D03*
X76200Y199240D03*
D15*
X113030Y352980D03*
X113030Y342980D03*
X62230Y352980D03*
X62230Y342980D03*
X87630Y328850D03*
X87630Y318850D03*
X101600Y327580D03*
X101600Y317580D03*
D14*
X76120Y309880D03*
X66120Y309880D03*
X64690Y222250D03*
X54690Y222250D03*
D15*
X36830Y270430D03*
X36830Y260430D03*
D14*
X54690Y209550D03*
X64690Y209550D03*
D15*
X90170Y222170D03*
X90170Y212170D03*
X36830Y330120D03*
X36830Y320120D03*
X77470Y352980D03*
X77470Y342980D03*
X49530Y330120D03*
X49530Y320120D03*
X36830Y354250D03*
X36830Y344250D03*
X49530Y342980D03*
X49530Y352980D03*
X88900Y342980D03*
X88900Y352980D03*
X101600Y342980D03*
X101600Y352980D03*
X24130Y354250D03*
X24130Y344250D03*
D18*
X54319Y249829D02*
X54319Y231631D01*
X49821Y231631D01*
X49821Y249829D01*
X54319Y249829D01*
X54319Y234988D02*
X49821Y234988D01*
X49821Y238345D02*
X54319Y238345D01*
X54319Y241702D02*
X49821Y241702D01*
X49821Y245059D02*
X54319Y245059D01*
X54319Y248416D02*
X49821Y248416D01*
X67019Y249829D02*
X67019Y231631D01*
X62521Y231631D01*
X62521Y249829D01*
X67019Y249829D01*
X67019Y234988D02*
X62521Y234988D01*
X62521Y238345D02*
X67019Y238345D01*
X67019Y241702D02*
X62521Y241702D01*
X62521Y245059D02*
X67019Y245059D01*
X67019Y248416D02*
X62521Y248416D01*
X79719Y249829D02*
X79719Y231631D01*
X75221Y231631D01*
X75221Y249829D01*
X79719Y249829D01*
X79719Y234988D02*
X75221Y234988D01*
X75221Y238345D02*
X79719Y238345D01*
X79719Y241702D02*
X75221Y241702D01*
X75221Y245059D02*
X79719Y245059D01*
X79719Y248416D02*
X75221Y248416D01*
X92419Y249829D02*
X92419Y231631D01*
X87921Y231631D01*
X87921Y249829D01*
X92419Y249829D01*
X92419Y234988D02*
X87921Y234988D01*
X87921Y238345D02*
X92419Y238345D01*
X92419Y241702D02*
X87921Y241702D01*
X87921Y245059D02*
X92419Y245059D01*
X92419Y248416D02*
X87921Y248416D01*
X92419Y281031D02*
X92419Y299229D01*
X92419Y281031D02*
X87921Y281031D01*
X87921Y299229D01*
X92419Y299229D01*
X92419Y284388D02*
X87921Y284388D01*
X87921Y287745D02*
X92419Y287745D01*
X92419Y291102D02*
X87921Y291102D01*
X87921Y294459D02*
X92419Y294459D01*
X92419Y297816D02*
X87921Y297816D01*
X79719Y299229D02*
X79719Y281031D01*
X75221Y281031D01*
X75221Y299229D01*
X79719Y299229D01*
X79719Y284388D02*
X75221Y284388D01*
X75221Y287745D02*
X79719Y287745D01*
X79719Y291102D02*
X75221Y291102D01*
X75221Y294459D02*
X79719Y294459D01*
X79719Y297816D02*
X75221Y297816D01*
X67019Y299229D02*
X67019Y281031D01*
X62521Y281031D01*
X62521Y299229D01*
X67019Y299229D01*
X67019Y284388D02*
X62521Y284388D01*
X62521Y287745D02*
X67019Y287745D01*
X67019Y291102D02*
X62521Y291102D01*
X62521Y294459D02*
X67019Y294459D01*
X67019Y297816D02*
X62521Y297816D01*
X54319Y299229D02*
X54319Y281031D01*
X49821Y281031D01*
X49821Y299229D01*
X54319Y299229D01*
X54319Y284388D02*
X49821Y284388D01*
X49821Y287745D02*
X54319Y287745D01*
X54319Y291102D02*
X49821Y291102D01*
X49821Y294459D02*
X54319Y294459D01*
X54319Y297816D02*
X49821Y297816D01*
D21*
X113030Y177800D03*
X35560Y189230D03*
D26*
X1073230Y236220D03*
X944880Y101600D03*
X641350Y184150D03*
X652780Y158750D03*
X609600Y229870D03*
X752065Y254795D03*
X812011Y248439D03*
X914423Y212113D03*
X590470Y360680D03*
X718820Y495300D03*
X1022350Y412750D03*
X1010920Y438150D03*
X1054100Y367030D03*
X911635Y342105D03*
X851689Y348461D03*
X749277Y384787D03*
X481330Y177800D03*
X381000Y429260D03*
X163954Y1011541D03*
X69850Y1021080D03*
X67310Y971550D03*
X34290Y50800D03*
X1073230Y680720D03*
X944880Y546100D03*
X641350Y628650D03*
X652780Y603250D03*
X609600Y674370D03*
X752065Y699295D03*
X812011Y692939D03*
X914423Y656613D03*
X590470Y805180D03*
X718820Y939800D03*
X1022350Y857250D03*
X1010920Y882650D03*
X1054100Y811530D03*
X911635Y786605D03*
X851689Y792961D03*
X749277Y829287D03*
X269240Y482600D03*
X353060Y1003300D03*
X84441Y267846D03*
X93980Y361950D03*
X44450Y364490D03*
X585470Y231140D03*
X588010Y170180D03*
X1078230Y365760D03*
X1075690Y426720D03*
X424180Y143510D03*
X438150Y463550D03*
X585470Y675640D03*
X588010Y614680D03*
X1078230Y810260D03*
X1075690Y871220D03*
X234950Y539750D03*
X387350Y946150D03*
X586265Y243045D03*
X438150Y450850D03*
X586740Y184150D03*
X585470Y218440D03*
X589280Y157480D03*
X1078230Y378460D03*
X1074420Y439420D03*
X411480Y130810D03*
X450850Y476250D03*
X585470Y662940D03*
X589280Y601980D03*
X1078230Y822960D03*
X1074420Y883920D03*
X222250Y552450D03*
X400050Y933450D03*
X1071880Y309880D03*
X1118708Y307702D03*
X591820Y287020D03*
X544992Y289198D03*
X1071880Y754380D03*
X1118708Y752202D03*
X591820Y731520D03*
X544992Y733698D03*
X1057910Y308610D03*
X1106170Y307702D03*
X605790Y288290D03*
X557530Y289198D03*
X1057910Y753110D03*
X1106170Y752202D03*
X605790Y732790D03*
X557530Y733698D03*
X586725Y205725D03*
X701040Y205740D03*
X849630Y107950D03*
X826770Y259080D03*
X966470Y271780D03*
X1043940Y285750D03*
X1090356Y262636D03*
X1076975Y391175D03*
X962660Y391160D03*
X814070Y488950D03*
X836930Y337820D03*
X697230Y325120D03*
X619760Y311150D03*
X573344Y334264D03*
X586725Y650225D03*
X701040Y650240D03*
X849630Y552450D03*
X826770Y703580D03*
X966470Y716280D03*
X1043940Y730250D03*
X1090356Y707136D03*
X1076975Y835675D03*
X962660Y835660D03*
X814070Y933450D03*
X836930Y782320D03*
X697230Y769620D03*
X619760Y755650D03*
X573344Y778764D03*
X895350Y165100D03*
X607060Y185420D03*
X757620Y203330D03*
X916940Y232410D03*
X1040130Y308610D03*
X1137920Y285750D03*
X1082842Y303048D03*
X768350Y431800D03*
X1056640Y411480D03*
X906080Y393570D03*
X746760Y364490D03*
X623570Y288290D03*
X525780Y311150D03*
X580858Y293852D03*
X177800Y307713D03*
X464820Y37672D03*
X397510Y569388D03*
X139700Y965200D03*
X142240Y34290D03*
X895350Y609600D03*
X607060Y629920D03*
X757620Y647830D03*
X916940Y676910D03*
X1040130Y753110D03*
X1137920Y730250D03*
X1082842Y747548D03*
X768350Y876300D03*
X1056640Y855980D03*
X906080Y838070D03*
X746760Y808990D03*
X623570Y732790D03*
X525780Y755650D03*
X580858Y738352D03*
X129112Y499110D03*
X127000Y790313D03*
X493188Y986790D03*
X38100Y292100D03*
X1077435Y353855D03*
X1076960Y412750D03*
X143510Y292100D03*
X165100Y279400D03*
X173990Y267020D03*
X241300Y292100D03*
X382222Y81253D03*
X413595Y118490D03*
X480108Y525807D03*
X448735Y488570D03*
X187960Y1027430D03*
X370840Y388620D03*
X349250Y457200D03*
X82550Y67310D03*
X172693Y581708D03*
X209930Y550335D03*
X190500Y774700D03*
X449607Y904192D03*
X412370Y935565D03*
X100330Y243840D03*
X424180Y156210D03*
X355600Y429260D03*
X335280Y414020D03*
X336550Y347980D03*
X355601Y334009D03*
X387350Y429260D03*
X76200Y50800D03*
X368300Y749300D03*
X482600Y520700D03*
X469900Y609092D03*
X468630Y698500D03*
X458470Y711200D03*
X466090Y551180D03*
X467360Y619760D03*
X375920Y701040D03*
X378460Y535940D03*
X369570Y610870D03*
X459740Y684530D03*
X458470Y522732D03*
X464820Y596900D03*
X379730Y689610D03*
X377190Y524510D03*
X372110Y598170D03*
X586265Y687545D03*
X586740Y628650D03*
X1077435Y798355D03*
X1076960Y857250D03*
X247650Y539750D03*
X92710Y774700D03*
X114300Y762000D03*
X123190Y749620D03*
X374650Y946150D03*
M02*
