G04 EAGLE Gerber RS-274X export*
G75*
%MOMM*%
%FSLAX34Y34*%
%LPD*%
%INSolderpaste Bottom*%
%IPPOS*%
%AMOC8*
5,1,8,0,0,1.08239X$1,22.5*%
G01*
%ADD10R,1.270000X2.540000*%
%ADD11C,0.070000*%
%ADD12R,2.540000X1.270000*%
%ADD13R,0.900000X0.700000*%
%ADD14R,0.300000X1.500000*%
%ADD15R,1.200000X3.500000*%


D10*
X151130Y600710D03*
X760730Y613410D03*
D11*
X344550Y1817900D02*
X344550Y1831900D01*
X346650Y1831900D01*
X346650Y1817900D01*
X344550Y1817900D01*
X344550Y1818565D02*
X346650Y1818565D01*
X346650Y1819230D02*
X344550Y1819230D01*
X344550Y1819895D02*
X346650Y1819895D01*
X346650Y1820560D02*
X344550Y1820560D01*
X344550Y1821225D02*
X346650Y1821225D01*
X346650Y1821890D02*
X344550Y1821890D01*
X344550Y1822555D02*
X346650Y1822555D01*
X346650Y1823220D02*
X344550Y1823220D01*
X344550Y1823885D02*
X346650Y1823885D01*
X346650Y1824550D02*
X344550Y1824550D01*
X344550Y1825215D02*
X346650Y1825215D01*
X346650Y1825880D02*
X344550Y1825880D01*
X344550Y1826545D02*
X346650Y1826545D01*
X346650Y1827210D02*
X344550Y1827210D01*
X344550Y1827875D02*
X346650Y1827875D01*
X346650Y1828540D02*
X344550Y1828540D01*
X344550Y1829205D02*
X346650Y1829205D01*
X346650Y1829870D02*
X344550Y1829870D01*
X344550Y1830535D02*
X346650Y1830535D01*
X346650Y1831200D02*
X344550Y1831200D01*
X344550Y1831865D02*
X346650Y1831865D01*
X349550Y1831900D02*
X349550Y1817900D01*
X349550Y1831900D02*
X351650Y1831900D01*
X351650Y1817900D01*
X349550Y1817900D01*
X349550Y1818565D02*
X351650Y1818565D01*
X351650Y1819230D02*
X349550Y1819230D01*
X349550Y1819895D02*
X351650Y1819895D01*
X351650Y1820560D02*
X349550Y1820560D01*
X349550Y1821225D02*
X351650Y1821225D01*
X351650Y1821890D02*
X349550Y1821890D01*
X349550Y1822555D02*
X351650Y1822555D01*
X351650Y1823220D02*
X349550Y1823220D01*
X349550Y1823885D02*
X351650Y1823885D01*
X351650Y1824550D02*
X349550Y1824550D01*
X349550Y1825215D02*
X351650Y1825215D01*
X351650Y1825880D02*
X349550Y1825880D01*
X349550Y1826545D02*
X351650Y1826545D01*
X351650Y1827210D02*
X349550Y1827210D01*
X349550Y1827875D02*
X351650Y1827875D01*
X351650Y1828540D02*
X349550Y1828540D01*
X349550Y1829205D02*
X351650Y1829205D01*
X351650Y1829870D02*
X349550Y1829870D01*
X349550Y1830535D02*
X351650Y1830535D01*
X351650Y1831200D02*
X349550Y1831200D01*
X349550Y1831865D02*
X351650Y1831865D01*
X354550Y1831900D02*
X354550Y1817900D01*
X354550Y1831900D02*
X356650Y1831900D01*
X356650Y1817900D01*
X354550Y1817900D01*
X354550Y1818565D02*
X356650Y1818565D01*
X356650Y1819230D02*
X354550Y1819230D01*
X354550Y1819895D02*
X356650Y1819895D01*
X356650Y1820560D02*
X354550Y1820560D01*
X354550Y1821225D02*
X356650Y1821225D01*
X356650Y1821890D02*
X354550Y1821890D01*
X354550Y1822555D02*
X356650Y1822555D01*
X356650Y1823220D02*
X354550Y1823220D01*
X354550Y1823885D02*
X356650Y1823885D01*
X356650Y1824550D02*
X354550Y1824550D01*
X354550Y1825215D02*
X356650Y1825215D01*
X356650Y1825880D02*
X354550Y1825880D01*
X354550Y1826545D02*
X356650Y1826545D01*
X356650Y1827210D02*
X354550Y1827210D01*
X354550Y1827875D02*
X356650Y1827875D01*
X356650Y1828540D02*
X354550Y1828540D01*
X354550Y1829205D02*
X356650Y1829205D01*
X356650Y1829870D02*
X354550Y1829870D01*
X354550Y1830535D02*
X356650Y1830535D01*
X356650Y1831200D02*
X354550Y1831200D01*
X354550Y1831865D02*
X356650Y1831865D01*
X359550Y1831900D02*
X359550Y1817900D01*
X359550Y1831900D02*
X361650Y1831900D01*
X361650Y1817900D01*
X359550Y1817900D01*
X359550Y1818565D02*
X361650Y1818565D01*
X361650Y1819230D02*
X359550Y1819230D01*
X359550Y1819895D02*
X361650Y1819895D01*
X361650Y1820560D02*
X359550Y1820560D01*
X359550Y1821225D02*
X361650Y1821225D01*
X361650Y1821890D02*
X359550Y1821890D01*
X359550Y1822555D02*
X361650Y1822555D01*
X361650Y1823220D02*
X359550Y1823220D01*
X359550Y1823885D02*
X361650Y1823885D01*
X361650Y1824550D02*
X359550Y1824550D01*
X359550Y1825215D02*
X361650Y1825215D01*
X361650Y1825880D02*
X359550Y1825880D01*
X359550Y1826545D02*
X361650Y1826545D01*
X361650Y1827210D02*
X359550Y1827210D01*
X359550Y1827875D02*
X361650Y1827875D01*
X361650Y1828540D02*
X359550Y1828540D01*
X359550Y1829205D02*
X361650Y1829205D01*
X361650Y1829870D02*
X359550Y1829870D01*
X359550Y1830535D02*
X361650Y1830535D01*
X361650Y1831200D02*
X359550Y1831200D01*
X359550Y1831865D02*
X361650Y1831865D01*
X364550Y1831900D02*
X364550Y1817900D01*
X364550Y1831900D02*
X366650Y1831900D01*
X366650Y1817900D01*
X364550Y1817900D01*
X364550Y1818565D02*
X366650Y1818565D01*
X366650Y1819230D02*
X364550Y1819230D01*
X364550Y1819895D02*
X366650Y1819895D01*
X366650Y1820560D02*
X364550Y1820560D01*
X364550Y1821225D02*
X366650Y1821225D01*
X366650Y1821890D02*
X364550Y1821890D01*
X364550Y1822555D02*
X366650Y1822555D01*
X366650Y1823220D02*
X364550Y1823220D01*
X364550Y1823885D02*
X366650Y1823885D01*
X366650Y1824550D02*
X364550Y1824550D01*
X364550Y1825215D02*
X366650Y1825215D01*
X366650Y1825880D02*
X364550Y1825880D01*
X364550Y1826545D02*
X366650Y1826545D01*
X366650Y1827210D02*
X364550Y1827210D01*
X364550Y1827875D02*
X366650Y1827875D01*
X366650Y1828540D02*
X364550Y1828540D01*
X364550Y1829205D02*
X366650Y1829205D01*
X366650Y1829870D02*
X364550Y1829870D01*
X364550Y1830535D02*
X366650Y1830535D01*
X366650Y1831200D02*
X364550Y1831200D01*
X364550Y1831865D02*
X366650Y1831865D01*
X364550Y1788900D02*
X364550Y1774900D01*
X364550Y1788900D02*
X366650Y1788900D01*
X366650Y1774900D01*
X364550Y1774900D01*
X364550Y1775565D02*
X366650Y1775565D01*
X366650Y1776230D02*
X364550Y1776230D01*
X364550Y1776895D02*
X366650Y1776895D01*
X366650Y1777560D02*
X364550Y1777560D01*
X364550Y1778225D02*
X366650Y1778225D01*
X366650Y1778890D02*
X364550Y1778890D01*
X364550Y1779555D02*
X366650Y1779555D01*
X366650Y1780220D02*
X364550Y1780220D01*
X364550Y1780885D02*
X366650Y1780885D01*
X366650Y1781550D02*
X364550Y1781550D01*
X364550Y1782215D02*
X366650Y1782215D01*
X366650Y1782880D02*
X364550Y1782880D01*
X364550Y1783545D02*
X366650Y1783545D01*
X366650Y1784210D02*
X364550Y1784210D01*
X364550Y1784875D02*
X366650Y1784875D01*
X366650Y1785540D02*
X364550Y1785540D01*
X364550Y1786205D02*
X366650Y1786205D01*
X366650Y1786870D02*
X364550Y1786870D01*
X364550Y1787535D02*
X366650Y1787535D01*
X366650Y1788200D02*
X364550Y1788200D01*
X364550Y1788865D02*
X366650Y1788865D01*
X359550Y1788900D02*
X359550Y1774900D01*
X359550Y1788900D02*
X361650Y1788900D01*
X361650Y1774900D01*
X359550Y1774900D01*
X359550Y1775565D02*
X361650Y1775565D01*
X361650Y1776230D02*
X359550Y1776230D01*
X359550Y1776895D02*
X361650Y1776895D01*
X361650Y1777560D02*
X359550Y1777560D01*
X359550Y1778225D02*
X361650Y1778225D01*
X361650Y1778890D02*
X359550Y1778890D01*
X359550Y1779555D02*
X361650Y1779555D01*
X361650Y1780220D02*
X359550Y1780220D01*
X359550Y1780885D02*
X361650Y1780885D01*
X361650Y1781550D02*
X359550Y1781550D01*
X359550Y1782215D02*
X361650Y1782215D01*
X361650Y1782880D02*
X359550Y1782880D01*
X359550Y1783545D02*
X361650Y1783545D01*
X361650Y1784210D02*
X359550Y1784210D01*
X359550Y1784875D02*
X361650Y1784875D01*
X361650Y1785540D02*
X359550Y1785540D01*
X359550Y1786205D02*
X361650Y1786205D01*
X361650Y1786870D02*
X359550Y1786870D01*
X359550Y1787535D02*
X361650Y1787535D01*
X361650Y1788200D02*
X359550Y1788200D01*
X359550Y1788865D02*
X361650Y1788865D01*
X354550Y1788900D02*
X354550Y1774900D01*
X354550Y1788900D02*
X356650Y1788900D01*
X356650Y1774900D01*
X354550Y1774900D01*
X354550Y1775565D02*
X356650Y1775565D01*
X356650Y1776230D02*
X354550Y1776230D01*
X354550Y1776895D02*
X356650Y1776895D01*
X356650Y1777560D02*
X354550Y1777560D01*
X354550Y1778225D02*
X356650Y1778225D01*
X356650Y1778890D02*
X354550Y1778890D01*
X354550Y1779555D02*
X356650Y1779555D01*
X356650Y1780220D02*
X354550Y1780220D01*
X354550Y1780885D02*
X356650Y1780885D01*
X356650Y1781550D02*
X354550Y1781550D01*
X354550Y1782215D02*
X356650Y1782215D01*
X356650Y1782880D02*
X354550Y1782880D01*
X354550Y1783545D02*
X356650Y1783545D01*
X356650Y1784210D02*
X354550Y1784210D01*
X354550Y1784875D02*
X356650Y1784875D01*
X356650Y1785540D02*
X354550Y1785540D01*
X354550Y1786205D02*
X356650Y1786205D01*
X356650Y1786870D02*
X354550Y1786870D01*
X354550Y1787535D02*
X356650Y1787535D01*
X356650Y1788200D02*
X354550Y1788200D01*
X354550Y1788865D02*
X356650Y1788865D01*
X349550Y1788900D02*
X349550Y1774900D01*
X349550Y1788900D02*
X351650Y1788900D01*
X351650Y1774900D01*
X349550Y1774900D01*
X349550Y1775565D02*
X351650Y1775565D01*
X351650Y1776230D02*
X349550Y1776230D01*
X349550Y1776895D02*
X351650Y1776895D01*
X351650Y1777560D02*
X349550Y1777560D01*
X349550Y1778225D02*
X351650Y1778225D01*
X351650Y1778890D02*
X349550Y1778890D01*
X349550Y1779555D02*
X351650Y1779555D01*
X351650Y1780220D02*
X349550Y1780220D01*
X349550Y1780885D02*
X351650Y1780885D01*
X351650Y1781550D02*
X349550Y1781550D01*
X349550Y1782215D02*
X351650Y1782215D01*
X351650Y1782880D02*
X349550Y1782880D01*
X349550Y1783545D02*
X351650Y1783545D01*
X351650Y1784210D02*
X349550Y1784210D01*
X349550Y1784875D02*
X351650Y1784875D01*
X351650Y1785540D02*
X349550Y1785540D01*
X349550Y1786205D02*
X351650Y1786205D01*
X351650Y1786870D02*
X349550Y1786870D01*
X349550Y1787535D02*
X351650Y1787535D01*
X351650Y1788200D02*
X349550Y1788200D01*
X349550Y1788865D02*
X351650Y1788865D01*
X344550Y1788900D02*
X344550Y1774900D01*
X344550Y1788900D02*
X346650Y1788900D01*
X346650Y1774900D01*
X344550Y1774900D01*
X344550Y1775565D02*
X346650Y1775565D01*
X346650Y1776230D02*
X344550Y1776230D01*
X344550Y1776895D02*
X346650Y1776895D01*
X346650Y1777560D02*
X344550Y1777560D01*
X344550Y1778225D02*
X346650Y1778225D01*
X346650Y1778890D02*
X344550Y1778890D01*
X344550Y1779555D02*
X346650Y1779555D01*
X346650Y1780220D02*
X344550Y1780220D01*
X344550Y1780885D02*
X346650Y1780885D01*
X346650Y1781550D02*
X344550Y1781550D01*
X344550Y1782215D02*
X346650Y1782215D01*
X346650Y1782880D02*
X344550Y1782880D01*
X344550Y1783545D02*
X346650Y1783545D01*
X346650Y1784210D02*
X344550Y1784210D01*
X344550Y1784875D02*
X346650Y1784875D01*
X346650Y1785540D02*
X344550Y1785540D01*
X344550Y1786205D02*
X346650Y1786205D01*
X346650Y1786870D02*
X344550Y1786870D01*
X344550Y1787535D02*
X346650Y1787535D01*
X346650Y1788200D02*
X344550Y1788200D01*
X344550Y1788865D02*
X346650Y1788865D01*
X433450Y1817900D02*
X433450Y1831900D01*
X435550Y1831900D01*
X435550Y1817900D01*
X433450Y1817900D01*
X433450Y1818565D02*
X435550Y1818565D01*
X435550Y1819230D02*
X433450Y1819230D01*
X433450Y1819895D02*
X435550Y1819895D01*
X435550Y1820560D02*
X433450Y1820560D01*
X433450Y1821225D02*
X435550Y1821225D01*
X435550Y1821890D02*
X433450Y1821890D01*
X433450Y1822555D02*
X435550Y1822555D01*
X435550Y1823220D02*
X433450Y1823220D01*
X433450Y1823885D02*
X435550Y1823885D01*
X435550Y1824550D02*
X433450Y1824550D01*
X433450Y1825215D02*
X435550Y1825215D01*
X435550Y1825880D02*
X433450Y1825880D01*
X433450Y1826545D02*
X435550Y1826545D01*
X435550Y1827210D02*
X433450Y1827210D01*
X433450Y1827875D02*
X435550Y1827875D01*
X435550Y1828540D02*
X433450Y1828540D01*
X433450Y1829205D02*
X435550Y1829205D01*
X435550Y1829870D02*
X433450Y1829870D01*
X433450Y1830535D02*
X435550Y1830535D01*
X435550Y1831200D02*
X433450Y1831200D01*
X433450Y1831865D02*
X435550Y1831865D01*
X438450Y1831900D02*
X438450Y1817900D01*
X438450Y1831900D02*
X440550Y1831900D01*
X440550Y1817900D01*
X438450Y1817900D01*
X438450Y1818565D02*
X440550Y1818565D01*
X440550Y1819230D02*
X438450Y1819230D01*
X438450Y1819895D02*
X440550Y1819895D01*
X440550Y1820560D02*
X438450Y1820560D01*
X438450Y1821225D02*
X440550Y1821225D01*
X440550Y1821890D02*
X438450Y1821890D01*
X438450Y1822555D02*
X440550Y1822555D01*
X440550Y1823220D02*
X438450Y1823220D01*
X438450Y1823885D02*
X440550Y1823885D01*
X440550Y1824550D02*
X438450Y1824550D01*
X438450Y1825215D02*
X440550Y1825215D01*
X440550Y1825880D02*
X438450Y1825880D01*
X438450Y1826545D02*
X440550Y1826545D01*
X440550Y1827210D02*
X438450Y1827210D01*
X438450Y1827875D02*
X440550Y1827875D01*
X440550Y1828540D02*
X438450Y1828540D01*
X438450Y1829205D02*
X440550Y1829205D01*
X440550Y1829870D02*
X438450Y1829870D01*
X438450Y1830535D02*
X440550Y1830535D01*
X440550Y1831200D02*
X438450Y1831200D01*
X438450Y1831865D02*
X440550Y1831865D01*
X443450Y1831900D02*
X443450Y1817900D01*
X443450Y1831900D02*
X445550Y1831900D01*
X445550Y1817900D01*
X443450Y1817900D01*
X443450Y1818565D02*
X445550Y1818565D01*
X445550Y1819230D02*
X443450Y1819230D01*
X443450Y1819895D02*
X445550Y1819895D01*
X445550Y1820560D02*
X443450Y1820560D01*
X443450Y1821225D02*
X445550Y1821225D01*
X445550Y1821890D02*
X443450Y1821890D01*
X443450Y1822555D02*
X445550Y1822555D01*
X445550Y1823220D02*
X443450Y1823220D01*
X443450Y1823885D02*
X445550Y1823885D01*
X445550Y1824550D02*
X443450Y1824550D01*
X443450Y1825215D02*
X445550Y1825215D01*
X445550Y1825880D02*
X443450Y1825880D01*
X443450Y1826545D02*
X445550Y1826545D01*
X445550Y1827210D02*
X443450Y1827210D01*
X443450Y1827875D02*
X445550Y1827875D01*
X445550Y1828540D02*
X443450Y1828540D01*
X443450Y1829205D02*
X445550Y1829205D01*
X445550Y1829870D02*
X443450Y1829870D01*
X443450Y1830535D02*
X445550Y1830535D01*
X445550Y1831200D02*
X443450Y1831200D01*
X443450Y1831865D02*
X445550Y1831865D01*
X448450Y1831900D02*
X448450Y1817900D01*
X448450Y1831900D02*
X450550Y1831900D01*
X450550Y1817900D01*
X448450Y1817900D01*
X448450Y1818565D02*
X450550Y1818565D01*
X450550Y1819230D02*
X448450Y1819230D01*
X448450Y1819895D02*
X450550Y1819895D01*
X450550Y1820560D02*
X448450Y1820560D01*
X448450Y1821225D02*
X450550Y1821225D01*
X450550Y1821890D02*
X448450Y1821890D01*
X448450Y1822555D02*
X450550Y1822555D01*
X450550Y1823220D02*
X448450Y1823220D01*
X448450Y1823885D02*
X450550Y1823885D01*
X450550Y1824550D02*
X448450Y1824550D01*
X448450Y1825215D02*
X450550Y1825215D01*
X450550Y1825880D02*
X448450Y1825880D01*
X448450Y1826545D02*
X450550Y1826545D01*
X450550Y1827210D02*
X448450Y1827210D01*
X448450Y1827875D02*
X450550Y1827875D01*
X450550Y1828540D02*
X448450Y1828540D01*
X448450Y1829205D02*
X450550Y1829205D01*
X450550Y1829870D02*
X448450Y1829870D01*
X448450Y1830535D02*
X450550Y1830535D01*
X450550Y1831200D02*
X448450Y1831200D01*
X448450Y1831865D02*
X450550Y1831865D01*
X453450Y1831900D02*
X453450Y1817900D01*
X453450Y1831900D02*
X455550Y1831900D01*
X455550Y1817900D01*
X453450Y1817900D01*
X453450Y1818565D02*
X455550Y1818565D01*
X455550Y1819230D02*
X453450Y1819230D01*
X453450Y1819895D02*
X455550Y1819895D01*
X455550Y1820560D02*
X453450Y1820560D01*
X453450Y1821225D02*
X455550Y1821225D01*
X455550Y1821890D02*
X453450Y1821890D01*
X453450Y1822555D02*
X455550Y1822555D01*
X455550Y1823220D02*
X453450Y1823220D01*
X453450Y1823885D02*
X455550Y1823885D01*
X455550Y1824550D02*
X453450Y1824550D01*
X453450Y1825215D02*
X455550Y1825215D01*
X455550Y1825880D02*
X453450Y1825880D01*
X453450Y1826545D02*
X455550Y1826545D01*
X455550Y1827210D02*
X453450Y1827210D01*
X453450Y1827875D02*
X455550Y1827875D01*
X455550Y1828540D02*
X453450Y1828540D01*
X453450Y1829205D02*
X455550Y1829205D01*
X455550Y1829870D02*
X453450Y1829870D01*
X453450Y1830535D02*
X455550Y1830535D01*
X455550Y1831200D02*
X453450Y1831200D01*
X453450Y1831865D02*
X455550Y1831865D01*
X453450Y1788900D02*
X453450Y1774900D01*
X453450Y1788900D02*
X455550Y1788900D01*
X455550Y1774900D01*
X453450Y1774900D01*
X453450Y1775565D02*
X455550Y1775565D01*
X455550Y1776230D02*
X453450Y1776230D01*
X453450Y1776895D02*
X455550Y1776895D01*
X455550Y1777560D02*
X453450Y1777560D01*
X453450Y1778225D02*
X455550Y1778225D01*
X455550Y1778890D02*
X453450Y1778890D01*
X453450Y1779555D02*
X455550Y1779555D01*
X455550Y1780220D02*
X453450Y1780220D01*
X453450Y1780885D02*
X455550Y1780885D01*
X455550Y1781550D02*
X453450Y1781550D01*
X453450Y1782215D02*
X455550Y1782215D01*
X455550Y1782880D02*
X453450Y1782880D01*
X453450Y1783545D02*
X455550Y1783545D01*
X455550Y1784210D02*
X453450Y1784210D01*
X453450Y1784875D02*
X455550Y1784875D01*
X455550Y1785540D02*
X453450Y1785540D01*
X453450Y1786205D02*
X455550Y1786205D01*
X455550Y1786870D02*
X453450Y1786870D01*
X453450Y1787535D02*
X455550Y1787535D01*
X455550Y1788200D02*
X453450Y1788200D01*
X453450Y1788865D02*
X455550Y1788865D01*
X448450Y1788900D02*
X448450Y1774900D01*
X448450Y1788900D02*
X450550Y1788900D01*
X450550Y1774900D01*
X448450Y1774900D01*
X448450Y1775565D02*
X450550Y1775565D01*
X450550Y1776230D02*
X448450Y1776230D01*
X448450Y1776895D02*
X450550Y1776895D01*
X450550Y1777560D02*
X448450Y1777560D01*
X448450Y1778225D02*
X450550Y1778225D01*
X450550Y1778890D02*
X448450Y1778890D01*
X448450Y1779555D02*
X450550Y1779555D01*
X450550Y1780220D02*
X448450Y1780220D01*
X448450Y1780885D02*
X450550Y1780885D01*
X450550Y1781550D02*
X448450Y1781550D01*
X448450Y1782215D02*
X450550Y1782215D01*
X450550Y1782880D02*
X448450Y1782880D01*
X448450Y1783545D02*
X450550Y1783545D01*
X450550Y1784210D02*
X448450Y1784210D01*
X448450Y1784875D02*
X450550Y1784875D01*
X450550Y1785540D02*
X448450Y1785540D01*
X448450Y1786205D02*
X450550Y1786205D01*
X450550Y1786870D02*
X448450Y1786870D01*
X448450Y1787535D02*
X450550Y1787535D01*
X450550Y1788200D02*
X448450Y1788200D01*
X448450Y1788865D02*
X450550Y1788865D01*
X443450Y1788900D02*
X443450Y1774900D01*
X443450Y1788900D02*
X445550Y1788900D01*
X445550Y1774900D01*
X443450Y1774900D01*
X443450Y1775565D02*
X445550Y1775565D01*
X445550Y1776230D02*
X443450Y1776230D01*
X443450Y1776895D02*
X445550Y1776895D01*
X445550Y1777560D02*
X443450Y1777560D01*
X443450Y1778225D02*
X445550Y1778225D01*
X445550Y1778890D02*
X443450Y1778890D01*
X443450Y1779555D02*
X445550Y1779555D01*
X445550Y1780220D02*
X443450Y1780220D01*
X443450Y1780885D02*
X445550Y1780885D01*
X445550Y1781550D02*
X443450Y1781550D01*
X443450Y1782215D02*
X445550Y1782215D01*
X445550Y1782880D02*
X443450Y1782880D01*
X443450Y1783545D02*
X445550Y1783545D01*
X445550Y1784210D02*
X443450Y1784210D01*
X443450Y1784875D02*
X445550Y1784875D01*
X445550Y1785540D02*
X443450Y1785540D01*
X443450Y1786205D02*
X445550Y1786205D01*
X445550Y1786870D02*
X443450Y1786870D01*
X443450Y1787535D02*
X445550Y1787535D01*
X445550Y1788200D02*
X443450Y1788200D01*
X443450Y1788865D02*
X445550Y1788865D01*
X438450Y1788900D02*
X438450Y1774900D01*
X438450Y1788900D02*
X440550Y1788900D01*
X440550Y1774900D01*
X438450Y1774900D01*
X438450Y1775565D02*
X440550Y1775565D01*
X440550Y1776230D02*
X438450Y1776230D01*
X438450Y1776895D02*
X440550Y1776895D01*
X440550Y1777560D02*
X438450Y1777560D01*
X438450Y1778225D02*
X440550Y1778225D01*
X440550Y1778890D02*
X438450Y1778890D01*
X438450Y1779555D02*
X440550Y1779555D01*
X440550Y1780220D02*
X438450Y1780220D01*
X438450Y1780885D02*
X440550Y1780885D01*
X440550Y1781550D02*
X438450Y1781550D01*
X438450Y1782215D02*
X440550Y1782215D01*
X440550Y1782880D02*
X438450Y1782880D01*
X438450Y1783545D02*
X440550Y1783545D01*
X440550Y1784210D02*
X438450Y1784210D01*
X438450Y1784875D02*
X440550Y1784875D01*
X440550Y1785540D02*
X438450Y1785540D01*
X438450Y1786205D02*
X440550Y1786205D01*
X440550Y1786870D02*
X438450Y1786870D01*
X438450Y1787535D02*
X440550Y1787535D01*
X440550Y1788200D02*
X438450Y1788200D01*
X438450Y1788865D02*
X440550Y1788865D01*
X433450Y1788900D02*
X433450Y1774900D01*
X433450Y1788900D02*
X435550Y1788900D01*
X435550Y1774900D01*
X433450Y1774900D01*
X433450Y1775565D02*
X435550Y1775565D01*
X435550Y1776230D02*
X433450Y1776230D01*
X433450Y1776895D02*
X435550Y1776895D01*
X435550Y1777560D02*
X433450Y1777560D01*
X433450Y1778225D02*
X435550Y1778225D01*
X435550Y1778890D02*
X433450Y1778890D01*
X433450Y1779555D02*
X435550Y1779555D01*
X435550Y1780220D02*
X433450Y1780220D01*
X433450Y1780885D02*
X435550Y1780885D01*
X435550Y1781550D02*
X433450Y1781550D01*
X433450Y1782215D02*
X435550Y1782215D01*
X435550Y1782880D02*
X433450Y1782880D01*
X433450Y1783545D02*
X435550Y1783545D01*
X435550Y1784210D02*
X433450Y1784210D01*
X433450Y1784875D02*
X435550Y1784875D01*
X435550Y1785540D02*
X433450Y1785540D01*
X433450Y1786205D02*
X435550Y1786205D01*
X435550Y1786870D02*
X433450Y1786870D01*
X433450Y1787535D02*
X435550Y1787535D01*
X435550Y1788200D02*
X433450Y1788200D01*
X433450Y1788865D02*
X435550Y1788865D01*
X510920Y1819170D02*
X510920Y1833170D01*
X513020Y1833170D01*
X513020Y1819170D01*
X510920Y1819170D01*
X510920Y1819835D02*
X513020Y1819835D01*
X513020Y1820500D02*
X510920Y1820500D01*
X510920Y1821165D02*
X513020Y1821165D01*
X513020Y1821830D02*
X510920Y1821830D01*
X510920Y1822495D02*
X513020Y1822495D01*
X513020Y1823160D02*
X510920Y1823160D01*
X510920Y1823825D02*
X513020Y1823825D01*
X513020Y1824490D02*
X510920Y1824490D01*
X510920Y1825155D02*
X513020Y1825155D01*
X513020Y1825820D02*
X510920Y1825820D01*
X510920Y1826485D02*
X513020Y1826485D01*
X513020Y1827150D02*
X510920Y1827150D01*
X510920Y1827815D02*
X513020Y1827815D01*
X513020Y1828480D02*
X510920Y1828480D01*
X510920Y1829145D02*
X513020Y1829145D01*
X513020Y1829810D02*
X510920Y1829810D01*
X510920Y1830475D02*
X513020Y1830475D01*
X513020Y1831140D02*
X510920Y1831140D01*
X510920Y1831805D02*
X513020Y1831805D01*
X513020Y1832470D02*
X510920Y1832470D01*
X510920Y1833135D02*
X513020Y1833135D01*
X515920Y1833170D02*
X515920Y1819170D01*
X515920Y1833170D02*
X518020Y1833170D01*
X518020Y1819170D01*
X515920Y1819170D01*
X515920Y1819835D02*
X518020Y1819835D01*
X518020Y1820500D02*
X515920Y1820500D01*
X515920Y1821165D02*
X518020Y1821165D01*
X518020Y1821830D02*
X515920Y1821830D01*
X515920Y1822495D02*
X518020Y1822495D01*
X518020Y1823160D02*
X515920Y1823160D01*
X515920Y1823825D02*
X518020Y1823825D01*
X518020Y1824490D02*
X515920Y1824490D01*
X515920Y1825155D02*
X518020Y1825155D01*
X518020Y1825820D02*
X515920Y1825820D01*
X515920Y1826485D02*
X518020Y1826485D01*
X518020Y1827150D02*
X515920Y1827150D01*
X515920Y1827815D02*
X518020Y1827815D01*
X518020Y1828480D02*
X515920Y1828480D01*
X515920Y1829145D02*
X518020Y1829145D01*
X518020Y1829810D02*
X515920Y1829810D01*
X515920Y1830475D02*
X518020Y1830475D01*
X518020Y1831140D02*
X515920Y1831140D01*
X515920Y1831805D02*
X518020Y1831805D01*
X518020Y1832470D02*
X515920Y1832470D01*
X515920Y1833135D02*
X518020Y1833135D01*
X520920Y1833170D02*
X520920Y1819170D01*
X520920Y1833170D02*
X523020Y1833170D01*
X523020Y1819170D01*
X520920Y1819170D01*
X520920Y1819835D02*
X523020Y1819835D01*
X523020Y1820500D02*
X520920Y1820500D01*
X520920Y1821165D02*
X523020Y1821165D01*
X523020Y1821830D02*
X520920Y1821830D01*
X520920Y1822495D02*
X523020Y1822495D01*
X523020Y1823160D02*
X520920Y1823160D01*
X520920Y1823825D02*
X523020Y1823825D01*
X523020Y1824490D02*
X520920Y1824490D01*
X520920Y1825155D02*
X523020Y1825155D01*
X523020Y1825820D02*
X520920Y1825820D01*
X520920Y1826485D02*
X523020Y1826485D01*
X523020Y1827150D02*
X520920Y1827150D01*
X520920Y1827815D02*
X523020Y1827815D01*
X523020Y1828480D02*
X520920Y1828480D01*
X520920Y1829145D02*
X523020Y1829145D01*
X523020Y1829810D02*
X520920Y1829810D01*
X520920Y1830475D02*
X523020Y1830475D01*
X523020Y1831140D02*
X520920Y1831140D01*
X520920Y1831805D02*
X523020Y1831805D01*
X523020Y1832470D02*
X520920Y1832470D01*
X520920Y1833135D02*
X523020Y1833135D01*
X525920Y1833170D02*
X525920Y1819170D01*
X525920Y1833170D02*
X528020Y1833170D01*
X528020Y1819170D01*
X525920Y1819170D01*
X525920Y1819835D02*
X528020Y1819835D01*
X528020Y1820500D02*
X525920Y1820500D01*
X525920Y1821165D02*
X528020Y1821165D01*
X528020Y1821830D02*
X525920Y1821830D01*
X525920Y1822495D02*
X528020Y1822495D01*
X528020Y1823160D02*
X525920Y1823160D01*
X525920Y1823825D02*
X528020Y1823825D01*
X528020Y1824490D02*
X525920Y1824490D01*
X525920Y1825155D02*
X528020Y1825155D01*
X528020Y1825820D02*
X525920Y1825820D01*
X525920Y1826485D02*
X528020Y1826485D01*
X528020Y1827150D02*
X525920Y1827150D01*
X525920Y1827815D02*
X528020Y1827815D01*
X528020Y1828480D02*
X525920Y1828480D01*
X525920Y1829145D02*
X528020Y1829145D01*
X528020Y1829810D02*
X525920Y1829810D01*
X525920Y1830475D02*
X528020Y1830475D01*
X528020Y1831140D02*
X525920Y1831140D01*
X525920Y1831805D02*
X528020Y1831805D01*
X528020Y1832470D02*
X525920Y1832470D01*
X525920Y1833135D02*
X528020Y1833135D01*
X530920Y1833170D02*
X530920Y1819170D01*
X530920Y1833170D02*
X533020Y1833170D01*
X533020Y1819170D01*
X530920Y1819170D01*
X530920Y1819835D02*
X533020Y1819835D01*
X533020Y1820500D02*
X530920Y1820500D01*
X530920Y1821165D02*
X533020Y1821165D01*
X533020Y1821830D02*
X530920Y1821830D01*
X530920Y1822495D02*
X533020Y1822495D01*
X533020Y1823160D02*
X530920Y1823160D01*
X530920Y1823825D02*
X533020Y1823825D01*
X533020Y1824490D02*
X530920Y1824490D01*
X530920Y1825155D02*
X533020Y1825155D01*
X533020Y1825820D02*
X530920Y1825820D01*
X530920Y1826485D02*
X533020Y1826485D01*
X533020Y1827150D02*
X530920Y1827150D01*
X530920Y1827815D02*
X533020Y1827815D01*
X533020Y1828480D02*
X530920Y1828480D01*
X530920Y1829145D02*
X533020Y1829145D01*
X533020Y1829810D02*
X530920Y1829810D01*
X530920Y1830475D02*
X533020Y1830475D01*
X533020Y1831140D02*
X530920Y1831140D01*
X530920Y1831805D02*
X533020Y1831805D01*
X533020Y1832470D02*
X530920Y1832470D01*
X530920Y1833135D02*
X533020Y1833135D01*
X530920Y1790170D02*
X530920Y1776170D01*
X530920Y1790170D02*
X533020Y1790170D01*
X533020Y1776170D01*
X530920Y1776170D01*
X530920Y1776835D02*
X533020Y1776835D01*
X533020Y1777500D02*
X530920Y1777500D01*
X530920Y1778165D02*
X533020Y1778165D01*
X533020Y1778830D02*
X530920Y1778830D01*
X530920Y1779495D02*
X533020Y1779495D01*
X533020Y1780160D02*
X530920Y1780160D01*
X530920Y1780825D02*
X533020Y1780825D01*
X533020Y1781490D02*
X530920Y1781490D01*
X530920Y1782155D02*
X533020Y1782155D01*
X533020Y1782820D02*
X530920Y1782820D01*
X530920Y1783485D02*
X533020Y1783485D01*
X533020Y1784150D02*
X530920Y1784150D01*
X530920Y1784815D02*
X533020Y1784815D01*
X533020Y1785480D02*
X530920Y1785480D01*
X530920Y1786145D02*
X533020Y1786145D01*
X533020Y1786810D02*
X530920Y1786810D01*
X530920Y1787475D02*
X533020Y1787475D01*
X533020Y1788140D02*
X530920Y1788140D01*
X530920Y1788805D02*
X533020Y1788805D01*
X533020Y1789470D02*
X530920Y1789470D01*
X530920Y1790135D02*
X533020Y1790135D01*
X525920Y1790170D02*
X525920Y1776170D01*
X525920Y1790170D02*
X528020Y1790170D01*
X528020Y1776170D01*
X525920Y1776170D01*
X525920Y1776835D02*
X528020Y1776835D01*
X528020Y1777500D02*
X525920Y1777500D01*
X525920Y1778165D02*
X528020Y1778165D01*
X528020Y1778830D02*
X525920Y1778830D01*
X525920Y1779495D02*
X528020Y1779495D01*
X528020Y1780160D02*
X525920Y1780160D01*
X525920Y1780825D02*
X528020Y1780825D01*
X528020Y1781490D02*
X525920Y1781490D01*
X525920Y1782155D02*
X528020Y1782155D01*
X528020Y1782820D02*
X525920Y1782820D01*
X525920Y1783485D02*
X528020Y1783485D01*
X528020Y1784150D02*
X525920Y1784150D01*
X525920Y1784815D02*
X528020Y1784815D01*
X528020Y1785480D02*
X525920Y1785480D01*
X525920Y1786145D02*
X528020Y1786145D01*
X528020Y1786810D02*
X525920Y1786810D01*
X525920Y1787475D02*
X528020Y1787475D01*
X528020Y1788140D02*
X525920Y1788140D01*
X525920Y1788805D02*
X528020Y1788805D01*
X528020Y1789470D02*
X525920Y1789470D01*
X525920Y1790135D02*
X528020Y1790135D01*
X520920Y1790170D02*
X520920Y1776170D01*
X520920Y1790170D02*
X523020Y1790170D01*
X523020Y1776170D01*
X520920Y1776170D01*
X520920Y1776835D02*
X523020Y1776835D01*
X523020Y1777500D02*
X520920Y1777500D01*
X520920Y1778165D02*
X523020Y1778165D01*
X523020Y1778830D02*
X520920Y1778830D01*
X520920Y1779495D02*
X523020Y1779495D01*
X523020Y1780160D02*
X520920Y1780160D01*
X520920Y1780825D02*
X523020Y1780825D01*
X523020Y1781490D02*
X520920Y1781490D01*
X520920Y1782155D02*
X523020Y1782155D01*
X523020Y1782820D02*
X520920Y1782820D01*
X520920Y1783485D02*
X523020Y1783485D01*
X523020Y1784150D02*
X520920Y1784150D01*
X520920Y1784815D02*
X523020Y1784815D01*
X523020Y1785480D02*
X520920Y1785480D01*
X520920Y1786145D02*
X523020Y1786145D01*
X523020Y1786810D02*
X520920Y1786810D01*
X520920Y1787475D02*
X523020Y1787475D01*
X523020Y1788140D02*
X520920Y1788140D01*
X520920Y1788805D02*
X523020Y1788805D01*
X523020Y1789470D02*
X520920Y1789470D01*
X520920Y1790135D02*
X523020Y1790135D01*
X515920Y1790170D02*
X515920Y1776170D01*
X515920Y1790170D02*
X518020Y1790170D01*
X518020Y1776170D01*
X515920Y1776170D01*
X515920Y1776835D02*
X518020Y1776835D01*
X518020Y1777500D02*
X515920Y1777500D01*
X515920Y1778165D02*
X518020Y1778165D01*
X518020Y1778830D02*
X515920Y1778830D01*
X515920Y1779495D02*
X518020Y1779495D01*
X518020Y1780160D02*
X515920Y1780160D01*
X515920Y1780825D02*
X518020Y1780825D01*
X518020Y1781490D02*
X515920Y1781490D01*
X515920Y1782155D02*
X518020Y1782155D01*
X518020Y1782820D02*
X515920Y1782820D01*
X515920Y1783485D02*
X518020Y1783485D01*
X518020Y1784150D02*
X515920Y1784150D01*
X515920Y1784815D02*
X518020Y1784815D01*
X518020Y1785480D02*
X515920Y1785480D01*
X515920Y1786145D02*
X518020Y1786145D01*
X518020Y1786810D02*
X515920Y1786810D01*
X515920Y1787475D02*
X518020Y1787475D01*
X518020Y1788140D02*
X515920Y1788140D01*
X515920Y1788805D02*
X518020Y1788805D01*
X518020Y1789470D02*
X515920Y1789470D01*
X515920Y1790135D02*
X518020Y1790135D01*
X510920Y1790170D02*
X510920Y1776170D01*
X510920Y1790170D02*
X513020Y1790170D01*
X513020Y1776170D01*
X510920Y1776170D01*
X510920Y1776835D02*
X513020Y1776835D01*
X513020Y1777500D02*
X510920Y1777500D01*
X510920Y1778165D02*
X513020Y1778165D01*
X513020Y1778830D02*
X510920Y1778830D01*
X510920Y1779495D02*
X513020Y1779495D01*
X513020Y1780160D02*
X510920Y1780160D01*
X510920Y1780825D02*
X513020Y1780825D01*
X513020Y1781490D02*
X510920Y1781490D01*
X510920Y1782155D02*
X513020Y1782155D01*
X513020Y1782820D02*
X510920Y1782820D01*
X510920Y1783485D02*
X513020Y1783485D01*
X513020Y1784150D02*
X510920Y1784150D01*
X510920Y1784815D02*
X513020Y1784815D01*
X513020Y1785480D02*
X510920Y1785480D01*
X510920Y1786145D02*
X513020Y1786145D01*
X513020Y1786810D02*
X510920Y1786810D01*
X510920Y1787475D02*
X513020Y1787475D01*
X513020Y1788140D02*
X510920Y1788140D01*
X510920Y1788805D02*
X513020Y1788805D01*
X513020Y1789470D02*
X510920Y1789470D01*
X510920Y1790135D02*
X513020Y1790135D01*
D12*
X334010Y1871980D03*
X355600Y1724660D03*
D10*
X306070Y1778000D03*
X483870Y1786890D03*
X402590Y1789430D03*
X93980Y1581150D03*
X127000Y1579880D03*
D12*
X690880Y1109980D03*
X685800Y1181100D03*
X311150Y1835150D03*
D10*
X558800Y1841500D03*
D11*
X585850Y1831900D02*
X585850Y1817900D01*
X585850Y1831900D02*
X587950Y1831900D01*
X587950Y1817900D01*
X585850Y1817900D01*
X585850Y1818565D02*
X587950Y1818565D01*
X587950Y1819230D02*
X585850Y1819230D01*
X585850Y1819895D02*
X587950Y1819895D01*
X587950Y1820560D02*
X585850Y1820560D01*
X585850Y1821225D02*
X587950Y1821225D01*
X587950Y1821890D02*
X585850Y1821890D01*
X585850Y1822555D02*
X587950Y1822555D01*
X587950Y1823220D02*
X585850Y1823220D01*
X585850Y1823885D02*
X587950Y1823885D01*
X587950Y1824550D02*
X585850Y1824550D01*
X585850Y1825215D02*
X587950Y1825215D01*
X587950Y1825880D02*
X585850Y1825880D01*
X585850Y1826545D02*
X587950Y1826545D01*
X587950Y1827210D02*
X585850Y1827210D01*
X585850Y1827875D02*
X587950Y1827875D01*
X587950Y1828540D02*
X585850Y1828540D01*
X585850Y1829205D02*
X587950Y1829205D01*
X587950Y1829870D02*
X585850Y1829870D01*
X585850Y1830535D02*
X587950Y1830535D01*
X587950Y1831200D02*
X585850Y1831200D01*
X585850Y1831865D02*
X587950Y1831865D01*
X590850Y1831900D02*
X590850Y1817900D01*
X590850Y1831900D02*
X592950Y1831900D01*
X592950Y1817900D01*
X590850Y1817900D01*
X590850Y1818565D02*
X592950Y1818565D01*
X592950Y1819230D02*
X590850Y1819230D01*
X590850Y1819895D02*
X592950Y1819895D01*
X592950Y1820560D02*
X590850Y1820560D01*
X590850Y1821225D02*
X592950Y1821225D01*
X592950Y1821890D02*
X590850Y1821890D01*
X590850Y1822555D02*
X592950Y1822555D01*
X592950Y1823220D02*
X590850Y1823220D01*
X590850Y1823885D02*
X592950Y1823885D01*
X592950Y1824550D02*
X590850Y1824550D01*
X590850Y1825215D02*
X592950Y1825215D01*
X592950Y1825880D02*
X590850Y1825880D01*
X590850Y1826545D02*
X592950Y1826545D01*
X592950Y1827210D02*
X590850Y1827210D01*
X590850Y1827875D02*
X592950Y1827875D01*
X592950Y1828540D02*
X590850Y1828540D01*
X590850Y1829205D02*
X592950Y1829205D01*
X592950Y1829870D02*
X590850Y1829870D01*
X590850Y1830535D02*
X592950Y1830535D01*
X592950Y1831200D02*
X590850Y1831200D01*
X590850Y1831865D02*
X592950Y1831865D01*
X595850Y1831900D02*
X595850Y1817900D01*
X595850Y1831900D02*
X597950Y1831900D01*
X597950Y1817900D01*
X595850Y1817900D01*
X595850Y1818565D02*
X597950Y1818565D01*
X597950Y1819230D02*
X595850Y1819230D01*
X595850Y1819895D02*
X597950Y1819895D01*
X597950Y1820560D02*
X595850Y1820560D01*
X595850Y1821225D02*
X597950Y1821225D01*
X597950Y1821890D02*
X595850Y1821890D01*
X595850Y1822555D02*
X597950Y1822555D01*
X597950Y1823220D02*
X595850Y1823220D01*
X595850Y1823885D02*
X597950Y1823885D01*
X597950Y1824550D02*
X595850Y1824550D01*
X595850Y1825215D02*
X597950Y1825215D01*
X597950Y1825880D02*
X595850Y1825880D01*
X595850Y1826545D02*
X597950Y1826545D01*
X597950Y1827210D02*
X595850Y1827210D01*
X595850Y1827875D02*
X597950Y1827875D01*
X597950Y1828540D02*
X595850Y1828540D01*
X595850Y1829205D02*
X597950Y1829205D01*
X597950Y1829870D02*
X595850Y1829870D01*
X595850Y1830535D02*
X597950Y1830535D01*
X597950Y1831200D02*
X595850Y1831200D01*
X595850Y1831865D02*
X597950Y1831865D01*
X600850Y1831900D02*
X600850Y1817900D01*
X600850Y1831900D02*
X602950Y1831900D01*
X602950Y1817900D01*
X600850Y1817900D01*
X600850Y1818565D02*
X602950Y1818565D01*
X602950Y1819230D02*
X600850Y1819230D01*
X600850Y1819895D02*
X602950Y1819895D01*
X602950Y1820560D02*
X600850Y1820560D01*
X600850Y1821225D02*
X602950Y1821225D01*
X602950Y1821890D02*
X600850Y1821890D01*
X600850Y1822555D02*
X602950Y1822555D01*
X602950Y1823220D02*
X600850Y1823220D01*
X600850Y1823885D02*
X602950Y1823885D01*
X602950Y1824550D02*
X600850Y1824550D01*
X600850Y1825215D02*
X602950Y1825215D01*
X602950Y1825880D02*
X600850Y1825880D01*
X600850Y1826545D02*
X602950Y1826545D01*
X602950Y1827210D02*
X600850Y1827210D01*
X600850Y1827875D02*
X602950Y1827875D01*
X602950Y1828540D02*
X600850Y1828540D01*
X600850Y1829205D02*
X602950Y1829205D01*
X602950Y1829870D02*
X600850Y1829870D01*
X600850Y1830535D02*
X602950Y1830535D01*
X602950Y1831200D02*
X600850Y1831200D01*
X600850Y1831865D02*
X602950Y1831865D01*
X605850Y1831900D02*
X605850Y1817900D01*
X605850Y1831900D02*
X607950Y1831900D01*
X607950Y1817900D01*
X605850Y1817900D01*
X605850Y1818565D02*
X607950Y1818565D01*
X607950Y1819230D02*
X605850Y1819230D01*
X605850Y1819895D02*
X607950Y1819895D01*
X607950Y1820560D02*
X605850Y1820560D01*
X605850Y1821225D02*
X607950Y1821225D01*
X607950Y1821890D02*
X605850Y1821890D01*
X605850Y1822555D02*
X607950Y1822555D01*
X607950Y1823220D02*
X605850Y1823220D01*
X605850Y1823885D02*
X607950Y1823885D01*
X607950Y1824550D02*
X605850Y1824550D01*
X605850Y1825215D02*
X607950Y1825215D01*
X607950Y1825880D02*
X605850Y1825880D01*
X605850Y1826545D02*
X607950Y1826545D01*
X607950Y1827210D02*
X605850Y1827210D01*
X605850Y1827875D02*
X607950Y1827875D01*
X607950Y1828540D02*
X605850Y1828540D01*
X605850Y1829205D02*
X607950Y1829205D01*
X607950Y1829870D02*
X605850Y1829870D01*
X605850Y1830535D02*
X607950Y1830535D01*
X607950Y1831200D02*
X605850Y1831200D01*
X605850Y1831865D02*
X607950Y1831865D01*
X605850Y1788900D02*
X605850Y1774900D01*
X605850Y1788900D02*
X607950Y1788900D01*
X607950Y1774900D01*
X605850Y1774900D01*
X605850Y1775565D02*
X607950Y1775565D01*
X607950Y1776230D02*
X605850Y1776230D01*
X605850Y1776895D02*
X607950Y1776895D01*
X607950Y1777560D02*
X605850Y1777560D01*
X605850Y1778225D02*
X607950Y1778225D01*
X607950Y1778890D02*
X605850Y1778890D01*
X605850Y1779555D02*
X607950Y1779555D01*
X607950Y1780220D02*
X605850Y1780220D01*
X605850Y1780885D02*
X607950Y1780885D01*
X607950Y1781550D02*
X605850Y1781550D01*
X605850Y1782215D02*
X607950Y1782215D01*
X607950Y1782880D02*
X605850Y1782880D01*
X605850Y1783545D02*
X607950Y1783545D01*
X607950Y1784210D02*
X605850Y1784210D01*
X605850Y1784875D02*
X607950Y1784875D01*
X607950Y1785540D02*
X605850Y1785540D01*
X605850Y1786205D02*
X607950Y1786205D01*
X607950Y1786870D02*
X605850Y1786870D01*
X605850Y1787535D02*
X607950Y1787535D01*
X607950Y1788200D02*
X605850Y1788200D01*
X605850Y1788865D02*
X607950Y1788865D01*
X600850Y1788900D02*
X600850Y1774900D01*
X600850Y1788900D02*
X602950Y1788900D01*
X602950Y1774900D01*
X600850Y1774900D01*
X600850Y1775565D02*
X602950Y1775565D01*
X602950Y1776230D02*
X600850Y1776230D01*
X600850Y1776895D02*
X602950Y1776895D01*
X602950Y1777560D02*
X600850Y1777560D01*
X600850Y1778225D02*
X602950Y1778225D01*
X602950Y1778890D02*
X600850Y1778890D01*
X600850Y1779555D02*
X602950Y1779555D01*
X602950Y1780220D02*
X600850Y1780220D01*
X600850Y1780885D02*
X602950Y1780885D01*
X602950Y1781550D02*
X600850Y1781550D01*
X600850Y1782215D02*
X602950Y1782215D01*
X602950Y1782880D02*
X600850Y1782880D01*
X600850Y1783545D02*
X602950Y1783545D01*
X602950Y1784210D02*
X600850Y1784210D01*
X600850Y1784875D02*
X602950Y1784875D01*
X602950Y1785540D02*
X600850Y1785540D01*
X600850Y1786205D02*
X602950Y1786205D01*
X602950Y1786870D02*
X600850Y1786870D01*
X600850Y1787535D02*
X602950Y1787535D01*
X602950Y1788200D02*
X600850Y1788200D01*
X600850Y1788865D02*
X602950Y1788865D01*
X595850Y1788900D02*
X595850Y1774900D01*
X595850Y1788900D02*
X597950Y1788900D01*
X597950Y1774900D01*
X595850Y1774900D01*
X595850Y1775565D02*
X597950Y1775565D01*
X597950Y1776230D02*
X595850Y1776230D01*
X595850Y1776895D02*
X597950Y1776895D01*
X597950Y1777560D02*
X595850Y1777560D01*
X595850Y1778225D02*
X597950Y1778225D01*
X597950Y1778890D02*
X595850Y1778890D01*
X595850Y1779555D02*
X597950Y1779555D01*
X597950Y1780220D02*
X595850Y1780220D01*
X595850Y1780885D02*
X597950Y1780885D01*
X597950Y1781550D02*
X595850Y1781550D01*
X595850Y1782215D02*
X597950Y1782215D01*
X597950Y1782880D02*
X595850Y1782880D01*
X595850Y1783545D02*
X597950Y1783545D01*
X597950Y1784210D02*
X595850Y1784210D01*
X595850Y1784875D02*
X597950Y1784875D01*
X597950Y1785540D02*
X595850Y1785540D01*
X595850Y1786205D02*
X597950Y1786205D01*
X597950Y1786870D02*
X595850Y1786870D01*
X595850Y1787535D02*
X597950Y1787535D01*
X597950Y1788200D02*
X595850Y1788200D01*
X595850Y1788865D02*
X597950Y1788865D01*
X590850Y1788900D02*
X590850Y1774900D01*
X590850Y1788900D02*
X592950Y1788900D01*
X592950Y1774900D01*
X590850Y1774900D01*
X590850Y1775565D02*
X592950Y1775565D01*
X592950Y1776230D02*
X590850Y1776230D01*
X590850Y1776895D02*
X592950Y1776895D01*
X592950Y1777560D02*
X590850Y1777560D01*
X590850Y1778225D02*
X592950Y1778225D01*
X592950Y1778890D02*
X590850Y1778890D01*
X590850Y1779555D02*
X592950Y1779555D01*
X592950Y1780220D02*
X590850Y1780220D01*
X590850Y1780885D02*
X592950Y1780885D01*
X592950Y1781550D02*
X590850Y1781550D01*
X590850Y1782215D02*
X592950Y1782215D01*
X592950Y1782880D02*
X590850Y1782880D01*
X590850Y1783545D02*
X592950Y1783545D01*
X592950Y1784210D02*
X590850Y1784210D01*
X590850Y1784875D02*
X592950Y1784875D01*
X592950Y1785540D02*
X590850Y1785540D01*
X590850Y1786205D02*
X592950Y1786205D01*
X592950Y1786870D02*
X590850Y1786870D01*
X590850Y1787535D02*
X592950Y1787535D01*
X592950Y1788200D02*
X590850Y1788200D01*
X590850Y1788865D02*
X592950Y1788865D01*
X585850Y1788900D02*
X585850Y1774900D01*
X585850Y1788900D02*
X587950Y1788900D01*
X587950Y1774900D01*
X585850Y1774900D01*
X585850Y1775565D02*
X587950Y1775565D01*
X587950Y1776230D02*
X585850Y1776230D01*
X585850Y1776895D02*
X587950Y1776895D01*
X587950Y1777560D02*
X585850Y1777560D01*
X585850Y1778225D02*
X587950Y1778225D01*
X587950Y1778890D02*
X585850Y1778890D01*
X585850Y1779555D02*
X587950Y1779555D01*
X587950Y1780220D02*
X585850Y1780220D01*
X585850Y1780885D02*
X587950Y1780885D01*
X587950Y1781550D02*
X585850Y1781550D01*
X585850Y1782215D02*
X587950Y1782215D01*
X587950Y1782880D02*
X585850Y1782880D01*
X585850Y1783545D02*
X587950Y1783545D01*
X587950Y1784210D02*
X585850Y1784210D01*
X585850Y1784875D02*
X587950Y1784875D01*
X587950Y1785540D02*
X585850Y1785540D01*
X585850Y1786205D02*
X587950Y1786205D01*
X587950Y1786870D02*
X585850Y1786870D01*
X585850Y1787535D02*
X587950Y1787535D01*
X587950Y1788200D02*
X585850Y1788200D01*
X585850Y1788865D02*
X587950Y1788865D01*
D10*
X558800Y1790700D03*
D13*
X1021080Y736450D03*
X1021080Y749450D03*
X1033780Y736450D03*
X1033780Y749450D03*
X970280Y736450D03*
X970280Y749450D03*
X982980Y736450D03*
X982980Y749450D03*
X957580Y736450D03*
X957580Y749450D03*
X995680Y736450D03*
X995680Y749450D03*
X1008380Y736450D03*
X1008380Y749450D03*
D14*
X942900Y705800D03*
X947900Y705800D03*
X952900Y705800D03*
X957900Y705800D03*
X962900Y705800D03*
X967900Y705800D03*
X972900Y705800D03*
X977900Y705800D03*
X982900Y705800D03*
X987900Y705800D03*
X992900Y705800D03*
X997900Y705800D03*
X1002900Y705800D03*
X1007900Y705800D03*
X1012900Y705800D03*
X1012900Y640400D03*
X1007900Y640400D03*
X1002900Y640400D03*
X997900Y640400D03*
X992900Y640400D03*
X987900Y640400D03*
X982900Y640400D03*
X977900Y640400D03*
X972900Y640400D03*
X967900Y640400D03*
X962900Y640400D03*
X957900Y640400D03*
X952900Y640400D03*
X947900Y640400D03*
X942900Y640400D03*
D10*
X1028700Y706120D03*
X1024890Y612140D03*
X1008380Y596900D03*
X991870Y612140D03*
D15*
X1066800Y713300D03*
X1066800Y658300D03*
D13*
X1054100Y628800D03*
X1054100Y615800D03*
X1066800Y628800D03*
X1066800Y615800D03*
X901700Y739290D03*
X901700Y726290D03*
X924560Y792630D03*
X924560Y779630D03*
X914400Y539900D03*
X914400Y526900D03*
X972820Y519280D03*
X972820Y532280D03*
X901700Y782470D03*
X901700Y769470D03*
X914400Y565000D03*
X914400Y578000D03*
X939800Y519280D03*
X939800Y532280D03*
X900430Y697380D03*
X900430Y684380D03*
D10*
X1016000Y558800D03*
X990600Y558800D03*
M02*
