G04 EAGLE Gerber RS-274X export*
G75*
%MOMM*%
%FSLAX34Y34*%
%LPD*%
%INSolderpaste Top*%
%IPPOS*%
%AMOC8*
5,1,8,0,0,1.08239X$1,22.5*%
G01*
%ADD10R,0.900000X0.700000*%
%ADD11R,0.600000X0.700000*%
%ADD12R,0.700000X0.600000*%
%ADD13C,0.150000*%
%ADD14R,2.540000X5.080000*%
%ADD15R,5.080000X2.540000*%
%ADD16R,0.711200X0.508000*%
%ADD17R,0.700000X0.900000*%
%ADD18C,0.208719*%
%ADD19R,0.508000X0.711200*%
%ADD20R,0.940000X1.460000*%
%ADD21C,0.080000*%
%ADD22R,2.540000X1.270000*%
%ADD23R,1.270000X2.540000*%


D10*
X487680Y543710D03*
X487680Y530710D03*
D11*
X510460Y546100D03*
X500460Y546100D03*
X505380Y598170D03*
X495380Y598170D03*
X481250Y572770D03*
X471250Y572770D03*
X479980Y558800D03*
X469980Y558800D03*
X472360Y591820D03*
X462360Y591820D03*
D12*
X461010Y547290D03*
X461010Y537290D03*
X473710Y536020D03*
X473710Y546020D03*
D11*
X482520Y623570D03*
X472520Y623570D03*
X505380Y582930D03*
X495380Y582930D03*
X482520Y610870D03*
X472520Y610870D03*
X506650Y623570D03*
X496650Y623570D03*
X495380Y610870D03*
X505380Y610870D03*
X495380Y571500D03*
X505380Y571500D03*
X495380Y558800D03*
X505380Y558800D03*
X506650Y636270D03*
X496650Y636270D03*
D13*
X451630Y536920D02*
X433430Y536920D01*
X451630Y536920D02*
X451630Y532420D01*
X433430Y532420D01*
X433430Y536920D01*
X433430Y533845D02*
X451630Y533845D01*
X451630Y535270D02*
X433430Y535270D01*
X433430Y536695D02*
X451630Y536695D01*
X451630Y549620D02*
X433430Y549620D01*
X451630Y549620D02*
X451630Y545120D01*
X433430Y545120D01*
X433430Y549620D01*
X433430Y546545D02*
X451630Y546545D01*
X451630Y547970D02*
X433430Y547970D01*
X433430Y549395D02*
X451630Y549395D01*
X451630Y562320D02*
X433430Y562320D01*
X451630Y562320D02*
X451630Y557820D01*
X433430Y557820D01*
X433430Y562320D01*
X433430Y559245D02*
X451630Y559245D01*
X451630Y560670D02*
X433430Y560670D01*
X433430Y562095D02*
X451630Y562095D01*
X451630Y575020D02*
X433430Y575020D01*
X451630Y575020D02*
X451630Y570520D01*
X433430Y570520D01*
X433430Y575020D01*
X433430Y571945D02*
X451630Y571945D01*
X451630Y573370D02*
X433430Y573370D01*
X433430Y574795D02*
X451630Y574795D01*
X402230Y575020D02*
X384030Y575020D01*
X402230Y575020D02*
X402230Y570520D01*
X384030Y570520D01*
X384030Y575020D01*
X384030Y571945D02*
X402230Y571945D01*
X402230Y573370D02*
X384030Y573370D01*
X384030Y574795D02*
X402230Y574795D01*
X402230Y562320D02*
X384030Y562320D01*
X402230Y562320D02*
X402230Y557820D01*
X384030Y557820D01*
X384030Y562320D01*
X384030Y559245D02*
X402230Y559245D01*
X402230Y560670D02*
X384030Y560670D01*
X384030Y562095D02*
X402230Y562095D01*
X402230Y549620D02*
X384030Y549620D01*
X402230Y549620D02*
X402230Y545120D01*
X384030Y545120D01*
X384030Y549620D01*
X384030Y546545D02*
X402230Y546545D01*
X402230Y547970D02*
X384030Y547970D01*
X384030Y549395D02*
X402230Y549395D01*
X402230Y536920D02*
X384030Y536920D01*
X402230Y536920D02*
X402230Y532420D01*
X384030Y532420D01*
X384030Y536920D01*
X384030Y533845D02*
X402230Y533845D01*
X402230Y535270D02*
X384030Y535270D01*
X384030Y536695D02*
X402230Y536695D01*
D14*
X403860Y612140D03*
D15*
X454660Y510540D03*
D11*
X325200Y635000D03*
X335200Y635000D03*
X350600Y558800D03*
X360600Y558800D03*
X325200Y596900D03*
X335200Y596900D03*
X350600Y571500D03*
X360600Y571500D03*
X325200Y558800D03*
X335200Y558800D03*
X335200Y571500D03*
X325200Y571500D03*
X335200Y609600D03*
X325200Y609600D03*
X335200Y622300D03*
X325200Y622300D03*
X325200Y546100D03*
X335200Y546100D03*
X325200Y584200D03*
X335200Y584200D03*
X350600Y609600D03*
X360600Y609600D03*
X350600Y622300D03*
X360600Y622300D03*
X360760Y590550D03*
X370760Y590550D03*
D12*
X373380Y571420D03*
X373380Y561420D03*
X373380Y548560D03*
X373380Y538560D03*
D10*
X360680Y542440D03*
X360680Y529440D03*
D14*
X436880Y612140D03*
D15*
X393700Y510540D03*
D11*
X275510Y1031240D03*
X265510Y1031240D03*
X272970Y1016000D03*
X262970Y1016000D03*
X272970Y1002030D03*
X262970Y1002030D03*
D12*
X328930Y918290D03*
X328930Y928290D03*
D11*
X248840Y876300D03*
X238840Y876300D03*
D12*
X342900Y904160D03*
X342900Y894160D03*
D11*
X351710Y863600D03*
X341710Y863600D03*
D13*
X272550Y982000D02*
X258250Y982000D01*
X258250Y986500D01*
X272550Y986500D01*
X272550Y982000D01*
X272550Y983425D02*
X258250Y983425D01*
X258250Y984850D02*
X272550Y984850D01*
X272550Y986275D02*
X258250Y986275D01*
X258250Y969300D02*
X272550Y969300D01*
X258250Y969300D02*
X258250Y973800D01*
X272550Y973800D01*
X272550Y969300D01*
X272550Y970725D02*
X258250Y970725D01*
X258250Y972150D02*
X272550Y972150D01*
X272550Y973575D02*
X258250Y973575D01*
X258250Y956600D02*
X272550Y956600D01*
X258250Y956600D02*
X258250Y961100D01*
X272550Y961100D01*
X272550Y956600D01*
X272550Y958025D02*
X258250Y958025D01*
X258250Y959450D02*
X272550Y959450D01*
X272550Y960875D02*
X258250Y960875D01*
X258250Y943900D02*
X272550Y943900D01*
X258250Y943900D02*
X258250Y948400D01*
X272550Y948400D01*
X272550Y943900D01*
X272550Y945325D02*
X258250Y945325D01*
X258250Y946750D02*
X272550Y946750D01*
X272550Y948175D02*
X258250Y948175D01*
X311650Y943900D02*
X325950Y943900D01*
X311650Y943900D02*
X311650Y948400D01*
X325950Y948400D01*
X325950Y943900D01*
X325950Y945325D02*
X311650Y945325D01*
X311650Y946750D02*
X325950Y946750D01*
X325950Y948175D02*
X311650Y948175D01*
X311650Y956600D02*
X325950Y956600D01*
X311650Y956600D02*
X311650Y961100D01*
X325950Y961100D01*
X325950Y956600D01*
X325950Y958025D02*
X311650Y958025D01*
X311650Y959450D02*
X325950Y959450D01*
X325950Y960875D02*
X311650Y960875D01*
X311650Y969300D02*
X325950Y969300D01*
X311650Y969300D02*
X311650Y973800D01*
X325950Y973800D01*
X325950Y969300D01*
X325950Y970725D02*
X311650Y970725D01*
X311650Y972150D02*
X325950Y972150D01*
X325950Y973575D02*
X311650Y973575D01*
X311650Y982000D02*
X325950Y982000D01*
X311650Y982000D02*
X311650Y986500D01*
X325950Y986500D01*
X325950Y982000D01*
X325950Y983425D02*
X311650Y983425D01*
X311650Y984850D02*
X325950Y984850D01*
X325950Y986275D02*
X311650Y986275D01*
X307700Y865850D02*
X325900Y865850D01*
X325900Y861350D01*
X307700Y861350D01*
X307700Y865850D01*
X307700Y862775D02*
X325900Y862775D01*
X325900Y864200D02*
X307700Y864200D01*
X307700Y865625D02*
X325900Y865625D01*
X325900Y878550D02*
X307700Y878550D01*
X325900Y878550D02*
X325900Y874050D01*
X307700Y874050D01*
X307700Y878550D01*
X307700Y875475D02*
X325900Y875475D01*
X325900Y876900D02*
X307700Y876900D01*
X307700Y878325D02*
X325900Y878325D01*
X325900Y891250D02*
X307700Y891250D01*
X325900Y891250D02*
X325900Y886750D01*
X307700Y886750D01*
X307700Y891250D01*
X307700Y888175D02*
X325900Y888175D01*
X325900Y889600D02*
X307700Y889600D01*
X307700Y891025D02*
X325900Y891025D01*
X325900Y903950D02*
X307700Y903950D01*
X325900Y903950D02*
X325900Y899450D01*
X307700Y899450D01*
X307700Y903950D01*
X307700Y900875D02*
X325900Y900875D01*
X325900Y902300D02*
X307700Y902300D01*
X307700Y903725D02*
X325900Y903725D01*
X276500Y903950D02*
X258300Y903950D01*
X276500Y903950D02*
X276500Y899450D01*
X258300Y899450D01*
X258300Y903950D01*
X258300Y900875D02*
X276500Y900875D01*
X276500Y902300D02*
X258300Y902300D01*
X258300Y903725D02*
X276500Y903725D01*
X276500Y891250D02*
X258300Y891250D01*
X276500Y891250D02*
X276500Y886750D01*
X258300Y886750D01*
X258300Y891250D01*
X258300Y888175D02*
X276500Y888175D01*
X276500Y889600D02*
X258300Y889600D01*
X258300Y891025D02*
X276500Y891025D01*
X276500Y878550D02*
X258300Y878550D01*
X276500Y878550D02*
X276500Y874050D01*
X258300Y874050D01*
X258300Y878550D01*
X258300Y875475D02*
X276500Y875475D01*
X276500Y876900D02*
X258300Y876900D01*
X258300Y878325D02*
X276500Y878325D01*
X276500Y865850D02*
X258300Y865850D01*
X276500Y865850D02*
X276500Y861350D01*
X258300Y861350D01*
X258300Y865850D01*
X258300Y862775D02*
X276500Y862775D01*
X276500Y864200D02*
X258300Y864200D01*
X258300Y865625D02*
X276500Y865625D01*
D16*
X345440Y967740D03*
X345440Y927100D03*
D17*
X234800Y1003300D03*
X247800Y1003300D03*
D11*
X-92790Y1005840D03*
X-102790Y1005840D03*
X-95330Y990600D03*
X-105330Y990600D03*
X-95330Y976630D03*
X-105330Y976630D03*
D12*
X-39370Y892890D03*
X-39370Y902890D03*
D11*
X-119460Y850900D03*
X-129460Y850900D03*
D12*
X-25400Y878760D03*
X-25400Y868760D03*
D11*
X-16590Y838200D03*
X-26590Y838200D03*
D13*
X-95750Y956600D02*
X-110050Y956600D01*
X-110050Y961100D01*
X-95750Y961100D01*
X-95750Y956600D01*
X-95750Y958025D02*
X-110050Y958025D01*
X-110050Y959450D02*
X-95750Y959450D01*
X-95750Y960875D02*
X-110050Y960875D01*
X-110050Y943900D02*
X-95750Y943900D01*
X-110050Y943900D02*
X-110050Y948400D01*
X-95750Y948400D01*
X-95750Y943900D01*
X-95750Y945325D02*
X-110050Y945325D01*
X-110050Y946750D02*
X-95750Y946750D01*
X-95750Y948175D02*
X-110050Y948175D01*
X-110050Y931200D02*
X-95750Y931200D01*
X-110050Y931200D02*
X-110050Y935700D01*
X-95750Y935700D01*
X-95750Y931200D01*
X-95750Y932625D02*
X-110050Y932625D01*
X-110050Y934050D02*
X-95750Y934050D01*
X-95750Y935475D02*
X-110050Y935475D01*
X-110050Y918500D02*
X-95750Y918500D01*
X-110050Y918500D02*
X-110050Y923000D01*
X-95750Y923000D01*
X-95750Y918500D01*
X-95750Y919925D02*
X-110050Y919925D01*
X-110050Y921350D02*
X-95750Y921350D01*
X-95750Y922775D02*
X-110050Y922775D01*
X-56650Y918500D02*
X-42350Y918500D01*
X-56650Y918500D02*
X-56650Y923000D01*
X-42350Y923000D01*
X-42350Y918500D01*
X-42350Y919925D02*
X-56650Y919925D01*
X-56650Y921350D02*
X-42350Y921350D01*
X-42350Y922775D02*
X-56650Y922775D01*
X-56650Y931200D02*
X-42350Y931200D01*
X-56650Y931200D02*
X-56650Y935700D01*
X-42350Y935700D01*
X-42350Y931200D01*
X-42350Y932625D02*
X-56650Y932625D01*
X-56650Y934050D02*
X-42350Y934050D01*
X-42350Y935475D02*
X-56650Y935475D01*
X-56650Y943900D02*
X-42350Y943900D01*
X-56650Y943900D02*
X-56650Y948400D01*
X-42350Y948400D01*
X-42350Y943900D01*
X-42350Y945325D02*
X-56650Y945325D01*
X-56650Y946750D02*
X-42350Y946750D01*
X-42350Y948175D02*
X-56650Y948175D01*
X-56650Y956600D02*
X-42350Y956600D01*
X-56650Y956600D02*
X-56650Y961100D01*
X-42350Y961100D01*
X-42350Y956600D01*
X-42350Y958025D02*
X-56650Y958025D01*
X-56650Y959450D02*
X-42350Y959450D01*
X-42350Y960875D02*
X-56650Y960875D01*
X-60600Y840450D02*
X-42400Y840450D01*
X-42400Y835950D01*
X-60600Y835950D01*
X-60600Y840450D01*
X-60600Y837375D02*
X-42400Y837375D01*
X-42400Y838800D02*
X-60600Y838800D01*
X-60600Y840225D02*
X-42400Y840225D01*
X-42400Y853150D02*
X-60600Y853150D01*
X-42400Y853150D02*
X-42400Y848650D01*
X-60600Y848650D01*
X-60600Y853150D01*
X-60600Y850075D02*
X-42400Y850075D01*
X-42400Y851500D02*
X-60600Y851500D01*
X-60600Y852925D02*
X-42400Y852925D01*
X-42400Y865850D02*
X-60600Y865850D01*
X-42400Y865850D02*
X-42400Y861350D01*
X-60600Y861350D01*
X-60600Y865850D01*
X-60600Y862775D02*
X-42400Y862775D01*
X-42400Y864200D02*
X-60600Y864200D01*
X-60600Y865625D02*
X-42400Y865625D01*
X-42400Y878550D02*
X-60600Y878550D01*
X-42400Y878550D02*
X-42400Y874050D01*
X-60600Y874050D01*
X-60600Y878550D01*
X-60600Y875475D02*
X-42400Y875475D01*
X-42400Y876900D02*
X-60600Y876900D01*
X-60600Y878325D02*
X-42400Y878325D01*
X-91800Y878550D02*
X-110000Y878550D01*
X-91800Y878550D02*
X-91800Y874050D01*
X-110000Y874050D01*
X-110000Y878550D01*
X-110000Y875475D02*
X-91800Y875475D01*
X-91800Y876900D02*
X-110000Y876900D01*
X-110000Y878325D02*
X-91800Y878325D01*
X-91800Y865850D02*
X-110000Y865850D01*
X-91800Y865850D02*
X-91800Y861350D01*
X-110000Y861350D01*
X-110000Y865850D01*
X-110000Y862775D02*
X-91800Y862775D01*
X-91800Y864200D02*
X-110000Y864200D01*
X-110000Y865625D02*
X-91800Y865625D01*
X-91800Y853150D02*
X-110000Y853150D01*
X-91800Y853150D02*
X-91800Y848650D01*
X-110000Y848650D01*
X-110000Y853150D01*
X-110000Y850075D02*
X-91800Y850075D01*
X-91800Y851500D02*
X-110000Y851500D01*
X-110000Y852925D02*
X-91800Y852925D01*
X-91800Y840450D02*
X-110000Y840450D01*
X-91800Y840450D02*
X-91800Y835950D01*
X-110000Y835950D01*
X-110000Y840450D01*
X-110000Y837375D02*
X-91800Y837375D01*
X-91800Y838800D02*
X-110000Y838800D01*
X-110000Y840225D02*
X-91800Y840225D01*
D16*
X-22860Y942340D03*
X-22860Y901700D03*
D17*
X-133500Y977900D03*
X-120500Y977900D03*
D11*
X504110Y1018540D03*
X494110Y1018540D03*
X501570Y1003300D03*
X491570Y1003300D03*
X501570Y989330D03*
X491570Y989330D03*
D12*
X557530Y905590D03*
X557530Y915590D03*
D11*
X477440Y863600D03*
X467440Y863600D03*
D12*
X571500Y891460D03*
X571500Y881460D03*
D11*
X580310Y850900D03*
X570310Y850900D03*
D13*
X501150Y969300D02*
X486850Y969300D01*
X486850Y973800D01*
X501150Y973800D01*
X501150Y969300D01*
X501150Y970725D02*
X486850Y970725D01*
X486850Y972150D02*
X501150Y972150D01*
X501150Y973575D02*
X486850Y973575D01*
X486850Y956600D02*
X501150Y956600D01*
X486850Y956600D02*
X486850Y961100D01*
X501150Y961100D01*
X501150Y956600D01*
X501150Y958025D02*
X486850Y958025D01*
X486850Y959450D02*
X501150Y959450D01*
X501150Y960875D02*
X486850Y960875D01*
X486850Y943900D02*
X501150Y943900D01*
X486850Y943900D02*
X486850Y948400D01*
X501150Y948400D01*
X501150Y943900D01*
X501150Y945325D02*
X486850Y945325D01*
X486850Y946750D02*
X501150Y946750D01*
X501150Y948175D02*
X486850Y948175D01*
X486850Y931200D02*
X501150Y931200D01*
X486850Y931200D02*
X486850Y935700D01*
X501150Y935700D01*
X501150Y931200D01*
X501150Y932625D02*
X486850Y932625D01*
X486850Y934050D02*
X501150Y934050D01*
X501150Y935475D02*
X486850Y935475D01*
X540250Y931200D02*
X554550Y931200D01*
X540250Y931200D02*
X540250Y935700D01*
X554550Y935700D01*
X554550Y931200D01*
X554550Y932625D02*
X540250Y932625D01*
X540250Y934050D02*
X554550Y934050D01*
X554550Y935475D02*
X540250Y935475D01*
X540250Y943900D02*
X554550Y943900D01*
X540250Y943900D02*
X540250Y948400D01*
X554550Y948400D01*
X554550Y943900D01*
X554550Y945325D02*
X540250Y945325D01*
X540250Y946750D02*
X554550Y946750D01*
X554550Y948175D02*
X540250Y948175D01*
X540250Y956600D02*
X554550Y956600D01*
X540250Y956600D02*
X540250Y961100D01*
X554550Y961100D01*
X554550Y956600D01*
X554550Y958025D02*
X540250Y958025D01*
X540250Y959450D02*
X554550Y959450D01*
X554550Y960875D02*
X540250Y960875D01*
X540250Y969300D02*
X554550Y969300D01*
X540250Y969300D02*
X540250Y973800D01*
X554550Y973800D01*
X554550Y969300D01*
X554550Y970725D02*
X540250Y970725D01*
X540250Y972150D02*
X554550Y972150D01*
X554550Y973575D02*
X540250Y973575D01*
X536300Y853150D02*
X554500Y853150D01*
X554500Y848650D01*
X536300Y848650D01*
X536300Y853150D01*
X536300Y850075D02*
X554500Y850075D01*
X554500Y851500D02*
X536300Y851500D01*
X536300Y852925D02*
X554500Y852925D01*
X554500Y865850D02*
X536300Y865850D01*
X554500Y865850D02*
X554500Y861350D01*
X536300Y861350D01*
X536300Y865850D01*
X536300Y862775D02*
X554500Y862775D01*
X554500Y864200D02*
X536300Y864200D01*
X536300Y865625D02*
X554500Y865625D01*
X554500Y878550D02*
X536300Y878550D01*
X554500Y878550D02*
X554500Y874050D01*
X536300Y874050D01*
X536300Y878550D01*
X536300Y875475D02*
X554500Y875475D01*
X554500Y876900D02*
X536300Y876900D01*
X536300Y878325D02*
X554500Y878325D01*
X554500Y891250D02*
X536300Y891250D01*
X554500Y891250D02*
X554500Y886750D01*
X536300Y886750D01*
X536300Y891250D01*
X536300Y888175D02*
X554500Y888175D01*
X554500Y889600D02*
X536300Y889600D01*
X536300Y891025D02*
X554500Y891025D01*
X505100Y891250D02*
X486900Y891250D01*
X505100Y891250D02*
X505100Y886750D01*
X486900Y886750D01*
X486900Y891250D01*
X486900Y888175D02*
X505100Y888175D01*
X505100Y889600D02*
X486900Y889600D01*
X486900Y891025D02*
X505100Y891025D01*
X505100Y878550D02*
X486900Y878550D01*
X505100Y878550D02*
X505100Y874050D01*
X486900Y874050D01*
X486900Y878550D01*
X486900Y875475D02*
X505100Y875475D01*
X505100Y876900D02*
X486900Y876900D01*
X486900Y878325D02*
X505100Y878325D01*
X505100Y865850D02*
X486900Y865850D01*
X505100Y865850D02*
X505100Y861350D01*
X486900Y861350D01*
X486900Y865850D01*
X486900Y862775D02*
X505100Y862775D01*
X505100Y864200D02*
X486900Y864200D01*
X486900Y865625D02*
X505100Y865625D01*
X505100Y853150D02*
X486900Y853150D01*
X505100Y853150D02*
X505100Y848650D01*
X486900Y848650D01*
X486900Y853150D01*
X486900Y850075D02*
X505100Y850075D01*
X505100Y851500D02*
X486900Y851500D01*
X486900Y852925D02*
X505100Y852925D01*
D16*
X574040Y955040D03*
X574040Y914400D03*
D17*
X463400Y990600D03*
X476400Y990600D03*
D11*
X910510Y1043940D03*
X900510Y1043940D03*
X907970Y1028700D03*
X897970Y1028700D03*
X907970Y1014730D03*
X897970Y1014730D03*
D12*
X963930Y930990D03*
X963930Y940990D03*
D11*
X883840Y889000D03*
X873840Y889000D03*
D12*
X977900Y916860D03*
X977900Y906860D03*
D11*
X986710Y876300D03*
X976710Y876300D03*
D13*
X907550Y994700D02*
X893250Y994700D01*
X893250Y999200D01*
X907550Y999200D01*
X907550Y994700D01*
X907550Y996125D02*
X893250Y996125D01*
X893250Y997550D02*
X907550Y997550D01*
X907550Y998975D02*
X893250Y998975D01*
X893250Y982000D02*
X907550Y982000D01*
X893250Y982000D02*
X893250Y986500D01*
X907550Y986500D01*
X907550Y982000D01*
X907550Y983425D02*
X893250Y983425D01*
X893250Y984850D02*
X907550Y984850D01*
X907550Y986275D02*
X893250Y986275D01*
X893250Y969300D02*
X907550Y969300D01*
X893250Y969300D02*
X893250Y973800D01*
X907550Y973800D01*
X907550Y969300D01*
X907550Y970725D02*
X893250Y970725D01*
X893250Y972150D02*
X907550Y972150D01*
X907550Y973575D02*
X893250Y973575D01*
X893250Y956600D02*
X907550Y956600D01*
X893250Y956600D02*
X893250Y961100D01*
X907550Y961100D01*
X907550Y956600D01*
X907550Y958025D02*
X893250Y958025D01*
X893250Y959450D02*
X907550Y959450D01*
X907550Y960875D02*
X893250Y960875D01*
X946650Y956600D02*
X960950Y956600D01*
X946650Y956600D02*
X946650Y961100D01*
X960950Y961100D01*
X960950Y956600D01*
X960950Y958025D02*
X946650Y958025D01*
X946650Y959450D02*
X960950Y959450D01*
X960950Y960875D02*
X946650Y960875D01*
X946650Y969300D02*
X960950Y969300D01*
X946650Y969300D02*
X946650Y973800D01*
X960950Y973800D01*
X960950Y969300D01*
X960950Y970725D02*
X946650Y970725D01*
X946650Y972150D02*
X960950Y972150D01*
X960950Y973575D02*
X946650Y973575D01*
X946650Y982000D02*
X960950Y982000D01*
X946650Y982000D02*
X946650Y986500D01*
X960950Y986500D01*
X960950Y982000D01*
X960950Y983425D02*
X946650Y983425D01*
X946650Y984850D02*
X960950Y984850D01*
X960950Y986275D02*
X946650Y986275D01*
X946650Y994700D02*
X960950Y994700D01*
X946650Y994700D02*
X946650Y999200D01*
X960950Y999200D01*
X960950Y994700D01*
X960950Y996125D02*
X946650Y996125D01*
X946650Y997550D02*
X960950Y997550D01*
X960950Y998975D02*
X946650Y998975D01*
X942700Y878550D02*
X960900Y878550D01*
X960900Y874050D01*
X942700Y874050D01*
X942700Y878550D01*
X942700Y875475D02*
X960900Y875475D01*
X960900Y876900D02*
X942700Y876900D01*
X942700Y878325D02*
X960900Y878325D01*
X960900Y891250D02*
X942700Y891250D01*
X960900Y891250D02*
X960900Y886750D01*
X942700Y886750D01*
X942700Y891250D01*
X942700Y888175D02*
X960900Y888175D01*
X960900Y889600D02*
X942700Y889600D01*
X942700Y891025D02*
X960900Y891025D01*
X960900Y903950D02*
X942700Y903950D01*
X960900Y903950D02*
X960900Y899450D01*
X942700Y899450D01*
X942700Y903950D01*
X942700Y900875D02*
X960900Y900875D01*
X960900Y902300D02*
X942700Y902300D01*
X942700Y903725D02*
X960900Y903725D01*
X960900Y916650D02*
X942700Y916650D01*
X960900Y916650D02*
X960900Y912150D01*
X942700Y912150D01*
X942700Y916650D01*
X942700Y913575D02*
X960900Y913575D01*
X960900Y915000D02*
X942700Y915000D01*
X942700Y916425D02*
X960900Y916425D01*
X911500Y916650D02*
X893300Y916650D01*
X911500Y916650D02*
X911500Y912150D01*
X893300Y912150D01*
X893300Y916650D01*
X893300Y913575D02*
X911500Y913575D01*
X911500Y915000D02*
X893300Y915000D01*
X893300Y916425D02*
X911500Y916425D01*
X911500Y903950D02*
X893300Y903950D01*
X911500Y903950D02*
X911500Y899450D01*
X893300Y899450D01*
X893300Y903950D01*
X893300Y900875D02*
X911500Y900875D01*
X911500Y902300D02*
X893300Y902300D01*
X893300Y903725D02*
X911500Y903725D01*
X911500Y891250D02*
X893300Y891250D01*
X911500Y891250D02*
X911500Y886750D01*
X893300Y886750D01*
X893300Y891250D01*
X893300Y888175D02*
X911500Y888175D01*
X911500Y889600D02*
X893300Y889600D01*
X893300Y891025D02*
X911500Y891025D01*
X911500Y878550D02*
X893300Y878550D01*
X911500Y878550D02*
X911500Y874050D01*
X893300Y874050D01*
X893300Y878550D01*
X893300Y875475D02*
X911500Y875475D01*
X911500Y876900D02*
X893300Y876900D01*
X893300Y878325D02*
X911500Y878325D01*
D16*
X980440Y980440D03*
X980440Y939800D03*
D17*
X869800Y1016000D03*
X882800Y1016000D03*
X3660Y844550D03*
X16660Y844550D03*
X1420Y802640D03*
X-11580Y802640D03*
X-35710Y779780D03*
X-22710Y779780D03*
X-21440Y759460D03*
X-34440Y759460D03*
X-35710Y731520D03*
X-22710Y731520D03*
X-23980Y711200D03*
X-36980Y711200D03*
X10310Y671830D03*
X-2690Y671830D03*
D10*
X31750Y638960D03*
X31750Y625960D03*
X176530Y646580D03*
X176530Y633580D03*
D17*
X192890Y666750D03*
X205890Y666750D03*
D10*
X246380Y701190D03*
X246380Y688190D03*
D17*
X236070Y720090D03*
X249070Y720090D03*
X244960Y767080D03*
X257960Y767080D03*
X237640Y783590D03*
X224640Y783590D03*
X218290Y825500D03*
X231290Y825500D03*
X200810Y838200D03*
X187810Y838200D03*
D10*
X-30480Y794870D03*
X-30480Y807870D03*
X-54610Y750420D03*
X-54610Y763420D03*
D17*
X-16360Y687070D03*
X-29360Y687070D03*
D10*
X57150Y638960D03*
X57150Y625960D03*
D17*
X85240Y596900D03*
X72240Y596900D03*
D10*
X146050Y641500D03*
X146050Y628500D03*
D17*
X217020Y685800D03*
X230020Y685800D03*
X246230Y742950D03*
X259230Y742950D03*
D10*
X234950Y797410D03*
X234950Y810410D03*
X156210Y878690D03*
X156210Y891690D03*
X139700Y858370D03*
X139700Y871370D03*
X107950Y853290D03*
X107950Y866290D03*
X87630Y863450D03*
X87630Y876450D03*
X48260Y859640D03*
X48260Y872640D03*
X35560Y859640D03*
X35560Y872640D03*
D18*
X28077Y807734D02*
X12585Y807734D01*
X12585Y810866D01*
X28077Y810866D01*
X28077Y807734D01*
X28077Y809717D02*
X12585Y809717D01*
X12585Y799734D02*
X28077Y799734D01*
X12585Y799734D02*
X12585Y802866D01*
X28077Y802866D01*
X28077Y799734D01*
X28077Y801717D02*
X12585Y801717D01*
X12585Y791734D02*
X28077Y791734D01*
X12585Y791734D02*
X12585Y794866D01*
X28077Y794866D01*
X28077Y791734D01*
X28077Y793717D02*
X12585Y793717D01*
X12585Y783734D02*
X28077Y783734D01*
X12585Y783734D02*
X12585Y786866D01*
X28077Y786866D01*
X28077Y783734D01*
X28077Y785717D02*
X12585Y785717D01*
X12585Y775734D02*
X28077Y775734D01*
X12585Y775734D02*
X12585Y778866D01*
X28077Y778866D01*
X28077Y775734D01*
X28077Y777717D02*
X12585Y777717D01*
X12585Y767734D02*
X28077Y767734D01*
X12585Y767734D02*
X12585Y770866D01*
X28077Y770866D01*
X28077Y767734D01*
X28077Y769717D02*
X12585Y769717D01*
X12585Y759734D02*
X28077Y759734D01*
X12585Y759734D02*
X12585Y762866D01*
X28077Y762866D01*
X28077Y759734D01*
X28077Y761717D02*
X12585Y761717D01*
X12585Y751734D02*
X28077Y751734D01*
X12585Y751734D02*
X12585Y754866D01*
X28077Y754866D01*
X28077Y751734D01*
X28077Y753717D02*
X12585Y753717D01*
X12585Y743734D02*
X28077Y743734D01*
X12585Y743734D02*
X12585Y746866D01*
X28077Y746866D01*
X28077Y743734D01*
X28077Y745717D02*
X12585Y745717D01*
X12585Y735734D02*
X28077Y735734D01*
X12585Y735734D02*
X12585Y738866D01*
X28077Y738866D01*
X28077Y735734D01*
X28077Y737717D02*
X12585Y737717D01*
X12585Y727734D02*
X28077Y727734D01*
X12585Y727734D02*
X12585Y730866D01*
X28077Y730866D01*
X28077Y727734D01*
X28077Y729717D02*
X12585Y729717D01*
X12585Y719734D02*
X28077Y719734D01*
X12585Y719734D02*
X12585Y722866D01*
X28077Y722866D01*
X28077Y719734D01*
X28077Y721717D02*
X12585Y721717D01*
X12585Y711734D02*
X28077Y711734D01*
X12585Y711734D02*
X12585Y714866D01*
X28077Y714866D01*
X28077Y711734D01*
X28077Y713717D02*
X12585Y713717D01*
X12585Y703734D02*
X28077Y703734D01*
X12585Y703734D02*
X12585Y706866D01*
X28077Y706866D01*
X28077Y703734D01*
X28077Y705717D02*
X12585Y705717D01*
X12585Y695734D02*
X28077Y695734D01*
X12585Y695734D02*
X12585Y698866D01*
X28077Y698866D01*
X28077Y695734D01*
X28077Y697717D02*
X12585Y697717D01*
X12585Y687734D02*
X28077Y687734D01*
X12585Y687734D02*
X12585Y690866D01*
X28077Y690866D01*
X28077Y687734D01*
X28077Y689717D02*
X12585Y689717D01*
X43166Y675777D02*
X43166Y660285D01*
X40034Y660285D01*
X40034Y675777D01*
X43166Y675777D01*
X43166Y662268D02*
X40034Y662268D01*
X40034Y664251D02*
X43166Y664251D01*
X43166Y666234D02*
X40034Y666234D01*
X40034Y668217D02*
X43166Y668217D01*
X43166Y670200D02*
X40034Y670200D01*
X40034Y672183D02*
X43166Y672183D01*
X43166Y674166D02*
X40034Y674166D01*
X51166Y675777D02*
X51166Y660285D01*
X48034Y660285D01*
X48034Y675777D01*
X51166Y675777D01*
X51166Y662268D02*
X48034Y662268D01*
X48034Y664251D02*
X51166Y664251D01*
X51166Y666234D02*
X48034Y666234D01*
X48034Y668217D02*
X51166Y668217D01*
X51166Y670200D02*
X48034Y670200D01*
X48034Y672183D02*
X51166Y672183D01*
X51166Y674166D02*
X48034Y674166D01*
X59166Y675777D02*
X59166Y660285D01*
X56034Y660285D01*
X56034Y675777D01*
X59166Y675777D01*
X59166Y662268D02*
X56034Y662268D01*
X56034Y664251D02*
X59166Y664251D01*
X59166Y666234D02*
X56034Y666234D01*
X56034Y668217D02*
X59166Y668217D01*
X59166Y670200D02*
X56034Y670200D01*
X56034Y672183D02*
X59166Y672183D01*
X59166Y674166D02*
X56034Y674166D01*
X67166Y675777D02*
X67166Y660285D01*
X64034Y660285D01*
X64034Y675777D01*
X67166Y675777D01*
X67166Y662268D02*
X64034Y662268D01*
X64034Y664251D02*
X67166Y664251D01*
X67166Y666234D02*
X64034Y666234D01*
X64034Y668217D02*
X67166Y668217D01*
X67166Y670200D02*
X64034Y670200D01*
X64034Y672183D02*
X67166Y672183D01*
X67166Y674166D02*
X64034Y674166D01*
X75166Y675777D02*
X75166Y660285D01*
X72034Y660285D01*
X72034Y675777D01*
X75166Y675777D01*
X75166Y662268D02*
X72034Y662268D01*
X72034Y664251D02*
X75166Y664251D01*
X75166Y666234D02*
X72034Y666234D01*
X72034Y668217D02*
X75166Y668217D01*
X75166Y670200D02*
X72034Y670200D01*
X72034Y672183D02*
X75166Y672183D01*
X75166Y674166D02*
X72034Y674166D01*
X83166Y675777D02*
X83166Y660285D01*
X80034Y660285D01*
X80034Y675777D01*
X83166Y675777D01*
X83166Y662268D02*
X80034Y662268D01*
X80034Y664251D02*
X83166Y664251D01*
X83166Y666234D02*
X80034Y666234D01*
X80034Y668217D02*
X83166Y668217D01*
X83166Y670200D02*
X80034Y670200D01*
X80034Y672183D02*
X83166Y672183D01*
X83166Y674166D02*
X80034Y674166D01*
X91166Y675777D02*
X91166Y660285D01*
X88034Y660285D01*
X88034Y675777D01*
X91166Y675777D01*
X91166Y662268D02*
X88034Y662268D01*
X88034Y664251D02*
X91166Y664251D01*
X91166Y666234D02*
X88034Y666234D01*
X88034Y668217D02*
X91166Y668217D01*
X91166Y670200D02*
X88034Y670200D01*
X88034Y672183D02*
X91166Y672183D01*
X91166Y674166D02*
X88034Y674166D01*
X99166Y675777D02*
X99166Y660285D01*
X96034Y660285D01*
X96034Y675777D01*
X99166Y675777D01*
X99166Y662268D02*
X96034Y662268D01*
X96034Y664251D02*
X99166Y664251D01*
X99166Y666234D02*
X96034Y666234D01*
X96034Y668217D02*
X99166Y668217D01*
X99166Y670200D02*
X96034Y670200D01*
X96034Y672183D02*
X99166Y672183D01*
X99166Y674166D02*
X96034Y674166D01*
X107166Y675777D02*
X107166Y660285D01*
X104034Y660285D01*
X104034Y675777D01*
X107166Y675777D01*
X107166Y662268D02*
X104034Y662268D01*
X104034Y664251D02*
X107166Y664251D01*
X107166Y666234D02*
X104034Y666234D01*
X104034Y668217D02*
X107166Y668217D01*
X107166Y670200D02*
X104034Y670200D01*
X104034Y672183D02*
X107166Y672183D01*
X107166Y674166D02*
X104034Y674166D01*
X115166Y675777D02*
X115166Y660285D01*
X112034Y660285D01*
X112034Y675777D01*
X115166Y675777D01*
X115166Y662268D02*
X112034Y662268D01*
X112034Y664251D02*
X115166Y664251D01*
X115166Y666234D02*
X112034Y666234D01*
X112034Y668217D02*
X115166Y668217D01*
X115166Y670200D02*
X112034Y670200D01*
X112034Y672183D02*
X115166Y672183D01*
X115166Y674166D02*
X112034Y674166D01*
X123166Y675777D02*
X123166Y660285D01*
X120034Y660285D01*
X120034Y675777D01*
X123166Y675777D01*
X123166Y662268D02*
X120034Y662268D01*
X120034Y664251D02*
X123166Y664251D01*
X123166Y666234D02*
X120034Y666234D01*
X120034Y668217D02*
X123166Y668217D01*
X123166Y670200D02*
X120034Y670200D01*
X120034Y672183D02*
X123166Y672183D01*
X123166Y674166D02*
X120034Y674166D01*
X131166Y675777D02*
X131166Y660285D01*
X128034Y660285D01*
X128034Y675777D01*
X131166Y675777D01*
X131166Y662268D02*
X128034Y662268D01*
X128034Y664251D02*
X131166Y664251D01*
X131166Y666234D02*
X128034Y666234D01*
X128034Y668217D02*
X131166Y668217D01*
X131166Y670200D02*
X128034Y670200D01*
X128034Y672183D02*
X131166Y672183D01*
X131166Y674166D02*
X128034Y674166D01*
X139166Y675777D02*
X139166Y660285D01*
X136034Y660285D01*
X136034Y675777D01*
X139166Y675777D01*
X139166Y662268D02*
X136034Y662268D01*
X136034Y664251D02*
X139166Y664251D01*
X139166Y666234D02*
X136034Y666234D01*
X136034Y668217D02*
X139166Y668217D01*
X139166Y670200D02*
X136034Y670200D01*
X136034Y672183D02*
X139166Y672183D01*
X139166Y674166D02*
X136034Y674166D01*
X147166Y675777D02*
X147166Y660285D01*
X144034Y660285D01*
X144034Y675777D01*
X147166Y675777D01*
X147166Y662268D02*
X144034Y662268D01*
X144034Y664251D02*
X147166Y664251D01*
X147166Y666234D02*
X144034Y666234D01*
X144034Y668217D02*
X147166Y668217D01*
X147166Y670200D02*
X144034Y670200D01*
X144034Y672183D02*
X147166Y672183D01*
X147166Y674166D02*
X144034Y674166D01*
X155166Y675777D02*
X155166Y660285D01*
X152034Y660285D01*
X152034Y675777D01*
X155166Y675777D01*
X155166Y662268D02*
X152034Y662268D01*
X152034Y664251D02*
X155166Y664251D01*
X155166Y666234D02*
X152034Y666234D01*
X152034Y668217D02*
X155166Y668217D01*
X155166Y670200D02*
X152034Y670200D01*
X152034Y672183D02*
X155166Y672183D01*
X155166Y674166D02*
X152034Y674166D01*
X163166Y675777D02*
X163166Y660285D01*
X160034Y660285D01*
X160034Y675777D01*
X163166Y675777D01*
X163166Y662268D02*
X160034Y662268D01*
X160034Y664251D02*
X163166Y664251D01*
X163166Y666234D02*
X160034Y666234D01*
X160034Y668217D02*
X163166Y668217D01*
X163166Y670200D02*
X160034Y670200D01*
X160034Y672183D02*
X163166Y672183D01*
X163166Y674166D02*
X160034Y674166D01*
X175123Y687734D02*
X190615Y687734D01*
X175123Y687734D02*
X175123Y690866D01*
X190615Y690866D01*
X190615Y687734D01*
X190615Y689717D02*
X175123Y689717D01*
X175123Y695734D02*
X190615Y695734D01*
X175123Y695734D02*
X175123Y698866D01*
X190615Y698866D01*
X190615Y695734D01*
X190615Y697717D02*
X175123Y697717D01*
X175123Y703734D02*
X190615Y703734D01*
X175123Y703734D02*
X175123Y706866D01*
X190615Y706866D01*
X190615Y703734D01*
X190615Y705717D02*
X175123Y705717D01*
X175123Y711734D02*
X190615Y711734D01*
X175123Y711734D02*
X175123Y714866D01*
X190615Y714866D01*
X190615Y711734D01*
X190615Y713717D02*
X175123Y713717D01*
X175123Y719734D02*
X190615Y719734D01*
X175123Y719734D02*
X175123Y722866D01*
X190615Y722866D01*
X190615Y719734D01*
X190615Y721717D02*
X175123Y721717D01*
X175123Y727734D02*
X190615Y727734D01*
X175123Y727734D02*
X175123Y730866D01*
X190615Y730866D01*
X190615Y727734D01*
X190615Y729717D02*
X175123Y729717D01*
X175123Y735734D02*
X190615Y735734D01*
X175123Y735734D02*
X175123Y738866D01*
X190615Y738866D01*
X190615Y735734D01*
X190615Y737717D02*
X175123Y737717D01*
X175123Y743734D02*
X190615Y743734D01*
X175123Y743734D02*
X175123Y746866D01*
X190615Y746866D01*
X190615Y743734D01*
X190615Y745717D02*
X175123Y745717D01*
X175123Y751734D02*
X190615Y751734D01*
X175123Y751734D02*
X175123Y754866D01*
X190615Y754866D01*
X190615Y751734D01*
X190615Y753717D02*
X175123Y753717D01*
X175123Y759734D02*
X190615Y759734D01*
X175123Y759734D02*
X175123Y762866D01*
X190615Y762866D01*
X190615Y759734D01*
X190615Y761717D02*
X175123Y761717D01*
X175123Y767734D02*
X190615Y767734D01*
X175123Y767734D02*
X175123Y770866D01*
X190615Y770866D01*
X190615Y767734D01*
X190615Y769717D02*
X175123Y769717D01*
X175123Y775734D02*
X190615Y775734D01*
X175123Y775734D02*
X175123Y778866D01*
X190615Y778866D01*
X190615Y775734D01*
X190615Y777717D02*
X175123Y777717D01*
X175123Y783734D02*
X190615Y783734D01*
X175123Y783734D02*
X175123Y786866D01*
X190615Y786866D01*
X190615Y783734D01*
X190615Y785717D02*
X175123Y785717D01*
X175123Y791734D02*
X190615Y791734D01*
X175123Y791734D02*
X175123Y794866D01*
X190615Y794866D01*
X190615Y791734D01*
X190615Y793717D02*
X175123Y793717D01*
X175123Y799734D02*
X190615Y799734D01*
X175123Y799734D02*
X175123Y802866D01*
X190615Y802866D01*
X190615Y799734D01*
X190615Y801717D02*
X175123Y801717D01*
X175123Y807734D02*
X190615Y807734D01*
X175123Y807734D02*
X175123Y810866D01*
X190615Y810866D01*
X190615Y807734D01*
X190615Y809717D02*
X175123Y809717D01*
X163166Y822823D02*
X163166Y838315D01*
X163166Y822823D02*
X160034Y822823D01*
X160034Y838315D01*
X163166Y838315D01*
X163166Y824806D02*
X160034Y824806D01*
X160034Y826789D02*
X163166Y826789D01*
X163166Y828772D02*
X160034Y828772D01*
X160034Y830755D02*
X163166Y830755D01*
X163166Y832738D02*
X160034Y832738D01*
X160034Y834721D02*
X163166Y834721D01*
X163166Y836704D02*
X160034Y836704D01*
X155166Y838315D02*
X155166Y822823D01*
X152034Y822823D01*
X152034Y838315D01*
X155166Y838315D01*
X155166Y824806D02*
X152034Y824806D01*
X152034Y826789D02*
X155166Y826789D01*
X155166Y828772D02*
X152034Y828772D01*
X152034Y830755D02*
X155166Y830755D01*
X155166Y832738D02*
X152034Y832738D01*
X152034Y834721D02*
X155166Y834721D01*
X155166Y836704D02*
X152034Y836704D01*
X147166Y838315D02*
X147166Y822823D01*
X144034Y822823D01*
X144034Y838315D01*
X147166Y838315D01*
X147166Y824806D02*
X144034Y824806D01*
X144034Y826789D02*
X147166Y826789D01*
X147166Y828772D02*
X144034Y828772D01*
X144034Y830755D02*
X147166Y830755D01*
X147166Y832738D02*
X144034Y832738D01*
X144034Y834721D02*
X147166Y834721D01*
X147166Y836704D02*
X144034Y836704D01*
X139166Y838315D02*
X139166Y822823D01*
X136034Y822823D01*
X136034Y838315D01*
X139166Y838315D01*
X139166Y824806D02*
X136034Y824806D01*
X136034Y826789D02*
X139166Y826789D01*
X139166Y828772D02*
X136034Y828772D01*
X136034Y830755D02*
X139166Y830755D01*
X139166Y832738D02*
X136034Y832738D01*
X136034Y834721D02*
X139166Y834721D01*
X139166Y836704D02*
X136034Y836704D01*
X131166Y838315D02*
X131166Y822823D01*
X128034Y822823D01*
X128034Y838315D01*
X131166Y838315D01*
X131166Y824806D02*
X128034Y824806D01*
X128034Y826789D02*
X131166Y826789D01*
X131166Y828772D02*
X128034Y828772D01*
X128034Y830755D02*
X131166Y830755D01*
X131166Y832738D02*
X128034Y832738D01*
X128034Y834721D02*
X131166Y834721D01*
X131166Y836704D02*
X128034Y836704D01*
X123166Y838315D02*
X123166Y822823D01*
X120034Y822823D01*
X120034Y838315D01*
X123166Y838315D01*
X123166Y824806D02*
X120034Y824806D01*
X120034Y826789D02*
X123166Y826789D01*
X123166Y828772D02*
X120034Y828772D01*
X120034Y830755D02*
X123166Y830755D01*
X123166Y832738D02*
X120034Y832738D01*
X120034Y834721D02*
X123166Y834721D01*
X123166Y836704D02*
X120034Y836704D01*
X115166Y838315D02*
X115166Y822823D01*
X112034Y822823D01*
X112034Y838315D01*
X115166Y838315D01*
X115166Y824806D02*
X112034Y824806D01*
X112034Y826789D02*
X115166Y826789D01*
X115166Y828772D02*
X112034Y828772D01*
X112034Y830755D02*
X115166Y830755D01*
X115166Y832738D02*
X112034Y832738D01*
X112034Y834721D02*
X115166Y834721D01*
X115166Y836704D02*
X112034Y836704D01*
X107166Y838315D02*
X107166Y822823D01*
X104034Y822823D01*
X104034Y838315D01*
X107166Y838315D01*
X107166Y824806D02*
X104034Y824806D01*
X104034Y826789D02*
X107166Y826789D01*
X107166Y828772D02*
X104034Y828772D01*
X104034Y830755D02*
X107166Y830755D01*
X107166Y832738D02*
X104034Y832738D01*
X104034Y834721D02*
X107166Y834721D01*
X107166Y836704D02*
X104034Y836704D01*
X99166Y838315D02*
X99166Y822823D01*
X96034Y822823D01*
X96034Y838315D01*
X99166Y838315D01*
X99166Y824806D02*
X96034Y824806D01*
X96034Y826789D02*
X99166Y826789D01*
X99166Y828772D02*
X96034Y828772D01*
X96034Y830755D02*
X99166Y830755D01*
X99166Y832738D02*
X96034Y832738D01*
X96034Y834721D02*
X99166Y834721D01*
X99166Y836704D02*
X96034Y836704D01*
X91166Y838315D02*
X91166Y822823D01*
X88034Y822823D01*
X88034Y838315D01*
X91166Y838315D01*
X91166Y824806D02*
X88034Y824806D01*
X88034Y826789D02*
X91166Y826789D01*
X91166Y828772D02*
X88034Y828772D01*
X88034Y830755D02*
X91166Y830755D01*
X91166Y832738D02*
X88034Y832738D01*
X88034Y834721D02*
X91166Y834721D01*
X91166Y836704D02*
X88034Y836704D01*
X83166Y838315D02*
X83166Y822823D01*
X80034Y822823D01*
X80034Y838315D01*
X83166Y838315D01*
X83166Y824806D02*
X80034Y824806D01*
X80034Y826789D02*
X83166Y826789D01*
X83166Y828772D02*
X80034Y828772D01*
X80034Y830755D02*
X83166Y830755D01*
X83166Y832738D02*
X80034Y832738D01*
X80034Y834721D02*
X83166Y834721D01*
X83166Y836704D02*
X80034Y836704D01*
X75166Y838315D02*
X75166Y822823D01*
X72034Y822823D01*
X72034Y838315D01*
X75166Y838315D01*
X75166Y824806D02*
X72034Y824806D01*
X72034Y826789D02*
X75166Y826789D01*
X75166Y828772D02*
X72034Y828772D01*
X72034Y830755D02*
X75166Y830755D01*
X75166Y832738D02*
X72034Y832738D01*
X72034Y834721D02*
X75166Y834721D01*
X75166Y836704D02*
X72034Y836704D01*
X67166Y838315D02*
X67166Y822823D01*
X64034Y822823D01*
X64034Y838315D01*
X67166Y838315D01*
X67166Y824806D02*
X64034Y824806D01*
X64034Y826789D02*
X67166Y826789D01*
X67166Y828772D02*
X64034Y828772D01*
X64034Y830755D02*
X67166Y830755D01*
X67166Y832738D02*
X64034Y832738D01*
X64034Y834721D02*
X67166Y834721D01*
X67166Y836704D02*
X64034Y836704D01*
X59166Y838315D02*
X59166Y822823D01*
X56034Y822823D01*
X56034Y838315D01*
X59166Y838315D01*
X59166Y824806D02*
X56034Y824806D01*
X56034Y826789D02*
X59166Y826789D01*
X59166Y828772D02*
X56034Y828772D01*
X56034Y830755D02*
X59166Y830755D01*
X59166Y832738D02*
X56034Y832738D01*
X56034Y834721D02*
X59166Y834721D01*
X59166Y836704D02*
X56034Y836704D01*
X51166Y838315D02*
X51166Y822823D01*
X48034Y822823D01*
X48034Y838315D01*
X51166Y838315D01*
X51166Y824806D02*
X48034Y824806D01*
X48034Y826789D02*
X51166Y826789D01*
X51166Y828772D02*
X48034Y828772D01*
X48034Y830755D02*
X51166Y830755D01*
X51166Y832738D02*
X48034Y832738D01*
X48034Y834721D02*
X51166Y834721D01*
X51166Y836704D02*
X48034Y836704D01*
X43166Y838315D02*
X43166Y822823D01*
X40034Y822823D01*
X40034Y838315D01*
X43166Y838315D01*
X43166Y824806D02*
X40034Y824806D01*
X40034Y826789D02*
X43166Y826789D01*
X43166Y828772D02*
X40034Y828772D01*
X40034Y830755D02*
X43166Y830755D01*
X43166Y832738D02*
X40034Y832738D01*
X40034Y834721D02*
X43166Y834721D01*
X43166Y836704D02*
X40034Y836704D01*
D17*
X85240Y581660D03*
X72240Y581660D03*
X613260Y857250D03*
X626260Y857250D03*
X611020Y815340D03*
X598020Y815340D03*
X573890Y792480D03*
X586890Y792480D03*
X588160Y772160D03*
X575160Y772160D03*
X573890Y744220D03*
X586890Y744220D03*
X585620Y723900D03*
X572620Y723900D03*
X619910Y684530D03*
X606910Y684530D03*
D10*
X641350Y651660D03*
X641350Y638660D03*
X786130Y659280D03*
X786130Y646280D03*
D17*
X802490Y679450D03*
X815490Y679450D03*
D10*
X855980Y713890D03*
X855980Y700890D03*
D17*
X845670Y732790D03*
X858670Y732790D03*
X854560Y779780D03*
X867560Y779780D03*
X847240Y796290D03*
X834240Y796290D03*
X827890Y838200D03*
X840890Y838200D03*
X810410Y850900D03*
X797410Y850900D03*
D10*
X579120Y807570D03*
X579120Y820570D03*
X554990Y763120D03*
X554990Y776120D03*
D17*
X593240Y699770D03*
X580240Y699770D03*
D10*
X666750Y651660D03*
X666750Y638660D03*
D17*
X694840Y609600D03*
X681840Y609600D03*
D10*
X755650Y654200D03*
X755650Y641200D03*
D17*
X826620Y698500D03*
X839620Y698500D03*
X855830Y755650D03*
X868830Y755650D03*
D10*
X844550Y810110D03*
X844550Y823110D03*
X765810Y891390D03*
X765810Y904390D03*
X749300Y871070D03*
X749300Y884070D03*
X717550Y865990D03*
X717550Y878990D03*
X697230Y876150D03*
X697230Y889150D03*
X657860Y872340D03*
X657860Y885340D03*
X645160Y872340D03*
X645160Y885340D03*
D18*
X637677Y820434D02*
X622185Y820434D01*
X622185Y823566D01*
X637677Y823566D01*
X637677Y820434D01*
X637677Y822417D02*
X622185Y822417D01*
X622185Y812434D02*
X637677Y812434D01*
X622185Y812434D02*
X622185Y815566D01*
X637677Y815566D01*
X637677Y812434D01*
X637677Y814417D02*
X622185Y814417D01*
X622185Y804434D02*
X637677Y804434D01*
X622185Y804434D02*
X622185Y807566D01*
X637677Y807566D01*
X637677Y804434D01*
X637677Y806417D02*
X622185Y806417D01*
X622185Y796434D02*
X637677Y796434D01*
X622185Y796434D02*
X622185Y799566D01*
X637677Y799566D01*
X637677Y796434D01*
X637677Y798417D02*
X622185Y798417D01*
X622185Y788434D02*
X637677Y788434D01*
X622185Y788434D02*
X622185Y791566D01*
X637677Y791566D01*
X637677Y788434D01*
X637677Y790417D02*
X622185Y790417D01*
X622185Y780434D02*
X637677Y780434D01*
X622185Y780434D02*
X622185Y783566D01*
X637677Y783566D01*
X637677Y780434D01*
X637677Y782417D02*
X622185Y782417D01*
X622185Y772434D02*
X637677Y772434D01*
X622185Y772434D02*
X622185Y775566D01*
X637677Y775566D01*
X637677Y772434D01*
X637677Y774417D02*
X622185Y774417D01*
X622185Y764434D02*
X637677Y764434D01*
X622185Y764434D02*
X622185Y767566D01*
X637677Y767566D01*
X637677Y764434D01*
X637677Y766417D02*
X622185Y766417D01*
X622185Y756434D02*
X637677Y756434D01*
X622185Y756434D02*
X622185Y759566D01*
X637677Y759566D01*
X637677Y756434D01*
X637677Y758417D02*
X622185Y758417D01*
X622185Y748434D02*
X637677Y748434D01*
X622185Y748434D02*
X622185Y751566D01*
X637677Y751566D01*
X637677Y748434D01*
X637677Y750417D02*
X622185Y750417D01*
X622185Y740434D02*
X637677Y740434D01*
X622185Y740434D02*
X622185Y743566D01*
X637677Y743566D01*
X637677Y740434D01*
X637677Y742417D02*
X622185Y742417D01*
X622185Y732434D02*
X637677Y732434D01*
X622185Y732434D02*
X622185Y735566D01*
X637677Y735566D01*
X637677Y732434D01*
X637677Y734417D02*
X622185Y734417D01*
X622185Y724434D02*
X637677Y724434D01*
X622185Y724434D02*
X622185Y727566D01*
X637677Y727566D01*
X637677Y724434D01*
X637677Y726417D02*
X622185Y726417D01*
X622185Y716434D02*
X637677Y716434D01*
X622185Y716434D02*
X622185Y719566D01*
X637677Y719566D01*
X637677Y716434D01*
X637677Y718417D02*
X622185Y718417D01*
X622185Y708434D02*
X637677Y708434D01*
X622185Y708434D02*
X622185Y711566D01*
X637677Y711566D01*
X637677Y708434D01*
X637677Y710417D02*
X622185Y710417D01*
X622185Y700434D02*
X637677Y700434D01*
X622185Y700434D02*
X622185Y703566D01*
X637677Y703566D01*
X637677Y700434D01*
X637677Y702417D02*
X622185Y702417D01*
X652766Y688477D02*
X652766Y672985D01*
X649634Y672985D01*
X649634Y688477D01*
X652766Y688477D01*
X652766Y674968D02*
X649634Y674968D01*
X649634Y676951D02*
X652766Y676951D01*
X652766Y678934D02*
X649634Y678934D01*
X649634Y680917D02*
X652766Y680917D01*
X652766Y682900D02*
X649634Y682900D01*
X649634Y684883D02*
X652766Y684883D01*
X652766Y686866D02*
X649634Y686866D01*
X660766Y688477D02*
X660766Y672985D01*
X657634Y672985D01*
X657634Y688477D01*
X660766Y688477D01*
X660766Y674968D02*
X657634Y674968D01*
X657634Y676951D02*
X660766Y676951D01*
X660766Y678934D02*
X657634Y678934D01*
X657634Y680917D02*
X660766Y680917D01*
X660766Y682900D02*
X657634Y682900D01*
X657634Y684883D02*
X660766Y684883D01*
X660766Y686866D02*
X657634Y686866D01*
X668766Y688477D02*
X668766Y672985D01*
X665634Y672985D01*
X665634Y688477D01*
X668766Y688477D01*
X668766Y674968D02*
X665634Y674968D01*
X665634Y676951D02*
X668766Y676951D01*
X668766Y678934D02*
X665634Y678934D01*
X665634Y680917D02*
X668766Y680917D01*
X668766Y682900D02*
X665634Y682900D01*
X665634Y684883D02*
X668766Y684883D01*
X668766Y686866D02*
X665634Y686866D01*
X676766Y688477D02*
X676766Y672985D01*
X673634Y672985D01*
X673634Y688477D01*
X676766Y688477D01*
X676766Y674968D02*
X673634Y674968D01*
X673634Y676951D02*
X676766Y676951D01*
X676766Y678934D02*
X673634Y678934D01*
X673634Y680917D02*
X676766Y680917D01*
X676766Y682900D02*
X673634Y682900D01*
X673634Y684883D02*
X676766Y684883D01*
X676766Y686866D02*
X673634Y686866D01*
X684766Y688477D02*
X684766Y672985D01*
X681634Y672985D01*
X681634Y688477D01*
X684766Y688477D01*
X684766Y674968D02*
X681634Y674968D01*
X681634Y676951D02*
X684766Y676951D01*
X684766Y678934D02*
X681634Y678934D01*
X681634Y680917D02*
X684766Y680917D01*
X684766Y682900D02*
X681634Y682900D01*
X681634Y684883D02*
X684766Y684883D01*
X684766Y686866D02*
X681634Y686866D01*
X692766Y688477D02*
X692766Y672985D01*
X689634Y672985D01*
X689634Y688477D01*
X692766Y688477D01*
X692766Y674968D02*
X689634Y674968D01*
X689634Y676951D02*
X692766Y676951D01*
X692766Y678934D02*
X689634Y678934D01*
X689634Y680917D02*
X692766Y680917D01*
X692766Y682900D02*
X689634Y682900D01*
X689634Y684883D02*
X692766Y684883D01*
X692766Y686866D02*
X689634Y686866D01*
X700766Y688477D02*
X700766Y672985D01*
X697634Y672985D01*
X697634Y688477D01*
X700766Y688477D01*
X700766Y674968D02*
X697634Y674968D01*
X697634Y676951D02*
X700766Y676951D01*
X700766Y678934D02*
X697634Y678934D01*
X697634Y680917D02*
X700766Y680917D01*
X700766Y682900D02*
X697634Y682900D01*
X697634Y684883D02*
X700766Y684883D01*
X700766Y686866D02*
X697634Y686866D01*
X708766Y688477D02*
X708766Y672985D01*
X705634Y672985D01*
X705634Y688477D01*
X708766Y688477D01*
X708766Y674968D02*
X705634Y674968D01*
X705634Y676951D02*
X708766Y676951D01*
X708766Y678934D02*
X705634Y678934D01*
X705634Y680917D02*
X708766Y680917D01*
X708766Y682900D02*
X705634Y682900D01*
X705634Y684883D02*
X708766Y684883D01*
X708766Y686866D02*
X705634Y686866D01*
X716766Y688477D02*
X716766Y672985D01*
X713634Y672985D01*
X713634Y688477D01*
X716766Y688477D01*
X716766Y674968D02*
X713634Y674968D01*
X713634Y676951D02*
X716766Y676951D01*
X716766Y678934D02*
X713634Y678934D01*
X713634Y680917D02*
X716766Y680917D01*
X716766Y682900D02*
X713634Y682900D01*
X713634Y684883D02*
X716766Y684883D01*
X716766Y686866D02*
X713634Y686866D01*
X724766Y688477D02*
X724766Y672985D01*
X721634Y672985D01*
X721634Y688477D01*
X724766Y688477D01*
X724766Y674968D02*
X721634Y674968D01*
X721634Y676951D02*
X724766Y676951D01*
X724766Y678934D02*
X721634Y678934D01*
X721634Y680917D02*
X724766Y680917D01*
X724766Y682900D02*
X721634Y682900D01*
X721634Y684883D02*
X724766Y684883D01*
X724766Y686866D02*
X721634Y686866D01*
X732766Y688477D02*
X732766Y672985D01*
X729634Y672985D01*
X729634Y688477D01*
X732766Y688477D01*
X732766Y674968D02*
X729634Y674968D01*
X729634Y676951D02*
X732766Y676951D01*
X732766Y678934D02*
X729634Y678934D01*
X729634Y680917D02*
X732766Y680917D01*
X732766Y682900D02*
X729634Y682900D01*
X729634Y684883D02*
X732766Y684883D01*
X732766Y686866D02*
X729634Y686866D01*
X740766Y688477D02*
X740766Y672985D01*
X737634Y672985D01*
X737634Y688477D01*
X740766Y688477D01*
X740766Y674968D02*
X737634Y674968D01*
X737634Y676951D02*
X740766Y676951D01*
X740766Y678934D02*
X737634Y678934D01*
X737634Y680917D02*
X740766Y680917D01*
X740766Y682900D02*
X737634Y682900D01*
X737634Y684883D02*
X740766Y684883D01*
X740766Y686866D02*
X737634Y686866D01*
X748766Y688477D02*
X748766Y672985D01*
X745634Y672985D01*
X745634Y688477D01*
X748766Y688477D01*
X748766Y674968D02*
X745634Y674968D01*
X745634Y676951D02*
X748766Y676951D01*
X748766Y678934D02*
X745634Y678934D01*
X745634Y680917D02*
X748766Y680917D01*
X748766Y682900D02*
X745634Y682900D01*
X745634Y684883D02*
X748766Y684883D01*
X748766Y686866D02*
X745634Y686866D01*
X756766Y688477D02*
X756766Y672985D01*
X753634Y672985D01*
X753634Y688477D01*
X756766Y688477D01*
X756766Y674968D02*
X753634Y674968D01*
X753634Y676951D02*
X756766Y676951D01*
X756766Y678934D02*
X753634Y678934D01*
X753634Y680917D02*
X756766Y680917D01*
X756766Y682900D02*
X753634Y682900D01*
X753634Y684883D02*
X756766Y684883D01*
X756766Y686866D02*
X753634Y686866D01*
X764766Y688477D02*
X764766Y672985D01*
X761634Y672985D01*
X761634Y688477D01*
X764766Y688477D01*
X764766Y674968D02*
X761634Y674968D01*
X761634Y676951D02*
X764766Y676951D01*
X764766Y678934D02*
X761634Y678934D01*
X761634Y680917D02*
X764766Y680917D01*
X764766Y682900D02*
X761634Y682900D01*
X761634Y684883D02*
X764766Y684883D01*
X764766Y686866D02*
X761634Y686866D01*
X772766Y688477D02*
X772766Y672985D01*
X769634Y672985D01*
X769634Y688477D01*
X772766Y688477D01*
X772766Y674968D02*
X769634Y674968D01*
X769634Y676951D02*
X772766Y676951D01*
X772766Y678934D02*
X769634Y678934D01*
X769634Y680917D02*
X772766Y680917D01*
X772766Y682900D02*
X769634Y682900D01*
X769634Y684883D02*
X772766Y684883D01*
X772766Y686866D02*
X769634Y686866D01*
X784723Y700434D02*
X800215Y700434D01*
X784723Y700434D02*
X784723Y703566D01*
X800215Y703566D01*
X800215Y700434D01*
X800215Y702417D02*
X784723Y702417D01*
X784723Y708434D02*
X800215Y708434D01*
X784723Y708434D02*
X784723Y711566D01*
X800215Y711566D01*
X800215Y708434D01*
X800215Y710417D02*
X784723Y710417D01*
X784723Y716434D02*
X800215Y716434D01*
X784723Y716434D02*
X784723Y719566D01*
X800215Y719566D01*
X800215Y716434D01*
X800215Y718417D02*
X784723Y718417D01*
X784723Y724434D02*
X800215Y724434D01*
X784723Y724434D02*
X784723Y727566D01*
X800215Y727566D01*
X800215Y724434D01*
X800215Y726417D02*
X784723Y726417D01*
X784723Y732434D02*
X800215Y732434D01*
X784723Y732434D02*
X784723Y735566D01*
X800215Y735566D01*
X800215Y732434D01*
X800215Y734417D02*
X784723Y734417D01*
X784723Y740434D02*
X800215Y740434D01*
X784723Y740434D02*
X784723Y743566D01*
X800215Y743566D01*
X800215Y740434D01*
X800215Y742417D02*
X784723Y742417D01*
X784723Y748434D02*
X800215Y748434D01*
X784723Y748434D02*
X784723Y751566D01*
X800215Y751566D01*
X800215Y748434D01*
X800215Y750417D02*
X784723Y750417D01*
X784723Y756434D02*
X800215Y756434D01*
X784723Y756434D02*
X784723Y759566D01*
X800215Y759566D01*
X800215Y756434D01*
X800215Y758417D02*
X784723Y758417D01*
X784723Y764434D02*
X800215Y764434D01*
X784723Y764434D02*
X784723Y767566D01*
X800215Y767566D01*
X800215Y764434D01*
X800215Y766417D02*
X784723Y766417D01*
X784723Y772434D02*
X800215Y772434D01*
X784723Y772434D02*
X784723Y775566D01*
X800215Y775566D01*
X800215Y772434D01*
X800215Y774417D02*
X784723Y774417D01*
X784723Y780434D02*
X800215Y780434D01*
X784723Y780434D02*
X784723Y783566D01*
X800215Y783566D01*
X800215Y780434D01*
X800215Y782417D02*
X784723Y782417D01*
X784723Y788434D02*
X800215Y788434D01*
X784723Y788434D02*
X784723Y791566D01*
X800215Y791566D01*
X800215Y788434D01*
X800215Y790417D02*
X784723Y790417D01*
X784723Y796434D02*
X800215Y796434D01*
X784723Y796434D02*
X784723Y799566D01*
X800215Y799566D01*
X800215Y796434D01*
X800215Y798417D02*
X784723Y798417D01*
X784723Y804434D02*
X800215Y804434D01*
X784723Y804434D02*
X784723Y807566D01*
X800215Y807566D01*
X800215Y804434D01*
X800215Y806417D02*
X784723Y806417D01*
X784723Y812434D02*
X800215Y812434D01*
X784723Y812434D02*
X784723Y815566D01*
X800215Y815566D01*
X800215Y812434D01*
X800215Y814417D02*
X784723Y814417D01*
X784723Y820434D02*
X800215Y820434D01*
X784723Y820434D02*
X784723Y823566D01*
X800215Y823566D01*
X800215Y820434D01*
X800215Y822417D02*
X784723Y822417D01*
X772766Y835523D02*
X772766Y851015D01*
X772766Y835523D02*
X769634Y835523D01*
X769634Y851015D01*
X772766Y851015D01*
X772766Y837506D02*
X769634Y837506D01*
X769634Y839489D02*
X772766Y839489D01*
X772766Y841472D02*
X769634Y841472D01*
X769634Y843455D02*
X772766Y843455D01*
X772766Y845438D02*
X769634Y845438D01*
X769634Y847421D02*
X772766Y847421D01*
X772766Y849404D02*
X769634Y849404D01*
X764766Y851015D02*
X764766Y835523D01*
X761634Y835523D01*
X761634Y851015D01*
X764766Y851015D01*
X764766Y837506D02*
X761634Y837506D01*
X761634Y839489D02*
X764766Y839489D01*
X764766Y841472D02*
X761634Y841472D01*
X761634Y843455D02*
X764766Y843455D01*
X764766Y845438D02*
X761634Y845438D01*
X761634Y847421D02*
X764766Y847421D01*
X764766Y849404D02*
X761634Y849404D01*
X756766Y851015D02*
X756766Y835523D01*
X753634Y835523D01*
X753634Y851015D01*
X756766Y851015D01*
X756766Y837506D02*
X753634Y837506D01*
X753634Y839489D02*
X756766Y839489D01*
X756766Y841472D02*
X753634Y841472D01*
X753634Y843455D02*
X756766Y843455D01*
X756766Y845438D02*
X753634Y845438D01*
X753634Y847421D02*
X756766Y847421D01*
X756766Y849404D02*
X753634Y849404D01*
X748766Y851015D02*
X748766Y835523D01*
X745634Y835523D01*
X745634Y851015D01*
X748766Y851015D01*
X748766Y837506D02*
X745634Y837506D01*
X745634Y839489D02*
X748766Y839489D01*
X748766Y841472D02*
X745634Y841472D01*
X745634Y843455D02*
X748766Y843455D01*
X748766Y845438D02*
X745634Y845438D01*
X745634Y847421D02*
X748766Y847421D01*
X748766Y849404D02*
X745634Y849404D01*
X740766Y851015D02*
X740766Y835523D01*
X737634Y835523D01*
X737634Y851015D01*
X740766Y851015D01*
X740766Y837506D02*
X737634Y837506D01*
X737634Y839489D02*
X740766Y839489D01*
X740766Y841472D02*
X737634Y841472D01*
X737634Y843455D02*
X740766Y843455D01*
X740766Y845438D02*
X737634Y845438D01*
X737634Y847421D02*
X740766Y847421D01*
X740766Y849404D02*
X737634Y849404D01*
X732766Y851015D02*
X732766Y835523D01*
X729634Y835523D01*
X729634Y851015D01*
X732766Y851015D01*
X732766Y837506D02*
X729634Y837506D01*
X729634Y839489D02*
X732766Y839489D01*
X732766Y841472D02*
X729634Y841472D01*
X729634Y843455D02*
X732766Y843455D01*
X732766Y845438D02*
X729634Y845438D01*
X729634Y847421D02*
X732766Y847421D01*
X732766Y849404D02*
X729634Y849404D01*
X724766Y851015D02*
X724766Y835523D01*
X721634Y835523D01*
X721634Y851015D01*
X724766Y851015D01*
X724766Y837506D02*
X721634Y837506D01*
X721634Y839489D02*
X724766Y839489D01*
X724766Y841472D02*
X721634Y841472D01*
X721634Y843455D02*
X724766Y843455D01*
X724766Y845438D02*
X721634Y845438D01*
X721634Y847421D02*
X724766Y847421D01*
X724766Y849404D02*
X721634Y849404D01*
X716766Y851015D02*
X716766Y835523D01*
X713634Y835523D01*
X713634Y851015D01*
X716766Y851015D01*
X716766Y837506D02*
X713634Y837506D01*
X713634Y839489D02*
X716766Y839489D01*
X716766Y841472D02*
X713634Y841472D01*
X713634Y843455D02*
X716766Y843455D01*
X716766Y845438D02*
X713634Y845438D01*
X713634Y847421D02*
X716766Y847421D01*
X716766Y849404D02*
X713634Y849404D01*
X708766Y851015D02*
X708766Y835523D01*
X705634Y835523D01*
X705634Y851015D01*
X708766Y851015D01*
X708766Y837506D02*
X705634Y837506D01*
X705634Y839489D02*
X708766Y839489D01*
X708766Y841472D02*
X705634Y841472D01*
X705634Y843455D02*
X708766Y843455D01*
X708766Y845438D02*
X705634Y845438D01*
X705634Y847421D02*
X708766Y847421D01*
X708766Y849404D02*
X705634Y849404D01*
X700766Y851015D02*
X700766Y835523D01*
X697634Y835523D01*
X697634Y851015D01*
X700766Y851015D01*
X700766Y837506D02*
X697634Y837506D01*
X697634Y839489D02*
X700766Y839489D01*
X700766Y841472D02*
X697634Y841472D01*
X697634Y843455D02*
X700766Y843455D01*
X700766Y845438D02*
X697634Y845438D01*
X697634Y847421D02*
X700766Y847421D01*
X700766Y849404D02*
X697634Y849404D01*
X692766Y851015D02*
X692766Y835523D01*
X689634Y835523D01*
X689634Y851015D01*
X692766Y851015D01*
X692766Y837506D02*
X689634Y837506D01*
X689634Y839489D02*
X692766Y839489D01*
X692766Y841472D02*
X689634Y841472D01*
X689634Y843455D02*
X692766Y843455D01*
X692766Y845438D02*
X689634Y845438D01*
X689634Y847421D02*
X692766Y847421D01*
X692766Y849404D02*
X689634Y849404D01*
X684766Y851015D02*
X684766Y835523D01*
X681634Y835523D01*
X681634Y851015D01*
X684766Y851015D01*
X684766Y837506D02*
X681634Y837506D01*
X681634Y839489D02*
X684766Y839489D01*
X684766Y841472D02*
X681634Y841472D01*
X681634Y843455D02*
X684766Y843455D01*
X684766Y845438D02*
X681634Y845438D01*
X681634Y847421D02*
X684766Y847421D01*
X684766Y849404D02*
X681634Y849404D01*
X676766Y851015D02*
X676766Y835523D01*
X673634Y835523D01*
X673634Y851015D01*
X676766Y851015D01*
X676766Y837506D02*
X673634Y837506D01*
X673634Y839489D02*
X676766Y839489D01*
X676766Y841472D02*
X673634Y841472D01*
X673634Y843455D02*
X676766Y843455D01*
X676766Y845438D02*
X673634Y845438D01*
X673634Y847421D02*
X676766Y847421D01*
X676766Y849404D02*
X673634Y849404D01*
X668766Y851015D02*
X668766Y835523D01*
X665634Y835523D01*
X665634Y851015D01*
X668766Y851015D01*
X668766Y837506D02*
X665634Y837506D01*
X665634Y839489D02*
X668766Y839489D01*
X668766Y841472D02*
X665634Y841472D01*
X665634Y843455D02*
X668766Y843455D01*
X668766Y845438D02*
X665634Y845438D01*
X665634Y847421D02*
X668766Y847421D01*
X668766Y849404D02*
X665634Y849404D01*
X660766Y851015D02*
X660766Y835523D01*
X657634Y835523D01*
X657634Y851015D01*
X660766Y851015D01*
X660766Y837506D02*
X657634Y837506D01*
X657634Y839489D02*
X660766Y839489D01*
X660766Y841472D02*
X657634Y841472D01*
X657634Y843455D02*
X660766Y843455D01*
X660766Y845438D02*
X657634Y845438D01*
X657634Y847421D02*
X660766Y847421D01*
X660766Y849404D02*
X657634Y849404D01*
X652766Y851015D02*
X652766Y835523D01*
X649634Y835523D01*
X649634Y851015D01*
X652766Y851015D01*
X652766Y837506D02*
X649634Y837506D01*
X649634Y839489D02*
X652766Y839489D01*
X652766Y841472D02*
X649634Y841472D01*
X649634Y843455D02*
X652766Y843455D01*
X652766Y845438D02*
X649634Y845438D01*
X649634Y847421D02*
X652766Y847421D01*
X652766Y849404D02*
X649634Y849404D01*
D17*
X694840Y594360D03*
X681840Y594360D03*
X20170Y1310640D03*
X33170Y1310640D03*
D10*
X-48260Y1602590D03*
X-48260Y1615590D03*
X58420Y1090780D03*
X58420Y1103780D03*
D16*
X68580Y1231900D03*
X68580Y1191260D03*
D19*
X-48260Y1419860D03*
X-7620Y1419860D03*
X-7620Y1397000D03*
X-48260Y1397000D03*
X-52070Y1374140D03*
X-11430Y1374140D03*
X76200Y1173480D03*
X35560Y1173480D03*
D16*
X43180Y1191260D03*
X43180Y1231900D03*
X99060Y1167130D03*
X99060Y1207770D03*
D19*
X76200Y1337310D03*
X35560Y1337310D03*
X1270Y1504950D03*
X-39370Y1504950D03*
X-43180Y1475740D03*
X-2540Y1475740D03*
X1270Y1449070D03*
X-39370Y1449070D03*
D12*
X50800Y1540590D03*
X50800Y1550590D03*
X26670Y1544400D03*
X26670Y1554400D03*
X85090Y1357550D03*
X85090Y1347550D03*
D11*
X-18970Y1355090D03*
X-8970Y1355090D03*
D12*
X-67310Y1287860D03*
X-67310Y1297860D03*
X-78740Y1265000D03*
X-78740Y1275000D03*
D11*
X-62150Y1262380D03*
X-52150Y1262380D03*
D12*
X-1270Y1382950D03*
X-1270Y1372950D03*
D11*
X24210Y1294130D03*
X34210Y1294130D03*
D12*
X5080Y1407080D03*
X5080Y1397080D03*
X-46990Y1544400D03*
X-46990Y1554400D03*
X-33020Y1554400D03*
X-33020Y1544400D03*
X-50800Y1436450D03*
X-50800Y1446450D03*
D11*
X15320Y1531620D03*
X25320Y1531620D03*
D12*
X40640Y1264840D03*
X40640Y1254840D03*
X10160Y1365330D03*
X10160Y1375330D03*
X38100Y1550590D03*
X38100Y1540590D03*
D13*
X62520Y1619750D02*
X62520Y1634050D01*
X67020Y1634050D01*
X67020Y1619750D01*
X62520Y1619750D01*
X62520Y1621175D02*
X67020Y1621175D01*
X67020Y1622600D02*
X62520Y1622600D01*
X62520Y1624025D02*
X67020Y1624025D01*
X67020Y1625450D02*
X62520Y1625450D01*
X62520Y1626875D02*
X67020Y1626875D01*
X67020Y1628300D02*
X62520Y1628300D01*
X62520Y1629725D02*
X67020Y1629725D01*
X67020Y1631150D02*
X62520Y1631150D01*
X62520Y1632575D02*
X67020Y1632575D01*
X67020Y1634000D02*
X62520Y1634000D01*
X49820Y1634050D02*
X49820Y1619750D01*
X49820Y1634050D02*
X54320Y1634050D01*
X54320Y1619750D01*
X49820Y1619750D01*
X49820Y1621175D02*
X54320Y1621175D01*
X54320Y1622600D02*
X49820Y1622600D01*
X49820Y1624025D02*
X54320Y1624025D01*
X54320Y1625450D02*
X49820Y1625450D01*
X49820Y1626875D02*
X54320Y1626875D01*
X54320Y1628300D02*
X49820Y1628300D01*
X49820Y1629725D02*
X54320Y1629725D01*
X54320Y1631150D02*
X49820Y1631150D01*
X49820Y1632575D02*
X54320Y1632575D01*
X54320Y1634000D02*
X49820Y1634000D01*
X37120Y1634050D02*
X37120Y1619750D01*
X37120Y1634050D02*
X41620Y1634050D01*
X41620Y1619750D01*
X37120Y1619750D01*
X37120Y1621175D02*
X41620Y1621175D01*
X41620Y1622600D02*
X37120Y1622600D01*
X37120Y1624025D02*
X41620Y1624025D01*
X41620Y1625450D02*
X37120Y1625450D01*
X37120Y1626875D02*
X41620Y1626875D01*
X41620Y1628300D02*
X37120Y1628300D01*
X37120Y1629725D02*
X41620Y1629725D01*
X41620Y1631150D02*
X37120Y1631150D01*
X37120Y1632575D02*
X41620Y1632575D01*
X41620Y1634000D02*
X37120Y1634000D01*
X24420Y1634050D02*
X24420Y1619750D01*
X24420Y1634050D02*
X28920Y1634050D01*
X28920Y1619750D01*
X24420Y1619750D01*
X24420Y1621175D02*
X28920Y1621175D01*
X28920Y1622600D02*
X24420Y1622600D01*
X24420Y1624025D02*
X28920Y1624025D01*
X28920Y1625450D02*
X24420Y1625450D01*
X24420Y1626875D02*
X28920Y1626875D01*
X28920Y1628300D02*
X24420Y1628300D01*
X24420Y1629725D02*
X28920Y1629725D01*
X28920Y1631150D02*
X24420Y1631150D01*
X24420Y1632575D02*
X28920Y1632575D01*
X28920Y1634000D02*
X24420Y1634000D01*
X24420Y1580650D02*
X24420Y1566350D01*
X24420Y1580650D02*
X28920Y1580650D01*
X28920Y1566350D01*
X24420Y1566350D01*
X24420Y1567775D02*
X28920Y1567775D01*
X28920Y1569200D02*
X24420Y1569200D01*
X24420Y1570625D02*
X28920Y1570625D01*
X28920Y1572050D02*
X24420Y1572050D01*
X24420Y1573475D02*
X28920Y1573475D01*
X28920Y1574900D02*
X24420Y1574900D01*
X24420Y1576325D02*
X28920Y1576325D01*
X28920Y1577750D02*
X24420Y1577750D01*
X24420Y1579175D02*
X28920Y1579175D01*
X28920Y1580600D02*
X24420Y1580600D01*
X37120Y1580650D02*
X37120Y1566350D01*
X37120Y1580650D02*
X41620Y1580650D01*
X41620Y1566350D01*
X37120Y1566350D01*
X37120Y1567775D02*
X41620Y1567775D01*
X41620Y1569200D02*
X37120Y1569200D01*
X37120Y1570625D02*
X41620Y1570625D01*
X41620Y1572050D02*
X37120Y1572050D01*
X37120Y1573475D02*
X41620Y1573475D01*
X41620Y1574900D02*
X37120Y1574900D01*
X37120Y1576325D02*
X41620Y1576325D01*
X41620Y1577750D02*
X37120Y1577750D01*
X37120Y1579175D02*
X41620Y1579175D01*
X41620Y1580600D02*
X37120Y1580600D01*
X49820Y1580650D02*
X49820Y1566350D01*
X49820Y1580650D02*
X54320Y1580650D01*
X54320Y1566350D01*
X49820Y1566350D01*
X49820Y1567775D02*
X54320Y1567775D01*
X54320Y1569200D02*
X49820Y1569200D01*
X49820Y1570625D02*
X54320Y1570625D01*
X54320Y1572050D02*
X49820Y1572050D01*
X49820Y1573475D02*
X54320Y1573475D01*
X54320Y1574900D02*
X49820Y1574900D01*
X49820Y1576325D02*
X54320Y1576325D01*
X54320Y1577750D02*
X49820Y1577750D01*
X49820Y1579175D02*
X54320Y1579175D01*
X54320Y1580600D02*
X49820Y1580600D01*
X62520Y1580650D02*
X62520Y1566350D01*
X62520Y1580650D02*
X67020Y1580650D01*
X67020Y1566350D01*
X62520Y1566350D01*
X62520Y1567775D02*
X67020Y1567775D01*
X67020Y1569200D02*
X62520Y1569200D01*
X62520Y1570625D02*
X67020Y1570625D01*
X67020Y1572050D02*
X62520Y1572050D01*
X62520Y1573475D02*
X67020Y1573475D01*
X67020Y1574900D02*
X62520Y1574900D01*
X62520Y1576325D02*
X67020Y1576325D01*
X67020Y1577750D02*
X62520Y1577750D01*
X62520Y1579175D02*
X67020Y1579175D01*
X67020Y1580600D02*
X62520Y1580600D01*
X4100Y1619750D02*
X4100Y1634050D01*
X8600Y1634050D01*
X8600Y1619750D01*
X4100Y1619750D01*
X4100Y1621175D02*
X8600Y1621175D01*
X8600Y1622600D02*
X4100Y1622600D01*
X4100Y1624025D02*
X8600Y1624025D01*
X8600Y1625450D02*
X4100Y1625450D01*
X4100Y1626875D02*
X8600Y1626875D01*
X8600Y1628300D02*
X4100Y1628300D01*
X4100Y1629725D02*
X8600Y1629725D01*
X8600Y1631150D02*
X4100Y1631150D01*
X4100Y1632575D02*
X8600Y1632575D01*
X8600Y1634000D02*
X4100Y1634000D01*
X-8600Y1634050D02*
X-8600Y1619750D01*
X-8600Y1634050D02*
X-4100Y1634050D01*
X-4100Y1619750D01*
X-8600Y1619750D01*
X-8600Y1621175D02*
X-4100Y1621175D01*
X-4100Y1622600D02*
X-8600Y1622600D01*
X-8600Y1624025D02*
X-4100Y1624025D01*
X-4100Y1625450D02*
X-8600Y1625450D01*
X-8600Y1626875D02*
X-4100Y1626875D01*
X-4100Y1628300D02*
X-8600Y1628300D01*
X-8600Y1629725D02*
X-4100Y1629725D01*
X-4100Y1631150D02*
X-8600Y1631150D01*
X-8600Y1632575D02*
X-4100Y1632575D01*
X-4100Y1634000D02*
X-8600Y1634000D01*
X-21300Y1634050D02*
X-21300Y1619750D01*
X-21300Y1634050D02*
X-16800Y1634050D01*
X-16800Y1619750D01*
X-21300Y1619750D01*
X-21300Y1621175D02*
X-16800Y1621175D01*
X-16800Y1622600D02*
X-21300Y1622600D01*
X-21300Y1624025D02*
X-16800Y1624025D01*
X-16800Y1625450D02*
X-21300Y1625450D01*
X-21300Y1626875D02*
X-16800Y1626875D01*
X-16800Y1628300D02*
X-21300Y1628300D01*
X-21300Y1629725D02*
X-16800Y1629725D01*
X-16800Y1631150D02*
X-21300Y1631150D01*
X-21300Y1632575D02*
X-16800Y1632575D01*
X-16800Y1634000D02*
X-21300Y1634000D01*
X-34000Y1634050D02*
X-34000Y1619750D01*
X-34000Y1634050D02*
X-29500Y1634050D01*
X-29500Y1619750D01*
X-34000Y1619750D01*
X-34000Y1621175D02*
X-29500Y1621175D01*
X-29500Y1622600D02*
X-34000Y1622600D01*
X-34000Y1624025D02*
X-29500Y1624025D01*
X-29500Y1625450D02*
X-34000Y1625450D01*
X-34000Y1626875D02*
X-29500Y1626875D01*
X-29500Y1628300D02*
X-34000Y1628300D01*
X-34000Y1629725D02*
X-29500Y1629725D01*
X-29500Y1631150D02*
X-34000Y1631150D01*
X-34000Y1632575D02*
X-29500Y1632575D01*
X-29500Y1634000D02*
X-34000Y1634000D01*
X-34000Y1580650D02*
X-34000Y1566350D01*
X-34000Y1580650D02*
X-29500Y1580650D01*
X-29500Y1566350D01*
X-34000Y1566350D01*
X-34000Y1567775D02*
X-29500Y1567775D01*
X-29500Y1569200D02*
X-34000Y1569200D01*
X-34000Y1570625D02*
X-29500Y1570625D01*
X-29500Y1572050D02*
X-34000Y1572050D01*
X-34000Y1573475D02*
X-29500Y1573475D01*
X-29500Y1574900D02*
X-34000Y1574900D01*
X-34000Y1576325D02*
X-29500Y1576325D01*
X-29500Y1577750D02*
X-34000Y1577750D01*
X-34000Y1579175D02*
X-29500Y1579175D01*
X-29500Y1580600D02*
X-34000Y1580600D01*
X-21300Y1580650D02*
X-21300Y1566350D01*
X-21300Y1580650D02*
X-16800Y1580650D01*
X-16800Y1566350D01*
X-21300Y1566350D01*
X-21300Y1567775D02*
X-16800Y1567775D01*
X-16800Y1569200D02*
X-21300Y1569200D01*
X-21300Y1570625D02*
X-16800Y1570625D01*
X-16800Y1572050D02*
X-21300Y1572050D01*
X-21300Y1573475D02*
X-16800Y1573475D01*
X-16800Y1574900D02*
X-21300Y1574900D01*
X-21300Y1576325D02*
X-16800Y1576325D01*
X-16800Y1577750D02*
X-21300Y1577750D01*
X-21300Y1579175D02*
X-16800Y1579175D01*
X-16800Y1580600D02*
X-21300Y1580600D01*
X-8600Y1580650D02*
X-8600Y1566350D01*
X-8600Y1580650D02*
X-4100Y1580650D01*
X-4100Y1566350D01*
X-8600Y1566350D01*
X-8600Y1567775D02*
X-4100Y1567775D01*
X-4100Y1569200D02*
X-8600Y1569200D01*
X-8600Y1570625D02*
X-4100Y1570625D01*
X-4100Y1572050D02*
X-8600Y1572050D01*
X-8600Y1573475D02*
X-4100Y1573475D01*
X-4100Y1574900D02*
X-8600Y1574900D01*
X-8600Y1576325D02*
X-4100Y1576325D01*
X-4100Y1577750D02*
X-8600Y1577750D01*
X-8600Y1579175D02*
X-4100Y1579175D01*
X-4100Y1580600D02*
X-8600Y1580600D01*
X4100Y1580650D02*
X4100Y1566350D01*
X4100Y1580650D02*
X8600Y1580650D01*
X8600Y1566350D01*
X4100Y1566350D01*
X4100Y1567775D02*
X8600Y1567775D01*
X8600Y1569200D02*
X4100Y1569200D01*
X4100Y1570625D02*
X8600Y1570625D01*
X8600Y1572050D02*
X4100Y1572050D01*
X4100Y1573475D02*
X8600Y1573475D01*
X8600Y1574900D02*
X4100Y1574900D01*
X4100Y1576325D02*
X8600Y1576325D01*
X8600Y1577750D02*
X4100Y1577750D01*
X4100Y1579175D02*
X8600Y1579175D01*
X8600Y1580600D02*
X4100Y1580600D01*
D20*
X104140Y1084580D03*
D21*
X115590Y1076030D02*
X122390Y1076030D01*
X122390Y1073630D01*
X115590Y1073630D01*
X115590Y1076030D01*
X115590Y1074390D02*
X122390Y1074390D01*
X122390Y1075150D02*
X115590Y1075150D01*
X115590Y1075910D02*
X122390Y1075910D01*
X122390Y1082530D02*
X115590Y1082530D01*
X122390Y1082530D02*
X122390Y1080130D01*
X115590Y1080130D01*
X115590Y1082530D01*
X115590Y1080890D02*
X122390Y1080890D01*
X122390Y1081650D02*
X115590Y1081650D01*
X115590Y1082410D02*
X122390Y1082410D01*
X122390Y1089030D02*
X115590Y1089030D01*
X122390Y1089030D02*
X122390Y1086630D01*
X115590Y1086630D01*
X115590Y1089030D01*
X115590Y1087390D02*
X122390Y1087390D01*
X122390Y1088150D02*
X115590Y1088150D01*
X115590Y1088910D02*
X122390Y1088910D01*
X122390Y1095530D02*
X115590Y1095530D01*
X122390Y1095530D02*
X122390Y1093130D01*
X115590Y1093130D01*
X115590Y1095530D01*
X115590Y1093890D02*
X122390Y1093890D01*
X122390Y1094650D02*
X115590Y1094650D01*
X115590Y1095410D02*
X122390Y1095410D01*
X92690Y1095530D02*
X85890Y1095530D01*
X92690Y1095530D02*
X92690Y1093130D01*
X85890Y1093130D01*
X85890Y1095530D01*
X85890Y1093890D02*
X92690Y1093890D01*
X92690Y1094650D02*
X85890Y1094650D01*
X85890Y1095410D02*
X92690Y1095410D01*
X92690Y1089030D02*
X85890Y1089030D01*
X92690Y1089030D02*
X92690Y1086630D01*
X85890Y1086630D01*
X85890Y1089030D01*
X85890Y1087390D02*
X92690Y1087390D01*
X92690Y1088150D02*
X85890Y1088150D01*
X85890Y1088910D02*
X92690Y1088910D01*
X92690Y1082530D02*
X85890Y1082530D01*
X92690Y1082530D02*
X92690Y1080130D01*
X85890Y1080130D01*
X85890Y1082530D01*
X85890Y1080890D02*
X92690Y1080890D01*
X92690Y1081650D02*
X85890Y1081650D01*
X85890Y1082410D02*
X92690Y1082410D01*
X92690Y1076030D02*
X85890Y1076030D01*
X92690Y1076030D02*
X92690Y1073630D01*
X85890Y1073630D01*
X85890Y1076030D01*
X85890Y1074390D02*
X92690Y1074390D01*
X92690Y1075150D02*
X85890Y1075150D01*
X85890Y1075910D02*
X92690Y1075910D01*
D20*
X104140Y1131570D03*
D21*
X115590Y1123020D02*
X122390Y1123020D01*
X122390Y1120620D01*
X115590Y1120620D01*
X115590Y1123020D01*
X115590Y1121380D02*
X122390Y1121380D01*
X122390Y1122140D02*
X115590Y1122140D01*
X115590Y1122900D02*
X122390Y1122900D01*
X122390Y1129520D02*
X115590Y1129520D01*
X122390Y1129520D02*
X122390Y1127120D01*
X115590Y1127120D01*
X115590Y1129520D01*
X115590Y1127880D02*
X122390Y1127880D01*
X122390Y1128640D02*
X115590Y1128640D01*
X115590Y1129400D02*
X122390Y1129400D01*
X122390Y1136020D02*
X115590Y1136020D01*
X122390Y1136020D02*
X122390Y1133620D01*
X115590Y1133620D01*
X115590Y1136020D01*
X115590Y1134380D02*
X122390Y1134380D01*
X122390Y1135140D02*
X115590Y1135140D01*
X115590Y1135900D02*
X122390Y1135900D01*
X122390Y1142520D02*
X115590Y1142520D01*
X122390Y1142520D02*
X122390Y1140120D01*
X115590Y1140120D01*
X115590Y1142520D01*
X115590Y1140880D02*
X122390Y1140880D01*
X122390Y1141640D02*
X115590Y1141640D01*
X115590Y1142400D02*
X122390Y1142400D01*
X92690Y1142520D02*
X85890Y1142520D01*
X92690Y1142520D02*
X92690Y1140120D01*
X85890Y1140120D01*
X85890Y1142520D01*
X85890Y1140880D02*
X92690Y1140880D01*
X92690Y1141640D02*
X85890Y1141640D01*
X85890Y1142400D02*
X92690Y1142400D01*
X92690Y1136020D02*
X85890Y1136020D01*
X92690Y1136020D02*
X92690Y1133620D01*
X85890Y1133620D01*
X85890Y1136020D01*
X85890Y1134380D02*
X92690Y1134380D01*
X92690Y1135140D02*
X85890Y1135140D01*
X85890Y1135900D02*
X92690Y1135900D01*
X92690Y1129520D02*
X85890Y1129520D01*
X92690Y1129520D02*
X92690Y1127120D01*
X85890Y1127120D01*
X85890Y1129520D01*
X85890Y1127880D02*
X92690Y1127880D01*
X92690Y1128640D02*
X85890Y1128640D01*
X85890Y1129400D02*
X92690Y1129400D01*
X92690Y1123020D02*
X85890Y1123020D01*
X92690Y1123020D02*
X92690Y1120620D01*
X85890Y1120620D01*
X85890Y1123020D01*
X85890Y1121380D02*
X92690Y1121380D01*
X92690Y1122140D02*
X85890Y1122140D01*
X85890Y1122900D02*
X92690Y1122900D01*
D13*
X56860Y1243820D02*
X56860Y1262020D01*
X56860Y1243820D02*
X52360Y1243820D01*
X52360Y1262020D01*
X56860Y1262020D01*
X56860Y1245245D02*
X52360Y1245245D01*
X52360Y1246670D02*
X56860Y1246670D01*
X56860Y1248095D02*
X52360Y1248095D01*
X52360Y1249520D02*
X56860Y1249520D01*
X56860Y1250945D02*
X52360Y1250945D01*
X52360Y1252370D02*
X56860Y1252370D01*
X56860Y1253795D02*
X52360Y1253795D01*
X52360Y1255220D02*
X56860Y1255220D01*
X56860Y1256645D02*
X52360Y1256645D01*
X52360Y1258070D02*
X56860Y1258070D01*
X56860Y1259495D02*
X52360Y1259495D01*
X52360Y1260920D02*
X56860Y1260920D01*
X69560Y1262020D02*
X69560Y1243820D01*
X65060Y1243820D01*
X65060Y1262020D01*
X69560Y1262020D01*
X69560Y1245245D02*
X65060Y1245245D01*
X65060Y1246670D02*
X69560Y1246670D01*
X69560Y1248095D02*
X65060Y1248095D01*
X65060Y1249520D02*
X69560Y1249520D01*
X69560Y1250945D02*
X65060Y1250945D01*
X65060Y1252370D02*
X69560Y1252370D01*
X69560Y1253795D02*
X65060Y1253795D01*
X65060Y1255220D02*
X69560Y1255220D01*
X69560Y1256645D02*
X65060Y1256645D01*
X65060Y1258070D02*
X69560Y1258070D01*
X69560Y1259495D02*
X65060Y1259495D01*
X65060Y1260920D02*
X69560Y1260920D01*
X82260Y1262020D02*
X82260Y1243820D01*
X77760Y1243820D01*
X77760Y1262020D01*
X82260Y1262020D01*
X82260Y1245245D02*
X77760Y1245245D01*
X77760Y1246670D02*
X82260Y1246670D01*
X82260Y1248095D02*
X77760Y1248095D01*
X77760Y1249520D02*
X82260Y1249520D01*
X82260Y1250945D02*
X77760Y1250945D01*
X77760Y1252370D02*
X82260Y1252370D01*
X82260Y1253795D02*
X77760Y1253795D01*
X77760Y1255220D02*
X82260Y1255220D01*
X82260Y1256645D02*
X77760Y1256645D01*
X77760Y1258070D02*
X82260Y1258070D01*
X82260Y1259495D02*
X77760Y1259495D01*
X77760Y1260920D02*
X82260Y1260920D01*
X94960Y1262020D02*
X94960Y1243820D01*
X90460Y1243820D01*
X90460Y1262020D01*
X94960Y1262020D01*
X94960Y1245245D02*
X90460Y1245245D01*
X90460Y1246670D02*
X94960Y1246670D01*
X94960Y1248095D02*
X90460Y1248095D01*
X90460Y1249520D02*
X94960Y1249520D01*
X94960Y1250945D02*
X90460Y1250945D01*
X90460Y1252370D02*
X94960Y1252370D01*
X94960Y1253795D02*
X90460Y1253795D01*
X90460Y1255220D02*
X94960Y1255220D01*
X94960Y1256645D02*
X90460Y1256645D01*
X90460Y1258070D02*
X94960Y1258070D01*
X94960Y1259495D02*
X90460Y1259495D01*
X90460Y1260920D02*
X94960Y1260920D01*
X94960Y1293220D02*
X94960Y1311420D01*
X94960Y1293220D02*
X90460Y1293220D01*
X90460Y1311420D01*
X94960Y1311420D01*
X94960Y1294645D02*
X90460Y1294645D01*
X90460Y1296070D02*
X94960Y1296070D01*
X94960Y1297495D02*
X90460Y1297495D01*
X90460Y1298920D02*
X94960Y1298920D01*
X94960Y1300345D02*
X90460Y1300345D01*
X90460Y1301770D02*
X94960Y1301770D01*
X94960Y1303195D02*
X90460Y1303195D01*
X90460Y1304620D02*
X94960Y1304620D01*
X94960Y1306045D02*
X90460Y1306045D01*
X90460Y1307470D02*
X94960Y1307470D01*
X94960Y1308895D02*
X90460Y1308895D01*
X90460Y1310320D02*
X94960Y1310320D01*
X82260Y1311420D02*
X82260Y1293220D01*
X77760Y1293220D01*
X77760Y1311420D01*
X82260Y1311420D01*
X82260Y1294645D02*
X77760Y1294645D01*
X77760Y1296070D02*
X82260Y1296070D01*
X82260Y1297495D02*
X77760Y1297495D01*
X77760Y1298920D02*
X82260Y1298920D01*
X82260Y1300345D02*
X77760Y1300345D01*
X77760Y1301770D02*
X82260Y1301770D01*
X82260Y1303195D02*
X77760Y1303195D01*
X77760Y1304620D02*
X82260Y1304620D01*
X82260Y1306045D02*
X77760Y1306045D01*
X77760Y1307470D02*
X82260Y1307470D01*
X82260Y1308895D02*
X77760Y1308895D01*
X77760Y1310320D02*
X82260Y1310320D01*
X69560Y1311420D02*
X69560Y1293220D01*
X65060Y1293220D01*
X65060Y1311420D01*
X69560Y1311420D01*
X69560Y1294645D02*
X65060Y1294645D01*
X65060Y1296070D02*
X69560Y1296070D01*
X69560Y1297495D02*
X65060Y1297495D01*
X65060Y1298920D02*
X69560Y1298920D01*
X69560Y1300345D02*
X65060Y1300345D01*
X65060Y1301770D02*
X69560Y1301770D01*
X69560Y1303195D02*
X65060Y1303195D01*
X65060Y1304620D02*
X69560Y1304620D01*
X69560Y1306045D02*
X65060Y1306045D01*
X65060Y1307470D02*
X69560Y1307470D01*
X69560Y1308895D02*
X65060Y1308895D01*
X65060Y1310320D02*
X69560Y1310320D01*
X56860Y1311420D02*
X56860Y1293220D01*
X52360Y1293220D01*
X52360Y1311420D01*
X56860Y1311420D01*
X56860Y1294645D02*
X52360Y1294645D01*
X52360Y1296070D02*
X56860Y1296070D01*
X56860Y1297495D02*
X52360Y1297495D01*
X52360Y1298920D02*
X56860Y1298920D01*
X56860Y1300345D02*
X52360Y1300345D01*
X52360Y1301770D02*
X56860Y1301770D01*
X56860Y1303195D02*
X52360Y1303195D01*
X52360Y1304620D02*
X56860Y1304620D01*
X56860Y1306045D02*
X52360Y1306045D01*
X52360Y1307470D02*
X56860Y1307470D01*
X56860Y1308895D02*
X52360Y1308895D01*
X52360Y1310320D02*
X56860Y1310320D01*
X62520Y1504040D02*
X62520Y1522240D01*
X67020Y1522240D01*
X67020Y1504040D01*
X62520Y1504040D01*
X62520Y1505465D02*
X67020Y1505465D01*
X67020Y1506890D02*
X62520Y1506890D01*
X62520Y1508315D02*
X67020Y1508315D01*
X67020Y1509740D02*
X62520Y1509740D01*
X62520Y1511165D02*
X67020Y1511165D01*
X67020Y1512590D02*
X62520Y1512590D01*
X62520Y1514015D02*
X67020Y1514015D01*
X67020Y1515440D02*
X62520Y1515440D01*
X62520Y1516865D02*
X67020Y1516865D01*
X67020Y1518290D02*
X62520Y1518290D01*
X62520Y1519715D02*
X67020Y1519715D01*
X67020Y1521140D02*
X62520Y1521140D01*
X49820Y1522240D02*
X49820Y1504040D01*
X49820Y1522240D02*
X54320Y1522240D01*
X54320Y1504040D01*
X49820Y1504040D01*
X49820Y1505465D02*
X54320Y1505465D01*
X54320Y1506890D02*
X49820Y1506890D01*
X49820Y1508315D02*
X54320Y1508315D01*
X54320Y1509740D02*
X49820Y1509740D01*
X49820Y1511165D02*
X54320Y1511165D01*
X54320Y1512590D02*
X49820Y1512590D01*
X49820Y1514015D02*
X54320Y1514015D01*
X54320Y1515440D02*
X49820Y1515440D01*
X49820Y1516865D02*
X54320Y1516865D01*
X54320Y1518290D02*
X49820Y1518290D01*
X49820Y1519715D02*
X54320Y1519715D01*
X54320Y1521140D02*
X49820Y1521140D01*
X37120Y1522240D02*
X37120Y1504040D01*
X37120Y1522240D02*
X41620Y1522240D01*
X41620Y1504040D01*
X37120Y1504040D01*
X37120Y1505465D02*
X41620Y1505465D01*
X41620Y1506890D02*
X37120Y1506890D01*
X37120Y1508315D02*
X41620Y1508315D01*
X41620Y1509740D02*
X37120Y1509740D01*
X37120Y1511165D02*
X41620Y1511165D01*
X41620Y1512590D02*
X37120Y1512590D01*
X37120Y1514015D02*
X41620Y1514015D01*
X41620Y1515440D02*
X37120Y1515440D01*
X37120Y1516865D02*
X41620Y1516865D01*
X41620Y1518290D02*
X37120Y1518290D01*
X37120Y1519715D02*
X41620Y1519715D01*
X41620Y1521140D02*
X37120Y1521140D01*
X24420Y1522240D02*
X24420Y1504040D01*
X24420Y1522240D02*
X28920Y1522240D01*
X28920Y1504040D01*
X24420Y1504040D01*
X24420Y1505465D02*
X28920Y1505465D01*
X28920Y1506890D02*
X24420Y1506890D01*
X24420Y1508315D02*
X28920Y1508315D01*
X28920Y1509740D02*
X24420Y1509740D01*
X24420Y1511165D02*
X28920Y1511165D01*
X28920Y1512590D02*
X24420Y1512590D01*
X24420Y1514015D02*
X28920Y1514015D01*
X28920Y1515440D02*
X24420Y1515440D01*
X24420Y1516865D02*
X28920Y1516865D01*
X28920Y1518290D02*
X24420Y1518290D01*
X24420Y1519715D02*
X28920Y1519715D01*
X28920Y1521140D02*
X24420Y1521140D01*
X24420Y1472840D02*
X24420Y1454640D01*
X24420Y1472840D02*
X28920Y1472840D01*
X28920Y1454640D01*
X24420Y1454640D01*
X24420Y1456065D02*
X28920Y1456065D01*
X28920Y1457490D02*
X24420Y1457490D01*
X24420Y1458915D02*
X28920Y1458915D01*
X28920Y1460340D02*
X24420Y1460340D01*
X24420Y1461765D02*
X28920Y1461765D01*
X28920Y1463190D02*
X24420Y1463190D01*
X24420Y1464615D02*
X28920Y1464615D01*
X28920Y1466040D02*
X24420Y1466040D01*
X24420Y1467465D02*
X28920Y1467465D01*
X28920Y1468890D02*
X24420Y1468890D01*
X24420Y1470315D02*
X28920Y1470315D01*
X28920Y1471740D02*
X24420Y1471740D01*
X37120Y1472840D02*
X37120Y1454640D01*
X37120Y1472840D02*
X41620Y1472840D01*
X41620Y1454640D01*
X37120Y1454640D01*
X37120Y1456065D02*
X41620Y1456065D01*
X41620Y1457490D02*
X37120Y1457490D01*
X37120Y1458915D02*
X41620Y1458915D01*
X41620Y1460340D02*
X37120Y1460340D01*
X37120Y1461765D02*
X41620Y1461765D01*
X41620Y1463190D02*
X37120Y1463190D01*
X37120Y1464615D02*
X41620Y1464615D01*
X41620Y1466040D02*
X37120Y1466040D01*
X37120Y1467465D02*
X41620Y1467465D01*
X41620Y1468890D02*
X37120Y1468890D01*
X37120Y1470315D02*
X41620Y1470315D01*
X41620Y1471740D02*
X37120Y1471740D01*
X49820Y1472840D02*
X49820Y1454640D01*
X49820Y1472840D02*
X54320Y1472840D01*
X54320Y1454640D01*
X49820Y1454640D01*
X49820Y1456065D02*
X54320Y1456065D01*
X54320Y1457490D02*
X49820Y1457490D01*
X49820Y1458915D02*
X54320Y1458915D01*
X54320Y1460340D02*
X49820Y1460340D01*
X49820Y1461765D02*
X54320Y1461765D01*
X54320Y1463190D02*
X49820Y1463190D01*
X49820Y1464615D02*
X54320Y1464615D01*
X54320Y1466040D02*
X49820Y1466040D01*
X49820Y1467465D02*
X54320Y1467465D01*
X54320Y1468890D02*
X49820Y1468890D01*
X49820Y1470315D02*
X54320Y1470315D01*
X54320Y1471740D02*
X49820Y1471740D01*
X62520Y1472840D02*
X62520Y1454640D01*
X62520Y1472840D02*
X67020Y1472840D01*
X67020Y1454640D01*
X62520Y1454640D01*
X62520Y1456065D02*
X67020Y1456065D01*
X67020Y1457490D02*
X62520Y1457490D01*
X62520Y1458915D02*
X67020Y1458915D01*
X67020Y1460340D02*
X62520Y1460340D01*
X62520Y1461765D02*
X67020Y1461765D01*
X67020Y1463190D02*
X62520Y1463190D01*
X62520Y1464615D02*
X67020Y1464615D01*
X67020Y1466040D02*
X62520Y1466040D01*
X62520Y1467465D02*
X67020Y1467465D01*
X67020Y1468890D02*
X62520Y1468890D01*
X62520Y1470315D02*
X67020Y1470315D01*
X67020Y1471740D02*
X62520Y1471740D01*
X27650Y1378860D02*
X27650Y1360660D01*
X23150Y1360660D01*
X23150Y1378860D01*
X27650Y1378860D01*
X27650Y1362085D02*
X23150Y1362085D01*
X23150Y1363510D02*
X27650Y1363510D01*
X27650Y1364935D02*
X23150Y1364935D01*
X23150Y1366360D02*
X27650Y1366360D01*
X27650Y1367785D02*
X23150Y1367785D01*
X23150Y1369210D02*
X27650Y1369210D01*
X27650Y1370635D02*
X23150Y1370635D01*
X23150Y1372060D02*
X27650Y1372060D01*
X27650Y1373485D02*
X23150Y1373485D01*
X23150Y1374910D02*
X27650Y1374910D01*
X27650Y1376335D02*
X23150Y1376335D01*
X23150Y1377760D02*
X27650Y1377760D01*
X40350Y1378860D02*
X40350Y1360660D01*
X35850Y1360660D01*
X35850Y1378860D01*
X40350Y1378860D01*
X40350Y1362085D02*
X35850Y1362085D01*
X35850Y1363510D02*
X40350Y1363510D01*
X40350Y1364935D02*
X35850Y1364935D01*
X35850Y1366360D02*
X40350Y1366360D01*
X40350Y1367785D02*
X35850Y1367785D01*
X35850Y1369210D02*
X40350Y1369210D01*
X40350Y1370635D02*
X35850Y1370635D01*
X35850Y1372060D02*
X40350Y1372060D01*
X40350Y1373485D02*
X35850Y1373485D01*
X35850Y1374910D02*
X40350Y1374910D01*
X40350Y1376335D02*
X35850Y1376335D01*
X35850Y1377760D02*
X40350Y1377760D01*
X53050Y1378860D02*
X53050Y1360660D01*
X48550Y1360660D01*
X48550Y1378860D01*
X53050Y1378860D01*
X53050Y1362085D02*
X48550Y1362085D01*
X48550Y1363510D02*
X53050Y1363510D01*
X53050Y1364935D02*
X48550Y1364935D01*
X48550Y1366360D02*
X53050Y1366360D01*
X53050Y1367785D02*
X48550Y1367785D01*
X48550Y1369210D02*
X53050Y1369210D01*
X53050Y1370635D02*
X48550Y1370635D01*
X48550Y1372060D02*
X53050Y1372060D01*
X53050Y1373485D02*
X48550Y1373485D01*
X48550Y1374910D02*
X53050Y1374910D01*
X53050Y1376335D02*
X48550Y1376335D01*
X48550Y1377760D02*
X53050Y1377760D01*
X65750Y1378860D02*
X65750Y1360660D01*
X61250Y1360660D01*
X61250Y1378860D01*
X65750Y1378860D01*
X65750Y1362085D02*
X61250Y1362085D01*
X61250Y1363510D02*
X65750Y1363510D01*
X65750Y1364935D02*
X61250Y1364935D01*
X61250Y1366360D02*
X65750Y1366360D01*
X65750Y1367785D02*
X61250Y1367785D01*
X61250Y1369210D02*
X65750Y1369210D01*
X65750Y1370635D02*
X61250Y1370635D01*
X61250Y1372060D02*
X65750Y1372060D01*
X65750Y1373485D02*
X61250Y1373485D01*
X61250Y1374910D02*
X65750Y1374910D01*
X65750Y1376335D02*
X61250Y1376335D01*
X61250Y1377760D02*
X65750Y1377760D01*
X65750Y1410060D02*
X65750Y1428260D01*
X65750Y1410060D02*
X61250Y1410060D01*
X61250Y1428260D01*
X65750Y1428260D01*
X65750Y1411485D02*
X61250Y1411485D01*
X61250Y1412910D02*
X65750Y1412910D01*
X65750Y1414335D02*
X61250Y1414335D01*
X61250Y1415760D02*
X65750Y1415760D01*
X65750Y1417185D02*
X61250Y1417185D01*
X61250Y1418610D02*
X65750Y1418610D01*
X65750Y1420035D02*
X61250Y1420035D01*
X61250Y1421460D02*
X65750Y1421460D01*
X65750Y1422885D02*
X61250Y1422885D01*
X61250Y1424310D02*
X65750Y1424310D01*
X65750Y1425735D02*
X61250Y1425735D01*
X61250Y1427160D02*
X65750Y1427160D01*
X53050Y1428260D02*
X53050Y1410060D01*
X48550Y1410060D01*
X48550Y1428260D01*
X53050Y1428260D01*
X53050Y1411485D02*
X48550Y1411485D01*
X48550Y1412910D02*
X53050Y1412910D01*
X53050Y1414335D02*
X48550Y1414335D01*
X48550Y1415760D02*
X53050Y1415760D01*
X53050Y1417185D02*
X48550Y1417185D01*
X48550Y1418610D02*
X53050Y1418610D01*
X53050Y1420035D02*
X48550Y1420035D01*
X48550Y1421460D02*
X53050Y1421460D01*
X53050Y1422885D02*
X48550Y1422885D01*
X48550Y1424310D02*
X53050Y1424310D01*
X53050Y1425735D02*
X48550Y1425735D01*
X48550Y1427160D02*
X53050Y1427160D01*
X40350Y1428260D02*
X40350Y1410060D01*
X35850Y1410060D01*
X35850Y1428260D01*
X40350Y1428260D01*
X40350Y1411485D02*
X35850Y1411485D01*
X35850Y1412910D02*
X40350Y1412910D01*
X40350Y1414335D02*
X35850Y1414335D01*
X35850Y1415760D02*
X40350Y1415760D01*
X40350Y1417185D02*
X35850Y1417185D01*
X35850Y1418610D02*
X40350Y1418610D01*
X40350Y1420035D02*
X35850Y1420035D01*
X35850Y1421460D02*
X40350Y1421460D01*
X40350Y1422885D02*
X35850Y1422885D01*
X35850Y1424310D02*
X40350Y1424310D01*
X40350Y1425735D02*
X35850Y1425735D01*
X35850Y1427160D02*
X40350Y1427160D01*
X27650Y1428260D02*
X27650Y1410060D01*
X23150Y1410060D01*
X23150Y1428260D01*
X27650Y1428260D01*
X27650Y1411485D02*
X23150Y1411485D01*
X23150Y1412910D02*
X27650Y1412910D01*
X27650Y1414335D02*
X23150Y1414335D01*
X23150Y1415760D02*
X27650Y1415760D01*
X27650Y1417185D02*
X23150Y1417185D01*
X23150Y1418610D02*
X27650Y1418610D01*
X27650Y1420035D02*
X23150Y1420035D01*
X23150Y1421460D02*
X27650Y1421460D01*
X27650Y1422885D02*
X23150Y1422885D01*
X23150Y1424310D02*
X27650Y1424310D01*
X27650Y1425735D02*
X23150Y1425735D01*
X23150Y1427160D02*
X27650Y1427160D01*
X-14950Y1343170D02*
X-14950Y1324970D01*
X-14950Y1343170D02*
X-10450Y1343170D01*
X-10450Y1324970D01*
X-14950Y1324970D01*
X-14950Y1326395D02*
X-10450Y1326395D01*
X-10450Y1327820D02*
X-14950Y1327820D01*
X-14950Y1329245D02*
X-10450Y1329245D01*
X-10450Y1330670D02*
X-14950Y1330670D01*
X-14950Y1332095D02*
X-10450Y1332095D01*
X-10450Y1333520D02*
X-14950Y1333520D01*
X-14950Y1334945D02*
X-10450Y1334945D01*
X-10450Y1336370D02*
X-14950Y1336370D01*
X-14950Y1337795D02*
X-10450Y1337795D01*
X-10450Y1339220D02*
X-14950Y1339220D01*
X-14950Y1340645D02*
X-10450Y1340645D01*
X-10450Y1342070D02*
X-14950Y1342070D01*
X-27650Y1343170D02*
X-27650Y1324970D01*
X-27650Y1343170D02*
X-23150Y1343170D01*
X-23150Y1324970D01*
X-27650Y1324970D01*
X-27650Y1326395D02*
X-23150Y1326395D01*
X-23150Y1327820D02*
X-27650Y1327820D01*
X-27650Y1329245D02*
X-23150Y1329245D01*
X-23150Y1330670D02*
X-27650Y1330670D01*
X-27650Y1332095D02*
X-23150Y1332095D01*
X-23150Y1333520D02*
X-27650Y1333520D01*
X-27650Y1334945D02*
X-23150Y1334945D01*
X-23150Y1336370D02*
X-27650Y1336370D01*
X-27650Y1337795D02*
X-23150Y1337795D01*
X-23150Y1339220D02*
X-27650Y1339220D01*
X-27650Y1340645D02*
X-23150Y1340645D01*
X-23150Y1342070D02*
X-27650Y1342070D01*
X-40350Y1343170D02*
X-40350Y1324970D01*
X-40350Y1343170D02*
X-35850Y1343170D01*
X-35850Y1324970D01*
X-40350Y1324970D01*
X-40350Y1326395D02*
X-35850Y1326395D01*
X-35850Y1327820D02*
X-40350Y1327820D01*
X-40350Y1329245D02*
X-35850Y1329245D01*
X-35850Y1330670D02*
X-40350Y1330670D01*
X-40350Y1332095D02*
X-35850Y1332095D01*
X-35850Y1333520D02*
X-40350Y1333520D01*
X-40350Y1334945D02*
X-35850Y1334945D01*
X-35850Y1336370D02*
X-40350Y1336370D01*
X-40350Y1337795D02*
X-35850Y1337795D01*
X-35850Y1339220D02*
X-40350Y1339220D01*
X-40350Y1340645D02*
X-35850Y1340645D01*
X-35850Y1342070D02*
X-40350Y1342070D01*
X-53050Y1343170D02*
X-53050Y1324970D01*
X-53050Y1343170D02*
X-48550Y1343170D01*
X-48550Y1324970D01*
X-53050Y1324970D01*
X-53050Y1326395D02*
X-48550Y1326395D01*
X-48550Y1327820D02*
X-53050Y1327820D01*
X-53050Y1329245D02*
X-48550Y1329245D01*
X-48550Y1330670D02*
X-53050Y1330670D01*
X-53050Y1332095D02*
X-48550Y1332095D01*
X-48550Y1333520D02*
X-53050Y1333520D01*
X-53050Y1334945D02*
X-48550Y1334945D01*
X-48550Y1336370D02*
X-53050Y1336370D01*
X-53050Y1337795D02*
X-48550Y1337795D01*
X-48550Y1339220D02*
X-53050Y1339220D01*
X-53050Y1340645D02*
X-48550Y1340645D01*
X-48550Y1342070D02*
X-53050Y1342070D01*
X-53050Y1293770D02*
X-53050Y1275570D01*
X-53050Y1293770D02*
X-48550Y1293770D01*
X-48550Y1275570D01*
X-53050Y1275570D01*
X-53050Y1276995D02*
X-48550Y1276995D01*
X-48550Y1278420D02*
X-53050Y1278420D01*
X-53050Y1279845D02*
X-48550Y1279845D01*
X-48550Y1281270D02*
X-53050Y1281270D01*
X-53050Y1282695D02*
X-48550Y1282695D01*
X-48550Y1284120D02*
X-53050Y1284120D01*
X-53050Y1285545D02*
X-48550Y1285545D01*
X-48550Y1286970D02*
X-53050Y1286970D01*
X-53050Y1288395D02*
X-48550Y1288395D01*
X-48550Y1289820D02*
X-53050Y1289820D01*
X-53050Y1291245D02*
X-48550Y1291245D01*
X-48550Y1292670D02*
X-53050Y1292670D01*
X-40350Y1293770D02*
X-40350Y1275570D01*
X-40350Y1293770D02*
X-35850Y1293770D01*
X-35850Y1275570D01*
X-40350Y1275570D01*
X-40350Y1276995D02*
X-35850Y1276995D01*
X-35850Y1278420D02*
X-40350Y1278420D01*
X-40350Y1279845D02*
X-35850Y1279845D01*
X-35850Y1281270D02*
X-40350Y1281270D01*
X-40350Y1282695D02*
X-35850Y1282695D01*
X-35850Y1284120D02*
X-40350Y1284120D01*
X-40350Y1285545D02*
X-35850Y1285545D01*
X-35850Y1286970D02*
X-40350Y1286970D01*
X-40350Y1288395D02*
X-35850Y1288395D01*
X-35850Y1289820D02*
X-40350Y1289820D01*
X-40350Y1291245D02*
X-35850Y1291245D01*
X-35850Y1292670D02*
X-40350Y1292670D01*
X-27650Y1293770D02*
X-27650Y1275570D01*
X-27650Y1293770D02*
X-23150Y1293770D01*
X-23150Y1275570D01*
X-27650Y1275570D01*
X-27650Y1276995D02*
X-23150Y1276995D01*
X-23150Y1278420D02*
X-27650Y1278420D01*
X-27650Y1279845D02*
X-23150Y1279845D01*
X-23150Y1281270D02*
X-27650Y1281270D01*
X-27650Y1282695D02*
X-23150Y1282695D01*
X-23150Y1284120D02*
X-27650Y1284120D01*
X-27650Y1285545D02*
X-23150Y1285545D01*
X-23150Y1286970D02*
X-27650Y1286970D01*
X-27650Y1288395D02*
X-23150Y1288395D01*
X-23150Y1289820D02*
X-27650Y1289820D01*
X-27650Y1291245D02*
X-23150Y1291245D01*
X-23150Y1292670D02*
X-27650Y1292670D01*
X-14950Y1293770D02*
X-14950Y1275570D01*
X-14950Y1293770D02*
X-10450Y1293770D01*
X-10450Y1275570D01*
X-14950Y1275570D01*
X-14950Y1276995D02*
X-10450Y1276995D01*
X-10450Y1278420D02*
X-14950Y1278420D01*
X-14950Y1279845D02*
X-10450Y1279845D01*
X-10450Y1281270D02*
X-14950Y1281270D01*
X-14950Y1282695D02*
X-10450Y1282695D01*
X-10450Y1284120D02*
X-14950Y1284120D01*
X-14950Y1285545D02*
X-10450Y1285545D01*
X-10450Y1286970D02*
X-14950Y1286970D01*
X-14950Y1288395D02*
X-10450Y1288395D01*
X-10450Y1289820D02*
X-14950Y1289820D01*
X-14950Y1291245D02*
X-10450Y1291245D01*
X-10450Y1292670D02*
X-14950Y1292670D01*
D15*
X-10160Y1666240D03*
X44450Y1666240D03*
D12*
X69850Y1099740D03*
X69850Y1089740D03*
D17*
X261470Y1323340D03*
X274470Y1323340D03*
D10*
X193040Y1615290D03*
X193040Y1628290D03*
X299720Y1103480D03*
X299720Y1116480D03*
D16*
X309880Y1244600D03*
X309880Y1203960D03*
D19*
X193040Y1432560D03*
X233680Y1432560D03*
X233680Y1409700D03*
X193040Y1409700D03*
X189230Y1386840D03*
X229870Y1386840D03*
X317500Y1186180D03*
X276860Y1186180D03*
D16*
X284480Y1203960D03*
X284480Y1244600D03*
X340360Y1179830D03*
X340360Y1220470D03*
D19*
X317500Y1350010D03*
X276860Y1350010D03*
X242570Y1517650D03*
X201930Y1517650D03*
X198120Y1488440D03*
X238760Y1488440D03*
X242570Y1461770D03*
X201930Y1461770D03*
D12*
X292100Y1553290D03*
X292100Y1563290D03*
X267970Y1557100D03*
X267970Y1567100D03*
X326390Y1370250D03*
X326390Y1360250D03*
D11*
X222330Y1367790D03*
X232330Y1367790D03*
D12*
X173990Y1300560D03*
X173990Y1310560D03*
X162560Y1277700D03*
X162560Y1287700D03*
D11*
X179150Y1275080D03*
X189150Y1275080D03*
D12*
X240030Y1395650D03*
X240030Y1385650D03*
D11*
X265510Y1306830D03*
X275510Y1306830D03*
D12*
X246380Y1419780D03*
X246380Y1409780D03*
X194310Y1557100D03*
X194310Y1567100D03*
X208280Y1567100D03*
X208280Y1557100D03*
X190500Y1449150D03*
X190500Y1459150D03*
D11*
X256620Y1544320D03*
X266620Y1544320D03*
D12*
X281940Y1277540D03*
X281940Y1267540D03*
X251460Y1378030D03*
X251460Y1388030D03*
X279400Y1563290D03*
X279400Y1553290D03*
D13*
X303820Y1632450D02*
X303820Y1646750D01*
X308320Y1646750D01*
X308320Y1632450D01*
X303820Y1632450D01*
X303820Y1633875D02*
X308320Y1633875D01*
X308320Y1635300D02*
X303820Y1635300D01*
X303820Y1636725D02*
X308320Y1636725D01*
X308320Y1638150D02*
X303820Y1638150D01*
X303820Y1639575D02*
X308320Y1639575D01*
X308320Y1641000D02*
X303820Y1641000D01*
X303820Y1642425D02*
X308320Y1642425D01*
X308320Y1643850D02*
X303820Y1643850D01*
X303820Y1645275D02*
X308320Y1645275D01*
X308320Y1646700D02*
X303820Y1646700D01*
X291120Y1646750D02*
X291120Y1632450D01*
X291120Y1646750D02*
X295620Y1646750D01*
X295620Y1632450D01*
X291120Y1632450D01*
X291120Y1633875D02*
X295620Y1633875D01*
X295620Y1635300D02*
X291120Y1635300D01*
X291120Y1636725D02*
X295620Y1636725D01*
X295620Y1638150D02*
X291120Y1638150D01*
X291120Y1639575D02*
X295620Y1639575D01*
X295620Y1641000D02*
X291120Y1641000D01*
X291120Y1642425D02*
X295620Y1642425D01*
X295620Y1643850D02*
X291120Y1643850D01*
X291120Y1645275D02*
X295620Y1645275D01*
X295620Y1646700D02*
X291120Y1646700D01*
X278420Y1646750D02*
X278420Y1632450D01*
X278420Y1646750D02*
X282920Y1646750D01*
X282920Y1632450D01*
X278420Y1632450D01*
X278420Y1633875D02*
X282920Y1633875D01*
X282920Y1635300D02*
X278420Y1635300D01*
X278420Y1636725D02*
X282920Y1636725D01*
X282920Y1638150D02*
X278420Y1638150D01*
X278420Y1639575D02*
X282920Y1639575D01*
X282920Y1641000D02*
X278420Y1641000D01*
X278420Y1642425D02*
X282920Y1642425D01*
X282920Y1643850D02*
X278420Y1643850D01*
X278420Y1645275D02*
X282920Y1645275D01*
X282920Y1646700D02*
X278420Y1646700D01*
X265720Y1646750D02*
X265720Y1632450D01*
X265720Y1646750D02*
X270220Y1646750D01*
X270220Y1632450D01*
X265720Y1632450D01*
X265720Y1633875D02*
X270220Y1633875D01*
X270220Y1635300D02*
X265720Y1635300D01*
X265720Y1636725D02*
X270220Y1636725D01*
X270220Y1638150D02*
X265720Y1638150D01*
X265720Y1639575D02*
X270220Y1639575D01*
X270220Y1641000D02*
X265720Y1641000D01*
X265720Y1642425D02*
X270220Y1642425D01*
X270220Y1643850D02*
X265720Y1643850D01*
X265720Y1645275D02*
X270220Y1645275D01*
X270220Y1646700D02*
X265720Y1646700D01*
X265720Y1593350D02*
X265720Y1579050D01*
X265720Y1593350D02*
X270220Y1593350D01*
X270220Y1579050D01*
X265720Y1579050D01*
X265720Y1580475D02*
X270220Y1580475D01*
X270220Y1581900D02*
X265720Y1581900D01*
X265720Y1583325D02*
X270220Y1583325D01*
X270220Y1584750D02*
X265720Y1584750D01*
X265720Y1586175D02*
X270220Y1586175D01*
X270220Y1587600D02*
X265720Y1587600D01*
X265720Y1589025D02*
X270220Y1589025D01*
X270220Y1590450D02*
X265720Y1590450D01*
X265720Y1591875D02*
X270220Y1591875D01*
X270220Y1593300D02*
X265720Y1593300D01*
X278420Y1593350D02*
X278420Y1579050D01*
X278420Y1593350D02*
X282920Y1593350D01*
X282920Y1579050D01*
X278420Y1579050D01*
X278420Y1580475D02*
X282920Y1580475D01*
X282920Y1581900D02*
X278420Y1581900D01*
X278420Y1583325D02*
X282920Y1583325D01*
X282920Y1584750D02*
X278420Y1584750D01*
X278420Y1586175D02*
X282920Y1586175D01*
X282920Y1587600D02*
X278420Y1587600D01*
X278420Y1589025D02*
X282920Y1589025D01*
X282920Y1590450D02*
X278420Y1590450D01*
X278420Y1591875D02*
X282920Y1591875D01*
X282920Y1593300D02*
X278420Y1593300D01*
X291120Y1593350D02*
X291120Y1579050D01*
X291120Y1593350D02*
X295620Y1593350D01*
X295620Y1579050D01*
X291120Y1579050D01*
X291120Y1580475D02*
X295620Y1580475D01*
X295620Y1581900D02*
X291120Y1581900D01*
X291120Y1583325D02*
X295620Y1583325D01*
X295620Y1584750D02*
X291120Y1584750D01*
X291120Y1586175D02*
X295620Y1586175D01*
X295620Y1587600D02*
X291120Y1587600D01*
X291120Y1589025D02*
X295620Y1589025D01*
X295620Y1590450D02*
X291120Y1590450D01*
X291120Y1591875D02*
X295620Y1591875D01*
X295620Y1593300D02*
X291120Y1593300D01*
X303820Y1593350D02*
X303820Y1579050D01*
X303820Y1593350D02*
X308320Y1593350D01*
X308320Y1579050D01*
X303820Y1579050D01*
X303820Y1580475D02*
X308320Y1580475D01*
X308320Y1581900D02*
X303820Y1581900D01*
X303820Y1583325D02*
X308320Y1583325D01*
X308320Y1584750D02*
X303820Y1584750D01*
X303820Y1586175D02*
X308320Y1586175D01*
X308320Y1587600D02*
X303820Y1587600D01*
X303820Y1589025D02*
X308320Y1589025D01*
X308320Y1590450D02*
X303820Y1590450D01*
X303820Y1591875D02*
X308320Y1591875D01*
X308320Y1593300D02*
X303820Y1593300D01*
X245400Y1632450D02*
X245400Y1646750D01*
X249900Y1646750D01*
X249900Y1632450D01*
X245400Y1632450D01*
X245400Y1633875D02*
X249900Y1633875D01*
X249900Y1635300D02*
X245400Y1635300D01*
X245400Y1636725D02*
X249900Y1636725D01*
X249900Y1638150D02*
X245400Y1638150D01*
X245400Y1639575D02*
X249900Y1639575D01*
X249900Y1641000D02*
X245400Y1641000D01*
X245400Y1642425D02*
X249900Y1642425D01*
X249900Y1643850D02*
X245400Y1643850D01*
X245400Y1645275D02*
X249900Y1645275D01*
X249900Y1646700D02*
X245400Y1646700D01*
X232700Y1646750D02*
X232700Y1632450D01*
X232700Y1646750D02*
X237200Y1646750D01*
X237200Y1632450D01*
X232700Y1632450D01*
X232700Y1633875D02*
X237200Y1633875D01*
X237200Y1635300D02*
X232700Y1635300D01*
X232700Y1636725D02*
X237200Y1636725D01*
X237200Y1638150D02*
X232700Y1638150D01*
X232700Y1639575D02*
X237200Y1639575D01*
X237200Y1641000D02*
X232700Y1641000D01*
X232700Y1642425D02*
X237200Y1642425D01*
X237200Y1643850D02*
X232700Y1643850D01*
X232700Y1645275D02*
X237200Y1645275D01*
X237200Y1646700D02*
X232700Y1646700D01*
X220000Y1646750D02*
X220000Y1632450D01*
X220000Y1646750D02*
X224500Y1646750D01*
X224500Y1632450D01*
X220000Y1632450D01*
X220000Y1633875D02*
X224500Y1633875D01*
X224500Y1635300D02*
X220000Y1635300D01*
X220000Y1636725D02*
X224500Y1636725D01*
X224500Y1638150D02*
X220000Y1638150D01*
X220000Y1639575D02*
X224500Y1639575D01*
X224500Y1641000D02*
X220000Y1641000D01*
X220000Y1642425D02*
X224500Y1642425D01*
X224500Y1643850D02*
X220000Y1643850D01*
X220000Y1645275D02*
X224500Y1645275D01*
X224500Y1646700D02*
X220000Y1646700D01*
X207300Y1646750D02*
X207300Y1632450D01*
X207300Y1646750D02*
X211800Y1646750D01*
X211800Y1632450D01*
X207300Y1632450D01*
X207300Y1633875D02*
X211800Y1633875D01*
X211800Y1635300D02*
X207300Y1635300D01*
X207300Y1636725D02*
X211800Y1636725D01*
X211800Y1638150D02*
X207300Y1638150D01*
X207300Y1639575D02*
X211800Y1639575D01*
X211800Y1641000D02*
X207300Y1641000D01*
X207300Y1642425D02*
X211800Y1642425D01*
X211800Y1643850D02*
X207300Y1643850D01*
X207300Y1645275D02*
X211800Y1645275D01*
X211800Y1646700D02*
X207300Y1646700D01*
X207300Y1593350D02*
X207300Y1579050D01*
X207300Y1593350D02*
X211800Y1593350D01*
X211800Y1579050D01*
X207300Y1579050D01*
X207300Y1580475D02*
X211800Y1580475D01*
X211800Y1581900D02*
X207300Y1581900D01*
X207300Y1583325D02*
X211800Y1583325D01*
X211800Y1584750D02*
X207300Y1584750D01*
X207300Y1586175D02*
X211800Y1586175D01*
X211800Y1587600D02*
X207300Y1587600D01*
X207300Y1589025D02*
X211800Y1589025D01*
X211800Y1590450D02*
X207300Y1590450D01*
X207300Y1591875D02*
X211800Y1591875D01*
X211800Y1593300D02*
X207300Y1593300D01*
X220000Y1593350D02*
X220000Y1579050D01*
X220000Y1593350D02*
X224500Y1593350D01*
X224500Y1579050D01*
X220000Y1579050D01*
X220000Y1580475D02*
X224500Y1580475D01*
X224500Y1581900D02*
X220000Y1581900D01*
X220000Y1583325D02*
X224500Y1583325D01*
X224500Y1584750D02*
X220000Y1584750D01*
X220000Y1586175D02*
X224500Y1586175D01*
X224500Y1587600D02*
X220000Y1587600D01*
X220000Y1589025D02*
X224500Y1589025D01*
X224500Y1590450D02*
X220000Y1590450D01*
X220000Y1591875D02*
X224500Y1591875D01*
X224500Y1593300D02*
X220000Y1593300D01*
X232700Y1593350D02*
X232700Y1579050D01*
X232700Y1593350D02*
X237200Y1593350D01*
X237200Y1579050D01*
X232700Y1579050D01*
X232700Y1580475D02*
X237200Y1580475D01*
X237200Y1581900D02*
X232700Y1581900D01*
X232700Y1583325D02*
X237200Y1583325D01*
X237200Y1584750D02*
X232700Y1584750D01*
X232700Y1586175D02*
X237200Y1586175D01*
X237200Y1587600D02*
X232700Y1587600D01*
X232700Y1589025D02*
X237200Y1589025D01*
X237200Y1590450D02*
X232700Y1590450D01*
X232700Y1591875D02*
X237200Y1591875D01*
X237200Y1593300D02*
X232700Y1593300D01*
X245400Y1593350D02*
X245400Y1579050D01*
X245400Y1593350D02*
X249900Y1593350D01*
X249900Y1579050D01*
X245400Y1579050D01*
X245400Y1580475D02*
X249900Y1580475D01*
X249900Y1581900D02*
X245400Y1581900D01*
X245400Y1583325D02*
X249900Y1583325D01*
X249900Y1584750D02*
X245400Y1584750D01*
X245400Y1586175D02*
X249900Y1586175D01*
X249900Y1587600D02*
X245400Y1587600D01*
X245400Y1589025D02*
X249900Y1589025D01*
X249900Y1590450D02*
X245400Y1590450D01*
X245400Y1591875D02*
X249900Y1591875D01*
X249900Y1593300D02*
X245400Y1593300D01*
D20*
X345440Y1097280D03*
D21*
X356890Y1088730D02*
X363690Y1088730D01*
X363690Y1086330D01*
X356890Y1086330D01*
X356890Y1088730D01*
X356890Y1087090D02*
X363690Y1087090D01*
X363690Y1087850D02*
X356890Y1087850D01*
X356890Y1088610D02*
X363690Y1088610D01*
X363690Y1095230D02*
X356890Y1095230D01*
X363690Y1095230D02*
X363690Y1092830D01*
X356890Y1092830D01*
X356890Y1095230D01*
X356890Y1093590D02*
X363690Y1093590D01*
X363690Y1094350D02*
X356890Y1094350D01*
X356890Y1095110D02*
X363690Y1095110D01*
X363690Y1101730D02*
X356890Y1101730D01*
X363690Y1101730D02*
X363690Y1099330D01*
X356890Y1099330D01*
X356890Y1101730D01*
X356890Y1100090D02*
X363690Y1100090D01*
X363690Y1100850D02*
X356890Y1100850D01*
X356890Y1101610D02*
X363690Y1101610D01*
X363690Y1108230D02*
X356890Y1108230D01*
X363690Y1108230D02*
X363690Y1105830D01*
X356890Y1105830D01*
X356890Y1108230D01*
X356890Y1106590D02*
X363690Y1106590D01*
X363690Y1107350D02*
X356890Y1107350D01*
X356890Y1108110D02*
X363690Y1108110D01*
X333990Y1108230D02*
X327190Y1108230D01*
X333990Y1108230D02*
X333990Y1105830D01*
X327190Y1105830D01*
X327190Y1108230D01*
X327190Y1106590D02*
X333990Y1106590D01*
X333990Y1107350D02*
X327190Y1107350D01*
X327190Y1108110D02*
X333990Y1108110D01*
X333990Y1101730D02*
X327190Y1101730D01*
X333990Y1101730D02*
X333990Y1099330D01*
X327190Y1099330D01*
X327190Y1101730D01*
X327190Y1100090D02*
X333990Y1100090D01*
X333990Y1100850D02*
X327190Y1100850D01*
X327190Y1101610D02*
X333990Y1101610D01*
X333990Y1095230D02*
X327190Y1095230D01*
X333990Y1095230D02*
X333990Y1092830D01*
X327190Y1092830D01*
X327190Y1095230D01*
X327190Y1093590D02*
X333990Y1093590D01*
X333990Y1094350D02*
X327190Y1094350D01*
X327190Y1095110D02*
X333990Y1095110D01*
X333990Y1088730D02*
X327190Y1088730D01*
X333990Y1088730D02*
X333990Y1086330D01*
X327190Y1086330D01*
X327190Y1088730D01*
X327190Y1087090D02*
X333990Y1087090D01*
X333990Y1087850D02*
X327190Y1087850D01*
X327190Y1088610D02*
X333990Y1088610D01*
D20*
X345440Y1144270D03*
D21*
X356890Y1135720D02*
X363690Y1135720D01*
X363690Y1133320D01*
X356890Y1133320D01*
X356890Y1135720D01*
X356890Y1134080D02*
X363690Y1134080D01*
X363690Y1134840D02*
X356890Y1134840D01*
X356890Y1135600D02*
X363690Y1135600D01*
X363690Y1142220D02*
X356890Y1142220D01*
X363690Y1142220D02*
X363690Y1139820D01*
X356890Y1139820D01*
X356890Y1142220D01*
X356890Y1140580D02*
X363690Y1140580D01*
X363690Y1141340D02*
X356890Y1141340D01*
X356890Y1142100D02*
X363690Y1142100D01*
X363690Y1148720D02*
X356890Y1148720D01*
X363690Y1148720D02*
X363690Y1146320D01*
X356890Y1146320D01*
X356890Y1148720D01*
X356890Y1147080D02*
X363690Y1147080D01*
X363690Y1147840D02*
X356890Y1147840D01*
X356890Y1148600D02*
X363690Y1148600D01*
X363690Y1155220D02*
X356890Y1155220D01*
X363690Y1155220D02*
X363690Y1152820D01*
X356890Y1152820D01*
X356890Y1155220D01*
X356890Y1153580D02*
X363690Y1153580D01*
X363690Y1154340D02*
X356890Y1154340D01*
X356890Y1155100D02*
X363690Y1155100D01*
X333990Y1155220D02*
X327190Y1155220D01*
X333990Y1155220D02*
X333990Y1152820D01*
X327190Y1152820D01*
X327190Y1155220D01*
X327190Y1153580D02*
X333990Y1153580D01*
X333990Y1154340D02*
X327190Y1154340D01*
X327190Y1155100D02*
X333990Y1155100D01*
X333990Y1148720D02*
X327190Y1148720D01*
X333990Y1148720D02*
X333990Y1146320D01*
X327190Y1146320D01*
X327190Y1148720D01*
X327190Y1147080D02*
X333990Y1147080D01*
X333990Y1147840D02*
X327190Y1147840D01*
X327190Y1148600D02*
X333990Y1148600D01*
X333990Y1142220D02*
X327190Y1142220D01*
X333990Y1142220D02*
X333990Y1139820D01*
X327190Y1139820D01*
X327190Y1142220D01*
X327190Y1140580D02*
X333990Y1140580D01*
X333990Y1141340D02*
X327190Y1141340D01*
X327190Y1142100D02*
X333990Y1142100D01*
X333990Y1135720D02*
X327190Y1135720D01*
X333990Y1135720D02*
X333990Y1133320D01*
X327190Y1133320D01*
X327190Y1135720D01*
X327190Y1134080D02*
X333990Y1134080D01*
X333990Y1134840D02*
X327190Y1134840D01*
X327190Y1135600D02*
X333990Y1135600D01*
D13*
X298160Y1256520D02*
X298160Y1274720D01*
X298160Y1256520D02*
X293660Y1256520D01*
X293660Y1274720D01*
X298160Y1274720D01*
X298160Y1257945D02*
X293660Y1257945D01*
X293660Y1259370D02*
X298160Y1259370D01*
X298160Y1260795D02*
X293660Y1260795D01*
X293660Y1262220D02*
X298160Y1262220D01*
X298160Y1263645D02*
X293660Y1263645D01*
X293660Y1265070D02*
X298160Y1265070D01*
X298160Y1266495D02*
X293660Y1266495D01*
X293660Y1267920D02*
X298160Y1267920D01*
X298160Y1269345D02*
X293660Y1269345D01*
X293660Y1270770D02*
X298160Y1270770D01*
X298160Y1272195D02*
X293660Y1272195D01*
X293660Y1273620D02*
X298160Y1273620D01*
X310860Y1274720D02*
X310860Y1256520D01*
X306360Y1256520D01*
X306360Y1274720D01*
X310860Y1274720D01*
X310860Y1257945D02*
X306360Y1257945D01*
X306360Y1259370D02*
X310860Y1259370D01*
X310860Y1260795D02*
X306360Y1260795D01*
X306360Y1262220D02*
X310860Y1262220D01*
X310860Y1263645D02*
X306360Y1263645D01*
X306360Y1265070D02*
X310860Y1265070D01*
X310860Y1266495D02*
X306360Y1266495D01*
X306360Y1267920D02*
X310860Y1267920D01*
X310860Y1269345D02*
X306360Y1269345D01*
X306360Y1270770D02*
X310860Y1270770D01*
X310860Y1272195D02*
X306360Y1272195D01*
X306360Y1273620D02*
X310860Y1273620D01*
X323560Y1274720D02*
X323560Y1256520D01*
X319060Y1256520D01*
X319060Y1274720D01*
X323560Y1274720D01*
X323560Y1257945D02*
X319060Y1257945D01*
X319060Y1259370D02*
X323560Y1259370D01*
X323560Y1260795D02*
X319060Y1260795D01*
X319060Y1262220D02*
X323560Y1262220D01*
X323560Y1263645D02*
X319060Y1263645D01*
X319060Y1265070D02*
X323560Y1265070D01*
X323560Y1266495D02*
X319060Y1266495D01*
X319060Y1267920D02*
X323560Y1267920D01*
X323560Y1269345D02*
X319060Y1269345D01*
X319060Y1270770D02*
X323560Y1270770D01*
X323560Y1272195D02*
X319060Y1272195D01*
X319060Y1273620D02*
X323560Y1273620D01*
X336260Y1274720D02*
X336260Y1256520D01*
X331760Y1256520D01*
X331760Y1274720D01*
X336260Y1274720D01*
X336260Y1257945D02*
X331760Y1257945D01*
X331760Y1259370D02*
X336260Y1259370D01*
X336260Y1260795D02*
X331760Y1260795D01*
X331760Y1262220D02*
X336260Y1262220D01*
X336260Y1263645D02*
X331760Y1263645D01*
X331760Y1265070D02*
X336260Y1265070D01*
X336260Y1266495D02*
X331760Y1266495D01*
X331760Y1267920D02*
X336260Y1267920D01*
X336260Y1269345D02*
X331760Y1269345D01*
X331760Y1270770D02*
X336260Y1270770D01*
X336260Y1272195D02*
X331760Y1272195D01*
X331760Y1273620D02*
X336260Y1273620D01*
X336260Y1305920D02*
X336260Y1324120D01*
X336260Y1305920D02*
X331760Y1305920D01*
X331760Y1324120D01*
X336260Y1324120D01*
X336260Y1307345D02*
X331760Y1307345D01*
X331760Y1308770D02*
X336260Y1308770D01*
X336260Y1310195D02*
X331760Y1310195D01*
X331760Y1311620D02*
X336260Y1311620D01*
X336260Y1313045D02*
X331760Y1313045D01*
X331760Y1314470D02*
X336260Y1314470D01*
X336260Y1315895D02*
X331760Y1315895D01*
X331760Y1317320D02*
X336260Y1317320D01*
X336260Y1318745D02*
X331760Y1318745D01*
X331760Y1320170D02*
X336260Y1320170D01*
X336260Y1321595D02*
X331760Y1321595D01*
X331760Y1323020D02*
X336260Y1323020D01*
X323560Y1324120D02*
X323560Y1305920D01*
X319060Y1305920D01*
X319060Y1324120D01*
X323560Y1324120D01*
X323560Y1307345D02*
X319060Y1307345D01*
X319060Y1308770D02*
X323560Y1308770D01*
X323560Y1310195D02*
X319060Y1310195D01*
X319060Y1311620D02*
X323560Y1311620D01*
X323560Y1313045D02*
X319060Y1313045D01*
X319060Y1314470D02*
X323560Y1314470D01*
X323560Y1315895D02*
X319060Y1315895D01*
X319060Y1317320D02*
X323560Y1317320D01*
X323560Y1318745D02*
X319060Y1318745D01*
X319060Y1320170D02*
X323560Y1320170D01*
X323560Y1321595D02*
X319060Y1321595D01*
X319060Y1323020D02*
X323560Y1323020D01*
X310860Y1324120D02*
X310860Y1305920D01*
X306360Y1305920D01*
X306360Y1324120D01*
X310860Y1324120D01*
X310860Y1307345D02*
X306360Y1307345D01*
X306360Y1308770D02*
X310860Y1308770D01*
X310860Y1310195D02*
X306360Y1310195D01*
X306360Y1311620D02*
X310860Y1311620D01*
X310860Y1313045D02*
X306360Y1313045D01*
X306360Y1314470D02*
X310860Y1314470D01*
X310860Y1315895D02*
X306360Y1315895D01*
X306360Y1317320D02*
X310860Y1317320D01*
X310860Y1318745D02*
X306360Y1318745D01*
X306360Y1320170D02*
X310860Y1320170D01*
X310860Y1321595D02*
X306360Y1321595D01*
X306360Y1323020D02*
X310860Y1323020D01*
X298160Y1324120D02*
X298160Y1305920D01*
X293660Y1305920D01*
X293660Y1324120D01*
X298160Y1324120D01*
X298160Y1307345D02*
X293660Y1307345D01*
X293660Y1308770D02*
X298160Y1308770D01*
X298160Y1310195D02*
X293660Y1310195D01*
X293660Y1311620D02*
X298160Y1311620D01*
X298160Y1313045D02*
X293660Y1313045D01*
X293660Y1314470D02*
X298160Y1314470D01*
X298160Y1315895D02*
X293660Y1315895D01*
X293660Y1317320D02*
X298160Y1317320D01*
X298160Y1318745D02*
X293660Y1318745D01*
X293660Y1320170D02*
X298160Y1320170D01*
X298160Y1321595D02*
X293660Y1321595D01*
X293660Y1323020D02*
X298160Y1323020D01*
X303820Y1516740D02*
X303820Y1534940D01*
X308320Y1534940D01*
X308320Y1516740D01*
X303820Y1516740D01*
X303820Y1518165D02*
X308320Y1518165D01*
X308320Y1519590D02*
X303820Y1519590D01*
X303820Y1521015D02*
X308320Y1521015D01*
X308320Y1522440D02*
X303820Y1522440D01*
X303820Y1523865D02*
X308320Y1523865D01*
X308320Y1525290D02*
X303820Y1525290D01*
X303820Y1526715D02*
X308320Y1526715D01*
X308320Y1528140D02*
X303820Y1528140D01*
X303820Y1529565D02*
X308320Y1529565D01*
X308320Y1530990D02*
X303820Y1530990D01*
X303820Y1532415D02*
X308320Y1532415D01*
X308320Y1533840D02*
X303820Y1533840D01*
X291120Y1534940D02*
X291120Y1516740D01*
X291120Y1534940D02*
X295620Y1534940D01*
X295620Y1516740D01*
X291120Y1516740D01*
X291120Y1518165D02*
X295620Y1518165D01*
X295620Y1519590D02*
X291120Y1519590D01*
X291120Y1521015D02*
X295620Y1521015D01*
X295620Y1522440D02*
X291120Y1522440D01*
X291120Y1523865D02*
X295620Y1523865D01*
X295620Y1525290D02*
X291120Y1525290D01*
X291120Y1526715D02*
X295620Y1526715D01*
X295620Y1528140D02*
X291120Y1528140D01*
X291120Y1529565D02*
X295620Y1529565D01*
X295620Y1530990D02*
X291120Y1530990D01*
X291120Y1532415D02*
X295620Y1532415D01*
X295620Y1533840D02*
X291120Y1533840D01*
X278420Y1534940D02*
X278420Y1516740D01*
X278420Y1534940D02*
X282920Y1534940D01*
X282920Y1516740D01*
X278420Y1516740D01*
X278420Y1518165D02*
X282920Y1518165D01*
X282920Y1519590D02*
X278420Y1519590D01*
X278420Y1521015D02*
X282920Y1521015D01*
X282920Y1522440D02*
X278420Y1522440D01*
X278420Y1523865D02*
X282920Y1523865D01*
X282920Y1525290D02*
X278420Y1525290D01*
X278420Y1526715D02*
X282920Y1526715D01*
X282920Y1528140D02*
X278420Y1528140D01*
X278420Y1529565D02*
X282920Y1529565D01*
X282920Y1530990D02*
X278420Y1530990D01*
X278420Y1532415D02*
X282920Y1532415D01*
X282920Y1533840D02*
X278420Y1533840D01*
X265720Y1534940D02*
X265720Y1516740D01*
X265720Y1534940D02*
X270220Y1534940D01*
X270220Y1516740D01*
X265720Y1516740D01*
X265720Y1518165D02*
X270220Y1518165D01*
X270220Y1519590D02*
X265720Y1519590D01*
X265720Y1521015D02*
X270220Y1521015D01*
X270220Y1522440D02*
X265720Y1522440D01*
X265720Y1523865D02*
X270220Y1523865D01*
X270220Y1525290D02*
X265720Y1525290D01*
X265720Y1526715D02*
X270220Y1526715D01*
X270220Y1528140D02*
X265720Y1528140D01*
X265720Y1529565D02*
X270220Y1529565D01*
X270220Y1530990D02*
X265720Y1530990D01*
X265720Y1532415D02*
X270220Y1532415D01*
X270220Y1533840D02*
X265720Y1533840D01*
X265720Y1485540D02*
X265720Y1467340D01*
X265720Y1485540D02*
X270220Y1485540D01*
X270220Y1467340D01*
X265720Y1467340D01*
X265720Y1468765D02*
X270220Y1468765D01*
X270220Y1470190D02*
X265720Y1470190D01*
X265720Y1471615D02*
X270220Y1471615D01*
X270220Y1473040D02*
X265720Y1473040D01*
X265720Y1474465D02*
X270220Y1474465D01*
X270220Y1475890D02*
X265720Y1475890D01*
X265720Y1477315D02*
X270220Y1477315D01*
X270220Y1478740D02*
X265720Y1478740D01*
X265720Y1480165D02*
X270220Y1480165D01*
X270220Y1481590D02*
X265720Y1481590D01*
X265720Y1483015D02*
X270220Y1483015D01*
X270220Y1484440D02*
X265720Y1484440D01*
X278420Y1485540D02*
X278420Y1467340D01*
X278420Y1485540D02*
X282920Y1485540D01*
X282920Y1467340D01*
X278420Y1467340D01*
X278420Y1468765D02*
X282920Y1468765D01*
X282920Y1470190D02*
X278420Y1470190D01*
X278420Y1471615D02*
X282920Y1471615D01*
X282920Y1473040D02*
X278420Y1473040D01*
X278420Y1474465D02*
X282920Y1474465D01*
X282920Y1475890D02*
X278420Y1475890D01*
X278420Y1477315D02*
X282920Y1477315D01*
X282920Y1478740D02*
X278420Y1478740D01*
X278420Y1480165D02*
X282920Y1480165D01*
X282920Y1481590D02*
X278420Y1481590D01*
X278420Y1483015D02*
X282920Y1483015D01*
X282920Y1484440D02*
X278420Y1484440D01*
X291120Y1485540D02*
X291120Y1467340D01*
X291120Y1485540D02*
X295620Y1485540D01*
X295620Y1467340D01*
X291120Y1467340D01*
X291120Y1468765D02*
X295620Y1468765D01*
X295620Y1470190D02*
X291120Y1470190D01*
X291120Y1471615D02*
X295620Y1471615D01*
X295620Y1473040D02*
X291120Y1473040D01*
X291120Y1474465D02*
X295620Y1474465D01*
X295620Y1475890D02*
X291120Y1475890D01*
X291120Y1477315D02*
X295620Y1477315D01*
X295620Y1478740D02*
X291120Y1478740D01*
X291120Y1480165D02*
X295620Y1480165D01*
X295620Y1481590D02*
X291120Y1481590D01*
X291120Y1483015D02*
X295620Y1483015D01*
X295620Y1484440D02*
X291120Y1484440D01*
X303820Y1485540D02*
X303820Y1467340D01*
X303820Y1485540D02*
X308320Y1485540D01*
X308320Y1467340D01*
X303820Y1467340D01*
X303820Y1468765D02*
X308320Y1468765D01*
X308320Y1470190D02*
X303820Y1470190D01*
X303820Y1471615D02*
X308320Y1471615D01*
X308320Y1473040D02*
X303820Y1473040D01*
X303820Y1474465D02*
X308320Y1474465D01*
X308320Y1475890D02*
X303820Y1475890D01*
X303820Y1477315D02*
X308320Y1477315D01*
X308320Y1478740D02*
X303820Y1478740D01*
X303820Y1480165D02*
X308320Y1480165D01*
X308320Y1481590D02*
X303820Y1481590D01*
X303820Y1483015D02*
X308320Y1483015D01*
X308320Y1484440D02*
X303820Y1484440D01*
X268950Y1391560D02*
X268950Y1373360D01*
X264450Y1373360D01*
X264450Y1391560D01*
X268950Y1391560D01*
X268950Y1374785D02*
X264450Y1374785D01*
X264450Y1376210D02*
X268950Y1376210D01*
X268950Y1377635D02*
X264450Y1377635D01*
X264450Y1379060D02*
X268950Y1379060D01*
X268950Y1380485D02*
X264450Y1380485D01*
X264450Y1381910D02*
X268950Y1381910D01*
X268950Y1383335D02*
X264450Y1383335D01*
X264450Y1384760D02*
X268950Y1384760D01*
X268950Y1386185D02*
X264450Y1386185D01*
X264450Y1387610D02*
X268950Y1387610D01*
X268950Y1389035D02*
X264450Y1389035D01*
X264450Y1390460D02*
X268950Y1390460D01*
X281650Y1391560D02*
X281650Y1373360D01*
X277150Y1373360D01*
X277150Y1391560D01*
X281650Y1391560D01*
X281650Y1374785D02*
X277150Y1374785D01*
X277150Y1376210D02*
X281650Y1376210D01*
X281650Y1377635D02*
X277150Y1377635D01*
X277150Y1379060D02*
X281650Y1379060D01*
X281650Y1380485D02*
X277150Y1380485D01*
X277150Y1381910D02*
X281650Y1381910D01*
X281650Y1383335D02*
X277150Y1383335D01*
X277150Y1384760D02*
X281650Y1384760D01*
X281650Y1386185D02*
X277150Y1386185D01*
X277150Y1387610D02*
X281650Y1387610D01*
X281650Y1389035D02*
X277150Y1389035D01*
X277150Y1390460D02*
X281650Y1390460D01*
X294350Y1391560D02*
X294350Y1373360D01*
X289850Y1373360D01*
X289850Y1391560D01*
X294350Y1391560D01*
X294350Y1374785D02*
X289850Y1374785D01*
X289850Y1376210D02*
X294350Y1376210D01*
X294350Y1377635D02*
X289850Y1377635D01*
X289850Y1379060D02*
X294350Y1379060D01*
X294350Y1380485D02*
X289850Y1380485D01*
X289850Y1381910D02*
X294350Y1381910D01*
X294350Y1383335D02*
X289850Y1383335D01*
X289850Y1384760D02*
X294350Y1384760D01*
X294350Y1386185D02*
X289850Y1386185D01*
X289850Y1387610D02*
X294350Y1387610D01*
X294350Y1389035D02*
X289850Y1389035D01*
X289850Y1390460D02*
X294350Y1390460D01*
X307050Y1391560D02*
X307050Y1373360D01*
X302550Y1373360D01*
X302550Y1391560D01*
X307050Y1391560D01*
X307050Y1374785D02*
X302550Y1374785D01*
X302550Y1376210D02*
X307050Y1376210D01*
X307050Y1377635D02*
X302550Y1377635D01*
X302550Y1379060D02*
X307050Y1379060D01*
X307050Y1380485D02*
X302550Y1380485D01*
X302550Y1381910D02*
X307050Y1381910D01*
X307050Y1383335D02*
X302550Y1383335D01*
X302550Y1384760D02*
X307050Y1384760D01*
X307050Y1386185D02*
X302550Y1386185D01*
X302550Y1387610D02*
X307050Y1387610D01*
X307050Y1389035D02*
X302550Y1389035D01*
X302550Y1390460D02*
X307050Y1390460D01*
X307050Y1422760D02*
X307050Y1440960D01*
X307050Y1422760D02*
X302550Y1422760D01*
X302550Y1440960D01*
X307050Y1440960D01*
X307050Y1424185D02*
X302550Y1424185D01*
X302550Y1425610D02*
X307050Y1425610D01*
X307050Y1427035D02*
X302550Y1427035D01*
X302550Y1428460D02*
X307050Y1428460D01*
X307050Y1429885D02*
X302550Y1429885D01*
X302550Y1431310D02*
X307050Y1431310D01*
X307050Y1432735D02*
X302550Y1432735D01*
X302550Y1434160D02*
X307050Y1434160D01*
X307050Y1435585D02*
X302550Y1435585D01*
X302550Y1437010D02*
X307050Y1437010D01*
X307050Y1438435D02*
X302550Y1438435D01*
X302550Y1439860D02*
X307050Y1439860D01*
X294350Y1440960D02*
X294350Y1422760D01*
X289850Y1422760D01*
X289850Y1440960D01*
X294350Y1440960D01*
X294350Y1424185D02*
X289850Y1424185D01*
X289850Y1425610D02*
X294350Y1425610D01*
X294350Y1427035D02*
X289850Y1427035D01*
X289850Y1428460D02*
X294350Y1428460D01*
X294350Y1429885D02*
X289850Y1429885D01*
X289850Y1431310D02*
X294350Y1431310D01*
X294350Y1432735D02*
X289850Y1432735D01*
X289850Y1434160D02*
X294350Y1434160D01*
X294350Y1435585D02*
X289850Y1435585D01*
X289850Y1437010D02*
X294350Y1437010D01*
X294350Y1438435D02*
X289850Y1438435D01*
X289850Y1439860D02*
X294350Y1439860D01*
X281650Y1440960D02*
X281650Y1422760D01*
X277150Y1422760D01*
X277150Y1440960D01*
X281650Y1440960D01*
X281650Y1424185D02*
X277150Y1424185D01*
X277150Y1425610D02*
X281650Y1425610D01*
X281650Y1427035D02*
X277150Y1427035D01*
X277150Y1428460D02*
X281650Y1428460D01*
X281650Y1429885D02*
X277150Y1429885D01*
X277150Y1431310D02*
X281650Y1431310D01*
X281650Y1432735D02*
X277150Y1432735D01*
X277150Y1434160D02*
X281650Y1434160D01*
X281650Y1435585D02*
X277150Y1435585D01*
X277150Y1437010D02*
X281650Y1437010D01*
X281650Y1438435D02*
X277150Y1438435D01*
X277150Y1439860D02*
X281650Y1439860D01*
X268950Y1440960D02*
X268950Y1422760D01*
X264450Y1422760D01*
X264450Y1440960D01*
X268950Y1440960D01*
X268950Y1424185D02*
X264450Y1424185D01*
X264450Y1425610D02*
X268950Y1425610D01*
X268950Y1427035D02*
X264450Y1427035D01*
X264450Y1428460D02*
X268950Y1428460D01*
X268950Y1429885D02*
X264450Y1429885D01*
X264450Y1431310D02*
X268950Y1431310D01*
X268950Y1432735D02*
X264450Y1432735D01*
X264450Y1434160D02*
X268950Y1434160D01*
X268950Y1435585D02*
X264450Y1435585D01*
X264450Y1437010D02*
X268950Y1437010D01*
X268950Y1438435D02*
X264450Y1438435D01*
X264450Y1439860D02*
X268950Y1439860D01*
X226350Y1355870D02*
X226350Y1337670D01*
X226350Y1355870D02*
X230850Y1355870D01*
X230850Y1337670D01*
X226350Y1337670D01*
X226350Y1339095D02*
X230850Y1339095D01*
X230850Y1340520D02*
X226350Y1340520D01*
X226350Y1341945D02*
X230850Y1341945D01*
X230850Y1343370D02*
X226350Y1343370D01*
X226350Y1344795D02*
X230850Y1344795D01*
X230850Y1346220D02*
X226350Y1346220D01*
X226350Y1347645D02*
X230850Y1347645D01*
X230850Y1349070D02*
X226350Y1349070D01*
X226350Y1350495D02*
X230850Y1350495D01*
X230850Y1351920D02*
X226350Y1351920D01*
X226350Y1353345D02*
X230850Y1353345D01*
X230850Y1354770D02*
X226350Y1354770D01*
X213650Y1355870D02*
X213650Y1337670D01*
X213650Y1355870D02*
X218150Y1355870D01*
X218150Y1337670D01*
X213650Y1337670D01*
X213650Y1339095D02*
X218150Y1339095D01*
X218150Y1340520D02*
X213650Y1340520D01*
X213650Y1341945D02*
X218150Y1341945D01*
X218150Y1343370D02*
X213650Y1343370D01*
X213650Y1344795D02*
X218150Y1344795D01*
X218150Y1346220D02*
X213650Y1346220D01*
X213650Y1347645D02*
X218150Y1347645D01*
X218150Y1349070D02*
X213650Y1349070D01*
X213650Y1350495D02*
X218150Y1350495D01*
X218150Y1351920D02*
X213650Y1351920D01*
X213650Y1353345D02*
X218150Y1353345D01*
X218150Y1354770D02*
X213650Y1354770D01*
X200950Y1355870D02*
X200950Y1337670D01*
X200950Y1355870D02*
X205450Y1355870D01*
X205450Y1337670D01*
X200950Y1337670D01*
X200950Y1339095D02*
X205450Y1339095D01*
X205450Y1340520D02*
X200950Y1340520D01*
X200950Y1341945D02*
X205450Y1341945D01*
X205450Y1343370D02*
X200950Y1343370D01*
X200950Y1344795D02*
X205450Y1344795D01*
X205450Y1346220D02*
X200950Y1346220D01*
X200950Y1347645D02*
X205450Y1347645D01*
X205450Y1349070D02*
X200950Y1349070D01*
X200950Y1350495D02*
X205450Y1350495D01*
X205450Y1351920D02*
X200950Y1351920D01*
X200950Y1353345D02*
X205450Y1353345D01*
X205450Y1354770D02*
X200950Y1354770D01*
X188250Y1355870D02*
X188250Y1337670D01*
X188250Y1355870D02*
X192750Y1355870D01*
X192750Y1337670D01*
X188250Y1337670D01*
X188250Y1339095D02*
X192750Y1339095D01*
X192750Y1340520D02*
X188250Y1340520D01*
X188250Y1341945D02*
X192750Y1341945D01*
X192750Y1343370D02*
X188250Y1343370D01*
X188250Y1344795D02*
X192750Y1344795D01*
X192750Y1346220D02*
X188250Y1346220D01*
X188250Y1347645D02*
X192750Y1347645D01*
X192750Y1349070D02*
X188250Y1349070D01*
X188250Y1350495D02*
X192750Y1350495D01*
X192750Y1351920D02*
X188250Y1351920D01*
X188250Y1353345D02*
X192750Y1353345D01*
X192750Y1354770D02*
X188250Y1354770D01*
X188250Y1306470D02*
X188250Y1288270D01*
X188250Y1306470D02*
X192750Y1306470D01*
X192750Y1288270D01*
X188250Y1288270D01*
X188250Y1289695D02*
X192750Y1289695D01*
X192750Y1291120D02*
X188250Y1291120D01*
X188250Y1292545D02*
X192750Y1292545D01*
X192750Y1293970D02*
X188250Y1293970D01*
X188250Y1295395D02*
X192750Y1295395D01*
X192750Y1296820D02*
X188250Y1296820D01*
X188250Y1298245D02*
X192750Y1298245D01*
X192750Y1299670D02*
X188250Y1299670D01*
X188250Y1301095D02*
X192750Y1301095D01*
X192750Y1302520D02*
X188250Y1302520D01*
X188250Y1303945D02*
X192750Y1303945D01*
X192750Y1305370D02*
X188250Y1305370D01*
X200950Y1306470D02*
X200950Y1288270D01*
X200950Y1306470D02*
X205450Y1306470D01*
X205450Y1288270D01*
X200950Y1288270D01*
X200950Y1289695D02*
X205450Y1289695D01*
X205450Y1291120D02*
X200950Y1291120D01*
X200950Y1292545D02*
X205450Y1292545D01*
X205450Y1293970D02*
X200950Y1293970D01*
X200950Y1295395D02*
X205450Y1295395D01*
X205450Y1296820D02*
X200950Y1296820D01*
X200950Y1298245D02*
X205450Y1298245D01*
X205450Y1299670D02*
X200950Y1299670D01*
X200950Y1301095D02*
X205450Y1301095D01*
X205450Y1302520D02*
X200950Y1302520D01*
X200950Y1303945D02*
X205450Y1303945D01*
X205450Y1305370D02*
X200950Y1305370D01*
X213650Y1306470D02*
X213650Y1288270D01*
X213650Y1306470D02*
X218150Y1306470D01*
X218150Y1288270D01*
X213650Y1288270D01*
X213650Y1289695D02*
X218150Y1289695D01*
X218150Y1291120D02*
X213650Y1291120D01*
X213650Y1292545D02*
X218150Y1292545D01*
X218150Y1293970D02*
X213650Y1293970D01*
X213650Y1295395D02*
X218150Y1295395D01*
X218150Y1296820D02*
X213650Y1296820D01*
X213650Y1298245D02*
X218150Y1298245D01*
X218150Y1299670D02*
X213650Y1299670D01*
X213650Y1301095D02*
X218150Y1301095D01*
X218150Y1302520D02*
X213650Y1302520D01*
X213650Y1303945D02*
X218150Y1303945D01*
X218150Y1305370D02*
X213650Y1305370D01*
X226350Y1306470D02*
X226350Y1288270D01*
X226350Y1306470D02*
X230850Y1306470D01*
X230850Y1288270D01*
X226350Y1288270D01*
X226350Y1289695D02*
X230850Y1289695D01*
X230850Y1291120D02*
X226350Y1291120D01*
X226350Y1292545D02*
X230850Y1292545D01*
X230850Y1293970D02*
X226350Y1293970D01*
X226350Y1295395D02*
X230850Y1295395D01*
X230850Y1296820D02*
X226350Y1296820D01*
X226350Y1298245D02*
X230850Y1298245D01*
X230850Y1299670D02*
X226350Y1299670D01*
X226350Y1301095D02*
X230850Y1301095D01*
X230850Y1302520D02*
X226350Y1302520D01*
X226350Y1303945D02*
X230850Y1303945D01*
X230850Y1305370D02*
X226350Y1305370D01*
D15*
X193040Y1704340D03*
X247650Y1704340D03*
D12*
X311150Y1112440D03*
X311150Y1102440D03*
D17*
X528170Y1323340D03*
X541170Y1323340D03*
D10*
X459740Y1615290D03*
X459740Y1628290D03*
X566420Y1103480D03*
X566420Y1116480D03*
D16*
X576580Y1244600D03*
X576580Y1203960D03*
D19*
X459740Y1432560D03*
X500380Y1432560D03*
X500380Y1409700D03*
X459740Y1409700D03*
X455930Y1386840D03*
X496570Y1386840D03*
X584200Y1186180D03*
X543560Y1186180D03*
D16*
X551180Y1203960D03*
X551180Y1244600D03*
X607060Y1179830D03*
X607060Y1220470D03*
D19*
X584200Y1350010D03*
X543560Y1350010D03*
X509270Y1517650D03*
X468630Y1517650D03*
X464820Y1488440D03*
X505460Y1488440D03*
X509270Y1461770D03*
X468630Y1461770D03*
D12*
X558800Y1553290D03*
X558800Y1563290D03*
X534670Y1557100D03*
X534670Y1567100D03*
X593090Y1370250D03*
X593090Y1360250D03*
D11*
X489030Y1367790D03*
X499030Y1367790D03*
D12*
X440690Y1300560D03*
X440690Y1310560D03*
X429260Y1277700D03*
X429260Y1287700D03*
D11*
X445850Y1275080D03*
X455850Y1275080D03*
D12*
X506730Y1395650D03*
X506730Y1385650D03*
D11*
X532210Y1306830D03*
X542210Y1306830D03*
D12*
X513080Y1419780D03*
X513080Y1409780D03*
X461010Y1557100D03*
X461010Y1567100D03*
X474980Y1567100D03*
X474980Y1557100D03*
X457200Y1449150D03*
X457200Y1459150D03*
D11*
X523320Y1544320D03*
X533320Y1544320D03*
D12*
X548640Y1277540D03*
X548640Y1267540D03*
X518160Y1378030D03*
X518160Y1388030D03*
X546100Y1563290D03*
X546100Y1553290D03*
D13*
X570520Y1632450D02*
X570520Y1646750D01*
X575020Y1646750D01*
X575020Y1632450D01*
X570520Y1632450D01*
X570520Y1633875D02*
X575020Y1633875D01*
X575020Y1635300D02*
X570520Y1635300D01*
X570520Y1636725D02*
X575020Y1636725D01*
X575020Y1638150D02*
X570520Y1638150D01*
X570520Y1639575D02*
X575020Y1639575D01*
X575020Y1641000D02*
X570520Y1641000D01*
X570520Y1642425D02*
X575020Y1642425D01*
X575020Y1643850D02*
X570520Y1643850D01*
X570520Y1645275D02*
X575020Y1645275D01*
X575020Y1646700D02*
X570520Y1646700D01*
X557820Y1646750D02*
X557820Y1632450D01*
X557820Y1646750D02*
X562320Y1646750D01*
X562320Y1632450D01*
X557820Y1632450D01*
X557820Y1633875D02*
X562320Y1633875D01*
X562320Y1635300D02*
X557820Y1635300D01*
X557820Y1636725D02*
X562320Y1636725D01*
X562320Y1638150D02*
X557820Y1638150D01*
X557820Y1639575D02*
X562320Y1639575D01*
X562320Y1641000D02*
X557820Y1641000D01*
X557820Y1642425D02*
X562320Y1642425D01*
X562320Y1643850D02*
X557820Y1643850D01*
X557820Y1645275D02*
X562320Y1645275D01*
X562320Y1646700D02*
X557820Y1646700D01*
X545120Y1646750D02*
X545120Y1632450D01*
X545120Y1646750D02*
X549620Y1646750D01*
X549620Y1632450D01*
X545120Y1632450D01*
X545120Y1633875D02*
X549620Y1633875D01*
X549620Y1635300D02*
X545120Y1635300D01*
X545120Y1636725D02*
X549620Y1636725D01*
X549620Y1638150D02*
X545120Y1638150D01*
X545120Y1639575D02*
X549620Y1639575D01*
X549620Y1641000D02*
X545120Y1641000D01*
X545120Y1642425D02*
X549620Y1642425D01*
X549620Y1643850D02*
X545120Y1643850D01*
X545120Y1645275D02*
X549620Y1645275D01*
X549620Y1646700D02*
X545120Y1646700D01*
X532420Y1646750D02*
X532420Y1632450D01*
X532420Y1646750D02*
X536920Y1646750D01*
X536920Y1632450D01*
X532420Y1632450D01*
X532420Y1633875D02*
X536920Y1633875D01*
X536920Y1635300D02*
X532420Y1635300D01*
X532420Y1636725D02*
X536920Y1636725D01*
X536920Y1638150D02*
X532420Y1638150D01*
X532420Y1639575D02*
X536920Y1639575D01*
X536920Y1641000D02*
X532420Y1641000D01*
X532420Y1642425D02*
X536920Y1642425D01*
X536920Y1643850D02*
X532420Y1643850D01*
X532420Y1645275D02*
X536920Y1645275D01*
X536920Y1646700D02*
X532420Y1646700D01*
X532420Y1593350D02*
X532420Y1579050D01*
X532420Y1593350D02*
X536920Y1593350D01*
X536920Y1579050D01*
X532420Y1579050D01*
X532420Y1580475D02*
X536920Y1580475D01*
X536920Y1581900D02*
X532420Y1581900D01*
X532420Y1583325D02*
X536920Y1583325D01*
X536920Y1584750D02*
X532420Y1584750D01*
X532420Y1586175D02*
X536920Y1586175D01*
X536920Y1587600D02*
X532420Y1587600D01*
X532420Y1589025D02*
X536920Y1589025D01*
X536920Y1590450D02*
X532420Y1590450D01*
X532420Y1591875D02*
X536920Y1591875D01*
X536920Y1593300D02*
X532420Y1593300D01*
X545120Y1593350D02*
X545120Y1579050D01*
X545120Y1593350D02*
X549620Y1593350D01*
X549620Y1579050D01*
X545120Y1579050D01*
X545120Y1580475D02*
X549620Y1580475D01*
X549620Y1581900D02*
X545120Y1581900D01*
X545120Y1583325D02*
X549620Y1583325D01*
X549620Y1584750D02*
X545120Y1584750D01*
X545120Y1586175D02*
X549620Y1586175D01*
X549620Y1587600D02*
X545120Y1587600D01*
X545120Y1589025D02*
X549620Y1589025D01*
X549620Y1590450D02*
X545120Y1590450D01*
X545120Y1591875D02*
X549620Y1591875D01*
X549620Y1593300D02*
X545120Y1593300D01*
X557820Y1593350D02*
X557820Y1579050D01*
X557820Y1593350D02*
X562320Y1593350D01*
X562320Y1579050D01*
X557820Y1579050D01*
X557820Y1580475D02*
X562320Y1580475D01*
X562320Y1581900D02*
X557820Y1581900D01*
X557820Y1583325D02*
X562320Y1583325D01*
X562320Y1584750D02*
X557820Y1584750D01*
X557820Y1586175D02*
X562320Y1586175D01*
X562320Y1587600D02*
X557820Y1587600D01*
X557820Y1589025D02*
X562320Y1589025D01*
X562320Y1590450D02*
X557820Y1590450D01*
X557820Y1591875D02*
X562320Y1591875D01*
X562320Y1593300D02*
X557820Y1593300D01*
X570520Y1593350D02*
X570520Y1579050D01*
X570520Y1593350D02*
X575020Y1593350D01*
X575020Y1579050D01*
X570520Y1579050D01*
X570520Y1580475D02*
X575020Y1580475D01*
X575020Y1581900D02*
X570520Y1581900D01*
X570520Y1583325D02*
X575020Y1583325D01*
X575020Y1584750D02*
X570520Y1584750D01*
X570520Y1586175D02*
X575020Y1586175D01*
X575020Y1587600D02*
X570520Y1587600D01*
X570520Y1589025D02*
X575020Y1589025D01*
X575020Y1590450D02*
X570520Y1590450D01*
X570520Y1591875D02*
X575020Y1591875D01*
X575020Y1593300D02*
X570520Y1593300D01*
X512100Y1632450D02*
X512100Y1646750D01*
X516600Y1646750D01*
X516600Y1632450D01*
X512100Y1632450D01*
X512100Y1633875D02*
X516600Y1633875D01*
X516600Y1635300D02*
X512100Y1635300D01*
X512100Y1636725D02*
X516600Y1636725D01*
X516600Y1638150D02*
X512100Y1638150D01*
X512100Y1639575D02*
X516600Y1639575D01*
X516600Y1641000D02*
X512100Y1641000D01*
X512100Y1642425D02*
X516600Y1642425D01*
X516600Y1643850D02*
X512100Y1643850D01*
X512100Y1645275D02*
X516600Y1645275D01*
X516600Y1646700D02*
X512100Y1646700D01*
X499400Y1646750D02*
X499400Y1632450D01*
X499400Y1646750D02*
X503900Y1646750D01*
X503900Y1632450D01*
X499400Y1632450D01*
X499400Y1633875D02*
X503900Y1633875D01*
X503900Y1635300D02*
X499400Y1635300D01*
X499400Y1636725D02*
X503900Y1636725D01*
X503900Y1638150D02*
X499400Y1638150D01*
X499400Y1639575D02*
X503900Y1639575D01*
X503900Y1641000D02*
X499400Y1641000D01*
X499400Y1642425D02*
X503900Y1642425D01*
X503900Y1643850D02*
X499400Y1643850D01*
X499400Y1645275D02*
X503900Y1645275D01*
X503900Y1646700D02*
X499400Y1646700D01*
X486700Y1646750D02*
X486700Y1632450D01*
X486700Y1646750D02*
X491200Y1646750D01*
X491200Y1632450D01*
X486700Y1632450D01*
X486700Y1633875D02*
X491200Y1633875D01*
X491200Y1635300D02*
X486700Y1635300D01*
X486700Y1636725D02*
X491200Y1636725D01*
X491200Y1638150D02*
X486700Y1638150D01*
X486700Y1639575D02*
X491200Y1639575D01*
X491200Y1641000D02*
X486700Y1641000D01*
X486700Y1642425D02*
X491200Y1642425D01*
X491200Y1643850D02*
X486700Y1643850D01*
X486700Y1645275D02*
X491200Y1645275D01*
X491200Y1646700D02*
X486700Y1646700D01*
X474000Y1646750D02*
X474000Y1632450D01*
X474000Y1646750D02*
X478500Y1646750D01*
X478500Y1632450D01*
X474000Y1632450D01*
X474000Y1633875D02*
X478500Y1633875D01*
X478500Y1635300D02*
X474000Y1635300D01*
X474000Y1636725D02*
X478500Y1636725D01*
X478500Y1638150D02*
X474000Y1638150D01*
X474000Y1639575D02*
X478500Y1639575D01*
X478500Y1641000D02*
X474000Y1641000D01*
X474000Y1642425D02*
X478500Y1642425D01*
X478500Y1643850D02*
X474000Y1643850D01*
X474000Y1645275D02*
X478500Y1645275D01*
X478500Y1646700D02*
X474000Y1646700D01*
X474000Y1593350D02*
X474000Y1579050D01*
X474000Y1593350D02*
X478500Y1593350D01*
X478500Y1579050D01*
X474000Y1579050D01*
X474000Y1580475D02*
X478500Y1580475D01*
X478500Y1581900D02*
X474000Y1581900D01*
X474000Y1583325D02*
X478500Y1583325D01*
X478500Y1584750D02*
X474000Y1584750D01*
X474000Y1586175D02*
X478500Y1586175D01*
X478500Y1587600D02*
X474000Y1587600D01*
X474000Y1589025D02*
X478500Y1589025D01*
X478500Y1590450D02*
X474000Y1590450D01*
X474000Y1591875D02*
X478500Y1591875D01*
X478500Y1593300D02*
X474000Y1593300D01*
X486700Y1593350D02*
X486700Y1579050D01*
X486700Y1593350D02*
X491200Y1593350D01*
X491200Y1579050D01*
X486700Y1579050D01*
X486700Y1580475D02*
X491200Y1580475D01*
X491200Y1581900D02*
X486700Y1581900D01*
X486700Y1583325D02*
X491200Y1583325D01*
X491200Y1584750D02*
X486700Y1584750D01*
X486700Y1586175D02*
X491200Y1586175D01*
X491200Y1587600D02*
X486700Y1587600D01*
X486700Y1589025D02*
X491200Y1589025D01*
X491200Y1590450D02*
X486700Y1590450D01*
X486700Y1591875D02*
X491200Y1591875D01*
X491200Y1593300D02*
X486700Y1593300D01*
X499400Y1593350D02*
X499400Y1579050D01*
X499400Y1593350D02*
X503900Y1593350D01*
X503900Y1579050D01*
X499400Y1579050D01*
X499400Y1580475D02*
X503900Y1580475D01*
X503900Y1581900D02*
X499400Y1581900D01*
X499400Y1583325D02*
X503900Y1583325D01*
X503900Y1584750D02*
X499400Y1584750D01*
X499400Y1586175D02*
X503900Y1586175D01*
X503900Y1587600D02*
X499400Y1587600D01*
X499400Y1589025D02*
X503900Y1589025D01*
X503900Y1590450D02*
X499400Y1590450D01*
X499400Y1591875D02*
X503900Y1591875D01*
X503900Y1593300D02*
X499400Y1593300D01*
X512100Y1593350D02*
X512100Y1579050D01*
X512100Y1593350D02*
X516600Y1593350D01*
X516600Y1579050D01*
X512100Y1579050D01*
X512100Y1580475D02*
X516600Y1580475D01*
X516600Y1581900D02*
X512100Y1581900D01*
X512100Y1583325D02*
X516600Y1583325D01*
X516600Y1584750D02*
X512100Y1584750D01*
X512100Y1586175D02*
X516600Y1586175D01*
X516600Y1587600D02*
X512100Y1587600D01*
X512100Y1589025D02*
X516600Y1589025D01*
X516600Y1590450D02*
X512100Y1590450D01*
X512100Y1591875D02*
X516600Y1591875D01*
X516600Y1593300D02*
X512100Y1593300D01*
D20*
X612140Y1097280D03*
D21*
X623590Y1088730D02*
X630390Y1088730D01*
X630390Y1086330D01*
X623590Y1086330D01*
X623590Y1088730D01*
X623590Y1087090D02*
X630390Y1087090D01*
X630390Y1087850D02*
X623590Y1087850D01*
X623590Y1088610D02*
X630390Y1088610D01*
X630390Y1095230D02*
X623590Y1095230D01*
X630390Y1095230D02*
X630390Y1092830D01*
X623590Y1092830D01*
X623590Y1095230D01*
X623590Y1093590D02*
X630390Y1093590D01*
X630390Y1094350D02*
X623590Y1094350D01*
X623590Y1095110D02*
X630390Y1095110D01*
X630390Y1101730D02*
X623590Y1101730D01*
X630390Y1101730D02*
X630390Y1099330D01*
X623590Y1099330D01*
X623590Y1101730D01*
X623590Y1100090D02*
X630390Y1100090D01*
X630390Y1100850D02*
X623590Y1100850D01*
X623590Y1101610D02*
X630390Y1101610D01*
X630390Y1108230D02*
X623590Y1108230D01*
X630390Y1108230D02*
X630390Y1105830D01*
X623590Y1105830D01*
X623590Y1108230D01*
X623590Y1106590D02*
X630390Y1106590D01*
X630390Y1107350D02*
X623590Y1107350D01*
X623590Y1108110D02*
X630390Y1108110D01*
X600690Y1108230D02*
X593890Y1108230D01*
X600690Y1108230D02*
X600690Y1105830D01*
X593890Y1105830D01*
X593890Y1108230D01*
X593890Y1106590D02*
X600690Y1106590D01*
X600690Y1107350D02*
X593890Y1107350D01*
X593890Y1108110D02*
X600690Y1108110D01*
X600690Y1101730D02*
X593890Y1101730D01*
X600690Y1101730D02*
X600690Y1099330D01*
X593890Y1099330D01*
X593890Y1101730D01*
X593890Y1100090D02*
X600690Y1100090D01*
X600690Y1100850D02*
X593890Y1100850D01*
X593890Y1101610D02*
X600690Y1101610D01*
X600690Y1095230D02*
X593890Y1095230D01*
X600690Y1095230D02*
X600690Y1092830D01*
X593890Y1092830D01*
X593890Y1095230D01*
X593890Y1093590D02*
X600690Y1093590D01*
X600690Y1094350D02*
X593890Y1094350D01*
X593890Y1095110D02*
X600690Y1095110D01*
X600690Y1088730D02*
X593890Y1088730D01*
X600690Y1088730D02*
X600690Y1086330D01*
X593890Y1086330D01*
X593890Y1088730D01*
X593890Y1087090D02*
X600690Y1087090D01*
X600690Y1087850D02*
X593890Y1087850D01*
X593890Y1088610D02*
X600690Y1088610D01*
D20*
X612140Y1144270D03*
D21*
X623590Y1135720D02*
X630390Y1135720D01*
X630390Y1133320D01*
X623590Y1133320D01*
X623590Y1135720D01*
X623590Y1134080D02*
X630390Y1134080D01*
X630390Y1134840D02*
X623590Y1134840D01*
X623590Y1135600D02*
X630390Y1135600D01*
X630390Y1142220D02*
X623590Y1142220D01*
X630390Y1142220D02*
X630390Y1139820D01*
X623590Y1139820D01*
X623590Y1142220D01*
X623590Y1140580D02*
X630390Y1140580D01*
X630390Y1141340D02*
X623590Y1141340D01*
X623590Y1142100D02*
X630390Y1142100D01*
X630390Y1148720D02*
X623590Y1148720D01*
X630390Y1148720D02*
X630390Y1146320D01*
X623590Y1146320D01*
X623590Y1148720D01*
X623590Y1147080D02*
X630390Y1147080D01*
X630390Y1147840D02*
X623590Y1147840D01*
X623590Y1148600D02*
X630390Y1148600D01*
X630390Y1155220D02*
X623590Y1155220D01*
X630390Y1155220D02*
X630390Y1152820D01*
X623590Y1152820D01*
X623590Y1155220D01*
X623590Y1153580D02*
X630390Y1153580D01*
X630390Y1154340D02*
X623590Y1154340D01*
X623590Y1155100D02*
X630390Y1155100D01*
X600690Y1155220D02*
X593890Y1155220D01*
X600690Y1155220D02*
X600690Y1152820D01*
X593890Y1152820D01*
X593890Y1155220D01*
X593890Y1153580D02*
X600690Y1153580D01*
X600690Y1154340D02*
X593890Y1154340D01*
X593890Y1155100D02*
X600690Y1155100D01*
X600690Y1148720D02*
X593890Y1148720D01*
X600690Y1148720D02*
X600690Y1146320D01*
X593890Y1146320D01*
X593890Y1148720D01*
X593890Y1147080D02*
X600690Y1147080D01*
X600690Y1147840D02*
X593890Y1147840D01*
X593890Y1148600D02*
X600690Y1148600D01*
X600690Y1142220D02*
X593890Y1142220D01*
X600690Y1142220D02*
X600690Y1139820D01*
X593890Y1139820D01*
X593890Y1142220D01*
X593890Y1140580D02*
X600690Y1140580D01*
X600690Y1141340D02*
X593890Y1141340D01*
X593890Y1142100D02*
X600690Y1142100D01*
X600690Y1135720D02*
X593890Y1135720D01*
X600690Y1135720D02*
X600690Y1133320D01*
X593890Y1133320D01*
X593890Y1135720D01*
X593890Y1134080D02*
X600690Y1134080D01*
X600690Y1134840D02*
X593890Y1134840D01*
X593890Y1135600D02*
X600690Y1135600D01*
D13*
X564860Y1256520D02*
X564860Y1274720D01*
X564860Y1256520D02*
X560360Y1256520D01*
X560360Y1274720D01*
X564860Y1274720D01*
X564860Y1257945D02*
X560360Y1257945D01*
X560360Y1259370D02*
X564860Y1259370D01*
X564860Y1260795D02*
X560360Y1260795D01*
X560360Y1262220D02*
X564860Y1262220D01*
X564860Y1263645D02*
X560360Y1263645D01*
X560360Y1265070D02*
X564860Y1265070D01*
X564860Y1266495D02*
X560360Y1266495D01*
X560360Y1267920D02*
X564860Y1267920D01*
X564860Y1269345D02*
X560360Y1269345D01*
X560360Y1270770D02*
X564860Y1270770D01*
X564860Y1272195D02*
X560360Y1272195D01*
X560360Y1273620D02*
X564860Y1273620D01*
X577560Y1274720D02*
X577560Y1256520D01*
X573060Y1256520D01*
X573060Y1274720D01*
X577560Y1274720D01*
X577560Y1257945D02*
X573060Y1257945D01*
X573060Y1259370D02*
X577560Y1259370D01*
X577560Y1260795D02*
X573060Y1260795D01*
X573060Y1262220D02*
X577560Y1262220D01*
X577560Y1263645D02*
X573060Y1263645D01*
X573060Y1265070D02*
X577560Y1265070D01*
X577560Y1266495D02*
X573060Y1266495D01*
X573060Y1267920D02*
X577560Y1267920D01*
X577560Y1269345D02*
X573060Y1269345D01*
X573060Y1270770D02*
X577560Y1270770D01*
X577560Y1272195D02*
X573060Y1272195D01*
X573060Y1273620D02*
X577560Y1273620D01*
X590260Y1274720D02*
X590260Y1256520D01*
X585760Y1256520D01*
X585760Y1274720D01*
X590260Y1274720D01*
X590260Y1257945D02*
X585760Y1257945D01*
X585760Y1259370D02*
X590260Y1259370D01*
X590260Y1260795D02*
X585760Y1260795D01*
X585760Y1262220D02*
X590260Y1262220D01*
X590260Y1263645D02*
X585760Y1263645D01*
X585760Y1265070D02*
X590260Y1265070D01*
X590260Y1266495D02*
X585760Y1266495D01*
X585760Y1267920D02*
X590260Y1267920D01*
X590260Y1269345D02*
X585760Y1269345D01*
X585760Y1270770D02*
X590260Y1270770D01*
X590260Y1272195D02*
X585760Y1272195D01*
X585760Y1273620D02*
X590260Y1273620D01*
X602960Y1274720D02*
X602960Y1256520D01*
X598460Y1256520D01*
X598460Y1274720D01*
X602960Y1274720D01*
X602960Y1257945D02*
X598460Y1257945D01*
X598460Y1259370D02*
X602960Y1259370D01*
X602960Y1260795D02*
X598460Y1260795D01*
X598460Y1262220D02*
X602960Y1262220D01*
X602960Y1263645D02*
X598460Y1263645D01*
X598460Y1265070D02*
X602960Y1265070D01*
X602960Y1266495D02*
X598460Y1266495D01*
X598460Y1267920D02*
X602960Y1267920D01*
X602960Y1269345D02*
X598460Y1269345D01*
X598460Y1270770D02*
X602960Y1270770D01*
X602960Y1272195D02*
X598460Y1272195D01*
X598460Y1273620D02*
X602960Y1273620D01*
X602960Y1305920D02*
X602960Y1324120D01*
X602960Y1305920D02*
X598460Y1305920D01*
X598460Y1324120D01*
X602960Y1324120D01*
X602960Y1307345D02*
X598460Y1307345D01*
X598460Y1308770D02*
X602960Y1308770D01*
X602960Y1310195D02*
X598460Y1310195D01*
X598460Y1311620D02*
X602960Y1311620D01*
X602960Y1313045D02*
X598460Y1313045D01*
X598460Y1314470D02*
X602960Y1314470D01*
X602960Y1315895D02*
X598460Y1315895D01*
X598460Y1317320D02*
X602960Y1317320D01*
X602960Y1318745D02*
X598460Y1318745D01*
X598460Y1320170D02*
X602960Y1320170D01*
X602960Y1321595D02*
X598460Y1321595D01*
X598460Y1323020D02*
X602960Y1323020D01*
X590260Y1324120D02*
X590260Y1305920D01*
X585760Y1305920D01*
X585760Y1324120D01*
X590260Y1324120D01*
X590260Y1307345D02*
X585760Y1307345D01*
X585760Y1308770D02*
X590260Y1308770D01*
X590260Y1310195D02*
X585760Y1310195D01*
X585760Y1311620D02*
X590260Y1311620D01*
X590260Y1313045D02*
X585760Y1313045D01*
X585760Y1314470D02*
X590260Y1314470D01*
X590260Y1315895D02*
X585760Y1315895D01*
X585760Y1317320D02*
X590260Y1317320D01*
X590260Y1318745D02*
X585760Y1318745D01*
X585760Y1320170D02*
X590260Y1320170D01*
X590260Y1321595D02*
X585760Y1321595D01*
X585760Y1323020D02*
X590260Y1323020D01*
X577560Y1324120D02*
X577560Y1305920D01*
X573060Y1305920D01*
X573060Y1324120D01*
X577560Y1324120D01*
X577560Y1307345D02*
X573060Y1307345D01*
X573060Y1308770D02*
X577560Y1308770D01*
X577560Y1310195D02*
X573060Y1310195D01*
X573060Y1311620D02*
X577560Y1311620D01*
X577560Y1313045D02*
X573060Y1313045D01*
X573060Y1314470D02*
X577560Y1314470D01*
X577560Y1315895D02*
X573060Y1315895D01*
X573060Y1317320D02*
X577560Y1317320D01*
X577560Y1318745D02*
X573060Y1318745D01*
X573060Y1320170D02*
X577560Y1320170D01*
X577560Y1321595D02*
X573060Y1321595D01*
X573060Y1323020D02*
X577560Y1323020D01*
X564860Y1324120D02*
X564860Y1305920D01*
X560360Y1305920D01*
X560360Y1324120D01*
X564860Y1324120D01*
X564860Y1307345D02*
X560360Y1307345D01*
X560360Y1308770D02*
X564860Y1308770D01*
X564860Y1310195D02*
X560360Y1310195D01*
X560360Y1311620D02*
X564860Y1311620D01*
X564860Y1313045D02*
X560360Y1313045D01*
X560360Y1314470D02*
X564860Y1314470D01*
X564860Y1315895D02*
X560360Y1315895D01*
X560360Y1317320D02*
X564860Y1317320D01*
X564860Y1318745D02*
X560360Y1318745D01*
X560360Y1320170D02*
X564860Y1320170D01*
X564860Y1321595D02*
X560360Y1321595D01*
X560360Y1323020D02*
X564860Y1323020D01*
X570520Y1516740D02*
X570520Y1534940D01*
X575020Y1534940D01*
X575020Y1516740D01*
X570520Y1516740D01*
X570520Y1518165D02*
X575020Y1518165D01*
X575020Y1519590D02*
X570520Y1519590D01*
X570520Y1521015D02*
X575020Y1521015D01*
X575020Y1522440D02*
X570520Y1522440D01*
X570520Y1523865D02*
X575020Y1523865D01*
X575020Y1525290D02*
X570520Y1525290D01*
X570520Y1526715D02*
X575020Y1526715D01*
X575020Y1528140D02*
X570520Y1528140D01*
X570520Y1529565D02*
X575020Y1529565D01*
X575020Y1530990D02*
X570520Y1530990D01*
X570520Y1532415D02*
X575020Y1532415D01*
X575020Y1533840D02*
X570520Y1533840D01*
X557820Y1534940D02*
X557820Y1516740D01*
X557820Y1534940D02*
X562320Y1534940D01*
X562320Y1516740D01*
X557820Y1516740D01*
X557820Y1518165D02*
X562320Y1518165D01*
X562320Y1519590D02*
X557820Y1519590D01*
X557820Y1521015D02*
X562320Y1521015D01*
X562320Y1522440D02*
X557820Y1522440D01*
X557820Y1523865D02*
X562320Y1523865D01*
X562320Y1525290D02*
X557820Y1525290D01*
X557820Y1526715D02*
X562320Y1526715D01*
X562320Y1528140D02*
X557820Y1528140D01*
X557820Y1529565D02*
X562320Y1529565D01*
X562320Y1530990D02*
X557820Y1530990D01*
X557820Y1532415D02*
X562320Y1532415D01*
X562320Y1533840D02*
X557820Y1533840D01*
X545120Y1534940D02*
X545120Y1516740D01*
X545120Y1534940D02*
X549620Y1534940D01*
X549620Y1516740D01*
X545120Y1516740D01*
X545120Y1518165D02*
X549620Y1518165D01*
X549620Y1519590D02*
X545120Y1519590D01*
X545120Y1521015D02*
X549620Y1521015D01*
X549620Y1522440D02*
X545120Y1522440D01*
X545120Y1523865D02*
X549620Y1523865D01*
X549620Y1525290D02*
X545120Y1525290D01*
X545120Y1526715D02*
X549620Y1526715D01*
X549620Y1528140D02*
X545120Y1528140D01*
X545120Y1529565D02*
X549620Y1529565D01*
X549620Y1530990D02*
X545120Y1530990D01*
X545120Y1532415D02*
X549620Y1532415D01*
X549620Y1533840D02*
X545120Y1533840D01*
X532420Y1534940D02*
X532420Y1516740D01*
X532420Y1534940D02*
X536920Y1534940D01*
X536920Y1516740D01*
X532420Y1516740D01*
X532420Y1518165D02*
X536920Y1518165D01*
X536920Y1519590D02*
X532420Y1519590D01*
X532420Y1521015D02*
X536920Y1521015D01*
X536920Y1522440D02*
X532420Y1522440D01*
X532420Y1523865D02*
X536920Y1523865D01*
X536920Y1525290D02*
X532420Y1525290D01*
X532420Y1526715D02*
X536920Y1526715D01*
X536920Y1528140D02*
X532420Y1528140D01*
X532420Y1529565D02*
X536920Y1529565D01*
X536920Y1530990D02*
X532420Y1530990D01*
X532420Y1532415D02*
X536920Y1532415D01*
X536920Y1533840D02*
X532420Y1533840D01*
X532420Y1485540D02*
X532420Y1467340D01*
X532420Y1485540D02*
X536920Y1485540D01*
X536920Y1467340D01*
X532420Y1467340D01*
X532420Y1468765D02*
X536920Y1468765D01*
X536920Y1470190D02*
X532420Y1470190D01*
X532420Y1471615D02*
X536920Y1471615D01*
X536920Y1473040D02*
X532420Y1473040D01*
X532420Y1474465D02*
X536920Y1474465D01*
X536920Y1475890D02*
X532420Y1475890D01*
X532420Y1477315D02*
X536920Y1477315D01*
X536920Y1478740D02*
X532420Y1478740D01*
X532420Y1480165D02*
X536920Y1480165D01*
X536920Y1481590D02*
X532420Y1481590D01*
X532420Y1483015D02*
X536920Y1483015D01*
X536920Y1484440D02*
X532420Y1484440D01*
X545120Y1485540D02*
X545120Y1467340D01*
X545120Y1485540D02*
X549620Y1485540D01*
X549620Y1467340D01*
X545120Y1467340D01*
X545120Y1468765D02*
X549620Y1468765D01*
X549620Y1470190D02*
X545120Y1470190D01*
X545120Y1471615D02*
X549620Y1471615D01*
X549620Y1473040D02*
X545120Y1473040D01*
X545120Y1474465D02*
X549620Y1474465D01*
X549620Y1475890D02*
X545120Y1475890D01*
X545120Y1477315D02*
X549620Y1477315D01*
X549620Y1478740D02*
X545120Y1478740D01*
X545120Y1480165D02*
X549620Y1480165D01*
X549620Y1481590D02*
X545120Y1481590D01*
X545120Y1483015D02*
X549620Y1483015D01*
X549620Y1484440D02*
X545120Y1484440D01*
X557820Y1485540D02*
X557820Y1467340D01*
X557820Y1485540D02*
X562320Y1485540D01*
X562320Y1467340D01*
X557820Y1467340D01*
X557820Y1468765D02*
X562320Y1468765D01*
X562320Y1470190D02*
X557820Y1470190D01*
X557820Y1471615D02*
X562320Y1471615D01*
X562320Y1473040D02*
X557820Y1473040D01*
X557820Y1474465D02*
X562320Y1474465D01*
X562320Y1475890D02*
X557820Y1475890D01*
X557820Y1477315D02*
X562320Y1477315D01*
X562320Y1478740D02*
X557820Y1478740D01*
X557820Y1480165D02*
X562320Y1480165D01*
X562320Y1481590D02*
X557820Y1481590D01*
X557820Y1483015D02*
X562320Y1483015D01*
X562320Y1484440D02*
X557820Y1484440D01*
X570520Y1485540D02*
X570520Y1467340D01*
X570520Y1485540D02*
X575020Y1485540D01*
X575020Y1467340D01*
X570520Y1467340D01*
X570520Y1468765D02*
X575020Y1468765D01*
X575020Y1470190D02*
X570520Y1470190D01*
X570520Y1471615D02*
X575020Y1471615D01*
X575020Y1473040D02*
X570520Y1473040D01*
X570520Y1474465D02*
X575020Y1474465D01*
X575020Y1475890D02*
X570520Y1475890D01*
X570520Y1477315D02*
X575020Y1477315D01*
X575020Y1478740D02*
X570520Y1478740D01*
X570520Y1480165D02*
X575020Y1480165D01*
X575020Y1481590D02*
X570520Y1481590D01*
X570520Y1483015D02*
X575020Y1483015D01*
X575020Y1484440D02*
X570520Y1484440D01*
X535650Y1391560D02*
X535650Y1373360D01*
X531150Y1373360D01*
X531150Y1391560D01*
X535650Y1391560D01*
X535650Y1374785D02*
X531150Y1374785D01*
X531150Y1376210D02*
X535650Y1376210D01*
X535650Y1377635D02*
X531150Y1377635D01*
X531150Y1379060D02*
X535650Y1379060D01*
X535650Y1380485D02*
X531150Y1380485D01*
X531150Y1381910D02*
X535650Y1381910D01*
X535650Y1383335D02*
X531150Y1383335D01*
X531150Y1384760D02*
X535650Y1384760D01*
X535650Y1386185D02*
X531150Y1386185D01*
X531150Y1387610D02*
X535650Y1387610D01*
X535650Y1389035D02*
X531150Y1389035D01*
X531150Y1390460D02*
X535650Y1390460D01*
X548350Y1391560D02*
X548350Y1373360D01*
X543850Y1373360D01*
X543850Y1391560D01*
X548350Y1391560D01*
X548350Y1374785D02*
X543850Y1374785D01*
X543850Y1376210D02*
X548350Y1376210D01*
X548350Y1377635D02*
X543850Y1377635D01*
X543850Y1379060D02*
X548350Y1379060D01*
X548350Y1380485D02*
X543850Y1380485D01*
X543850Y1381910D02*
X548350Y1381910D01*
X548350Y1383335D02*
X543850Y1383335D01*
X543850Y1384760D02*
X548350Y1384760D01*
X548350Y1386185D02*
X543850Y1386185D01*
X543850Y1387610D02*
X548350Y1387610D01*
X548350Y1389035D02*
X543850Y1389035D01*
X543850Y1390460D02*
X548350Y1390460D01*
X561050Y1391560D02*
X561050Y1373360D01*
X556550Y1373360D01*
X556550Y1391560D01*
X561050Y1391560D01*
X561050Y1374785D02*
X556550Y1374785D01*
X556550Y1376210D02*
X561050Y1376210D01*
X561050Y1377635D02*
X556550Y1377635D01*
X556550Y1379060D02*
X561050Y1379060D01*
X561050Y1380485D02*
X556550Y1380485D01*
X556550Y1381910D02*
X561050Y1381910D01*
X561050Y1383335D02*
X556550Y1383335D01*
X556550Y1384760D02*
X561050Y1384760D01*
X561050Y1386185D02*
X556550Y1386185D01*
X556550Y1387610D02*
X561050Y1387610D01*
X561050Y1389035D02*
X556550Y1389035D01*
X556550Y1390460D02*
X561050Y1390460D01*
X573750Y1391560D02*
X573750Y1373360D01*
X569250Y1373360D01*
X569250Y1391560D01*
X573750Y1391560D01*
X573750Y1374785D02*
X569250Y1374785D01*
X569250Y1376210D02*
X573750Y1376210D01*
X573750Y1377635D02*
X569250Y1377635D01*
X569250Y1379060D02*
X573750Y1379060D01*
X573750Y1380485D02*
X569250Y1380485D01*
X569250Y1381910D02*
X573750Y1381910D01*
X573750Y1383335D02*
X569250Y1383335D01*
X569250Y1384760D02*
X573750Y1384760D01*
X573750Y1386185D02*
X569250Y1386185D01*
X569250Y1387610D02*
X573750Y1387610D01*
X573750Y1389035D02*
X569250Y1389035D01*
X569250Y1390460D02*
X573750Y1390460D01*
X573750Y1422760D02*
X573750Y1440960D01*
X573750Y1422760D02*
X569250Y1422760D01*
X569250Y1440960D01*
X573750Y1440960D01*
X573750Y1424185D02*
X569250Y1424185D01*
X569250Y1425610D02*
X573750Y1425610D01*
X573750Y1427035D02*
X569250Y1427035D01*
X569250Y1428460D02*
X573750Y1428460D01*
X573750Y1429885D02*
X569250Y1429885D01*
X569250Y1431310D02*
X573750Y1431310D01*
X573750Y1432735D02*
X569250Y1432735D01*
X569250Y1434160D02*
X573750Y1434160D01*
X573750Y1435585D02*
X569250Y1435585D01*
X569250Y1437010D02*
X573750Y1437010D01*
X573750Y1438435D02*
X569250Y1438435D01*
X569250Y1439860D02*
X573750Y1439860D01*
X561050Y1440960D02*
X561050Y1422760D01*
X556550Y1422760D01*
X556550Y1440960D01*
X561050Y1440960D01*
X561050Y1424185D02*
X556550Y1424185D01*
X556550Y1425610D02*
X561050Y1425610D01*
X561050Y1427035D02*
X556550Y1427035D01*
X556550Y1428460D02*
X561050Y1428460D01*
X561050Y1429885D02*
X556550Y1429885D01*
X556550Y1431310D02*
X561050Y1431310D01*
X561050Y1432735D02*
X556550Y1432735D01*
X556550Y1434160D02*
X561050Y1434160D01*
X561050Y1435585D02*
X556550Y1435585D01*
X556550Y1437010D02*
X561050Y1437010D01*
X561050Y1438435D02*
X556550Y1438435D01*
X556550Y1439860D02*
X561050Y1439860D01*
X548350Y1440960D02*
X548350Y1422760D01*
X543850Y1422760D01*
X543850Y1440960D01*
X548350Y1440960D01*
X548350Y1424185D02*
X543850Y1424185D01*
X543850Y1425610D02*
X548350Y1425610D01*
X548350Y1427035D02*
X543850Y1427035D01*
X543850Y1428460D02*
X548350Y1428460D01*
X548350Y1429885D02*
X543850Y1429885D01*
X543850Y1431310D02*
X548350Y1431310D01*
X548350Y1432735D02*
X543850Y1432735D01*
X543850Y1434160D02*
X548350Y1434160D01*
X548350Y1435585D02*
X543850Y1435585D01*
X543850Y1437010D02*
X548350Y1437010D01*
X548350Y1438435D02*
X543850Y1438435D01*
X543850Y1439860D02*
X548350Y1439860D01*
X535650Y1440960D02*
X535650Y1422760D01*
X531150Y1422760D01*
X531150Y1440960D01*
X535650Y1440960D01*
X535650Y1424185D02*
X531150Y1424185D01*
X531150Y1425610D02*
X535650Y1425610D01*
X535650Y1427035D02*
X531150Y1427035D01*
X531150Y1428460D02*
X535650Y1428460D01*
X535650Y1429885D02*
X531150Y1429885D01*
X531150Y1431310D02*
X535650Y1431310D01*
X535650Y1432735D02*
X531150Y1432735D01*
X531150Y1434160D02*
X535650Y1434160D01*
X535650Y1435585D02*
X531150Y1435585D01*
X531150Y1437010D02*
X535650Y1437010D01*
X535650Y1438435D02*
X531150Y1438435D01*
X531150Y1439860D02*
X535650Y1439860D01*
X493050Y1355870D02*
X493050Y1337670D01*
X493050Y1355870D02*
X497550Y1355870D01*
X497550Y1337670D01*
X493050Y1337670D01*
X493050Y1339095D02*
X497550Y1339095D01*
X497550Y1340520D02*
X493050Y1340520D01*
X493050Y1341945D02*
X497550Y1341945D01*
X497550Y1343370D02*
X493050Y1343370D01*
X493050Y1344795D02*
X497550Y1344795D01*
X497550Y1346220D02*
X493050Y1346220D01*
X493050Y1347645D02*
X497550Y1347645D01*
X497550Y1349070D02*
X493050Y1349070D01*
X493050Y1350495D02*
X497550Y1350495D01*
X497550Y1351920D02*
X493050Y1351920D01*
X493050Y1353345D02*
X497550Y1353345D01*
X497550Y1354770D02*
X493050Y1354770D01*
X480350Y1355870D02*
X480350Y1337670D01*
X480350Y1355870D02*
X484850Y1355870D01*
X484850Y1337670D01*
X480350Y1337670D01*
X480350Y1339095D02*
X484850Y1339095D01*
X484850Y1340520D02*
X480350Y1340520D01*
X480350Y1341945D02*
X484850Y1341945D01*
X484850Y1343370D02*
X480350Y1343370D01*
X480350Y1344795D02*
X484850Y1344795D01*
X484850Y1346220D02*
X480350Y1346220D01*
X480350Y1347645D02*
X484850Y1347645D01*
X484850Y1349070D02*
X480350Y1349070D01*
X480350Y1350495D02*
X484850Y1350495D01*
X484850Y1351920D02*
X480350Y1351920D01*
X480350Y1353345D02*
X484850Y1353345D01*
X484850Y1354770D02*
X480350Y1354770D01*
X467650Y1355870D02*
X467650Y1337670D01*
X467650Y1355870D02*
X472150Y1355870D01*
X472150Y1337670D01*
X467650Y1337670D01*
X467650Y1339095D02*
X472150Y1339095D01*
X472150Y1340520D02*
X467650Y1340520D01*
X467650Y1341945D02*
X472150Y1341945D01*
X472150Y1343370D02*
X467650Y1343370D01*
X467650Y1344795D02*
X472150Y1344795D01*
X472150Y1346220D02*
X467650Y1346220D01*
X467650Y1347645D02*
X472150Y1347645D01*
X472150Y1349070D02*
X467650Y1349070D01*
X467650Y1350495D02*
X472150Y1350495D01*
X472150Y1351920D02*
X467650Y1351920D01*
X467650Y1353345D02*
X472150Y1353345D01*
X472150Y1354770D02*
X467650Y1354770D01*
X454950Y1355870D02*
X454950Y1337670D01*
X454950Y1355870D02*
X459450Y1355870D01*
X459450Y1337670D01*
X454950Y1337670D01*
X454950Y1339095D02*
X459450Y1339095D01*
X459450Y1340520D02*
X454950Y1340520D01*
X454950Y1341945D02*
X459450Y1341945D01*
X459450Y1343370D02*
X454950Y1343370D01*
X454950Y1344795D02*
X459450Y1344795D01*
X459450Y1346220D02*
X454950Y1346220D01*
X454950Y1347645D02*
X459450Y1347645D01*
X459450Y1349070D02*
X454950Y1349070D01*
X454950Y1350495D02*
X459450Y1350495D01*
X459450Y1351920D02*
X454950Y1351920D01*
X454950Y1353345D02*
X459450Y1353345D01*
X459450Y1354770D02*
X454950Y1354770D01*
X454950Y1306470D02*
X454950Y1288270D01*
X454950Y1306470D02*
X459450Y1306470D01*
X459450Y1288270D01*
X454950Y1288270D01*
X454950Y1289695D02*
X459450Y1289695D01*
X459450Y1291120D02*
X454950Y1291120D01*
X454950Y1292545D02*
X459450Y1292545D01*
X459450Y1293970D02*
X454950Y1293970D01*
X454950Y1295395D02*
X459450Y1295395D01*
X459450Y1296820D02*
X454950Y1296820D01*
X454950Y1298245D02*
X459450Y1298245D01*
X459450Y1299670D02*
X454950Y1299670D01*
X454950Y1301095D02*
X459450Y1301095D01*
X459450Y1302520D02*
X454950Y1302520D01*
X454950Y1303945D02*
X459450Y1303945D01*
X459450Y1305370D02*
X454950Y1305370D01*
X467650Y1306470D02*
X467650Y1288270D01*
X467650Y1306470D02*
X472150Y1306470D01*
X472150Y1288270D01*
X467650Y1288270D01*
X467650Y1289695D02*
X472150Y1289695D01*
X472150Y1291120D02*
X467650Y1291120D01*
X467650Y1292545D02*
X472150Y1292545D01*
X472150Y1293970D02*
X467650Y1293970D01*
X467650Y1295395D02*
X472150Y1295395D01*
X472150Y1296820D02*
X467650Y1296820D01*
X467650Y1298245D02*
X472150Y1298245D01*
X472150Y1299670D02*
X467650Y1299670D01*
X467650Y1301095D02*
X472150Y1301095D01*
X472150Y1302520D02*
X467650Y1302520D01*
X467650Y1303945D02*
X472150Y1303945D01*
X472150Y1305370D02*
X467650Y1305370D01*
X480350Y1306470D02*
X480350Y1288270D01*
X480350Y1306470D02*
X484850Y1306470D01*
X484850Y1288270D01*
X480350Y1288270D01*
X480350Y1289695D02*
X484850Y1289695D01*
X484850Y1291120D02*
X480350Y1291120D01*
X480350Y1292545D02*
X484850Y1292545D01*
X484850Y1293970D02*
X480350Y1293970D01*
X480350Y1295395D02*
X484850Y1295395D01*
X484850Y1296820D02*
X480350Y1296820D01*
X480350Y1298245D02*
X484850Y1298245D01*
X484850Y1299670D02*
X480350Y1299670D01*
X480350Y1301095D02*
X484850Y1301095D01*
X484850Y1302520D02*
X480350Y1302520D01*
X480350Y1303945D02*
X484850Y1303945D01*
X484850Y1305370D02*
X480350Y1305370D01*
X493050Y1306470D02*
X493050Y1288270D01*
X493050Y1306470D02*
X497550Y1306470D01*
X497550Y1288270D01*
X493050Y1288270D01*
X493050Y1289695D02*
X497550Y1289695D01*
X497550Y1291120D02*
X493050Y1291120D01*
X493050Y1292545D02*
X497550Y1292545D01*
X497550Y1293970D02*
X493050Y1293970D01*
X493050Y1295395D02*
X497550Y1295395D01*
X497550Y1296820D02*
X493050Y1296820D01*
X493050Y1298245D02*
X497550Y1298245D01*
X497550Y1299670D02*
X493050Y1299670D01*
X493050Y1301095D02*
X497550Y1301095D01*
X497550Y1302520D02*
X493050Y1302520D01*
X493050Y1303945D02*
X497550Y1303945D01*
X497550Y1305370D02*
X493050Y1305370D01*
D15*
X497840Y1678940D03*
X552450Y1678940D03*
D12*
X577850Y1112440D03*
X577850Y1102440D03*
D17*
X807570Y1348740D03*
X820570Y1348740D03*
D10*
X739140Y1640690D03*
X739140Y1653690D03*
X845820Y1128880D03*
X845820Y1141880D03*
D16*
X855980Y1270000D03*
X855980Y1229360D03*
D19*
X739140Y1457960D03*
X779780Y1457960D03*
X779780Y1435100D03*
X739140Y1435100D03*
X735330Y1412240D03*
X775970Y1412240D03*
X863600Y1211580D03*
X822960Y1211580D03*
D16*
X830580Y1229360D03*
X830580Y1270000D03*
X886460Y1205230D03*
X886460Y1245870D03*
D19*
X863600Y1375410D03*
X822960Y1375410D03*
X788670Y1543050D03*
X748030Y1543050D03*
X744220Y1513840D03*
X784860Y1513840D03*
X788670Y1487170D03*
X748030Y1487170D03*
D12*
X838200Y1578690D03*
X838200Y1588690D03*
X814070Y1582500D03*
X814070Y1592500D03*
X872490Y1395650D03*
X872490Y1385650D03*
D11*
X768430Y1393190D03*
X778430Y1393190D03*
D12*
X720090Y1325960D03*
X720090Y1335960D03*
X708660Y1303100D03*
X708660Y1313100D03*
D11*
X725250Y1300480D03*
X735250Y1300480D03*
D12*
X786130Y1421050D03*
X786130Y1411050D03*
D11*
X811610Y1332230D03*
X821610Y1332230D03*
D12*
X792480Y1445180D03*
X792480Y1435180D03*
X740410Y1582500D03*
X740410Y1592500D03*
X754380Y1592500D03*
X754380Y1582500D03*
X736600Y1474550D03*
X736600Y1484550D03*
D11*
X802720Y1569720D03*
X812720Y1569720D03*
D12*
X828040Y1302940D03*
X828040Y1292940D03*
X797560Y1403430D03*
X797560Y1413430D03*
X825500Y1588690D03*
X825500Y1578690D03*
D13*
X849920Y1657850D02*
X849920Y1672150D01*
X854420Y1672150D01*
X854420Y1657850D01*
X849920Y1657850D01*
X849920Y1659275D02*
X854420Y1659275D01*
X854420Y1660700D02*
X849920Y1660700D01*
X849920Y1662125D02*
X854420Y1662125D01*
X854420Y1663550D02*
X849920Y1663550D01*
X849920Y1664975D02*
X854420Y1664975D01*
X854420Y1666400D02*
X849920Y1666400D01*
X849920Y1667825D02*
X854420Y1667825D01*
X854420Y1669250D02*
X849920Y1669250D01*
X849920Y1670675D02*
X854420Y1670675D01*
X854420Y1672100D02*
X849920Y1672100D01*
X837220Y1672150D02*
X837220Y1657850D01*
X837220Y1672150D02*
X841720Y1672150D01*
X841720Y1657850D01*
X837220Y1657850D01*
X837220Y1659275D02*
X841720Y1659275D01*
X841720Y1660700D02*
X837220Y1660700D01*
X837220Y1662125D02*
X841720Y1662125D01*
X841720Y1663550D02*
X837220Y1663550D01*
X837220Y1664975D02*
X841720Y1664975D01*
X841720Y1666400D02*
X837220Y1666400D01*
X837220Y1667825D02*
X841720Y1667825D01*
X841720Y1669250D02*
X837220Y1669250D01*
X837220Y1670675D02*
X841720Y1670675D01*
X841720Y1672100D02*
X837220Y1672100D01*
X824520Y1672150D02*
X824520Y1657850D01*
X824520Y1672150D02*
X829020Y1672150D01*
X829020Y1657850D01*
X824520Y1657850D01*
X824520Y1659275D02*
X829020Y1659275D01*
X829020Y1660700D02*
X824520Y1660700D01*
X824520Y1662125D02*
X829020Y1662125D01*
X829020Y1663550D02*
X824520Y1663550D01*
X824520Y1664975D02*
X829020Y1664975D01*
X829020Y1666400D02*
X824520Y1666400D01*
X824520Y1667825D02*
X829020Y1667825D01*
X829020Y1669250D02*
X824520Y1669250D01*
X824520Y1670675D02*
X829020Y1670675D01*
X829020Y1672100D02*
X824520Y1672100D01*
X811820Y1672150D02*
X811820Y1657850D01*
X811820Y1672150D02*
X816320Y1672150D01*
X816320Y1657850D01*
X811820Y1657850D01*
X811820Y1659275D02*
X816320Y1659275D01*
X816320Y1660700D02*
X811820Y1660700D01*
X811820Y1662125D02*
X816320Y1662125D01*
X816320Y1663550D02*
X811820Y1663550D01*
X811820Y1664975D02*
X816320Y1664975D01*
X816320Y1666400D02*
X811820Y1666400D01*
X811820Y1667825D02*
X816320Y1667825D01*
X816320Y1669250D02*
X811820Y1669250D01*
X811820Y1670675D02*
X816320Y1670675D01*
X816320Y1672100D02*
X811820Y1672100D01*
X811820Y1618750D02*
X811820Y1604450D01*
X811820Y1618750D02*
X816320Y1618750D01*
X816320Y1604450D01*
X811820Y1604450D01*
X811820Y1605875D02*
X816320Y1605875D01*
X816320Y1607300D02*
X811820Y1607300D01*
X811820Y1608725D02*
X816320Y1608725D01*
X816320Y1610150D02*
X811820Y1610150D01*
X811820Y1611575D02*
X816320Y1611575D01*
X816320Y1613000D02*
X811820Y1613000D01*
X811820Y1614425D02*
X816320Y1614425D01*
X816320Y1615850D02*
X811820Y1615850D01*
X811820Y1617275D02*
X816320Y1617275D01*
X816320Y1618700D02*
X811820Y1618700D01*
X824520Y1618750D02*
X824520Y1604450D01*
X824520Y1618750D02*
X829020Y1618750D01*
X829020Y1604450D01*
X824520Y1604450D01*
X824520Y1605875D02*
X829020Y1605875D01*
X829020Y1607300D02*
X824520Y1607300D01*
X824520Y1608725D02*
X829020Y1608725D01*
X829020Y1610150D02*
X824520Y1610150D01*
X824520Y1611575D02*
X829020Y1611575D01*
X829020Y1613000D02*
X824520Y1613000D01*
X824520Y1614425D02*
X829020Y1614425D01*
X829020Y1615850D02*
X824520Y1615850D01*
X824520Y1617275D02*
X829020Y1617275D01*
X829020Y1618700D02*
X824520Y1618700D01*
X837220Y1618750D02*
X837220Y1604450D01*
X837220Y1618750D02*
X841720Y1618750D01*
X841720Y1604450D01*
X837220Y1604450D01*
X837220Y1605875D02*
X841720Y1605875D01*
X841720Y1607300D02*
X837220Y1607300D01*
X837220Y1608725D02*
X841720Y1608725D01*
X841720Y1610150D02*
X837220Y1610150D01*
X837220Y1611575D02*
X841720Y1611575D01*
X841720Y1613000D02*
X837220Y1613000D01*
X837220Y1614425D02*
X841720Y1614425D01*
X841720Y1615850D02*
X837220Y1615850D01*
X837220Y1617275D02*
X841720Y1617275D01*
X841720Y1618700D02*
X837220Y1618700D01*
X849920Y1618750D02*
X849920Y1604450D01*
X849920Y1618750D02*
X854420Y1618750D01*
X854420Y1604450D01*
X849920Y1604450D01*
X849920Y1605875D02*
X854420Y1605875D01*
X854420Y1607300D02*
X849920Y1607300D01*
X849920Y1608725D02*
X854420Y1608725D01*
X854420Y1610150D02*
X849920Y1610150D01*
X849920Y1611575D02*
X854420Y1611575D01*
X854420Y1613000D02*
X849920Y1613000D01*
X849920Y1614425D02*
X854420Y1614425D01*
X854420Y1615850D02*
X849920Y1615850D01*
X849920Y1617275D02*
X854420Y1617275D01*
X854420Y1618700D02*
X849920Y1618700D01*
X791500Y1657850D02*
X791500Y1672150D01*
X796000Y1672150D01*
X796000Y1657850D01*
X791500Y1657850D01*
X791500Y1659275D02*
X796000Y1659275D01*
X796000Y1660700D02*
X791500Y1660700D01*
X791500Y1662125D02*
X796000Y1662125D01*
X796000Y1663550D02*
X791500Y1663550D01*
X791500Y1664975D02*
X796000Y1664975D01*
X796000Y1666400D02*
X791500Y1666400D01*
X791500Y1667825D02*
X796000Y1667825D01*
X796000Y1669250D02*
X791500Y1669250D01*
X791500Y1670675D02*
X796000Y1670675D01*
X796000Y1672100D02*
X791500Y1672100D01*
X778800Y1672150D02*
X778800Y1657850D01*
X778800Y1672150D02*
X783300Y1672150D01*
X783300Y1657850D01*
X778800Y1657850D01*
X778800Y1659275D02*
X783300Y1659275D01*
X783300Y1660700D02*
X778800Y1660700D01*
X778800Y1662125D02*
X783300Y1662125D01*
X783300Y1663550D02*
X778800Y1663550D01*
X778800Y1664975D02*
X783300Y1664975D01*
X783300Y1666400D02*
X778800Y1666400D01*
X778800Y1667825D02*
X783300Y1667825D01*
X783300Y1669250D02*
X778800Y1669250D01*
X778800Y1670675D02*
X783300Y1670675D01*
X783300Y1672100D02*
X778800Y1672100D01*
X766100Y1672150D02*
X766100Y1657850D01*
X766100Y1672150D02*
X770600Y1672150D01*
X770600Y1657850D01*
X766100Y1657850D01*
X766100Y1659275D02*
X770600Y1659275D01*
X770600Y1660700D02*
X766100Y1660700D01*
X766100Y1662125D02*
X770600Y1662125D01*
X770600Y1663550D02*
X766100Y1663550D01*
X766100Y1664975D02*
X770600Y1664975D01*
X770600Y1666400D02*
X766100Y1666400D01*
X766100Y1667825D02*
X770600Y1667825D01*
X770600Y1669250D02*
X766100Y1669250D01*
X766100Y1670675D02*
X770600Y1670675D01*
X770600Y1672100D02*
X766100Y1672100D01*
X753400Y1672150D02*
X753400Y1657850D01*
X753400Y1672150D02*
X757900Y1672150D01*
X757900Y1657850D01*
X753400Y1657850D01*
X753400Y1659275D02*
X757900Y1659275D01*
X757900Y1660700D02*
X753400Y1660700D01*
X753400Y1662125D02*
X757900Y1662125D01*
X757900Y1663550D02*
X753400Y1663550D01*
X753400Y1664975D02*
X757900Y1664975D01*
X757900Y1666400D02*
X753400Y1666400D01*
X753400Y1667825D02*
X757900Y1667825D01*
X757900Y1669250D02*
X753400Y1669250D01*
X753400Y1670675D02*
X757900Y1670675D01*
X757900Y1672100D02*
X753400Y1672100D01*
X753400Y1618750D02*
X753400Y1604450D01*
X753400Y1618750D02*
X757900Y1618750D01*
X757900Y1604450D01*
X753400Y1604450D01*
X753400Y1605875D02*
X757900Y1605875D01*
X757900Y1607300D02*
X753400Y1607300D01*
X753400Y1608725D02*
X757900Y1608725D01*
X757900Y1610150D02*
X753400Y1610150D01*
X753400Y1611575D02*
X757900Y1611575D01*
X757900Y1613000D02*
X753400Y1613000D01*
X753400Y1614425D02*
X757900Y1614425D01*
X757900Y1615850D02*
X753400Y1615850D01*
X753400Y1617275D02*
X757900Y1617275D01*
X757900Y1618700D02*
X753400Y1618700D01*
X766100Y1618750D02*
X766100Y1604450D01*
X766100Y1618750D02*
X770600Y1618750D01*
X770600Y1604450D01*
X766100Y1604450D01*
X766100Y1605875D02*
X770600Y1605875D01*
X770600Y1607300D02*
X766100Y1607300D01*
X766100Y1608725D02*
X770600Y1608725D01*
X770600Y1610150D02*
X766100Y1610150D01*
X766100Y1611575D02*
X770600Y1611575D01*
X770600Y1613000D02*
X766100Y1613000D01*
X766100Y1614425D02*
X770600Y1614425D01*
X770600Y1615850D02*
X766100Y1615850D01*
X766100Y1617275D02*
X770600Y1617275D01*
X770600Y1618700D02*
X766100Y1618700D01*
X778800Y1618750D02*
X778800Y1604450D01*
X778800Y1618750D02*
X783300Y1618750D01*
X783300Y1604450D01*
X778800Y1604450D01*
X778800Y1605875D02*
X783300Y1605875D01*
X783300Y1607300D02*
X778800Y1607300D01*
X778800Y1608725D02*
X783300Y1608725D01*
X783300Y1610150D02*
X778800Y1610150D01*
X778800Y1611575D02*
X783300Y1611575D01*
X783300Y1613000D02*
X778800Y1613000D01*
X778800Y1614425D02*
X783300Y1614425D01*
X783300Y1615850D02*
X778800Y1615850D01*
X778800Y1617275D02*
X783300Y1617275D01*
X783300Y1618700D02*
X778800Y1618700D01*
X791500Y1618750D02*
X791500Y1604450D01*
X791500Y1618750D02*
X796000Y1618750D01*
X796000Y1604450D01*
X791500Y1604450D01*
X791500Y1605875D02*
X796000Y1605875D01*
X796000Y1607300D02*
X791500Y1607300D01*
X791500Y1608725D02*
X796000Y1608725D01*
X796000Y1610150D02*
X791500Y1610150D01*
X791500Y1611575D02*
X796000Y1611575D01*
X796000Y1613000D02*
X791500Y1613000D01*
X791500Y1614425D02*
X796000Y1614425D01*
X796000Y1615850D02*
X791500Y1615850D01*
X791500Y1617275D02*
X796000Y1617275D01*
X796000Y1618700D02*
X791500Y1618700D01*
D20*
X891540Y1122680D03*
D21*
X902990Y1114130D02*
X909790Y1114130D01*
X909790Y1111730D01*
X902990Y1111730D01*
X902990Y1114130D01*
X902990Y1112490D02*
X909790Y1112490D01*
X909790Y1113250D02*
X902990Y1113250D01*
X902990Y1114010D02*
X909790Y1114010D01*
X909790Y1120630D02*
X902990Y1120630D01*
X909790Y1120630D02*
X909790Y1118230D01*
X902990Y1118230D01*
X902990Y1120630D01*
X902990Y1118990D02*
X909790Y1118990D01*
X909790Y1119750D02*
X902990Y1119750D01*
X902990Y1120510D02*
X909790Y1120510D01*
X909790Y1127130D02*
X902990Y1127130D01*
X909790Y1127130D02*
X909790Y1124730D01*
X902990Y1124730D01*
X902990Y1127130D01*
X902990Y1125490D02*
X909790Y1125490D01*
X909790Y1126250D02*
X902990Y1126250D01*
X902990Y1127010D02*
X909790Y1127010D01*
X909790Y1133630D02*
X902990Y1133630D01*
X909790Y1133630D02*
X909790Y1131230D01*
X902990Y1131230D01*
X902990Y1133630D01*
X902990Y1131990D02*
X909790Y1131990D01*
X909790Y1132750D02*
X902990Y1132750D01*
X902990Y1133510D02*
X909790Y1133510D01*
X880090Y1133630D02*
X873290Y1133630D01*
X880090Y1133630D02*
X880090Y1131230D01*
X873290Y1131230D01*
X873290Y1133630D01*
X873290Y1131990D02*
X880090Y1131990D01*
X880090Y1132750D02*
X873290Y1132750D01*
X873290Y1133510D02*
X880090Y1133510D01*
X880090Y1127130D02*
X873290Y1127130D01*
X880090Y1127130D02*
X880090Y1124730D01*
X873290Y1124730D01*
X873290Y1127130D01*
X873290Y1125490D02*
X880090Y1125490D01*
X880090Y1126250D02*
X873290Y1126250D01*
X873290Y1127010D02*
X880090Y1127010D01*
X880090Y1120630D02*
X873290Y1120630D01*
X880090Y1120630D02*
X880090Y1118230D01*
X873290Y1118230D01*
X873290Y1120630D01*
X873290Y1118990D02*
X880090Y1118990D01*
X880090Y1119750D02*
X873290Y1119750D01*
X873290Y1120510D02*
X880090Y1120510D01*
X880090Y1114130D02*
X873290Y1114130D01*
X880090Y1114130D02*
X880090Y1111730D01*
X873290Y1111730D01*
X873290Y1114130D01*
X873290Y1112490D02*
X880090Y1112490D01*
X880090Y1113250D02*
X873290Y1113250D01*
X873290Y1114010D02*
X880090Y1114010D01*
D20*
X891540Y1169670D03*
D21*
X902990Y1161120D02*
X909790Y1161120D01*
X909790Y1158720D01*
X902990Y1158720D01*
X902990Y1161120D01*
X902990Y1159480D02*
X909790Y1159480D01*
X909790Y1160240D02*
X902990Y1160240D01*
X902990Y1161000D02*
X909790Y1161000D01*
X909790Y1167620D02*
X902990Y1167620D01*
X909790Y1167620D02*
X909790Y1165220D01*
X902990Y1165220D01*
X902990Y1167620D01*
X902990Y1165980D02*
X909790Y1165980D01*
X909790Y1166740D02*
X902990Y1166740D01*
X902990Y1167500D02*
X909790Y1167500D01*
X909790Y1174120D02*
X902990Y1174120D01*
X909790Y1174120D02*
X909790Y1171720D01*
X902990Y1171720D01*
X902990Y1174120D01*
X902990Y1172480D02*
X909790Y1172480D01*
X909790Y1173240D02*
X902990Y1173240D01*
X902990Y1174000D02*
X909790Y1174000D01*
X909790Y1180620D02*
X902990Y1180620D01*
X909790Y1180620D02*
X909790Y1178220D01*
X902990Y1178220D01*
X902990Y1180620D01*
X902990Y1178980D02*
X909790Y1178980D01*
X909790Y1179740D02*
X902990Y1179740D01*
X902990Y1180500D02*
X909790Y1180500D01*
X880090Y1180620D02*
X873290Y1180620D01*
X880090Y1180620D02*
X880090Y1178220D01*
X873290Y1178220D01*
X873290Y1180620D01*
X873290Y1178980D02*
X880090Y1178980D01*
X880090Y1179740D02*
X873290Y1179740D01*
X873290Y1180500D02*
X880090Y1180500D01*
X880090Y1174120D02*
X873290Y1174120D01*
X880090Y1174120D02*
X880090Y1171720D01*
X873290Y1171720D01*
X873290Y1174120D01*
X873290Y1172480D02*
X880090Y1172480D01*
X880090Y1173240D02*
X873290Y1173240D01*
X873290Y1174000D02*
X880090Y1174000D01*
X880090Y1167620D02*
X873290Y1167620D01*
X880090Y1167620D02*
X880090Y1165220D01*
X873290Y1165220D01*
X873290Y1167620D01*
X873290Y1165980D02*
X880090Y1165980D01*
X880090Y1166740D02*
X873290Y1166740D01*
X873290Y1167500D02*
X880090Y1167500D01*
X880090Y1161120D02*
X873290Y1161120D01*
X880090Y1161120D02*
X880090Y1158720D01*
X873290Y1158720D01*
X873290Y1161120D01*
X873290Y1159480D02*
X880090Y1159480D01*
X880090Y1160240D02*
X873290Y1160240D01*
X873290Y1161000D02*
X880090Y1161000D01*
D13*
X844260Y1281920D02*
X844260Y1300120D01*
X844260Y1281920D02*
X839760Y1281920D01*
X839760Y1300120D01*
X844260Y1300120D01*
X844260Y1283345D02*
X839760Y1283345D01*
X839760Y1284770D02*
X844260Y1284770D01*
X844260Y1286195D02*
X839760Y1286195D01*
X839760Y1287620D02*
X844260Y1287620D01*
X844260Y1289045D02*
X839760Y1289045D01*
X839760Y1290470D02*
X844260Y1290470D01*
X844260Y1291895D02*
X839760Y1291895D01*
X839760Y1293320D02*
X844260Y1293320D01*
X844260Y1294745D02*
X839760Y1294745D01*
X839760Y1296170D02*
X844260Y1296170D01*
X844260Y1297595D02*
X839760Y1297595D01*
X839760Y1299020D02*
X844260Y1299020D01*
X856960Y1300120D02*
X856960Y1281920D01*
X852460Y1281920D01*
X852460Y1300120D01*
X856960Y1300120D01*
X856960Y1283345D02*
X852460Y1283345D01*
X852460Y1284770D02*
X856960Y1284770D01*
X856960Y1286195D02*
X852460Y1286195D01*
X852460Y1287620D02*
X856960Y1287620D01*
X856960Y1289045D02*
X852460Y1289045D01*
X852460Y1290470D02*
X856960Y1290470D01*
X856960Y1291895D02*
X852460Y1291895D01*
X852460Y1293320D02*
X856960Y1293320D01*
X856960Y1294745D02*
X852460Y1294745D01*
X852460Y1296170D02*
X856960Y1296170D01*
X856960Y1297595D02*
X852460Y1297595D01*
X852460Y1299020D02*
X856960Y1299020D01*
X869660Y1300120D02*
X869660Y1281920D01*
X865160Y1281920D01*
X865160Y1300120D01*
X869660Y1300120D01*
X869660Y1283345D02*
X865160Y1283345D01*
X865160Y1284770D02*
X869660Y1284770D01*
X869660Y1286195D02*
X865160Y1286195D01*
X865160Y1287620D02*
X869660Y1287620D01*
X869660Y1289045D02*
X865160Y1289045D01*
X865160Y1290470D02*
X869660Y1290470D01*
X869660Y1291895D02*
X865160Y1291895D01*
X865160Y1293320D02*
X869660Y1293320D01*
X869660Y1294745D02*
X865160Y1294745D01*
X865160Y1296170D02*
X869660Y1296170D01*
X869660Y1297595D02*
X865160Y1297595D01*
X865160Y1299020D02*
X869660Y1299020D01*
X882360Y1300120D02*
X882360Y1281920D01*
X877860Y1281920D01*
X877860Y1300120D01*
X882360Y1300120D01*
X882360Y1283345D02*
X877860Y1283345D01*
X877860Y1284770D02*
X882360Y1284770D01*
X882360Y1286195D02*
X877860Y1286195D01*
X877860Y1287620D02*
X882360Y1287620D01*
X882360Y1289045D02*
X877860Y1289045D01*
X877860Y1290470D02*
X882360Y1290470D01*
X882360Y1291895D02*
X877860Y1291895D01*
X877860Y1293320D02*
X882360Y1293320D01*
X882360Y1294745D02*
X877860Y1294745D01*
X877860Y1296170D02*
X882360Y1296170D01*
X882360Y1297595D02*
X877860Y1297595D01*
X877860Y1299020D02*
X882360Y1299020D01*
X882360Y1331320D02*
X882360Y1349520D01*
X882360Y1331320D02*
X877860Y1331320D01*
X877860Y1349520D01*
X882360Y1349520D01*
X882360Y1332745D02*
X877860Y1332745D01*
X877860Y1334170D02*
X882360Y1334170D01*
X882360Y1335595D02*
X877860Y1335595D01*
X877860Y1337020D02*
X882360Y1337020D01*
X882360Y1338445D02*
X877860Y1338445D01*
X877860Y1339870D02*
X882360Y1339870D01*
X882360Y1341295D02*
X877860Y1341295D01*
X877860Y1342720D02*
X882360Y1342720D01*
X882360Y1344145D02*
X877860Y1344145D01*
X877860Y1345570D02*
X882360Y1345570D01*
X882360Y1346995D02*
X877860Y1346995D01*
X877860Y1348420D02*
X882360Y1348420D01*
X869660Y1349520D02*
X869660Y1331320D01*
X865160Y1331320D01*
X865160Y1349520D01*
X869660Y1349520D01*
X869660Y1332745D02*
X865160Y1332745D01*
X865160Y1334170D02*
X869660Y1334170D01*
X869660Y1335595D02*
X865160Y1335595D01*
X865160Y1337020D02*
X869660Y1337020D01*
X869660Y1338445D02*
X865160Y1338445D01*
X865160Y1339870D02*
X869660Y1339870D01*
X869660Y1341295D02*
X865160Y1341295D01*
X865160Y1342720D02*
X869660Y1342720D01*
X869660Y1344145D02*
X865160Y1344145D01*
X865160Y1345570D02*
X869660Y1345570D01*
X869660Y1346995D02*
X865160Y1346995D01*
X865160Y1348420D02*
X869660Y1348420D01*
X856960Y1349520D02*
X856960Y1331320D01*
X852460Y1331320D01*
X852460Y1349520D01*
X856960Y1349520D01*
X856960Y1332745D02*
X852460Y1332745D01*
X852460Y1334170D02*
X856960Y1334170D01*
X856960Y1335595D02*
X852460Y1335595D01*
X852460Y1337020D02*
X856960Y1337020D01*
X856960Y1338445D02*
X852460Y1338445D01*
X852460Y1339870D02*
X856960Y1339870D01*
X856960Y1341295D02*
X852460Y1341295D01*
X852460Y1342720D02*
X856960Y1342720D01*
X856960Y1344145D02*
X852460Y1344145D01*
X852460Y1345570D02*
X856960Y1345570D01*
X856960Y1346995D02*
X852460Y1346995D01*
X852460Y1348420D02*
X856960Y1348420D01*
X844260Y1349520D02*
X844260Y1331320D01*
X839760Y1331320D01*
X839760Y1349520D01*
X844260Y1349520D01*
X844260Y1332745D02*
X839760Y1332745D01*
X839760Y1334170D02*
X844260Y1334170D01*
X844260Y1335595D02*
X839760Y1335595D01*
X839760Y1337020D02*
X844260Y1337020D01*
X844260Y1338445D02*
X839760Y1338445D01*
X839760Y1339870D02*
X844260Y1339870D01*
X844260Y1341295D02*
X839760Y1341295D01*
X839760Y1342720D02*
X844260Y1342720D01*
X844260Y1344145D02*
X839760Y1344145D01*
X839760Y1345570D02*
X844260Y1345570D01*
X844260Y1346995D02*
X839760Y1346995D01*
X839760Y1348420D02*
X844260Y1348420D01*
X849920Y1542140D02*
X849920Y1560340D01*
X854420Y1560340D01*
X854420Y1542140D01*
X849920Y1542140D01*
X849920Y1543565D02*
X854420Y1543565D01*
X854420Y1544990D02*
X849920Y1544990D01*
X849920Y1546415D02*
X854420Y1546415D01*
X854420Y1547840D02*
X849920Y1547840D01*
X849920Y1549265D02*
X854420Y1549265D01*
X854420Y1550690D02*
X849920Y1550690D01*
X849920Y1552115D02*
X854420Y1552115D01*
X854420Y1553540D02*
X849920Y1553540D01*
X849920Y1554965D02*
X854420Y1554965D01*
X854420Y1556390D02*
X849920Y1556390D01*
X849920Y1557815D02*
X854420Y1557815D01*
X854420Y1559240D02*
X849920Y1559240D01*
X837220Y1560340D02*
X837220Y1542140D01*
X837220Y1560340D02*
X841720Y1560340D01*
X841720Y1542140D01*
X837220Y1542140D01*
X837220Y1543565D02*
X841720Y1543565D01*
X841720Y1544990D02*
X837220Y1544990D01*
X837220Y1546415D02*
X841720Y1546415D01*
X841720Y1547840D02*
X837220Y1547840D01*
X837220Y1549265D02*
X841720Y1549265D01*
X841720Y1550690D02*
X837220Y1550690D01*
X837220Y1552115D02*
X841720Y1552115D01*
X841720Y1553540D02*
X837220Y1553540D01*
X837220Y1554965D02*
X841720Y1554965D01*
X841720Y1556390D02*
X837220Y1556390D01*
X837220Y1557815D02*
X841720Y1557815D01*
X841720Y1559240D02*
X837220Y1559240D01*
X824520Y1560340D02*
X824520Y1542140D01*
X824520Y1560340D02*
X829020Y1560340D01*
X829020Y1542140D01*
X824520Y1542140D01*
X824520Y1543565D02*
X829020Y1543565D01*
X829020Y1544990D02*
X824520Y1544990D01*
X824520Y1546415D02*
X829020Y1546415D01*
X829020Y1547840D02*
X824520Y1547840D01*
X824520Y1549265D02*
X829020Y1549265D01*
X829020Y1550690D02*
X824520Y1550690D01*
X824520Y1552115D02*
X829020Y1552115D01*
X829020Y1553540D02*
X824520Y1553540D01*
X824520Y1554965D02*
X829020Y1554965D01*
X829020Y1556390D02*
X824520Y1556390D01*
X824520Y1557815D02*
X829020Y1557815D01*
X829020Y1559240D02*
X824520Y1559240D01*
X811820Y1560340D02*
X811820Y1542140D01*
X811820Y1560340D02*
X816320Y1560340D01*
X816320Y1542140D01*
X811820Y1542140D01*
X811820Y1543565D02*
X816320Y1543565D01*
X816320Y1544990D02*
X811820Y1544990D01*
X811820Y1546415D02*
X816320Y1546415D01*
X816320Y1547840D02*
X811820Y1547840D01*
X811820Y1549265D02*
X816320Y1549265D01*
X816320Y1550690D02*
X811820Y1550690D01*
X811820Y1552115D02*
X816320Y1552115D01*
X816320Y1553540D02*
X811820Y1553540D01*
X811820Y1554965D02*
X816320Y1554965D01*
X816320Y1556390D02*
X811820Y1556390D01*
X811820Y1557815D02*
X816320Y1557815D01*
X816320Y1559240D02*
X811820Y1559240D01*
X811820Y1510940D02*
X811820Y1492740D01*
X811820Y1510940D02*
X816320Y1510940D01*
X816320Y1492740D01*
X811820Y1492740D01*
X811820Y1494165D02*
X816320Y1494165D01*
X816320Y1495590D02*
X811820Y1495590D01*
X811820Y1497015D02*
X816320Y1497015D01*
X816320Y1498440D02*
X811820Y1498440D01*
X811820Y1499865D02*
X816320Y1499865D01*
X816320Y1501290D02*
X811820Y1501290D01*
X811820Y1502715D02*
X816320Y1502715D01*
X816320Y1504140D02*
X811820Y1504140D01*
X811820Y1505565D02*
X816320Y1505565D01*
X816320Y1506990D02*
X811820Y1506990D01*
X811820Y1508415D02*
X816320Y1508415D01*
X816320Y1509840D02*
X811820Y1509840D01*
X824520Y1510940D02*
X824520Y1492740D01*
X824520Y1510940D02*
X829020Y1510940D01*
X829020Y1492740D01*
X824520Y1492740D01*
X824520Y1494165D02*
X829020Y1494165D01*
X829020Y1495590D02*
X824520Y1495590D01*
X824520Y1497015D02*
X829020Y1497015D01*
X829020Y1498440D02*
X824520Y1498440D01*
X824520Y1499865D02*
X829020Y1499865D01*
X829020Y1501290D02*
X824520Y1501290D01*
X824520Y1502715D02*
X829020Y1502715D01*
X829020Y1504140D02*
X824520Y1504140D01*
X824520Y1505565D02*
X829020Y1505565D01*
X829020Y1506990D02*
X824520Y1506990D01*
X824520Y1508415D02*
X829020Y1508415D01*
X829020Y1509840D02*
X824520Y1509840D01*
X837220Y1510940D02*
X837220Y1492740D01*
X837220Y1510940D02*
X841720Y1510940D01*
X841720Y1492740D01*
X837220Y1492740D01*
X837220Y1494165D02*
X841720Y1494165D01*
X841720Y1495590D02*
X837220Y1495590D01*
X837220Y1497015D02*
X841720Y1497015D01*
X841720Y1498440D02*
X837220Y1498440D01*
X837220Y1499865D02*
X841720Y1499865D01*
X841720Y1501290D02*
X837220Y1501290D01*
X837220Y1502715D02*
X841720Y1502715D01*
X841720Y1504140D02*
X837220Y1504140D01*
X837220Y1505565D02*
X841720Y1505565D01*
X841720Y1506990D02*
X837220Y1506990D01*
X837220Y1508415D02*
X841720Y1508415D01*
X841720Y1509840D02*
X837220Y1509840D01*
X849920Y1510940D02*
X849920Y1492740D01*
X849920Y1510940D02*
X854420Y1510940D01*
X854420Y1492740D01*
X849920Y1492740D01*
X849920Y1494165D02*
X854420Y1494165D01*
X854420Y1495590D02*
X849920Y1495590D01*
X849920Y1497015D02*
X854420Y1497015D01*
X854420Y1498440D02*
X849920Y1498440D01*
X849920Y1499865D02*
X854420Y1499865D01*
X854420Y1501290D02*
X849920Y1501290D01*
X849920Y1502715D02*
X854420Y1502715D01*
X854420Y1504140D02*
X849920Y1504140D01*
X849920Y1505565D02*
X854420Y1505565D01*
X854420Y1506990D02*
X849920Y1506990D01*
X849920Y1508415D02*
X854420Y1508415D01*
X854420Y1509840D02*
X849920Y1509840D01*
X815050Y1416960D02*
X815050Y1398760D01*
X810550Y1398760D01*
X810550Y1416960D01*
X815050Y1416960D01*
X815050Y1400185D02*
X810550Y1400185D01*
X810550Y1401610D02*
X815050Y1401610D01*
X815050Y1403035D02*
X810550Y1403035D01*
X810550Y1404460D02*
X815050Y1404460D01*
X815050Y1405885D02*
X810550Y1405885D01*
X810550Y1407310D02*
X815050Y1407310D01*
X815050Y1408735D02*
X810550Y1408735D01*
X810550Y1410160D02*
X815050Y1410160D01*
X815050Y1411585D02*
X810550Y1411585D01*
X810550Y1413010D02*
X815050Y1413010D01*
X815050Y1414435D02*
X810550Y1414435D01*
X810550Y1415860D02*
X815050Y1415860D01*
X827750Y1416960D02*
X827750Y1398760D01*
X823250Y1398760D01*
X823250Y1416960D01*
X827750Y1416960D01*
X827750Y1400185D02*
X823250Y1400185D01*
X823250Y1401610D02*
X827750Y1401610D01*
X827750Y1403035D02*
X823250Y1403035D01*
X823250Y1404460D02*
X827750Y1404460D01*
X827750Y1405885D02*
X823250Y1405885D01*
X823250Y1407310D02*
X827750Y1407310D01*
X827750Y1408735D02*
X823250Y1408735D01*
X823250Y1410160D02*
X827750Y1410160D01*
X827750Y1411585D02*
X823250Y1411585D01*
X823250Y1413010D02*
X827750Y1413010D01*
X827750Y1414435D02*
X823250Y1414435D01*
X823250Y1415860D02*
X827750Y1415860D01*
X840450Y1416960D02*
X840450Y1398760D01*
X835950Y1398760D01*
X835950Y1416960D01*
X840450Y1416960D01*
X840450Y1400185D02*
X835950Y1400185D01*
X835950Y1401610D02*
X840450Y1401610D01*
X840450Y1403035D02*
X835950Y1403035D01*
X835950Y1404460D02*
X840450Y1404460D01*
X840450Y1405885D02*
X835950Y1405885D01*
X835950Y1407310D02*
X840450Y1407310D01*
X840450Y1408735D02*
X835950Y1408735D01*
X835950Y1410160D02*
X840450Y1410160D01*
X840450Y1411585D02*
X835950Y1411585D01*
X835950Y1413010D02*
X840450Y1413010D01*
X840450Y1414435D02*
X835950Y1414435D01*
X835950Y1415860D02*
X840450Y1415860D01*
X853150Y1416960D02*
X853150Y1398760D01*
X848650Y1398760D01*
X848650Y1416960D01*
X853150Y1416960D01*
X853150Y1400185D02*
X848650Y1400185D01*
X848650Y1401610D02*
X853150Y1401610D01*
X853150Y1403035D02*
X848650Y1403035D01*
X848650Y1404460D02*
X853150Y1404460D01*
X853150Y1405885D02*
X848650Y1405885D01*
X848650Y1407310D02*
X853150Y1407310D01*
X853150Y1408735D02*
X848650Y1408735D01*
X848650Y1410160D02*
X853150Y1410160D01*
X853150Y1411585D02*
X848650Y1411585D01*
X848650Y1413010D02*
X853150Y1413010D01*
X853150Y1414435D02*
X848650Y1414435D01*
X848650Y1415860D02*
X853150Y1415860D01*
X853150Y1448160D02*
X853150Y1466360D01*
X853150Y1448160D02*
X848650Y1448160D01*
X848650Y1466360D01*
X853150Y1466360D01*
X853150Y1449585D02*
X848650Y1449585D01*
X848650Y1451010D02*
X853150Y1451010D01*
X853150Y1452435D02*
X848650Y1452435D01*
X848650Y1453860D02*
X853150Y1453860D01*
X853150Y1455285D02*
X848650Y1455285D01*
X848650Y1456710D02*
X853150Y1456710D01*
X853150Y1458135D02*
X848650Y1458135D01*
X848650Y1459560D02*
X853150Y1459560D01*
X853150Y1460985D02*
X848650Y1460985D01*
X848650Y1462410D02*
X853150Y1462410D01*
X853150Y1463835D02*
X848650Y1463835D01*
X848650Y1465260D02*
X853150Y1465260D01*
X840450Y1466360D02*
X840450Y1448160D01*
X835950Y1448160D01*
X835950Y1466360D01*
X840450Y1466360D01*
X840450Y1449585D02*
X835950Y1449585D01*
X835950Y1451010D02*
X840450Y1451010D01*
X840450Y1452435D02*
X835950Y1452435D01*
X835950Y1453860D02*
X840450Y1453860D01*
X840450Y1455285D02*
X835950Y1455285D01*
X835950Y1456710D02*
X840450Y1456710D01*
X840450Y1458135D02*
X835950Y1458135D01*
X835950Y1459560D02*
X840450Y1459560D01*
X840450Y1460985D02*
X835950Y1460985D01*
X835950Y1462410D02*
X840450Y1462410D01*
X840450Y1463835D02*
X835950Y1463835D01*
X835950Y1465260D02*
X840450Y1465260D01*
X827750Y1466360D02*
X827750Y1448160D01*
X823250Y1448160D01*
X823250Y1466360D01*
X827750Y1466360D01*
X827750Y1449585D02*
X823250Y1449585D01*
X823250Y1451010D02*
X827750Y1451010D01*
X827750Y1452435D02*
X823250Y1452435D01*
X823250Y1453860D02*
X827750Y1453860D01*
X827750Y1455285D02*
X823250Y1455285D01*
X823250Y1456710D02*
X827750Y1456710D01*
X827750Y1458135D02*
X823250Y1458135D01*
X823250Y1459560D02*
X827750Y1459560D01*
X827750Y1460985D02*
X823250Y1460985D01*
X823250Y1462410D02*
X827750Y1462410D01*
X827750Y1463835D02*
X823250Y1463835D01*
X823250Y1465260D02*
X827750Y1465260D01*
X815050Y1466360D02*
X815050Y1448160D01*
X810550Y1448160D01*
X810550Y1466360D01*
X815050Y1466360D01*
X815050Y1449585D02*
X810550Y1449585D01*
X810550Y1451010D02*
X815050Y1451010D01*
X815050Y1452435D02*
X810550Y1452435D01*
X810550Y1453860D02*
X815050Y1453860D01*
X815050Y1455285D02*
X810550Y1455285D01*
X810550Y1456710D02*
X815050Y1456710D01*
X815050Y1458135D02*
X810550Y1458135D01*
X810550Y1459560D02*
X815050Y1459560D01*
X815050Y1460985D02*
X810550Y1460985D01*
X810550Y1462410D02*
X815050Y1462410D01*
X815050Y1463835D02*
X810550Y1463835D01*
X810550Y1465260D02*
X815050Y1465260D01*
X772450Y1381270D02*
X772450Y1363070D01*
X772450Y1381270D02*
X776950Y1381270D01*
X776950Y1363070D01*
X772450Y1363070D01*
X772450Y1364495D02*
X776950Y1364495D01*
X776950Y1365920D02*
X772450Y1365920D01*
X772450Y1367345D02*
X776950Y1367345D01*
X776950Y1368770D02*
X772450Y1368770D01*
X772450Y1370195D02*
X776950Y1370195D01*
X776950Y1371620D02*
X772450Y1371620D01*
X772450Y1373045D02*
X776950Y1373045D01*
X776950Y1374470D02*
X772450Y1374470D01*
X772450Y1375895D02*
X776950Y1375895D01*
X776950Y1377320D02*
X772450Y1377320D01*
X772450Y1378745D02*
X776950Y1378745D01*
X776950Y1380170D02*
X772450Y1380170D01*
X759750Y1381270D02*
X759750Y1363070D01*
X759750Y1381270D02*
X764250Y1381270D01*
X764250Y1363070D01*
X759750Y1363070D01*
X759750Y1364495D02*
X764250Y1364495D01*
X764250Y1365920D02*
X759750Y1365920D01*
X759750Y1367345D02*
X764250Y1367345D01*
X764250Y1368770D02*
X759750Y1368770D01*
X759750Y1370195D02*
X764250Y1370195D01*
X764250Y1371620D02*
X759750Y1371620D01*
X759750Y1373045D02*
X764250Y1373045D01*
X764250Y1374470D02*
X759750Y1374470D01*
X759750Y1375895D02*
X764250Y1375895D01*
X764250Y1377320D02*
X759750Y1377320D01*
X759750Y1378745D02*
X764250Y1378745D01*
X764250Y1380170D02*
X759750Y1380170D01*
X747050Y1381270D02*
X747050Y1363070D01*
X747050Y1381270D02*
X751550Y1381270D01*
X751550Y1363070D01*
X747050Y1363070D01*
X747050Y1364495D02*
X751550Y1364495D01*
X751550Y1365920D02*
X747050Y1365920D01*
X747050Y1367345D02*
X751550Y1367345D01*
X751550Y1368770D02*
X747050Y1368770D01*
X747050Y1370195D02*
X751550Y1370195D01*
X751550Y1371620D02*
X747050Y1371620D01*
X747050Y1373045D02*
X751550Y1373045D01*
X751550Y1374470D02*
X747050Y1374470D01*
X747050Y1375895D02*
X751550Y1375895D01*
X751550Y1377320D02*
X747050Y1377320D01*
X747050Y1378745D02*
X751550Y1378745D01*
X751550Y1380170D02*
X747050Y1380170D01*
X734350Y1381270D02*
X734350Y1363070D01*
X734350Y1381270D02*
X738850Y1381270D01*
X738850Y1363070D01*
X734350Y1363070D01*
X734350Y1364495D02*
X738850Y1364495D01*
X738850Y1365920D02*
X734350Y1365920D01*
X734350Y1367345D02*
X738850Y1367345D01*
X738850Y1368770D02*
X734350Y1368770D01*
X734350Y1370195D02*
X738850Y1370195D01*
X738850Y1371620D02*
X734350Y1371620D01*
X734350Y1373045D02*
X738850Y1373045D01*
X738850Y1374470D02*
X734350Y1374470D01*
X734350Y1375895D02*
X738850Y1375895D01*
X738850Y1377320D02*
X734350Y1377320D01*
X734350Y1378745D02*
X738850Y1378745D01*
X738850Y1380170D02*
X734350Y1380170D01*
X734350Y1331870D02*
X734350Y1313670D01*
X734350Y1331870D02*
X738850Y1331870D01*
X738850Y1313670D01*
X734350Y1313670D01*
X734350Y1315095D02*
X738850Y1315095D01*
X738850Y1316520D02*
X734350Y1316520D01*
X734350Y1317945D02*
X738850Y1317945D01*
X738850Y1319370D02*
X734350Y1319370D01*
X734350Y1320795D02*
X738850Y1320795D01*
X738850Y1322220D02*
X734350Y1322220D01*
X734350Y1323645D02*
X738850Y1323645D01*
X738850Y1325070D02*
X734350Y1325070D01*
X734350Y1326495D02*
X738850Y1326495D01*
X738850Y1327920D02*
X734350Y1327920D01*
X734350Y1329345D02*
X738850Y1329345D01*
X738850Y1330770D02*
X734350Y1330770D01*
X747050Y1331870D02*
X747050Y1313670D01*
X747050Y1331870D02*
X751550Y1331870D01*
X751550Y1313670D01*
X747050Y1313670D01*
X747050Y1315095D02*
X751550Y1315095D01*
X751550Y1316520D02*
X747050Y1316520D01*
X747050Y1317945D02*
X751550Y1317945D01*
X751550Y1319370D02*
X747050Y1319370D01*
X747050Y1320795D02*
X751550Y1320795D01*
X751550Y1322220D02*
X747050Y1322220D01*
X747050Y1323645D02*
X751550Y1323645D01*
X751550Y1325070D02*
X747050Y1325070D01*
X747050Y1326495D02*
X751550Y1326495D01*
X751550Y1327920D02*
X747050Y1327920D01*
X747050Y1329345D02*
X751550Y1329345D01*
X751550Y1330770D02*
X747050Y1330770D01*
X759750Y1331870D02*
X759750Y1313670D01*
X759750Y1331870D02*
X764250Y1331870D01*
X764250Y1313670D01*
X759750Y1313670D01*
X759750Y1315095D02*
X764250Y1315095D01*
X764250Y1316520D02*
X759750Y1316520D01*
X759750Y1317945D02*
X764250Y1317945D01*
X764250Y1319370D02*
X759750Y1319370D01*
X759750Y1320795D02*
X764250Y1320795D01*
X764250Y1322220D02*
X759750Y1322220D01*
X759750Y1323645D02*
X764250Y1323645D01*
X764250Y1325070D02*
X759750Y1325070D01*
X759750Y1326495D02*
X764250Y1326495D01*
X764250Y1327920D02*
X759750Y1327920D01*
X759750Y1329345D02*
X764250Y1329345D01*
X764250Y1330770D02*
X759750Y1330770D01*
X772450Y1331870D02*
X772450Y1313670D01*
X772450Y1331870D02*
X776950Y1331870D01*
X776950Y1313670D01*
X772450Y1313670D01*
X772450Y1315095D02*
X776950Y1315095D01*
X776950Y1316520D02*
X772450Y1316520D01*
X772450Y1317945D02*
X776950Y1317945D01*
X776950Y1319370D02*
X772450Y1319370D01*
X772450Y1320795D02*
X776950Y1320795D01*
X776950Y1322220D02*
X772450Y1322220D01*
X772450Y1323645D02*
X776950Y1323645D01*
X776950Y1325070D02*
X772450Y1325070D01*
X772450Y1326495D02*
X776950Y1326495D01*
X776950Y1327920D02*
X772450Y1327920D01*
X772450Y1329345D02*
X776950Y1329345D01*
X776950Y1330770D02*
X772450Y1330770D01*
D15*
X777240Y1704340D03*
X831850Y1704340D03*
D12*
X857250Y1137840D03*
X857250Y1127840D03*
D11*
X1032430Y845820D03*
X1022430Y845820D03*
D12*
X1071880Y810340D03*
X1071880Y820340D03*
D11*
X1047830Y845820D03*
X1057830Y845820D03*
D12*
X1060450Y793830D03*
X1060450Y803830D03*
D13*
X1037100Y783300D02*
X1018900Y783300D01*
X1037100Y783300D02*
X1037100Y778800D01*
X1018900Y778800D01*
X1018900Y783300D01*
X1018900Y780225D02*
X1037100Y780225D01*
X1037100Y781650D02*
X1018900Y781650D01*
X1018900Y783075D02*
X1037100Y783075D01*
X1037100Y796000D02*
X1018900Y796000D01*
X1037100Y796000D02*
X1037100Y791500D01*
X1018900Y791500D01*
X1018900Y796000D01*
X1018900Y792925D02*
X1037100Y792925D01*
X1037100Y794350D02*
X1018900Y794350D01*
X1018900Y795775D02*
X1037100Y795775D01*
X1037100Y808700D02*
X1018900Y808700D01*
X1037100Y808700D02*
X1037100Y804200D01*
X1018900Y804200D01*
X1018900Y808700D01*
X1018900Y805625D02*
X1037100Y805625D01*
X1037100Y807050D02*
X1018900Y807050D01*
X1018900Y808475D02*
X1037100Y808475D01*
X1037100Y821400D02*
X1018900Y821400D01*
X1037100Y821400D02*
X1037100Y816900D01*
X1018900Y816900D01*
X1018900Y821400D01*
X1018900Y818325D02*
X1037100Y818325D01*
X1037100Y819750D02*
X1018900Y819750D01*
X1018900Y821175D02*
X1037100Y821175D01*
X987700Y821400D02*
X969500Y821400D01*
X987700Y821400D02*
X987700Y816900D01*
X969500Y816900D01*
X969500Y821400D01*
X969500Y818325D02*
X987700Y818325D01*
X987700Y819750D02*
X969500Y819750D01*
X969500Y821175D02*
X987700Y821175D01*
X987700Y808700D02*
X969500Y808700D01*
X987700Y808700D02*
X987700Y804200D01*
X969500Y804200D01*
X969500Y808700D01*
X969500Y805625D02*
X987700Y805625D01*
X987700Y807050D02*
X969500Y807050D01*
X969500Y808475D02*
X987700Y808475D01*
X987700Y796000D02*
X969500Y796000D01*
X987700Y796000D02*
X987700Y791500D01*
X969500Y791500D01*
X969500Y796000D01*
X969500Y792925D02*
X987700Y792925D01*
X987700Y794350D02*
X969500Y794350D01*
X969500Y795775D02*
X987700Y795775D01*
X987700Y783300D02*
X969500Y783300D01*
X987700Y783300D02*
X987700Y778800D01*
X969500Y778800D01*
X969500Y783300D01*
X969500Y780225D02*
X987700Y780225D01*
X987700Y781650D02*
X969500Y781650D01*
X969500Y783075D02*
X987700Y783075D01*
D22*
X1064260Y770890D03*
D23*
X1049020Y824230D03*
X330200Y685800D03*
X292100Y787400D03*
X254000Y571500D03*
X-127000Y800100D03*
X-152400Y914400D03*
X317500Y812800D03*
X622300Y596900D03*
X533400Y673100D03*
X127000Y927100D03*
X-76200Y1041400D03*
X749300Y990600D03*
X431800Y1054100D03*
X444500Y965200D03*
X800100Y901700D03*
X-152400Y952500D03*
X177800Y901700D03*
M02*
