M48
;GenerationSoftware,Autodesk,EAGLE,9.6.2*%
;CreationDate,2023-11-08T04:01:22Z*%
FMAT,2
ICI,OFF
METRIC,TZ,000.000
T3C0.508
T2C0.991
%
G90
M71
T2
X1778Y122936
X25908Y124206
X25908Y121666
X25908Y119126
X25908Y116586
X25908Y114046
X25908Y111506
X25908Y108966
X18288Y108966
X18288Y111506
X18288Y114046
X18288Y116586
X18288Y119126
X18288Y121666
X18288Y124206
X80518Y126746
X1778Y120396
X1778Y117856
X1778Y115316
X1778Y112776
X1778Y110236
X1778Y107696
X-5842Y107696
X-5842Y110236
X-5842Y112776
X-5842Y115316
X-5842Y117856
X-5842Y120396
X-5842Y122936
X44958Y121666
X44958Y124206
X80518Y124206
X80518Y121666
X80518Y119126
X80518Y116586
X80518Y114046
X80518Y111506
X72898Y111506
X72898Y114046
X72898Y116586
X72898Y119126
X72898Y121666
X72898Y124206
X52578Y124206
X72898Y126746
X44958Y119126
X44958Y116586
X44958Y114046
X44958Y111506
X44958Y108966
X52578Y108966
X52578Y111506
X52578Y114046
X52578Y116586
X52578Y119126
X52578Y121666
T3
X11430Y62230
X72390Y74930
X27940Y57150
X55880Y57150
X-12065Y95885
X59322Y176149
X74930Y49530
X31750Y50800
X55753Y59817
X47625Y97155
X60198Y185420
X69850Y101600
X63500Y165100
X54610Y63500
X60706Y176149
X92383Y97663
X31392Y62230
X12668Y63119
X73628Y64389
X34290Y184277
X10160Y165100
X-12065Y93345
X29464Y162433
X-762Y160909
X23368Y162179
X56134Y162433
X50038Y162179
X84074Y164973
X77978Y164719
X10160Y60071
X71120Y76200
X24765Y95885
X76708Y164592
X47625Y94615
X88265Y97155
X4064Y161163
X-2032Y160782
X28194Y162433
X22098Y162052
X54864Y162433
X48768Y162052
X82804Y164973
X64008Y113792
X45593Y175641
X90170Y176705
X100330Y80010
X98425Y72136
X91948Y116332
X91730Y111649
X13208Y112522
X12990Y107839
X37338Y113792
X37120Y109109
X88646Y170434
X63790Y109109
X91821Y117729
X91730Y112903
X13081Y113919
X12990Y109093
X37211Y115189
X37120Y110363
X63881Y115189
X63790Y110363
X53010Y184277
X50292Y185039
X43434Y185166
X36068Y174752
X33195Y164894
X51689Y176022
X44069Y175768
X36957Y184404
X39370Y160020
X59610Y167688
X7794Y164894
X68580Y185420
X45720Y184912
X60960Y168148
X69850Y185420
X36449Y176403
X44450Y171450
X86662Y171625
X53467Y176149
X69850Y175260
X-8001Y84031
X1707Y155194
X5461Y128016
X2553Y143948
X-1270Y130175
X69559Y64770
X8599Y63500
X92329Y87841
X51689Y85301
X22860Y131445
X28829Y86571
X74267Y71120
X94615Y74930
X96774Y68072
X52553Y185903
X44501Y185420
X35560Y185293
X25400Y172720
X77470Y133985
X31496Y57150
X51689Y61595
X51435Y56642
X106934Y78359
X41529Y53467
X80447Y159004
X84201Y131826
X81293Y147758
X100965Y81661
X52253Y156591
X56261Y129286
X53353Y145218
X49530Y131445
X25837Y156464
X29591Y129286
X26683Y145218
X8128Y137033
X33528Y124333
X32258Y138303
X17145Y136017
X26924Y150876
X26922Y162308
X8484Y110674
X10795Y115316
X9398Y123063
X34925Y116586
X-6985Y134747
X2794Y149606
X2792Y161038
X68326Y71374
X10160Y69850
X92033Y95923
X51393Y93383
X-8297Y92113
X59284Y111944
X45720Y64770
X87224Y114484
X89535Y119126
X88138Y126873
X86868Y140843
X71755Y138557
X81534Y153416
X81533Y164848
X31496Y60960
X61595Y116586
X60198Y124333
X58928Y138303
X43815Y136017
X53594Y150876
X53592Y162308
X32614Y111944
X54231Y129538
X86440Y148314
X83947Y162560
X71120Y129032
X84582Y116197
X48895Y155702
X63881Y116967
X62484Y107696
X63334Y112561
X85804Y142319
X57864Y139779
X58499Y145774
X56007Y160020
X43180Y126492
X56642Y113657
X22225Y155702
X37211Y116967
X35814Y107696
X24765Y98425
X5334Y161163
X88265Y98425
X47625Y95885
X-12065Y94615
X24765Y97155
X62230Y167640
X68580Y102870
X58293Y185293
X36664Y112561
X31750Y64770
X96139Y80010
X76835Y158242
X91821Y119507
X90424Y110236
X91274Y115101
X82171Y132078
X-2667Y89154
X97663Y92837
X93472Y90678
X96266Y102997
X46990Y88900
X57150Y90424
X52832Y88138
X53340Y99314
X-12700Y87630
X87630Y91440
X-6858Y86868
X-6350Y98044
X24130Y90170
X34163Y91567
X29972Y89408
X30480Y100584
X41910Y56007
X11684Y106426
X27561Y129538
X31194Y139779
X31829Y145774
X29337Y160020
X16510Y126492
X29972Y113657
X-1905Y154432
X13081Y115697
X28533Y94653
X12534Y111291
X3431Y128268
X7064Y138509
X7699Y144504
X5207Y158750
X-7620Y125222
X5842Y112387
M30