M48
;GenerationSoftware,Autodesk,EAGLE,9.6.2*%
;CreationDate,2023-10-23T19:35:11Z*%
FMAT,2
ICI,OFF
METRIC,TZ,000.000
T2C0.508
%
G90
M71
T2
X78105Y30480
X59690Y8890
X91440Y-11430
X104140Y-10160
X79375Y-7620
X75184Y-11684
X96520Y10160
X69850Y15240
X119380Y10160
X134368Y-11682
X58420Y46990
X90170Y26670
X102870Y27940
X44577Y51435
X73914Y26416
X95250Y48260
X68580Y53340
X118110Y48260
X133098Y26417
X29210Y24130
X182626Y34163
X185166Y17653
X148839Y4569
X160020Y6350
X148839Y26159
X160020Y27940
M30