M48
;GenerationSoftware,Autodesk,EAGLE,9.6.2*%
;CreationDate,2023-10-23T19:35:11Z*%
FMAT,2
ICI,OFF
METRIC,TZ,000.000
T2C0.508
%
G90
M71
T2
X74930Y-1024
X76835Y-8001
X78740Y-15240
X96520Y-3810
X109023Y368
X128270Y-2540
X87630Y3810
X80010Y5080
X87632Y-9396
X105616Y-9096
X109070Y-7064
X129540Y-17780
X128270Y7620
X121920Y12700
X85090Y13970
X73660Y37076
X75565Y30099
X77470Y22860
X95250Y34290
X107753Y38468
X127000Y35560
X86360Y41910
X78740Y43180
X86362Y28704
X104346Y29004
X107800Y31035
X128270Y20320
X127000Y45720
X120650Y50800
X83820Y52070
M30