M48
;GenerationSoftware,Autodesk,EAGLE,9.6.2*%
;CreationDate,2023-10-23T23:45:59Z*%
FMAT,2
ICI,OFF
METRIC,TZ,000.000
T3C0.508
T2C0.991
%
G90
M71
T2
X96774Y19558
X69596Y40132
X67056Y40132
X64516Y40132
X61976Y40132
X59436Y40132
X56896Y40132
X54356Y40132
X54356Y47752
X56896Y47752
X59436Y47752
X61976Y47752
X64516Y47752
X67056Y47752
X69596Y47752
X69596Y84582
X99314Y19558
X101854Y19558
X104394Y19558
X106934Y19558
X109474Y19558
X112014Y19558
X112014Y11938
X109474Y11938
X106934Y11938
X104394Y11938
X101854Y11938
X99314Y11938
X96774Y11938
X99314Y56388
X96774Y56388
X67056Y84582
X64516Y84582
X61976Y84582
X59436Y84582
X56896Y84582
X54356Y84582
X54356Y92202
X56896Y92202
X59436Y92202
X61976Y92202
X64516Y92202
X67056Y92202
X96774Y64008
X69596Y92202
X101854Y56388
X104394Y56388
X106934Y56388
X109474Y56388
X112014Y56388
X112014Y64008
X109474Y64008
X106934Y64008
X104394Y64008
X101854Y64008
X99314Y64008
T3
X12700Y79031
X49319Y98679
X3810Y29210
X107743Y35386
X107696Y41275
X14351Y29210
X16510Y27940
X17399Y26702
X24130Y29210
X38222Y8125
X41360Y11849
X48011Y52581
X44873Y48857
X18796Y102743
X37084Y38862
X34925Y45720
X8255Y6731
X17269Y58171
X113792Y73025
X39751Y56939
X46482Y3767
X13970Y96520
X14224Y3429
X89535Y60960
X60706Y62992
X75762Y64783
X91694Y67691
X104013Y75311
X12911Y49911
X108284Y74755
X76835Y87630
X105664Y85598
X90608Y83807
X74676Y80899
X62357Y73279
X52578Y75565
X58086Y73835
X58626Y68755
X37592Y70104
X37846Y53594
X36957Y61087
X45974Y68453
X45847Y52273
X46482Y59690
X37973Y68961
X37719Y52451
X37211Y59817
X46736Y61976
X58674Y62865
X107743Y79836
X107696Y85725
X24765Y53975
X9271Y77470
X11430Y76200
X12319Y74962
X37465Y94615
X35560Y33401
X19050Y77470
X44961Y90419
X41237Y93557
X10033Y24384
X42418Y15621
X35560Y42926
X33528Y41402
X33655Y34798
X20993Y55033
X38735Y42926
X7620Y5080
X36830Y74930
X48260Y52070
X46990Y60909
X46863Y69850
X45847Y71120
X46609Y55118
X8444Y26785
X43815Y46355
X42418Y14351
X107569Y42672
X107823Y36576
X58801Y17018
X58547Y23114
X4445Y36449
X9398Y36195
X58547Y67564
X35306Y100330
X26924Y48260
X74928Y82929
X85169Y79296
X91163Y78661
X105410Y81153
X101092Y88265
X102235Y85725
X58801Y61468
X107823Y81026
X107569Y87122
X23495Y53975
X38735Y94615
X58626Y24304
X43815Y45085
X58674Y18415
X58547Y21844
X58928Y15748
X107823Y37846
X107442Y43942
X41148Y13081
X45085Y47625
X58547Y66294
X48133Y17780
X94488Y10160
X64135Y18415
X65278Y15875
X60960Y22987
X75207Y25479
X81201Y24844
X91442Y21211
X59047Y36068
X71882Y49530
X102235Y41275
X101092Y43815
X105410Y36703
X91163Y34211
X85169Y34846
X74928Y38479
X58928Y60198
X38100Y42926
X16395Y101154
X6985Y102108
X6731Y97155
X3429Y5080
X107323Y68072
X94488Y54610
X64135Y62865
X65278Y60325
X60960Y67437
X75207Y69930
X81201Y69294
X91442Y65661
X59047Y80518
X71882Y93980
X57334Y77876
X61976Y31115
X57334Y33426
X58672Y65022
X70104Y65024
X84963Y55245
X82677Y70358
X96647Y71628
X104394Y73025
X109036Y70714
X107697Y83568
X96266Y83566
X81407Y93345
X83693Y78232
X69723Y76962
X61976Y75565
X69723Y32512
X89535Y16510
X60706Y18542
X75762Y20333
X91694Y23241
X104013Y30861
X113792Y28575
X108284Y30305
X76835Y43180
X105664Y41148
X90608Y39357
X74676Y36449
X62357Y28829
X52578Y31115
X58086Y29385
X17780Y30771
X55753Y28920
X107823Y82296
X107442Y88392
X22225Y55245
X40005Y93345
X107188Y30988
X111871Y30770
X59182Y28702
X54499Y28920
X107188Y75438
X111871Y75220
X59182Y73152
X54499Y73370
X105791Y30861
X110617Y30770
X60579Y28829
X107323Y23622
X105791Y75311
X110617Y75220
X60579Y73279
X55753Y73370
X58672Y20573
X70104Y20574
X84963Y10795
X82677Y25908
X96647Y27178
X104394Y28575
X109036Y26264
X107697Y39118
X96266Y39116
X81407Y48895
X83693Y33782
M30